<?xml version="1.0" encoding="utf-8"?>
<!DOCTYPE svg PUBLIC "-//W3C//DTD SVG 1.1//EN" "http://www.w3.org/Graphics/SVG/1.1/DTD/svg11.dtd">
<svg version="1.1" id="Ebene_1" xmlns="http://www.w3.org/2000/svg" xmlns:xlink="http://www.w3.org/1999/xlink" x="0px" y="0px"
	 width="100%" height="100%" viewBox="0 530 841.889 60" enable-background="new 0 530 841.889 60" xml:space="preserve">
<g>
	<rect x="464.889" y="562.001" fill="#472A20" width="377" height="1"/>
	<rect x="464.889" y="557.001" fill="#472A20" width="377" height="1"/>
</g>
<g>
	<rect x="0" y="562.001" fill="#472A20" width="377" height="1"/>
	<rect x="0" y="557.001" fill="#472A20" width="377" height="1"/>
</g>
<g>
	<path fill="#482A1F" d="M432.203,579.073c-1.769-0.554-2.378-1.324-2.816-2.039c-0.147-0.242-0.849-2.081-1.715-4.411
		l-4.273-11.183L411.672,530c0,0-0.327,0.039-0.282,0.534c0.023,0.243,0.295,1.397,0.303,1.432l7.34,30.672l2.956,1.924
		c0,0,1.28,0.804,1.965,2.582c0.213,0.557,0.93,2.521,0.93,2.521s0.542,1.37,1.157,2.96c0,0,1.27,3.433,1.397,4.552
		c0.257,2.188-0.264,2.768-0.686,3.165c-0.689,0.646-1.227,1.476-1.52,2.442c-0.899,2.949,0.762,6.071,3.712,6.969
		c2.95,0.9,6.07-0.761,6.97-3.71C436.813,583.092,435.144,579.995,432.203,579.073z M421.247,562.191
		c-0.67,0.204-1.38-0.173-1.584-0.844c-0.205-0.67,0.173-1.381,0.844-1.584c0.67-0.205,1.381,0.174,1.584,0.843
		C422.295,561.277,421.918,561.987,421.247,562.191z M434.641,585.653c-0.685,2.245-3.061,3.512-5.307,2.827
		c-2.246-0.683-3.514-3.058-2.828-5.307c0.685-2.245,3.062-3.511,5.308-2.824C434.06,581.033,435.325,583.408,434.641,585.653z"/>
	<path fill="#482A1F" d="M429.381,530.01l-8.41,23.84l2.262,6.063l6.161-27.938c0.008-0.033,0.259-1.192,0.275-1.436
		C429.709,530.042,429.381,530.01,429.381,530.01z"/>
	<path fill="#482A1F" d="M416.656,582.785c-0.295-0.97-0.83-1.798-1.52-2.443c-0.423-0.398-0.942-0.977-0.686-3.166
		c0.255-2.189,2.432-7.273,2.432-7.273s0.682-1.974,0.885-2.535c0.651-1.791,1.888-2.491,1.888-2.491l1.04-0.705l-1.993-1.298
		l-0.369-1.538l-0.113,0.322c0,0-5.282,14.663-5.719,15.379c-0.438,0.714-0.624,1.367-2.814,2.04
		c-2.948,0.904-4.613,4.019-3.713,6.968c0.9,2.948,4.02,4.612,6.97,3.712C415.893,588.855,417.555,585.734,416.656,582.785z
		 M407.248,585.653c-0.684-2.245,0.581-4.62,2.827-5.306c2.246-0.686,4.622,0.581,5.307,2.826c0.685,2.246-0.581,4.624-2.826,5.307
		C410.309,589.165,407.932,587.898,407.248,585.653z"/>
	<path fill="#482A1F" d="M421.882,560.883c-0.049-0.514-0.481-0.914-1.007-0.914c-0.526,0-0.957,0.402-1.006,0.914H421.882z"/>
	<path fill="#482A1F" d="M419.872,561.072c0.047,0.514,0.48,0.915,1.005,0.915c0.527,0,0.958-0.402,1.005-0.917L419.872,561.072z"/>
</g>
</svg>
