<?xml version="1.0" standalone="no"?>
<!DOCTYPE svg PUBLIC "-//W3C//DTD SVG 1.1//EN" "http://www.w3.org/Graphics/SVG/1.1/DTD/svg11.dtd" >
<svg>
<metadata>
Created by FontForge 20090622 at Thu Nov 15 16:52:01 2012
 By root
(c) 1999 Nick Curtis. All Rights Reserved. Generated by Fontographer 3.52 
</metadata>
<defs>
<font id="AntsyPants" horiz-adv-x="333" >
  <font-face 
    font-family="AntsyPants"
    font-weight="400"
    font-stretch="normal"
    units-per-em="1000"
    panose-1="0 0 0 0 0 0 0 0 0 0"
    ascent="800"
    descent="-200"
    x-height="465"
    cap-height="711"
    bbox="-59 -215 1199 942"
    underline-thickness="50"
    underline-position="-55"
    unicode-range="U+0020-U+F002"
  />
<missing-glyph 
 />
    <glyph glyph-name=".notdef" 
 />
    <glyph glyph-name=".null" horiz-adv-x="0" 
 />
    <glyph glyph-name="nonmarkingreturn" 
 />
    <glyph glyph-name="space" unicode=" " 
 />
    <glyph glyph-name="space" unicode="&#xa0;" 
 />
    <glyph glyph-name="exclam" unicode="!" horiz-adv-x="531" 
d="M262 85q0 -38 -35 -65t-84 -27t-84 27t-35 65t35 65t84 27t84 -27t35 -65zM478 638q-16 0 -29 -11.5t-17 -25.5l-13 -56l-13 -58l-14 -56l-12 -58q-16 -67 -74.5 -115.5t-128.5 -48.5h-30h-29h-30h-30q-14 0 -21 8t-7 18q0 11 7.5 19.5t20.5 8.5q16 0 28.5 11.5
t16.5 25.5l36 156l36 157q2 7 4 13t6 12q-25 0 -45 -6.5t-37 -28.5q-5 -7 -11 -10t-12 -2q-11 0 -19 8t-8 19q1 5 2.5 9.5t4.5 8.5q20 25 48.5 40.5t60.5 15.5h155h154q14 0 21.5 -8.5t6.5 -19.5q0 -10 -7 -18t-21 -8z" />
    <glyph glyph-name="quotedbl" unicode="&#x22;" horiz-adv-x="410" 
d="M192 758q13 -10 18.5 -24.5t4.5 -31.5q0 -6 -0.5 -12t-1.5 -12q-3 -19 -9.5 -36.5t-14.5 -31.5q-2 -5 -5 -9l-4 -7q-16 -25 -46.5 -48.5t-80.5 -41.5q-2 -1 -4 -1.5t-4 0.5q-11 0 -18 10t-7 22q0 8 3 14.5t10 10.5q4 2 9 5.5t10 7.5q7 6 13 13t9 14q2 3 2.5 6.5t0.5 6.5
v2q0 2 -1 3q-1 3 -2.5 5.5t-4.5 4.5q-16 8 -27.5 22.5t-10.5 33.5v3v3q3 33 32.5 55.5t65.5 26.5q3 1 6 1h7q14 0 27 -3.5t23 -11.5zM382 758q13 -10 18.5 -24.5t4.5 -31.5q0 -6 -0.5 -12t-1.5 -12q-3 -19 -9.5 -36.5t-14.5 -31.5q-2 -5 -5 -9l-4 -7q-16 -25 -46.5 -48.5
t-80.5 -41.5q-2 -1 -4 -1.5t-4 0.5q-11 0 -18 10t-7 22q0 8 3 14.5t10 10.5q4 2 9 5.5t10 7.5q7 6 13 13t9 14q2 3 2.5 6.5t0.5 6.5v2q0 2 -1 3q-1 3 -2.5 5.5t-4.5 4.5q-16 8 -27.5 22.5t-10.5 33.5v4v2q3 33 32.5 55.5t65.5 26.5q3 1 6 1h7q14 0 27 -3.5t23 -11.5z" />
    <glyph glyph-name="numbersign" unicode="#" horiz-adv-x="500" 
 />
    <glyph glyph-name="dollar" unicode="$" horiz-adv-x="560" 
d="M553 560q-3 -16 -6.5 -31.5t-7.5 -31.5t-7.5 -32t-6.5 -32q-3 -12 -11 -17t-17 -4q-9 0 -16.5 5t-9.5 13v1v2h-1v2q0 2 0.5 3.5t0.5 3.5q0 1 0.5 1.5t0.5 1.5q0 2 0.5 4.5t0.5 5.5q0 21 -17 38.5t-37 28.5q-8 4 -15.5 7t-14.5 5q-6 2 -14 2.5t-18 0.5h-7q-4 0 -7 -1
q-18 -1 -33 -7t-20 -18q-1 -1 -1 -3v-4q0 -13 18.5 -24.5t40.5 -20.5q15 -6 29.5 -11t22.5 -8q2 -1 4 -1.5t4 -1.5q47 -20 86 -55.5t38 -86.5q0 -9 -1.5 -18t-4.5 -19q-18 -53 -67.5 -85t-105.5 -46q-22 -5 -44.5 -8t-42.5 -3l-11 -48l-11 -48q-2 -11 -8.5 -15.5t-14.5 -5.5
h-1h-2q-10 0 -18.5 6.5t-8.5 19.5v3q0 2 1 4q3 11 5.5 22t4.5 21q2 11 4.5 22t5.5 21q-17 2 -38 5.5t-43 9.5q-46 12 -84.5 36.5t-37.5 64.5q0 4 0.5 8t1.5 8q7 29 29 50.5t51 25.5h3h2q13 0 20 -7.5t8 -16.5v-2v-1q0 -9 -6 -17t-19 -10q-13 -1 -23 -11.5t-12 -22.5v-2v-1
q-1 -1 -1 -2q1 -21 35 -36t76 -18q4 -1 9 -1h8q34 0 61 11t33 36q0 1 0.5 2t0.5 2v2v2q0 23 -26.5 39.5t-58.5 29.5l-28 12q-14 5 -26 11q-3 2 -5.5 3.5t-5.5 2.5q-30 17 -50.5 43.5t-20.5 60.5v5q0 2 1 5q0 2 0.5 4.5t0.5 4.5q9 53 57 86t103 47q26 7 50.5 9.5t45.5 2.5
q5 20 9.5 40.5t9.5 40.5q2 12 10 17.5t17 5.5q10 0 18 -7t8 -20v-2v-2q0 -1 -0.5 -2t-0.5 -2q-4 -19 -8.5 -37.5t-8.5 -38.5q2 0 4.5 -1t4.5 -1q29 -7 57 -21t49 -36q2 10 4.5 19.5t4.5 19.5q3 12 10.5 17t16.5 5q10 0 18 -7t8 -19v-4q0 -2 -1 -4z" />
    <glyph glyph-name="percent" unicode="%" horiz-adv-x="500" 
 />
    <glyph glyph-name="ampersand" unicode="&#x26;" horiz-adv-x="1108" 
d="M1057 603q-1 -8 -1.5 -16.5t-2.5 -16.5q-16 -76 -77 -122t-132 -73l-33 -12l-32 -10q4 -15 6 -29.5t2 -28.5q-1 -98 -75.5 -171.5t-164.5 -111.5q-15 -6 -30.5 -11t-30.5 -9q-28 -8 -60 -12t-64 -4h-9h-9q-96 4 -180 49t-107 142q-3 14 -4.5 27t-1.5 26q0 95 67.5 174.5
t153.5 111.5q-10 13 -16.5 26.5t-9.5 27.5l-2 14q-1 6 -1 13q0 38 22.5 72.5t59.5 58.5q31 20 69 32.5t78 16.5q9 1 17.5 1.5t17.5 0.5q18 0 35.5 -2t33.5 -6q6 -1 11 -3l12 -4q28 -10 52 -30t24 -53q0 -29 -22 -48.5t-51 -19.5q-14 0 -21.5 9t-6.5 19q0 10 7 18t21 8h2
q2 0 3 1q6 1 10 4.5t4 8.5q0 2 -1 3.5t-3 2.5q-5 6 -13.5 9t-17.5 4q-7 1 -13.5 1.5t-11.5 0.5q-52 0 -94.5 -42t-42.5 -94q0 -13 3 -25.5t10 -24.5q8 -14 19.5 -24.5t26.5 -15.5q13 -4 18 -11.5t5 -15.5v-2v-1q-1 -9 -8 -16.5t-18 -7.5h-3q-1 0 -3 1q-4 1 -8.5 1.5
t-9.5 0.5t-10 -0.5t-10 -1.5q-25 -5 -48 -20.5t-37 -33.5q-23 -28 -36 -64.5t-14 -74.5v-4v-6q0 -33 9 -64.5t28 -57.5q20 -27 44.5 -39.5t49.5 -12.5q28 0 54.5 14t47.5 39q22 26 34.5 60t14.5 69q1 5 1 10v9q0 17 -2 33t-7 32q-5 -2 -12 -4.5t-13 -6.5q-15 -7 -27 -17.5
t-12 -24.5v-3q0 -1 1 -2q0 -1 0.5 -2.5t0.5 -2.5v-2l1 -1v-2v-2q0 -11 -9.5 -19t-20.5 -8q-4 0 -7.5 1t-7.5 4q-16 15 -24 32.5t-8 36.5v7q0 3 1 6q3 20 13 39.5t25 36.5q41 47 100 74.5t122 43.5q32 8 63 14t60 11q14 2 36.5 5.5t47.5 9.5q36 10 67 29t31 52
q0 32 -17.5 56.5t-50.5 31.5q-6 2 -12 2h-12h-3h-3q-39 -2 -75.5 -27t-56.5 -58q-4 -7 -10.5 -10.5t-13.5 -3.5q-10 0 -18.5 7.5t-8.5 18.5q0 4 1 8t4 8q28 47 78.5 79t106.5 32q4 0 8.5 -0.5t8.5 -0.5q4 -1 8.5 -1.5t8.5 -1.5q44 -9 78 -46t34 -84v-3v-4q0 -2 -0.5 -3.5
t-0.5 -3.5z" />
    <glyph glyph-name="quotesingle" unicode="'" horiz-adv-x="229" 
d="M192 758q13 -10 18.5 -24.5t4.5 -31.5q0 -6 -0.5 -12t-1.5 -12q-3 -19 -9.5 -36.5t-14.5 -31.5q-2 -5 -5 -9l-4 -7q-16 -25 -46.5 -48.5t-80.5 -41.5q-2 -1 -4 -1.5t-4 0.5q-11 0 -18 10t-7 22q0 8 3 14.5t10 10.5q4 2 9 5.5t10 7.5q7 6 13 13t9 14q2 3 2.5 6.5t0.5 6.5
v2q0 2 -1 3q-1 3 -2.5 5.5t-4.5 4.5q-16 8 -27.5 22.5t-10.5 33.5v3v3q3 33 32.5 55.5t65.5 26.5q3 1 6 1h7q14 0 27 -3.5t23 -11.5z" />
    <glyph glyph-name="parenleft" unicode="(" horiz-adv-x="587" 
d="M562 708q7 -5 10 -11t2 -12q0 -10 -7.5 -18t-18.5 -8q-4 0 -8.5 1.5t-9.5 5.5l-9 7l-12 8q-3 2 -6.5 3.5t-6.5 3.5q-8 5 -15.5 8.5t-13.5 3.5q-19 2 -46.5 -24t-57.5 -72q-33 -50 -64 -119t-54 -148q-22 -76 -33.5 -143.5t-11.5 -117.5q0 -43 9 -70t26 -32q5 -2 11 -2.5
t12 -0.5h8q3 0 7 1q10 1 21 4t19 6q1 0 2 0.5t2 0.5q2 1 5 1h3q12 0 19 -8.5t7 -18.5q0 -8 -4.5 -14.5t-14.5 -10.5q-19 -8 -37 -11t-36 -3q-55 0 -102.5 29.5t-80.5 79.5q-32 50 -47 107t-15 117q0 12 0.5 23.5t1.5 23.5q13 130 82 248.5t173 178.5q17 10 34 17t34 12t34 7
t34 2q41 0 80 -13.5t75 -41.5z" />
    <glyph glyph-name="parenright" unicode=")" horiz-adv-x="587" 
d="M512 633q32 -49 47 -106.5t15 -117.5q0 -12 -0.5 -23.5t-1.5 -23.5q-13 -130 -82 -247.5t-173 -178.5q-17 -10 -34 -17t-34 -12t-34 -7t-34 -2q-40 0 -79.5 13.5t-75.5 41.5q-7 5 -10 11t-2 12q0 10 8 17.5t18 7.5q5 0 9.5 -1t8.5 -5l10 -7l11 -8q3 -2 6.5 -3.5t6.5 -3.5
q8 -5 15.5 -8.5t13.5 -3.5q20 -2 47 23.5t57 71.5q33 50 64 119t54 148q23 77 34 144t11 117q0 44 -9 71t-26 32q-5 2 -11 2.5t-12 0.5h-8q-3 0 -6 -1q-11 -1 -22 -4t-19 -6q-1 0 -2 -0.5t-2 -1.5h-4h-4q-12 0 -19 8.5t-7 18.5q0 8 4.5 14.5t14.5 10.5q19 8 37 11t36 3
q55 0 102.5 -29.5t80.5 -80.5z" />
    <glyph glyph-name="asterisk" unicode="*" horiz-adv-x="371" 
d="M351 634q2 -5 2.5 -10t0.5 -10q0 -20 -12 -35.5t-32 -23.5q-6 -1 -11 -2t-9 -1q-6 0 -11 1t-9 3q-3 1 -5 2.5t-5 2.5q-2 1 -4.5 2t-4.5 2q-10 5 -23.5 8.5t-33.5 4.5q20 -14 35 -18.5t27 -6.5h2h1q9 -2 17 -4.5t16 -9.5q2 -2 4 -4.5t4 -5.5q5 -6 7.5 -12.5t4.5 -13.5
q0 -3 0.5 -6.5t0.5 -6.5q0 -14 -6.5 -27.5t-19.5 -22.5q-4 -3 -9 -5t-9 -4q-5 -1 -9.5 -2t-9.5 -1q-15 0 -28 7t-23 20q-7 9 -9 17t-2 15v4v5q0 2 0.5 4t0.5 4t0.5 4t0.5 4q1 4 1.5 8.5t0.5 9.5q0 8 -1.5 19t-5.5 24q-4 -13 -5.5 -23.5t-1.5 -19.5q0 -7 0.5 -13.5t1.5 -11.5
t1.5 -9.5t0.5 -9.5q0 -7 -2 -14t-9 -16q-10 -13 -23.5 -20t-28.5 -7q-3 0 -6 0.5t-6 0.5q-6 2 -12 4.5t-12 6.5q-13 10 -20 23.5t-6 27.5q0 10 3 19.5t9 18.5q4 5 7.5 8.5t6.5 5.5q7 4 13.5 6t14.5 4h2h1h2l26 7q15 4 35 19q-20 -1 -33.5 -4.5t-22.5 -8.5q-2 -1 -4.5 -2
t-4.5 -2q-4 -2 -8 -3.5t-7 -3.5l-8 -2q-4 -1 -8 -1t-9 1t-11 3q-20 6 -32 22.5t-12 36.5v6q0 2 1 4q0 2 0.5 4.5t1.5 5.5q7 20 23.5 31.5t35.5 11.5h6q2 0 4 -1q2 0 4.5 -0.5t5.5 -1.5q16 -5 22.5 -12t11.5 -17q1 -1 1.5 -2.5t1.5 -3.5q6 -10 15 -23t29 -29q-5 16 -11 26
t-13 18q-3 4 -6 7l-6 6q-1 1 -2 2.5t-2 2.5q-7 7 -12 16t-5 24q0 28 18 46.5t45 18.5t45 -18.5t18 -46.5q0 -15 -5 -24t-12 -16q-1 -1 -2 -2.5t-2 -2.5q-4 -4 -7.5 -8t-7.5 -8q-6 -8 -11.5 -17.5t-10.5 -23.5q20 15 29 27.5t14 23.5q1 1 1.5 2.5t0.5 2.5q6 9 13 17t22 13
q5 2 10.5 2.5t9.5 0.5q20 0 36.5 -11.5t23.5 -32.5z" />
    <glyph glyph-name="plus" unicode="+" horiz-adv-x="500" 
 />
    <glyph glyph-name="comma" unicode="," horiz-adv-x="273" 
d="M241 156q11 -10 15 -23.5t4 -27.5q0 -8 -1 -16t-3 -16q-5 -20 -14 -39t-19 -34l-10 -14l-10 -12q-23 -26 -60.5 -47t-96.5 -33q-1 0 -2 -1h-1h-2h-2q-13 1 -20 11t-7 23q1 10 5.5 19t14.5 13q5 1 12 5t14 9q11 7 20.5 17t11.5 21v1v2q0 5 -1.5 8.5t-5.5 7.5
q-16 10 -26 25.5t-10 34.5q0 4 0.5 7.5t1.5 7.5q7 33 38 53t67 24q3 1 7 1h8q20 0 39.5 -6.5t32.5 -20.5z" />
    <glyph glyph-name="hyphen" unicode="-" horiz-adv-x="317" 
d="M300 208h-275v125h275v-125z" />
    <glyph glyph-name="period" unicode="." horiz-adv-x="262" 
d="M251 85q0 -38 -35 -65t-84 -27t-84 27t-35 65t35 65t84 27t84 -27t35 -65z" />
    <glyph glyph-name="slash" unicode="/" horiz-adv-x="300" 
d="M349 815l-330 -980h-78l330 980h78z" />
    <glyph glyph-name="zero" unicode="0" horiz-adv-x="706" 
d="M667 358q4 -16 5.5 -32.5t1.5 -32.5q0 -94 -56.5 -172.5t-149.5 -110.5q-34 -11 -71.5 -17.5t-75.5 -6.5q-66 0 -128 23t-104 76q-30 37 -43.5 82t-13.5 91q0 8 0.5 15.5t1.5 15.5q0 7 1.5 15t2.5 15q24 135 139 220t248 87h3h4q10 0 20.5 -0.5t20.5 -1.5t20 -3l21 -4
q57 -13 102 -51.5t45 -95.5v-6q0 -4 -1 -8q0 -7 -1.5 -13.5t-4.5 -14.5q-8 -28 -33.5 -47.5t-54.5 -21.5h-2h-2h-4q-2 0 -4 1q-3 0 -5 0.5t-4 0.5q-26 6 -39.5 25.5t-13.5 44.5v5q0 2 1 5q0 2 0.5 4.5t0.5 4.5q2 12 10 17.5t17 5.5q10 0 18 -7t8 -20v-2v-2q0 -1 -0.5 -2
t-0.5 -2q-1 -3 -1 -6v-4q0 -8 4 -12t11 -3q3 0 7 1t8 3q9 4 17 11.5t11 16.5q1 2 1 3.5t1 3.5q1 4 1.5 7.5t-0.5 6.5q0 21 -15 35t-38 21q-6 2 -12 3.5t-12 1.5q-7 1 -13 1.5t-12 0.5q-91 0 -161 -80.5t-84 -177.5q-2 -10 -2.5 -20.5t-0.5 -20.5q0 -31 8 -61t26 -56
q23 -32 51.5 -46t59.5 -14q5 0 9.5 0.5t8.5 0.5q45 5 86 31.5t68 62.5q23 32 35 70.5t12 78.5q0 13 -1.5 25t-3.5 24q-1 2 -1 4v4q1 13 9 20t18 7q9 0 16.5 -5.5t9.5 -17.5z" />
    <glyph glyph-name="one" unicode="1" horiz-adv-x="549" 
d="M496 563q-16 0 -29 -11.5t-16 -25.5l-26 -112l-26 -111l-26 -112l-26 -112q-1 -7 -3.5 -13t-6.5 -12h9q5 0 10 -1q6 0 12 -0.5t12 -0.5q20 1 37 7t22 26q3 12 10.5 17t16.5 5q10 0 18 -7t8 -19v-3q0 -3 -1 -5q-7 -30 -32.5 -51.5t-56.5 -21.5h-174h-174q-15 0 -22.5 9
t-6.5 19q0 10 7.5 18t21.5 8h2h2q14 2 26 13t16 24l24 106l24 105l24 106l25 105q0 2 0.5 3.5t1.5 3.5q0 2 0.5 3.5t1.5 3.5q-3 0 -6 -0.5t-6 -1.5q-19 -2 -37 -6t-33 -16q-8 -7 -14.5 -17.5t-9.5 -21.5q0 -3 -0.5 -5.5t-0.5 -4.5q0 -7 2.5 -12.5t7.5 -10.5t7.5 -10.5
t2.5 -11.5q0 -10 -7.5 -18t-18.5 -8q-5 0 -10 2t-10 6q-14 13 -21 30t-7 35v6q0 3 1 6q0 2 0.5 5t1.5 6q9 41 43 67t74 30l160 20l158 20h4q3 0 5 1h5h4q14 0 21.5 -8.5t6.5 -19.5q0 -10 -7 -18t-21 -8z" />
    <glyph glyph-name="two" unicode="2" horiz-adv-x="703" 
d="M671 448q0 -70 -47.5 -126.5t-111.5 -79.5l-137 -50l-136 -48q50 -1 99.5 -9t98.5 -18q3 -1 7 -1.5t7 -1.5q9 -2 18 -3t18 -1q27 0 52 10.5t41 34.5q2 10 9.5 14t15.5 4q9 0 17 -4.5t11 -12.5q1 -1 1 -3v-3q0 -6 -2 -14.5t-5 -17.5q-1 -4 -2 -7.5t-2 -6.5l-6 -15
q-2 -7 -4 -10q-25 -55 -75 -73.5t-107 -18.5q-8 0 -16 0.5t-15 0.5q-25 2 -50 5l-47 7q-5 1 -11 2t-11 2q-3 1 -6.5 1.5t-7.5 0.5q-30 6 -61 10.5t-64 4.5q-4 0 -8.5 -0.5t-8.5 -1.5q-11 -3 -22 -8.5t-19 -12.5q-2 -5 -7.5 -9t-11.5 -5h-1h-2h-2h-2q-2 1 -4 1.5t-4 2.5
q-11 1 -14.5 7t-3.5 14v3q0 1 1 3v2v3q8 72 65.5 120.5t127.5 92.5q2 1 3.5 2t3.5 2q59 37 110.5 76t67.5 88q5 15 7.5 30t2.5 29q0 31 -15 54.5t-53 30.5q-7 2 -14 2h-13q-7 0 -14.5 -0.5t-15.5 -2.5q-54 -9 -99.5 -49t-45.5 -96q0 -17 8 -25t19 -8q7 0 14 3t14 7
q5 3 9.5 4.5t8.5 1.5q11 -1 18 -8.5t7 -18.5v-3q0 -2 -1 -3q-1 -5 -4 -9.5t-9 -7.5q-14 -10 -29 -14.5t-30 -4.5q-31 0 -55 22t-24 64q0 86 68 139.5t150 73.5q25 7 50.5 10t48.5 3q17 0 36 -1.5t38 -5.5q68 -12 125.5 -52t57.5 -118z" />
    <glyph glyph-name="three" unicode="3" horiz-adv-x="685" 
d="M640 181q-28 -78 -114.5 -127t-185.5 -63q-22 -4 -43.5 -5.5t-42.5 -1.5q-91 1 -157 34.5t-66 103.5q0 48 30.5 84.5t77.5 36.5q6 0 12 -0.5t13 -2.5q26 -6 44.5 -27t18.5 -47q0 -1 -0.5 -3t-0.5 -3q0 -2 -0.5 -3.5t-0.5 -3.5q-3 -10 -9 -16t-12 -8h-2h-2q-11 1 -20 10.5
t-8 25.5v1v1v2v2q0 1 -1 2q-1 5 -5 9t-14 6q-3 1 -6 1h-6q-25 0 -39.5 -20t-15.5 -44v-1v-2q0 -29 23.5 -45.5t51.5 -24.5q13 -4 25.5 -6t22.5 -3q63 -4 118.5 39.5t74.5 101.5q3 11 5 20.5t1 18.5q0 38 -25 60t-63 22q-10 0 -19.5 -2t-20.5 -5q-5 -1 -9 -2.5t-8 -0.5
q-6 0 -10.5 3.5t-9.5 13.5q-2 5 -3 8t-1 6t1.5 6t3.5 5t4.5 4t5.5 4l44 33l45 33l44 33l44 32q-38 -1 -75.5 4.5t-73.5 15.5q-12 3 -23 5t-22 2q-25 -1 -45 -12t-34 -39q-4 -8 -10 -11.5t-14 -3.5h-2h-3q-8 2 -15.5 8.5t-7.5 15.5q0 2 0.5 4t1.5 4q20 51 68 92t104 41h161
h160q2 2 5 2h4h2q10 -1 17.5 -9.5t6.5 -19.5q0 -2 -0.5 -3.5t-0.5 -3.5q-1 -4 -3.5 -7.5t-6.5 -6.5l-63 -48l-65 -47l-8 -6l-8 -6l-24 -17l-24 -18q5 1 10 1.5t11 0.5q5 1 10 1h10q77 -1 129.5 -43t51.5 -116q0 -17 -3.5 -36t-10.5 -39z" />
    <glyph glyph-name="four" unicode="4" horiz-adv-x="698" 
d="M659 234q-24 -31 -54.5 -44t-68.5 -13l-6 -24q-3 -12 -5 -25l-6 -25l-6 -24q-1 -7 -3.5 -13t-6.5 -12q22 0 40.5 9t31.5 26q5 7 11 9.5t12 2.5q11 0 18.5 -7.5t7.5 -18.5q0 -2 -0.5 -4.5t-1.5 -4.5q0 -3 -1.5 -5.5t-3.5 -4.5q-19 -25 -47.5 -40.5t-60.5 -15.5h-139h-138
q-14 0 -21.5 9t-6.5 19q0 10 7 18t21 8h2h2q14 2 26 13t16 24l10 43l10 43h-120h-120q-11 0 -19 9t-7 19q0 4 1.5 7.5t3.5 7.5q54 75 103 156t71 172h-4h-5q-29 0 -53 -4t-45 -31q-5 -7 -11 -9.5t-12 -2.5q-10 0 -18 8t-8 18q0 2 0.5 4.5t1.5 5.5q0 2 1.5 4.5t3.5 4.5
q19 25 48 40.5t60 15.5h158h157q12 0 19.5 -8.5t7.5 -19.5q0 -3 -0.5 -6t-2.5 -6q-45 -79 -114 -147.5t-143 -126.5l-38 -29l-38 -28h134l2 10q1 5 3 11l2 10l2 10q20 84 88 130.5t146 67.5q11 4 22.5 6.5t22.5 4.5h1h1h2q10 0 16.5 -8t8.5 -17v-3v-2q0 -7 -2.5 -12.5
t-9.5 -8.5q-10 -4 -18 -13t-10 -20l-19 -83l-20 -83q21 0 38.5 10t30.5 26q3 4 6 6.5t7 3.5q2 1 4.5 1.5t4.5 0.5q11 0 19 -8t8 -19q0 -2 -0.5 -5.5t-2.5 -6.5q-1 -1 -2 -2.5t-2 -3.5z" />
    <glyph glyph-name="five" unicode="5" horiz-adv-x="668" 
d="M635 584q-29 -56 -94 -80t-137 -29q-17 -2 -34 -2.5t-34 -0.5q-33 0 -63 2t-54 4l-28 -84q38 14 81.5 24.5t87.5 13.5q8 0 15.5 0.5t14.5 0.5q46 -1 90 -11.5t81 -35.5q40 -27 57.5 -63.5t17.5 -76.5q0 -6 -0.5 -12t-1.5 -12q-7 -57 -44.5 -109.5t-90.5 -80.5
q-40 -21 -84 -30t-90 -13q-18 -1 -36 -1.5t-36 -0.5q-16 0 -33.5 1t-35.5 4q-58 8 -106 35t-48 88q0 11 2 22.5t6 24.5q11 37 40.5 59.5t69.5 20.5h1h2q29 -3 53 -25t23 -54q-1 -16 -9 -24t-18 -9h-2h-1q-10 0 -18 7t-7 20v2v2q0 1 0.5 2t0.5 2v1v1q0 5 -4.5 9.5t-9.5 7.5
q-2 2 -4.5 3t-4.5 1q-1 0 -2.5 0.5t-2.5 0.5h-3h-3q-23 0 -37.5 -20t-17.5 -43v-4v-4q1 -12 5 -23.5t13 -19.5q10 -9 23.5 -15t27.5 -9l11 -2l11 -2q3 0 6.5 -0.5t6.5 -0.5q3 -1 6 -1h7q66 0 122 41t72 106q2 9 3.5 18.5t1.5 19.5v4v3q-2 24 -11 46t-28 37
q-17 14 -37.5 19.5t-43.5 5.5q-5 0 -10 -0.5t-10 -0.5q-21 -2 -42 -7.5t-39 -11.5q-3 -1 -6.5 -2t-6.5 -2q-2 -4 -5.5 -6t-9.5 -2q-2 0 -5.5 1t-7.5 2q-13 4 -17 9t-4 11q0 2 0.5 3.5t0.5 3.5q0 1 1 1v1q0 1 0.5 2.5t0.5 2.5l20 58l19 59l19 59l19 58q0 1 1 2t1 2q3 4 6.5 7
t8.5 5q2 1 4 1.5t4 0.5h69h69h68h69q11 0 23 0.5t24 2.5q15 2 29 5.5t26 9.5l3 2h3q1 1 3 1h2q11 0 19.5 -8.5t8.5 -19.5v-3q0 -1 -1 -2q0 -2 -1 -3z" />
    <glyph glyph-name="six" unicode="6" horiz-adv-x="695" 
d="M655 215q-18 -92 -96 -151.5t-168 -72.5q-13 -2 -25.5 -3t-25.5 -1q-119 0 -213.5 70.5t-94.5 200.5q0 150 118 250.5t260 115.5q11 2 23 2.5t23 0.5q13 0 26.5 -0.5t27.5 -2.5q39 -4 76 -16t69 -34q5 -3 7 -8t2 -10q0 -11 -8 -20.5t-19 -9.5h-2h-1q-1 0 -2 0.5t-2 0.5
q-22 8 -46 13t-48 5q-27 0 -53.5 -7t-51.5 -23q-49 -31 -83.5 -93.5t-49.5 -130.5q-6 -24 -8.5 -47t-2.5 -45q0 -15 1.5 -29t4.5 -28q10 -46 35 -70t63 -24q10 0 20 1.5t20 4.5q29 10 50.5 24t38.5 40q12 18 18.5 42t6.5 49q0 31 -12 59t-39 43q-10 6 -20.5 8.5t-21.5 2.5
q-20 -1 -39 -9.5t-35 -22.5q-4 -3 -7.5 -4.5t-8.5 -1.5q-11 1 -20 8.5t-8 19.5v2v1v1q8 44 46.5 72t83.5 36l17 2q9 1 18 1q8 0 15 -0.5t14 -2.5q62 -12 96.5 -62t34.5 -109q0 -5 -0.5 -9.5t-0.5 -9.5q-1 -5 -1.5 -9.5t-1.5 -9.5z" />
    <glyph glyph-name="seven" unicode="7" horiz-adv-x="680" 
d="M649 598q-2 -29 -16 -62.5t-33 -67.5l-18 -32l-20 -32l-14 -22l-14 -22l-31 -48l-29 -48q-27 -47 -45.5 -97.5t-25.5 -113.5q8 -1 12.5 -8t5.5 -15v-1v-2v-1v-2q-1 -9 -7.5 -16.5t-20.5 -7.5h-45h-45h-23h-22h-68h-68h-2h-3q-13 0 -24 4t-11 18v2v2q1 2 1.5 4t0.5 4
q35 129 87 192.5t121 113.5l20 15l21 14l3 3q3 2 7 5l1 1q4 3 7 5t4 2l22 16l22 14q0 1 0.5 1.5t1.5 0.5l57 40q28 20 54 44q-26 -5 -52.5 -7.5t-53.5 -2.5q-16 0 -31 1l-32 2q-24 3 -47.5 7t-46.5 9q-13 3 -27 5t-29 2q-26 0 -50 -9t-37 -35l-6 -12q-3 -6 -6 -11
q-3 -6 -5.5 -12t-5.5 -12q-4 -9 -10.5 -13t-14.5 -3q-10 0 -18.5 7.5t-8.5 18.5q0 3 1 6.5t3 7.5l19 38l18 38q10 18 19 37l18 38q5 9 11.5 13t13.5 4h2h1q9 -1 16.5 -8t9.5 -14v-1v-2v-2l-1 -1v-1q33 17 60.5 27.5t54.5 14.5q10 2 19.5 2.5t19.5 0.5q21 0 44 -3.5t50 -9.5
q23 -5 48.5 -9.5t53.5 -4.5q23 0 48.5 4.5t53.5 14.5q2 1 5 1h3q11 0 19 -7.5t8 -18.5v-1v-2z" />
    <glyph glyph-name="eight" unicode="8" horiz-adv-x="691" 
d="M654 148q-18 -80 -108.5 -122t-194.5 -48h-2h-2q-26 -2 -60 0t-70 8q-70 12 -128 45.5t-58 100.5q0 8 1 16t3 17q11 48 51 83t90 35q14 0 21.5 -8.5t6.5 -19.5q0 -10 -7 -18t-21 -8q-31 0 -56 -23t-32 -53q-1 -4 -1.5 -8.5t-0.5 -8.5q1 -32 26.5 -52.5t56.5 -31.5
q12 -4 23 -7t21 -5q7 -1 14 -1.5t15 -0.5q10 0 20 1t20 3q31 6 59.5 23t41.5 45q3 8 4.5 14.5t1.5 13.5q0 24 -16.5 43t-39.5 32l-53 31l-52 33l-26 16l-26 16q-36 21 -55.5 51t-19.5 68l2 18q1 9 3 19q13 53 65.5 87t112.5 51q34 10 66.5 14.5t57.5 4.5q16 0 33.5 -1
t35.5 -4q34 -6 66.5 -18t57.5 -33q21 -18 31 -39.5t10 -44.5q0 -38 -25.5 -67.5t-68.5 -29.5q-7 0 -14.5 1t-15.5 3q57 -34 99.5 -80t42.5 -114q0 -11 -1.5 -22.5t-4.5 -24.5zM588 475q1 3 1 6v6q0 31 -36 49t-79 20h-6h-5q-33 0 -60.5 -10t-37.5 -32q-1 -2 -2 -4.5t-2 -5.5
q0 -3 -0.5 -5.5t-0.5 -4.5q1 -7 3.5 -13.5t9.5 -10.5l34 -19l35 -20q1 0 2.5 -1t2.5 -2q13 -6 25 -13l25 -14q-2 4 -3.5 8t-1.5 8q0 11 7 19t20 7h4q3 0 5 -1q5 -1 9.5 -2t8.5 -1q16 0 27 9t15 27z" />
    <glyph glyph-name="nine" unicode="9" horiz-adv-x="699" 
d="M668 355q0 -152 -123 -254t-270 -114q-9 -1 -18.5 -1.5t-18.5 -0.5q-52 1 -101 13.5t-93 40.5q-7 5 -10 10.5t-2 11.5q0 11 7.5 19t19.5 8q2 0 4.5 -0.5t5.5 -1.5q24 -8 48 -13t48 -5q26 0 52 7t51 23q49 31 83.5 93.5t49.5 130.5q6 24 8.5 47t2.5 45q0 15 -1.5 29.5
t-4.5 27.5q-10 46 -35 70t-63 24q-10 0 -19.5 -1.5t-20.5 -4.5q-28 -10 -50 -24t-39 -40q-11 -18 -18 -41.5t-6 -49.5q0 -31 11.5 -59t39.5 -43q10 -6 20.5 -8.5t20.5 -2.5q20 1 39 10t35 22q4 3 8 4.5t8 1.5q11 -1 20 -8.5t8 -19.5v-1v-1v-1v-1q-8 -44 -46.5 -72t-83.5 -36
l-17 -2q-9 -1 -18 -1q-7 0 -14 1l-15 2q-62 13 -96.5 63t-33.5 110q0 9 1 18l2 18q18 92 96 151.5t168 73.5q13 2 25.5 3t25.5 1q119 0 214 -70.5t95 -201.5z" />
    <glyph glyph-name="colon" unicode=":" horiz-adv-x="262" 
d="M251 85q0 -38 -35 -65t-84 -27t-84 27t-35 65t35 65t84 27t84 -27t35 -65zM251 295q0 -38 -35 -65.5t-84 -27.5t-84 27.5t-35 65.5t35 65t84 27t84 -27t35 -65z" />
    <glyph glyph-name="semicolon" unicode=";" horiz-adv-x="273" 
d="M229 156q11 -10 15 -23.5t4 -27.5q0 -8 -1 -16t-3 -16q-5 -20 -14 -39t-19 -34l-10 -14l-10 -12q-23 -26 -60.5 -47t-96.5 -33q-1 0 -2 -1h-1h-2h-2q-13 1 -20 11t-7 23q1 10 5.5 19t14.5 13q5 1 12 5t14 9q11 7 20.5 17t11.5 21v1v2q0 5 -1.5 8.5t-5.5 7.5
q-16 10 -26 25.5t-10 34.5q0 4 0.5 7.5t1.5 7.5q7 33 38 53t67 24q3 1 7 1h8q20 0 39.5 -6.5t32.5 -20.5zM269 295q0 -38 -35 -65.5t-84 -27.5t-84 27.5t-35 65.5t35 65t84 27t84 -27t35 -65z" />
    <glyph glyph-name="less" unicode="&#x3c;" horiz-adv-x="300" 
d="M270 204l-72 -70l-163 163l163 163l72 -70l-83 -93z" />
    <glyph glyph-name="equal" unicode="=" horiz-adv-x="400" 
d="M400 257h-405v76h405v-76zM400 407h-405v76h405v-76z" />
    <glyph glyph-name="greater" unicode="&#x3e;" horiz-adv-x="300" 
d="M265 297l-163 -163l-72 70l83 93l-83 93l72 70z" />
    <glyph glyph-name="question" unicode="?" horiz-adv-x="543" 
d="M262 85q0 -38 -34.5 -65t-84.5 -27q-49 0 -83.5 27t-34.5 65t34.5 65t83.5 27q50 0 84.5 -27t34.5 -65zM518 512q-6 -74 -61.5 -113.5t-120.5 -65.5l-38 -14l-37 -14q-3 -1 -5.5 -2t-4.5 -2l-4 -2l-4 -2q-13 -7 -23.5 -20t-11.5 -27v-2v-2q2 -2 3.5 -4.5t1.5 -5.5
q1 -1 1 -3v-2v-2v-1q-2 -9 -10.5 -16.5t-19.5 -7.5q-3 0 -5.5 1t-5.5 2t-5.5 2.5t-5.5 3.5q-16 13 -22.5 27t-6.5 29q0 6 1 12.5t3 13.5q8 23 24.5 45.5t35.5 41.5l22 23l21 19q18 17 27 38t12 43q0 5 0.5 9.5t0.5 8.5q0 39 -20.5 69t-58.5 30q-10 0 -21 -3t-23 -8
q-10 -5 -20 -12.5t-19 -16.5q-7 -9 -10.5 -18t-3.5 -17q0 -12 6.5 -23t16.5 -21q5 -5 8 -10.5t3 -11.5q0 -10 -8 -18t-19 -8q-5 0 -10 2t-10 6q-19 18 -30 40t-10 45q0 18 7 36t20 34q27 32 67 49.5t82 24.5q15 3 30 4t29 1q15 0 30 -1.5t31 -4.5q67 -15 122 -59.5
t49 -119.5z" />
    <glyph glyph-name="at" unicode="@" horiz-adv-x="938" 
d="M630 635l-243 -718q-14 -42 -51 -67.5t-80 -25.5q-4 0 -8.5 0.5t-8.5 0.5q-5 1 -9 2t-9 2l8 35q6 -1 12 -1.5t12 -0.5q33 0 60.5 20.5t37.5 50.5l218 642q-13 -5 -27 -7.5t-28 -2.5q-34 0 -70 11t-72 25q-3 2 -6.5 3t-6.5 3q-39 15 -77.5 27.5t-74.5 13.5q-9 0 -25.5 -1
t-35.5 -7t-36 -19.5t-25 -37.5q-2 -7 -3.5 -14.5t-1.5 -14.5q1 -26 15.5 -48t43.5 -30l-8 -37q-43 11 -65.5 45t-22.5 74q0 5 0.5 10t1.5 10q0 5 1.5 10t2.5 10q17 50 54.5 69t82.5 19q12 0 24 -1t24 -3q32 -5 62.5 -14.5t57.5 -19.5q9 -4 22 -8l26 -10l32 -10q16 -5 33 -9
q13 -3 26.5 -4.5t25.5 -1.5q26 0 46.5 9.5t28.5 34.5zM896 119l-154 -81q6 -2 12 -3.5t13 -1.5h4q3 0 5 1q24 2 45 16.5t32 32.5l33 -21q-17 -28 -49.5 -47t-67.5 -19q-4 0 -8.5 0.5t-8.5 0.5q-4 1 -8.5 2t-8.5 2q-27 9 -39 25.5t-12 35.5q0 5 1 10l2 10q10 36 46 65.5
t80 29.5q5 0 9 -0.5t9 -0.5q4 -1 8.5 -2t8.5 -3t11 -6.5t15 -12.5q6 -6 12 -14.5t10 -18.5zM841 134l-1 1q-1 0 -2 1q-5 2 -10.5 2.5t-10.5 0.5q-4 0 -7.5 -0.5t-6.5 -0.5q-27 -5 -50.5 -23.5t-28.5 -41.5zM755 618q-3 0 -6.5 -0.5t-6.5 -1.5q-14 -4 -26.5 -15.5
t-17.5 -25.5l-147 -436q2 2 5 4t5 4q11 8 23.5 15t24.5 10q5 2 9.5 2.5t8.5 0.5q13 0 22.5 -5t16.5 -15q8 -10 10.5 -23t2.5 -27v-7q0 -4 -1 -8q-1 -15 -4 -29t-7 -26q-2 -9 -4.5 -16t-4.5 -12l-36 15q2 4 4 10l4 12q3 8 5 17t4 19q2 7 2.5 15t0.5 15q0 8 -1.5 14.5
t-4.5 10.5q-1 1 -2 1.5t-4 0.5q-6 0 -12 -1.5t-12 -4.5q-21 -9 -40.5 -30t-34.5 -45q-9 -13 -15 -25.5t-10 -23.5l-37 15l193 568q10 26 35.5 45.5t54.5 19.5z" />
    <glyph glyph-name="A" unicode="A" horiz-adv-x="835" 
d="M817 56q-19 -25 -47.5 -40.5t-60.5 -15.5h-271q-11 0 -19 9t-7 19v2v2q0 1 0.5 2t0.5 2q26 71 45.5 129.5t33.5 107.5h-242q-2 -4 -3.5 -8t-3.5 -7q-2 -5 -4 -9l-4 -8q-23 -50 -48 -98t-62 -89h23h23h23h22q20 0 37.5 10t28.5 25q5 7 11 9.5t12 2.5q11 0 19 -8t8 -19
q-1 -4 -2.5 -8.5t-4.5 -9.5q-19 -25 -48.5 -40.5t-61.5 -15.5h-87h-87q-13 0 -19 7t-6 16v1v2q1 10 8 18.5t18 9.5q5 1 13 6.5t17 15.5q38 38 62.5 83t46.5 92q2 5 4.5 10.5t5.5 11.5h-10h-10h-10h-10q-23 0 -43.5 -16.5t-25.5 -39.5q-2 -11 -8.5 -16t-14.5 -6h-1h-2
q-10 0 -18.5 7t-8.5 20v3q0 2 1 4q9 41 44 69.5t77 28.5h16h17h16h16l18 37q9 18 19 36q-7 -1 -13 -1.5t-12 -0.5q-47 0 -77.5 30.5t-30.5 76.5q0 9 1.5 18.5t4.5 19.5q22 83 111.5 123t193.5 41h3h4q90 0 171 -28t118 -82q21 -31 33 -73.5t12 -99.5q0 -68 -19 -159.5
t-62 -210.5q26 0 46.5 6.5t37.5 28.5q5 7 11 9.5t12 2.5q11 0 18.5 -7.5t7.5 -18.5q0 -2 -0.5 -4.5t-1.5 -4.5q0 -3 -1.5 -5.5t-3.5 -4.5zM506 327q3 11 5 21l4 21q4 21 6 42.5t2 41.5q0 65 -31 115t-115 60q-7 1 -14 1.5t-15 0.5q-9 0 -18 -0.5t-18 -2.5q-44 -6 -83 -29.5
t-51 -68.5q-1 -7 -2.5 -13t-1.5 -12q1 -23 15 -38t40 -14h4h4q30 3 51.5 22t40.5 40q1 2 2.5 3.5t2.5 3.5q7 8 14 15l15 15q5 5 10.5 7t10.5 1q11 0 18.5 -7.5t7.5 -18.5q0 -6 -3 -11.5t-8 -10.5q-28 -25 -50.5 -57t-41.5 -66l-16 -31q-8 -15 -15 -30h230z" />
    <glyph glyph-name="B" unicode="B" horiz-adv-x="836" 
d="M836 190q-17 -74 -80.5 -119t-136.5 -61q-21 -5 -42 -7.5t-41 -2.5h-498q-16 0 -23.5 8.5t-7.5 18.5q0 11 7.5 19t21.5 8h2h1q15 2 27 13t15 24l39 165l37 164q-9 -6 -19 -10.5t-19 -7.5q-10 -3 -20 -4.5t-19 -1.5q-44 1 -76.5 30t-32.5 78q0 3 0.5 6.5t0.5 6.5l2 13
q1 6 3 13q23 89 139.5 130.5t255.5 40.5h14h12q163 -5 297 -63t125 -160q-3 -43 -31 -72.5t-63 -49.5q47 -20 80.5 -58t33.5 -89q0 -7 -1 -15.5t-3 -16.5zM566 486q6 71 -80.5 112t-190.5 45h-11h-10q-86 0 -157.5 -27.5t-88.5 -86.5q-2 -7 -3 -13.5t-1 -12.5
q1 -26 17.5 -39.5t38.5 -13.5q5 0 10 0.5t10 2.5q10 2 20.5 7.5t19.5 13.5q56 47 124.5 79t141.5 32q10 0 20 -0.5t20 -2.5q10 -1 20 -3.5t20 -5.5q11 -4 16.5 -11.5t5.5 -16.5q0 -10 -7 -18t-21 -8q-15 0 -28 -11.5t-17 -26.5l-46 -200l-46 -202q-2 -7 -4.5 -13t-5.5 -12h9
h10q22 0 42 0.5t40 5.5q17 4 34.5 12.5t36.5 23.5q25 20 45 52t23 67q1 3 1 6v6q0 16 -5 31.5t-16 29.5q-15 20 -37.5 28.5t-46.5 8.5q-20 0 -30 8.5t-10 18.5v2v1q2 8 11 15.5t26 8.5q41 3 69 35.5t31 71.5z" />
    <glyph glyph-name="C" unicode="C" horiz-adv-x="762" 
d="M771 694q-4 -21 -9 -41.5t-9 -40.5l-10 -42l-9 -41q-6 -25 -19.5 -48.5t-33.5 -41.5q-5 -5 -10.5 -7t-10.5 -2q-10 0 -18 8t-8 18q0 5 2.5 10.5t7.5 10.5q13 12 22.5 27.5t13.5 31.5q2 7 3 13.5t1 12.5q0 23 -13.5 41t-45.5 25q-12 3 -24 4t-24 1q-109 0 -189.5 -93.5
t-94.5 -206.5q-2 -10 -2.5 -20t-0.5 -20q0 -40 11 -77.5t34 -69.5q28 -37 68.5 -55.5t83.5 -17.5q34 0 66.5 10.5t60.5 31.5q20 16 34.5 41.5t18.5 53.5q0 4 0.5 8t0.5 8q0 14 -3.5 27t-11.5 25q-8 11 -20.5 18.5t-26.5 8.5h-2h-4q-9 0 -17 -2.5t-15 -8.5l-2 -2l-2 -2
q-5 -5 -9 -12.5t-5 -14.5v-3v-2q0 -4 1.5 -8t5.5 -7q5 -5 7.5 -10.5t2.5 -10.5q0 -11 -8 -19t-19 -7q-5 0 -10 2t-10 6q-11 9 -16.5 20.5t-6.5 23.5q-1 3 -1 5v5v4v4q4 35 32.5 64t65.5 29q61 0 94.5 -41t33.5 -96q0 -7 -0.5 -14.5t-2.5 -15.5q-16 -92 -97.5 -138
t-175.5 -58q-22 -3 -44.5 -4.5t-43.5 -1.5q-25 0 -49.5 2t-45.5 6q-127 22 -185 105.5t-58 186.5q0 14 1 27.5t3 26.5q11 81 52 156.5t106 126.5q56 44 128 70t147 30h11h10q62 0 121 -17t108 -55l6 25l6 26q3 12 10.5 17t16.5 5q10 0 18 -7t8 -19v-4q0 -2 -1 -4z" />
    <glyph glyph-name="D" unicode="D" horiz-adv-x="927" 
d="M883 497q8 -19 14 -38.5t10 -38.5t6 -38.5t2 -38.5q0 -136 -92.5 -239.5t-241.5 -103.5h-125h-125h-125h-125q-14 0 -21.5 9t-6.5 19q0 10 7 18t21 8h2h2q14 2 26 13t16 24l38 165l38 164q-9 -6 -19 -10.5t-19 -6.5q-10 -3 -20 -4.5t-19 -1.5q-44 0 -77.5 29.5
t-32.5 78.5q0 9 1 18.5t4 19.5q21 75 99.5 111.5t168.5 49.5q59 9 115 9.5t96 -2.5q24 -2 48.5 -5.5t49.5 -9.5q89 -20 168.5 -67.5t116.5 -131.5zM630 505q-30 61 -101.5 93.5t-151.5 41.5l-30 2q-15 1 -30 1q-39 0 -75 -5.5t-64 -16.5q-39 -15 -67.5 -37.5t-37.5 -54.5
q-1 -7 -2 -13t-1 -12q0 -26 16.5 -39.5t39.5 -13.5q7 0 14.5 1.5t15.5 4.5t15.5 7t14.5 10q56 47 124.5 79t141.5 32q10 0 20 -0.5t20 -2.5q10 -1 20 -3.5t20 -5.5t16 -10t7 -15v-2v-2q-1 -10 -8 -17.5t-21 -7.5q-16 0 -29 -11.5t-16 -26.5l-47 -201l-46 -201
q-1 -7 -3.5 -13t-6.5 -12h31h32q91 1 144.5 82.5t66.5 178.5q2 16 3 31t1 30q0 36 -6.5 69.5t-19.5 59.5z" />
    <glyph glyph-name="E" unicode="E" horiz-adv-x="750" 
d="M748 693q-7 -33 -15 -67l-16 -67q-4 -22 -17.5 -41t-31.5 -33q-2 -2 -4.5 -3.5t-4.5 -1.5q-3 -1 -5.5 -1.5t-4.5 -0.5q-10 0 -18 8.5t-8 18.5q0 6 3 11.5t9 10.5q12 10 20.5 23t10.5 27q1 2 1 4v4q-1 14 -8.5 26t-24.5 22t-37.5 14.5t-42.5 4.5h-8q-4 0 -8 -1
q-54 -4 -99 -36t-45 -88q-1 -40 30.5 -58t69.5 -23q14 -2 28.5 -3t26.5 -1q14 0 21.5 -8.5t6.5 -19.5q0 -10 -7 -18t-21 -8q-52 0 -100.5 -5.5t-94.5 -37.5q-32 -22 -49 -50.5t-21 -57.5q0 -4 -0.5 -8.5t-0.5 -9.5q1 -53 38.5 -97t102.5 -52q8 -1 16 -1.5t17 -0.5q13 0 27 1
t28 4q52 9 95.5 37.5t43.5 83.5q0 34 -18 50.5t-39 19.5q-3 1 -6 1h-6q-20 0 -35.5 -9t-14.5 -23v-2v-2q0 -1 0.5 -2t0.5 -2v-1l1 -1l2 -2l2 -2q6 -5 9 -11t3 -12q0 -10 -8 -18.5t-19 -8.5q-2 0 -5.5 0.5t-6.5 2.5q-1 1 -2.5 2t-3.5 2q-14 11 -20.5 25t-6.5 28v1v2
q2 33 30.5 60.5t65.5 27.5q54 0 92.5 -34.5t38.5 -91.5q0 -97 -87 -143.5t-191 -56.5q-21 -2 -41 -3t-40 -1q-29 0 -57 2.5t-51 6.5q-10 1 -20 3l-19 4q-69 18 -126.5 62.5t-57.5 125.5q0 92 61.5 149t143.5 79q-35 16 -63 44.5t-28 70.5q0 85 94 133t206 54q9 1 18 1h18
q67 0 126.5 -15.5t94.5 -47.5q1 5 2.5 10.5t2.5 11.5q1 5 2.5 10.5t2.5 10.5q3 11 9.5 16.5t13.5 6.5h2h2q10 0 18 -7t8 -19v-4q0 -3 -1 -5z" />
    <glyph glyph-name="F" unicode="F" horiz-adv-x="846" 
d="M825 666q-15 -16 -27 -34.5t-20 -37.5q-3 -7 -5 -14l-4 -14q-1 -7 -2.5 -13.5t-1.5 -13.5q1 -10 3.5 -18t8.5 -13l2 -2l2 -2q3 -2 5.5 -5t3.5 -7v-2q0 -2 -0.5 -5t-2.5 -5q-2 -6 -6.5 -11t-9.5 -9l-4 -2q-2 -1 -4 -1h-1h-1q-5 0 -9.5 2.5t-8.5 6.5q-34 25 -50.5 63
t-16.5 78q0 13 1.5 25.5t4.5 24.5h-80h-81q-16 0 -29 -11.5t-16 -25.5l-12 -54l-12 -52q-7 -26 -13 -53l-12 -52q11 3 21.5 4.5t21.5 1.5q14 0 28 -3t27 -10q6 -4 13.5 -5.5t15.5 -1.5h5q3 0 6 1q17 2 33 10t26 18q5 5 10 7t10 2q11 -1 19 -9t8 -19q-1 -5 -3 -10t-7 -10
q-18 -17 -43 -29t-52 -14q-3 -1 -7 -1h-7q-14 1 -28 4t-26 10q-6 4 -13 5t-15 1h-4h-4q-14 -2 -27 -6.5t-23 -11.5q-7 -33 -15 -66t-15 -66l-16 -66l-15 -66q-1 -7 -3.5 -13t-6.5 -12q8 0 15.5 -0.5t15.5 -0.5q34 -1 66.5 3t55.5 33q5 7 11 9.5t12 2.5q11 0 19 -8t8 -19
q-1 -4 -2.5 -8.5t-4.5 -9.5q-19 -25 -48 -40.5t-61 -15.5h-192h-191q-15 0 -22 9t-7 19t7.5 18t20.5 8q16 0 29 11t17 26l31 136l32 135l30 135l32 135q2 7 4 13t6 12h-6h-4q-16 0 -30 -0.5t-28 -5.5q-7 -3 -14.5 -7t-14.5 -10q-12 -10 -22.5 -26t-13.5 -33q-1 -3 -1.5 -6.5
t-0.5 -7.5q1 -10 4.5 -18.5t11.5 -16.5q4 -3 6 -6.5t3 -7.5q0 -2 0.5 -3.5t0.5 -3.5q0 -10 -8 -18.5t-19 -8.5q-2 0 -4.5 0.5t-4.5 1.5q-3 1 -5.5 2.5t-4.5 3.5q-17 15 -25 35t-8 42v7q0 3 1 7q0 4 0.5 7.5t1.5 6.5q11 50 54 85t94 35h154h155h154h154q12 0 19.5 -8.5
t7.5 -19.5q0 -4 -2 -8.5t-5 -8.5z" />
    <glyph glyph-name="G" unicode="G" horiz-adv-x="826" 
d="M798 683l-49 -211q-2 -11 -8.5 -16t-14.5 -6h-1h-2q-10 0 -18.5 7t-8.5 20v4q0 1 1 3l19 85q-34 38 -69.5 58t-75.5 20q-27 -1 -55.5 -11t-59.5 -30q-79 -52 -128.5 -140.5t-52.5 -183.5q-1 -9 -0.5 -17.5t0.5 -16.5t1 -17.5t3 -18.5q6 -26 19.5 -48.5t42.5 -26.5
q5 -1 10 -1h8q57 0 89 44t43 97q3 12 4 24l2 22q-26 0 -46.5 -6.5t-38.5 -29.5q-3 -4 -6 -6.5t-7 -3.5q-2 -1 -4.5 -1.5t-4.5 -0.5q-10 0 -18.5 8t-8.5 19q0 3 0.5 6t2.5 6q1 1 2 3t2 3q20 25 48.5 41t60.5 16h52h51q52 0 103.5 0.5t102.5 -0.5q12 -1 18.5 -9t5.5 -19
q0 -10 -6 -18t-18 -8q-17 -1 -31 -10t-19 -28l-25 -111l-26 -112q-25 -106 -120.5 -162t-205.5 -68q-16 -2 -32 -3t-32 -1q-29 0 -57 3t-54 9q-10 2 -21 5.5t-22 7.5q-39 15 -70.5 42t-31.5 70q0 37 28 65.5t66 28.5h4h3q2 0 3.5 -0.5t3.5 -0.5q12 -1 18 -8.5t7 -15.5v-1v-2
q0 -10 -7 -18.5t-21 -7.5h-2h-3h-2h-4q-13 0 -24.5 -9t-14.5 -22q-1 -2 -1 -4v-5q0 -22 22.5 -38t49.5 -25q14 -5 28 -8t24 -4q2 0 4 -0.5t4 -0.5h4h4q60 1 108 47.5t75 101.5q7 16 12.5 31.5t8.5 29.5q-29 -13 -60 -21.5t-63 -11.5q-8 0 -15.5 -0.5t-15.5 -0.5
q-61 0 -117.5 24t-97.5 79q-26 35 -40.5 78t-14.5 91q0 168 131.5 273.5t289.5 115.5q9 1 17 1h16q72 0 140 -23t122 -73q2 8 3.5 16t3.5 16t3.5 16t3.5 16q3 12 10.5 17t16.5 5h2h1q9 -1 16.5 -8t7.5 -19v-3q0 -2 -1 -4z" />
    <glyph glyph-name="H" unicode="H" horiz-adv-x="958" 
d="M947 711q14 0 21 -8t7 -18q-1 -10 -8.5 -19t-23.5 -9q-14 -1 -26 -12t-15 -25l-31 -135l-31 -135l-31 -135l-32 -136q-1 -7 -3.5 -13t-6.5 -12q26 0 46 6.5t36 28.5q5 7 11 9.5t12 2.5q11 0 19 -8t8 -19q-1 -4 -2.5 -8.5t-4.5 -9.5q-19 -25 -48 -40.5t-61 -15.5h-155
h-154q-10 0 -15 9t-4 19q0 10 4.5 18t14.5 8q16 0 29 11.5t17 25.5l17 73l17 73l17 73l16 72h-147l-34 -151l-36 -152q-1 -5 -3 -10l-4 -11q12 5 23 13t19 18q5 7 11 9.5t12 2.5q11 0 19 -8t8 -19q-1 -4 -2.5 -8.5t-4.5 -9.5q-19 -25 -48 -40.5t-61 -15.5h-147h-147
q-15 0 -22.5 8.5t-7.5 18.5v2v1q1 9 8.5 16.5t20.5 7.5q16 0 29.5 11t17.5 26l17 73l17 73l17 73l16 72q-11 0 -20.5 -1t-18.5 -5q-4 -2 -8.5 -4.5t-9.5 -6.5l-2 -2q-1 -1 -3 -2q-6 -6 -12.5 -15.5t-8.5 -19.5q-1 -3 -1.5 -6t-0.5 -6q0 -7 3 -13t8 -11t7.5 -10.5t2.5 -11.5
q0 -10 -7.5 -18t-18.5 -8q-5 0 -10 2t-10 6q-15 14 -21.5 30.5t-6.5 33.5v4v3q2 25 14.5 48t32.5 38q5 4 10 7.5t10 5.5q19 11 39.5 13.5t43.5 2.5l12 49l11 49l12 49l11 49q2 7 4 13t6 12q-27 0 -47.5 -6t-37.5 -29q-5 -7 -11 -9.5t-12 -2.5q-11 0 -19 8t-8 19q1 5 2.5 9.5
t4.5 8.5q20 25 49 40.5t60 15.5h87h88h88h87q14 0 21.5 -8.5t6.5 -19.5q0 -10 -7 -18t-21 -8h-4h-4h-5h-4q-15 0 -28 -11.5t-17 -25.5l-21 -92l-21 -92h146q2 10 4.5 20.5t4.5 20.5q11 53 28.5 100.5t63.5 85.5q48 39 99.5 44.5t107.5 4.5q10 -1 20 -1h20z" />
    <glyph glyph-name="I" unicode="I" horiz-adv-x="765" 
d="M725 657q-15 0 -28 -11.5t-17 -25.5l-27 -116l-26 -116l-27 -116l-27 -116q-15 -67 -72.5 -107t-123.5 -54q-22 -5 -43 -7.5t-41 -2.5q-21 0 -44 2t-47 6q-73 11 -133.5 51.5t-60.5 125.5q0 64 37.5 110t104.5 46q36 0 64 -21.5t33 -57.5v-2v-4q0 -13 -8 -20t-18 -7
q-9 0 -17 6t-10 19q-2 17 -14.5 25t-29.5 8q-44 0 -66 -29t-22 -66v-3v-4q2 -24 12.5 -46.5t29.5 -37.5q16 -12 34 -20t38 -8q53 0 96.5 40.5t54.5 89.5l52 222l51 222q2 7 4 13t5 12h-34h-34h-35h-34q-20 0 -37.5 -14.5t-22.5 -34.5q-3 -12 -10.5 -17t-16.5 -5q-10 0 -18 7
t-8 19v4q0 2 1 4q8 38 40.5 64.5t71.5 26.5h212h211q15 0 22.5 -8.5t6.5 -19.5q0 -10 -7.5 -18t-21.5 -8z" />
    <glyph glyph-name="J" unicode="J" horiz-adv-x="789" 
d="M761 657q-16 0 -29 -11.5t-16 -25.5l-70 -306l-71 -304q-15 -66 -72.5 -106t-123.5 -55q-22 -5 -43 -7.5t-41 -2.5q-21 0 -43.5 1.5t-45.5 5.5q-74 13 -135 53t-61 125q0 63 37.5 109t104.5 46q36 0 64 -21t33 -58v-3v-3q0 -13 -8 -20t-19 -7q-9 0 -16.5 6t-9.5 19
q-3 17 -15.5 25t-28.5 8q-44 0 -66 -29t-22 -66v-4v-3q2 -23 12.5 -45.5t29.5 -37.5q16 -12 34 -20t37 -8q53 0 97 40t55 89l34 148l34 148l34 147l34 148q2 7 4.5 13t5.5 12h-69h-69q-20 0 -37.5 -14.5t-22.5 -34.5q-2 -11 -8.5 -16t-14.5 -6h-1h-2q-10 0 -18.5 7t-8.5 20
v3q0 2 1 4q9 38 41.5 64.5t70.5 26.5h106h106h106h106q14 0 21.5 -8.5t6.5 -19.5q0 -10 -7 -18t-21 -8z" />
    <glyph glyph-name="K" unicode="K" horiz-adv-x="972" 
d="M946 554q-9 -8 -21 -13.5t-25 -7.5q-3 0 -6.5 -0.5t-7.5 -0.5q-22 0 -38.5 12t-16.5 40q0 17 9 25t19 9h2h1q11 0 19 -6.5t8 -19.5v-3q0 -2 -1 -4q13 -1 23.5 10t12.5 24v2v3q0 6 -2 11.5t-7 9.5q-10 9 -23.5 14t-27.5 7q-7 1 -13.5 1.5t-12.5 0.5q-69 0 -123 -41
t-98 -90q-5 -7 -11 -13.5t-11 -12.5q77 -44 110.5 -118t56.5 -153q2 -4 3 -8l2 -8l12 -41q6 -20 13 -40q3 -10 10.5 -14.5t16.5 -4.5h2h2q11 1 21 8t14 17q3 8 10.5 12.5t15.5 4.5q8 -1 14.5 -4.5t9.5 -11.5t4.5 -16.5t1.5 -16.5q0 -33 -20 -61.5t-49 -42.5
q-20 -10 -42.5 -16.5t-45.5 -9.5q-7 0 -14.5 -0.5t-15.5 -0.5q-47 0 -89 19.5t-68 63.5q-22 39 -37 81t-25 86q-1 2 -1.5 4.5t-0.5 4.5q-8 29 -21.5 53.5t-47.5 29.5q-5 1 -8.5 -3.5t-5.5 -9.5q-1 -1 -1.5 -3t-0.5 -3l-53 -230q-1 -7 -4 -13l-6 -12h2h1q30 0 53 4.5t43 30.5
q5 7 11 9.5t12 2.5q11 0 18.5 -7.5t7.5 -18.5q0 -2 -0.5 -4.5t-1.5 -4.5q0 -3 -1.5 -5.5t-3.5 -4.5q-19 -25 -47.5 -40.5t-60.5 -15.5h-87h-88h-87h-88q-14 0 -21.5 8.5t-7.5 18.5v1v2q1 9 8.5 16.5t20.5 7.5q16 0 29.5 11t17.5 26l32 135l31 136l31 135l31 135q2 7 4 13
t6 12q-26 0 -46.5 -6t-38.5 -29q-5 -7 -11 -9.5t-12 -2.5q-10 0 -18 8t-8 18q0 2 0.5 4.5t1.5 5.5q0 2 1.5 4.5t3.5 4.5q19 25 48 40.5t60 15.5h88h87h88h87q14 0 21.5 -8.5t7.5 -19.5q0 -10 -7.5 -18t-21.5 -8q-20 0 -38 -6t-23 -31l-12 -50q-6 -25 -11 -49l-11 -50
l-12 -50l45 53l48 58q61 72 135 131t162 59q12 0 24.5 -1.5t25.5 -4.5q41 -10 67 -36.5t26 -59.5q0 -5 -1 -11t-3 -11q-4 -11 -11 -22t-19 -22z" />
    <glyph glyph-name="L" unicode="L" horiz-adv-x="773" 
d="M777 678l-12 -50l-11 -50l-12 -50l-11 -50q-3 -12 -10.5 -17t-16.5 -5q-10 0 -18 7t-8 19v4q0 2 1 4l5 28q3 13 3 25q0 5 -0.5 10.5t-2.5 10.5q-2 10 -8.5 20.5t-17.5 21.5q-15 14 -32 23t-39 9q-44 0 -82.5 -32t-48.5 -75l-26 -114l-26 -112l-27 -113l-26 -113
q-1 -7 -3.5 -13t-6.5 -12h112h113h2h4q43 3 79.5 38.5t36.5 79.5q0 29 -19 46.5t-48 17.5q-14 0 -26 -9.5t-18 -20.5l-4 -9q-1 -4 -1 -8q0 -7 4.5 -11t13.5 -4q15 0 22.5 -8.5t6.5 -19.5q0 -10 -7.5 -18t-21.5 -8q-32 0 -52 22t-20 50q0 4 0.5 8t1.5 8q1 3 2.5 7t2.5 8
q15 35 42 51t57 16q44 0 81 -31.5t37 -86.5q0 -67 -54.5 -119.5t-121.5 -52.5h-262h-262q-14 0 -21.5 9t-6.5 19q0 10 7 18t21 8h4h3q16 0 29.5 11.5t16.5 25.5l21 93l22 93l22 93l21 93q26 114 117.5 181t206.5 67q12 0 24 -1l24 -2q45 -6 87 -25.5t70 -55.5q4 16 7.5 31.5
t7.5 31.5q3 11 9.5 16.5t13.5 6.5h2h2q10 0 18 -7t8 -19v-5q0 -2 -1 -4z" />
    <glyph glyph-name="M" unicode="M" horiz-adv-x="1156" 
d="M1135 711q14 0 21 -8t7 -18q-1 -10 -8.5 -19t-23.5 -9q-14 -1 -26 -12t-15 -25l-31 -135l-31 -135l-31 -136l-32 -135q-1 -7 -3.5 -13t-6.5 -12q26 0 46 6.5t36 28.5q5 7 11 9.5t12 2.5q11 0 19 -8t8 -19q-1 -4 -2.5 -8.5t-4.5 -9.5q-19 -25 -48 -40.5t-61 -15.5h-154
h-155q-14 0 -21.5 9t-6.5 19q0 10 7 18t21 8q16 0 29 11.5t17 25.5l53 228l52 228q1 4 2.5 8.5t2.5 8.5q2 4 3.5 8.5t2.5 8.5q-55 -46 -99 -106t-81 -123l-16 -30l-16 -29q-36 -67 -69 -137l-64 -140q-4 -10 -19.5 -15.5t-32.5 -5.5q-19 0 -34 7.5t-14 24.5q2 98 -0.5 173
t-8.5 130q-2 20 -4.5 41.5t-6.5 44.5q-12 62 -43.5 114.5t-104.5 52.5q-11 0 -23 -2.5t-24 -6.5q-36 -12 -65.5 -38t-29.5 -58q0 -10 4 -20t11 -21q11 -14 23.5 -20.5t26.5 -6.5q4 0 7.5 0.5t7.5 1.5q23 4 44 19t35 32q1 1 2 2.5t2 2.5q5 7 11 9.5t12 2.5q11 0 19 -8t7 -19
q0 -4 -1.5 -8.5t-4.5 -9.5q-8 -10 -17 -19.5t-19 -17.5l-16 -70l-16 -70l-16 -71l-17 -70q-4 -17 -12.5 -33t-20.5 -30q8 0 15.5 -0.5t14.5 -0.5h3h2q33 -2 64.5 2.5t54.5 33.5q5 7 11 9.5t12 2.5q11 0 18.5 -7.5t7.5 -18.5q0 -2 -0.5 -4.5t-1.5 -4.5q0 -3 -1.5 -5.5
t-3.5 -4.5q-19 -25 -48 -40.5t-61 -15.5h-98h-100q-10 0 -15 9t-5 19t5 18t15 8h2h2q29 2 55 24t33 51l28 117l26 117q-10 -3 -20.5 -4.5t-19.5 -1.5q-52 0 -86 37.5t-34 89.5q0 8 1 16.5t3 17.5q17 73 80.5 119.5t136.5 63.5q21 5 41.5 7.5t39.5 2.5q123 0 207.5 -87.5
t95.5 -207.5l12 18l12 19q65 97 156 177.5t215 80.5h59h60z" />
    <glyph glyph-name="N" unicode="N" horiz-adv-x="872" 
d="M845 657q-16 0 -29 -11.5t-16 -25.5l-34 -150l-35 -149l-35 -150l-35 -150v-2l-1 -1q-2 -5 -7.5 -10t-12.5 -7q-1 -1 -3 -1h-2q-116 0 -160 88.5t-68 194.5q-2 9 -4 17t-4 17q-11 48 -23 92.5t-31 79.5q-21 39 -60.5 62t-81.5 25h-3h-3q-24 0 -47 -7.5t-43 -23.5
q-8 -7 -14.5 -14t-11.5 -14q-7 -11 -10.5 -21.5t-3.5 -20.5q0 -26 19.5 -45t48.5 -19q14 0 28.5 5t29.5 16q9 7 18 15.5t18 20.5q5 7 11 9.5t12 2.5q11 0 19 -7.5t8 -18.5q0 -2 -0.5 -4.5t-1.5 -4.5q0 -3 -1.5 -5.5t-3.5 -4.5q-7 -10 -16 -19.5t-19 -17.5l-16 -70l-16 -70
l-17 -71l-16 -70q-4 -17 -12.5 -33t-20.5 -30h44h43q20 0 37.5 10t28.5 25q5 7 11 9.5t12 2.5q11 0 19 -8t8 -19q-1 -4 -2.5 -8.5t-4.5 -9.5q-19 -25 -48 -40.5t-61 -15.5h-99h-100q-10 0 -15 9t-4 19q0 10 4.5 18t14.5 8q32 0 59 22.5t34 52.5l28 117l26 117
q-10 -3 -20 -4.5t-20 -1.5q-52 0 -86.5 37t-34.5 90q0 8 1 16.5t3 17.5q18 77 88.5 126t151.5 62q14 3 28 4t28 1q16 0 31.5 -1.5t30.5 -5.5q103 -24 168 -112t97 -189q10 -30 16.5 -59.5t10.5 -57.5l20 86l20 87l20 87l20 86q8 32 36 55.5t62 23.5q14 0 21.5 -8.5
t6.5 -19.5q0 -10 -7 -18t-21 -8z" />
    <glyph glyph-name="O" unicode="O" horiz-adv-x="766" 
d="M745 418q2 -9 3.5 -18t2.5 -18q1 -10 1.5 -19t0.5 -18q0 -109 -65 -199.5t-173 -127.5q-34 -12 -71 -18.5t-74 -8.5q-6 -1 -12 -1h-13q-76 0 -147.5 26.5t-120.5 87.5q-34 44 -49.5 95.5t-15.5 105.5q0 17 1.5 34.5t4.5 34.5q28 156 160 253t284 101h6h5q24 0 48 -3
t48 -8q65 -15 116.5 -58.5t51.5 -108.5q0 -11 -2 -23t-6 -24q-9 -31 -38 -53.5t-62 -24.5h-2h-2q-4 0 -8.5 0.5t-9.5 1.5q-28 7 -43.5 29t-15.5 49q0 2 0.5 4t0.5 4q0 3 0.5 7t1.5 7q2 11 8.5 16t14.5 6h1h2q11 0 19 -7t8 -20v-3q0 -2 -1 -4q-1 -3 -1 -6v-5q0 -13 7 -19
t17 -6q8 0 16.5 3.5t15.5 9.5q14 11 19 24.5t5 29.5q0 29 -20 45.5t-45 23.5l-15 4q-7 2 -14 3q-8 1 -15 1.5t-15 0.5q-107 0 -190 -94.5t-100 -207.5q-2 -13 -3 -25.5t-1 -25.5q0 -38 9.5 -73.5t31.5 -66.5q27 -38 62 -55t72 -17q6 0 12.5 0.5t12.5 1.5q51 7 99 37.5
t79 73.5q26 35 40 77.5t16 86.5v7v6q0 7 -0.5 14.5t-0.5 14.5l-2 14q-1 8 -3 15q-1 2 -1 4v4q1 13 9.5 20t18.5 6q8 0 15.5 -5.5t10.5 -17.5z" />
    <glyph glyph-name="P" unicode="P" horiz-adv-x="938" 
d="M922 471q8 -91 -57.5 -168t-151.5 -97q-16 -4 -34.5 -6t-37.5 -2h-4h-3q-56 1 -105 26t-62 85q-1 2 -1 5v4q1 12 9 19t18 7q8 -1 15.5 -6.5t10.5 -16.5l4 -12q2 -6 5 -11q5 -3 11 -4.5t12 -1.5q3 0 6.5 0.5t6.5 1.5q16 3 32 15t28 25l9 11q4 5 7 10q18 26 26 51t8 48
q0 87 -95.5 142.5t-210.5 60.5q-6 1 -11 1h-11q-91 0 -168.5 -38.5t-103.5 -124.5q-1 -3 -1.5 -6t-1.5 -5q0 -3 -0.5 -6t-0.5 -6q1 -26 20 -42t43 -16q4 0 7.5 0.5t7.5 1.5q9 2 18.5 7.5t16.5 14.5q14 17 28 32t28 28q44 43 91 67.5t104 24.5q25 0 51.5 -4.5t56.5 -15.5
q9 -3 13.5 -9t5.5 -12v-2v-2q0 -10 -7 -18.5t-20 -8.5q-16 0 -29 -11.5t-16 -25.5l-46 -201l-47 -200q-1 -7 -3.5 -13.5t-6.5 -12.5h53h52q19 0 36.5 10.5t29.5 25.5q3 4 6 6.5t7 3.5q2 1 4.5 1.5t4.5 0.5q11 0 19 -8t8 -19q0 -2 -0.5 -5.5t-2.5 -6.5q-1 -1 -2 -2.5t-2 -3.5
q-19 -25 -47.5 -41t-60.5 -16h-52h-52h-52h-52h-104q-52 0 -104 1q-11 0 -17 8t-6 18q0 11 7 19t21 8q19 0 34.5 7.5t20.5 29.5l17 72l17 74l17 73l16 73q-16 -12 -34 -17.5t-36 -5.5q-45 0 -80.5 32.5t-35.5 81.5q0 9 1.5 18t4.5 19q35 113 164.5 168t279.5 55h2h1
q164 -1 303 -67.5t150 -195.5z" />
    <glyph glyph-name="Q" unicode="Q" horiz-adv-x="774" 
d="M754 -62q-7 -1 -14 -2.5t-13 -1.5q-7 -1 -14 -1.5t-14 -0.5q-47 0 -88.5 22.5t-55.5 71.5q-46 -22 -98.5 -33t-107.5 -11q-78 0 -150.5 27t-120.5 87q-34 44 -49.5 96t-15.5 106q0 17 1.5 34.5t4.5 34.5q28 156 161.5 253.5t287.5 100.5h4h3q24 0 48 -3t47 -8
q65 -15 116.5 -58.5t51.5 -108.5q0 -11 -2 -23t-6 -24q-10 -31 -39.5 -54.5t-63.5 -23.5q-5 0 -9.5 0.5t-9.5 1.5q-28 6 -43.5 28.5t-15.5 49.5q0 2 0.5 3.5t0.5 3.5q0 4 0.5 7.5t1.5 6.5q2 12 10 17.5t17 5.5q10 0 18 -7t8 -20v-2v-2q0 -1 -0.5 -2t-0.5 -2q-1 -4 -1.5 -7
t-0.5 -5q0 -12 7 -17.5t16 -5.5q4 0 8 0.5t8 2.5q12 4 23 14t15 23q2 7 3 13.5t1 12.5q0 26 -18 44t-47 26q-7 2 -14.5 3.5t-14.5 2.5q-8 1 -15 1.5t-15 0.5q-107 0 -189.5 -93.5t-100.5 -205.5q-2 -14 -3 -27t-1 -26q0 -38 9.5 -73.5t31.5 -66.5q27 -38 61.5 -55t71.5 -17
q9 0 18.5 1t18.5 3q19 4 37.5 11t36.5 17q-4 36 -30.5 52t-58.5 17h-2h-4q-10 0 -20.5 -1.5t-20.5 -3.5q-2 -1 -4 -1h-5q-13 0 -20 9t-7 19q1 8 6 15t17 10q14 3 27.5 5t27.5 2h2h2q44 -1 83.5 -22t54.5 -68q49 41 75 100.5t26 123.5q0 8 -0.5 15t-0.5 15l-2 15q-1 7 -3 14
q-1 2 -1 4v3q0 13 9 20t19 7h2h1q8 -1 14.5 -6.5t8.5 -16.5q4 -18 6 -36t2 -36q-1 -83 -39.5 -159.5t-109.5 -124.5q4 -38 32 -53t61 -16h2h1q11 0 21 1.5t19 3.5q1 0 2.5 0.5t2.5 0.5h2h3q12 0 19 -8.5t6 -18.5q0 -8 -5.5 -15.5t-16.5 -10.5v-1z" />
    <glyph glyph-name="R" unicode="R" horiz-adv-x="941" 
d="M931 118q3 -4 5 -8.5t3 -8.5q2 -4 2.5 -8.5t0.5 -8.5q-1 -27 -21.5 -49t-46.5 -31q-25 -8 -56.5 -13.5t-63.5 -5.5q-47 0 -91 13.5t-73 44.5q-18 20 -28.5 50.5t-19.5 64.5q0 2 -0.5 3.5t-1.5 3.5q-2 9 -4.5 18.5t-5.5 18.5q-8 28 -21.5 52t-39.5 34q-10 4 -15 11t-5 15
q1 10 8 18t20 8q2 0 5 -0.5t6 -1.5h1h1q2 0 3.5 -0.5t3.5 -1.5q1 0 2 -1h1q1 -1 2 -1.5t2 -0.5q6 -2 11 -3t11 -2q11 -2 22 -3t22 -1q31 -1 54.5 24t31.5 55q2 6 3 12t1 12q1 103 -88 156t-196 61q-11 1 -22 1.5t-22 0.5q-60 0 -113 -13t-87 -39q-3 -2 -6.5 -5t-6.5 -7
q-12 -12 -23 -28.5t-19 -33.5q-5 -12 -8 -23.5t-3 -21.5q1 -18 12 -30t39 -11q27 1 46.5 16t37.5 33l1 1q7 6 13 12t13 12q24 19 46.5 34t44.5 26q25 11 49.5 17t51.5 6q25 0 51.5 -5t57.5 -16q8 -3 12 -9.5t3 -14.5q0 -10 -6.5 -19t-17.5 -9q-15 -1 -28 -12.5t-16 -25.5
l-24 -100l-22 -100l-24 -101l-23 -100q-1 -7 -3.5 -13t-6.5 -12q26 0 46.5 6.5t37.5 28.5q5 7 11 9.5t12 2.5q11 0 19 -8t8 -19q-1 -4 -2.5 -8.5t-4.5 -9.5q-19 -25 -48 -40.5t-61 -15.5h-329q-11 0 -17 8.5t-6 18.5v1v2q1 9 8 16.5t20 7.5q19 0 34.5 7t20.5 29l36 158
l37 158q-14 -10 -29 -16t-31 -8q-5 -1 -10 -1.5t-10 -0.5q-41 1 -71.5 26.5t-30.5 70.5q0 9 2 19.5t5 20.5q33 108 126 154t198 56q18 2 36 2.5t36 0.5q22 0 43 -1t40 -3q29 -3 60 -7.5t62 -10.5q106 -24 196.5 -83.5t101.5 -178.5q1 -4 1 -9v-8q0 -73 -55.5 -109.5
t-121.5 -47.5q-4 -1 -7.5 -1.5t-6.5 -0.5q33 -19 47 -43.5t24 -51.5l11 -30q6 -15 15 -30q3 -6 10.5 -9.5t15.5 -5.5h3h4q8 1 15 3.5t10 9.5q4 8 11 12.5t14 3.5q7 0 12.5 -3t9.5 -8z" />
    <glyph glyph-name="S" unicode="S" horiz-adv-x="734" 
d="M740 693l-11 -48l-11 -46l-10 -48l-12 -47q-2 -11 -8.5 -16t-14.5 -6h-1h-2q-10 0 -18.5 7t-8.5 20v3q0 2 1 4l6 28q2 13 1 24q0 23 -12 42t-45 36q-12 6 -26 9t-29 3h-6q-4 0 -7 -1q-36 -3 -67.5 -22t-39.5 -52q0 -1 -0.5 -2.5t-0.5 -2.5v-2v-3q0 -20 16.5 -36t36.5 -29
q11 -7 21.5 -13t18.5 -11l16 -10l16 -10q59 -38 108.5 -88t49.5 -129v-11q0 -6 -1 -12q-9 -98 -86 -153.5t-167 -72.5q-22 -4 -44 -6t-43 -2q-29 0 -63.5 3t-70.5 8q-80 15 -146 54.5t-66 118.5q0 53 35 92.5t89 39.5q41 0 68 -26t27 -64q0 -4 -0.5 -9t-1.5 -10
q-2 -13 -10 -18.5t-17 -5.5q-10 1 -18.5 8t-8.5 20v2l1 1v2v1q1 3 1 6v4q0 17 -11.5 26t-27.5 9q-4 0 -8 -0.5t-8 -2.5q-19 -5 -36 -22t-19 -45q-5 -56 52.5 -91t126.5 -38h7h6q59 0 108.5 27t57.5 87q1 5 1 10v8q0 49 -37 81t-84 61l-8 6l-10 5q-51 32 -94.5 70t-43.5 101
q0 10 1.5 20.5t3.5 20.5q19 84 93 127t159 52q12 2 23.5 2.5t23.5 0.5q24 0 47.5 -3t44.5 -8q6 -1 13 -3l12 -4q29 -9 56 -24.5t47 -38.5l6 28q3 13 7 26q2 12 10 17.5t17 5.5q10 0 18 -7t8 -20v-2v-2q0 -1 -0.5 -2t-0.5 -2z" />
    <glyph glyph-name="T" unicode="T" horiz-adv-x="813" 
d="M801 661l-5 -5q-3 -3 -5 -7q-9 -11 -17 -28t-12 -35q-2 -8 -3 -16t-1 -15q1 -14 5 -25.5t13 -19.5q6 -5 9 -11t3 -12q0 -11 -8 -19t-19 -8q-4 1 -8.5 2.5t-9.5 4.5q-35 24 -51.5 62.5t-16.5 79.5q0 13 1.5 25.5t4.5 24.5h-72q-14 0 -27 -11.5t-17 -24.5q0 -1 -0.5 -1.5
t-0.5 -1.5l-30 -135l-32 -135l-31 -136l-31 -135q-1 -7 -4 -13l-6 -12h4h2q29 0 53 4.5t45 30.5q5 7 11 9.5t12 2.5q11 0 18.5 -7.5t7.5 -18.5q0 -2 -0.5 -4.5t-1.5 -4.5q0 -3 -1.5 -5.5t-3.5 -4.5q-19 -25 -48 -40.5t-61 -15.5h-166h-167q-15 0 -22.5 9t-7.5 19q1 10 8 18
t21 8h2h2q14 2 26 13t16 24l31 135l31 136l32 135l30 135q2 7 4.5 13.5t6.5 13.5h-4h-5q-35 0 -66.5 -1.5t-62.5 -12.5q-11 -4 -22.5 -9.5t-22.5 -12.5q-5 -3 -9.5 -6.5t-9.5 -8.5q-15 -13 -28.5 -31.5t-17.5 -37.5q0 -3 -0.5 -6.5t-0.5 -6.5q0 -8 2.5 -16t7.5 -16
q8 -10 17 -14t19 -4h5q2 0 5 1q9 1 18.5 5.5t17.5 10.5q2 1 3.5 2t2.5 2q3 2 6.5 2.5t5.5 0.5q11 -1 19 -9t8 -19q0 -6 -3 -11.5t-10 -10.5q-9 -7 -19 -12t-19 -9q-10 -3 -20 -4.5t-19 -1.5q-40 0 -70.5 29t-30.5 74q0 8 1.5 15.5t2.5 14.5q14 60 65.5 98t110.5 51
q17 4 33 6t31 2h136h135q67 0 135 -0.5t136 -0.5q8 0 12 -7t4 -17q0 -7 -3 -14.5t-9 -12.5z" />
    <glyph glyph-name="U" unicode="U" horiz-adv-x="851" 
d="M839 656q-13 0 -24.5 -10.5t-16.5 -22.5q0 -1 -0.5 -2.5t-0.5 -2.5l-31 -134l-31 -135l-31 -135l-32 -135q-1 -7 -3.5 -13t-6.5 -12h10h10q30 -1 56.5 3t48.5 32q5 7 11 9.5t12 2.5q11 0 18.5 -7.5t7.5 -18.5q0 -2 -0.5 -4.5t-1.5 -4.5q0 -3 -1.5 -5.5t-3.5 -4.5
q-19 -25 -48 -40.5t-61 -15.5h-139h-141q-14 0 -19.5 9t-5.5 22q0 5 0.5 11t2.5 12q1 6 2 11t3 10q2 8 4 14.5t3 10.5q-43 -43 -102 -77.5t-121 -37.5h-4h-5q-24 0 -47 5.5t-45 18.5q-52 30 -71 84.5t-18 114.5v6v6q1 38 6.5 74t13.5 66q2 6 3.5 12.5t3.5 12.5
q21 76 54.5 147.5t72.5 124.5h-6h-7q-29 0 -53.5 -4t-45.5 -31q-5 -7 -11 -9.5t-12 -2.5q-11 0 -19 8t-8 19q1 5 2.5 9.5t4.5 8.5q20 25 49 40.5t60 15.5h152h152q12 0 19.5 -8.5t7.5 -19.5q-1 -4 -2 -7.5t-3 -6.5q-14 -20 -30 -46.5t-32 -58.5q-18 -35 -35.5 -74t-32.5 -79
l-10 -29q-5 -15 -9 -30q-2 -6 -4 -13l-4 -16q-4 -15 -7.5 -33t-5.5 -36q0 -7 -0.5 -14t-0.5 -14q0 -27 8 -49.5t28 -31.5q8 -4 15.5 -5.5t14.5 -1.5q28 1 52 20.5t43 43.5q5 6 9 12l8 11l41 173l39 173q14 58 64 99t109 41h128q11 0 15.5 -8.5t4.5 -19.5v-1v-2
q-1 -9 -6 -16.5t-14 -7.5z" />
    <glyph glyph-name="V" unicode="V" horiz-adv-x="827" 
d="M803 485q-37 -66 -92 -123t-113 -110l-38 -34l-37 -33q-44 -40 -79.5 -86t-61.5 -99q-4 -8 -14.5 -12t-22.5 -4h-1h-2q-12 1 -22.5 6.5t-12.5 15.5q-5 27 -12.5 55t-17.5 56q-14 40 -30.5 79.5t-33.5 74.5q-2 2 -3 4.5t-2 4.5q-1 3 -2.5 6t-3.5 5q-18 37 -33 75.5
t-21 83.5l-2 21q-1 10 -1 20q0 11 0.5 21.5t1.5 20.5q4 32 12 63.5t18 60.5h-7h-7q-30 0 -55 -4t-47 -31q-5 -7 -11 -10t-12 -2q-10 0 -18 8t-8 18q0 2 0.5 4.5t1.5 5.5q0 2 1.5 4.5t3.5 4.5q19 25 48 40.5t60 15.5h142h141q12 0 19.5 -9t7.5 -20q0 -2 -0.5 -4.5t-1.5 -4.5
q-12 -26 -21.5 -54t-14.5 -56l-2 -19q-1 -10 -1 -19q0 -12 1.5 -24t4.5 -24q8 -29 18 -56l22 -55l27 -68q13 -35 20 -72q116 103 178.5 171.5t88.5 114.5q7 13 12 27t8 28q0 5 0.5 9.5t0.5 9.5q0 29 -14 53.5t-46 34.5q-7 2 -14 3.5t-14 1.5q-25 0 -41.5 -14t-23.5 -32
q-3 -5 -4 -10.5t-1 -10.5q0 -11 6 -18.5t18 -7.5q4 0 9 1.5t11 3.5q3 2 6 2h6q12 0 19.5 -8.5t7.5 -19.5q0 -7 -4.5 -14t-14.5 -11q-11 -4 -21.5 -6t-20.5 -2q-34 0 -55 22t-20 62q2 53 39.5 84.5t86.5 31.5q11 0 21.5 -1.5t20.5 -5.5q50 -16 73 -54.5t23 -84.5
q0 -6 -0.5 -12.5t-1.5 -13.5q-2 -19 -8.5 -38t-16.5 -37z" />
    <glyph glyph-name="W" unicode="W" horiz-adv-x="1107" 
d="M1113 598v-2q2 -20 -7 -63.5t-68 -130.5q-45 -66 -96 -128l-101 -124q-1 -2 -2.5 -3.5t-2.5 -3.5l-52 -63l-52 -64q-2 -10 -12 -13.5t-22 -3.5h-2h-4q-13 1 -25 7t-14 15q-17 78 -42.5 154t-56.5 150q-71 -75 -133 -153t-118 -165q-4 -7 -14.5 -10t-21.5 -3
q-16 0 -29 6.5t-14 20.5q-1 27 -5.5 55t-11.5 56q-8 38 -20 75l-24 73q-17 50 -26 93.5t-8 84.5q0 9 0.5 18t1.5 18q3 38 14.5 78t31.5 85h-5h-4q-28 0 -51 -3t-45 -21q-3 -3 -6.5 -6t-6.5 -7q-3 -3 -6.5 -5.5t-7.5 -3.5q-2 0 -3.5 -0.5t-3.5 -0.5q-10 0 -18.5 8t-8.5 19
q0 2 0.5 4.5t1.5 5.5q1 2 2.5 4.5t3.5 4.5q22 23 52 39t62 16h76h76h76h76q11 0 18.5 -8.5t7.5 -19.5q0 -4 -1.5 -8.5t-4.5 -8.5q-31 -35 -55 -78.5t-24 -92.5v-6q0 -2 1 -5q0 -3 0.5 -5.5t0.5 -5.5q3 -18 6.5 -36t6.5 -37q1 -3 1.5 -6t1.5 -6l12 -67q6 -33 9 -67
q80 95 146.5 201.5t116.5 218.5q3 8 10 11.5t14 3.5h1h2q8 -1 14.5 -6t8.5 -13l30 -107l30 -106l29 -108l30 -106q12 15 41 48.5t61 77.5q16 20 30.5 41t27.5 43q22 36 36.5 71.5t14.5 64.5q0 21 -9.5 38.5t-30.5 27.5q-6 3 -13.5 5t-14.5 2q-3 1 -6 1h-4q-22 0 -40 -11
t-20 -34q-1 -9 3 -12.5t11 -3.5q4 0 8 1t8 3q1 0 1.5 0.5t1.5 0.5q1 1 2.5 1.5t2.5 0.5q4 2 7 2h6q11 0 18.5 -8t7.5 -18q0 -8 -4.5 -15t-15.5 -11q-13 -5 -24.5 -7.5t-21.5 -2.5q-31 0 -47.5 20.5t-16.5 47.5q0 4 0.5 8.5t1.5 8.5q6 30 32.5 55.5t72.5 28.5q54 3 93.5 -32
t43.5 -88z" />
    <glyph glyph-name="X" unicode="X" horiz-adv-x="882" 
d="M859 113q-11 -49 -54.5 -77.5t-94.5 -39.5q-21 -5 -42.5 -7.5t-39.5 -2.5q-142 0 -198.5 93.5t-82.5 211.5l-234 -237h55h56h3h3q18 2 34 11.5t26 23.5q5 7 11 9.5t12 2.5q11 0 18.5 -7.5t7.5 -18.5q0 -2 -0.5 -4.5t-1.5 -4.5q0 -3 -1.5 -5.5t-3.5 -4.5
q-19 -25 -47.5 -40.5t-60.5 -15.5h-96h-95q-11 0 -17 9t-6 19q0 9 4 16t13 9q1 0 2.5 0.5t2.5 1.5q6 2 11 6t9 8l141 143l141 142l-10 51q-5 29 -12 60q-15 56 -42 102t-77 46h-8q-3 0 -7 -1q-28 -4 -41.5 -15.5t-12.5 -24.5q0 -11 8 -21.5t24 -18.5q8 -4 12 -9t5 -11
q1 -1 1 -2v-3q0 -10 -7.5 -18.5t-19.5 -8.5q-3 0 -6 1t-7 2q-31 14 -47.5 37.5t-16.5 53.5q0 6 1 12t2 13q11 48 54 76.5t93 41.5q22 5 43 7.5t40 2.5q131 0 188 -80t85 -187l187 197h-11h-10q-31 1 -58.5 -3t-49.5 -32q-5 -7 -11 -9.5t-12 -2.5q-10 0 -18 8t-8 18
q0 2 0.5 4.5t1.5 5.5q0 2 1.5 4.5t3.5 4.5q19 25 48 40.5t60 15.5h36h36h35h36q11 0 16.5 -8.5t5.5 -19.5q0 -9 -4 -16t-13 -9q-2 -1 -4.5 -2t-5.5 -2l-6 -4l-6 -4l-2 -1l-1 -2l-58 -61l-58 -62l-59 -61l-58 -62q2 -7 3 -14t3 -13q1 -7 2.5 -14t2.5 -14q1 -4 2 -8.5t1 -8.5
q19 -91 45 -159t89 -67h8q4 0 8 1q3 1 6 1.5t6 1.5q15 6 27.5 18t11.5 26q0 4 -1.5 8.5t-4.5 8.5q-3 5 -9 8.5t-12 5.5q-3 0 -5 0.5t-4 0.5q-5 0 -9 -2.5t-6 -8.5q-3 -11 -9.5 -16.5t-13.5 -6.5h-2h-2q-10 0 -18.5 7t-8.5 20v2v2q0 1 0.5 2t0.5 2q6 22 25.5 36.5t41.5 16.5
h4h3q39 0 63 -30.5t24 -67.5v-5q0 -3 -1 -6q0 -3 -0.5 -5.5t-1.5 -5.5z" />
    <glyph glyph-name="Y" unicode="Y" horiz-adv-x="825" 
d="M818 667l-54 -67l-54 -67q-2 -2 -3 -3.5t-3 -3.5l-204 -246q-104 -122 -227 -226h39h40h39h39h3h3q18 2 34 11.5t26 23.5q5 7 11 9.5t12 2.5q11 0 18.5 -7.5t7.5 -18.5q0 -2 -0.5 -4.5t-1.5 -4.5q0 -3 -1.5 -5.5t-3.5 -4.5q-19 -25 -47.5 -40.5t-60.5 -15.5h-116h-117
q-11 0 -18.5 8t-8.5 18v1v2q0 5 2.5 10t7.5 9q38 29 74 60t70 64q-35 37 -56.5 81.5t-34.5 90.5q-7 26 -13 51.5t-11 50.5q-1 6 -2.5 11.5t-2.5 10.5q-12 55 -28 92.5t-53 37.5h-3h-2q-1 -1 -2 -1h-3q-19 -3 -32.5 -13.5t-13.5 -24.5q0 -7 6 -14.5t19 -13.5q9 -4 13 -10.5
t4 -14.5q0 -10 -7.5 -18.5t-19.5 -8.5q-3 0 -6 1t-7 2q-28 13 -44.5 35.5t-16.5 51.5q0 6 1 12t2 13q10 47 52 74t89 39q21 5 41 7.5t38 2.5q137 0 186.5 -96.5t73.5 -211.5l4 -21l4 -22l241 291h-49h-50h-3h-3q-18 -2 -34 -11.5t-26 -23.5q-5 -7 -11 -9.5t-12 -2.5
q-10 0 -18 8t-8 18q0 2 0.5 4.5t1.5 5.5q0 2 1.5 4.5t3.5 4.5q19 25 48 40.5t60 15.5h39h40h39h39q12 0 19 -8.5t7 -19.5q0 -4 -1.5 -8t-4.5 -8z" />
    <glyph glyph-name="Z" unicode="Z" horiz-adv-x="802" 
d="M789 662q-51 -37 -89.5 -89.5t-72.5 -107.5l-24 -40l-24 -39h5h4q29 0 53 4.5t44 31.5q5 6 11 9t12 3q11 0 19 -8t8 -19q0 -4 -1.5 -8.5t-5.5 -9.5q-34 -44 -74.5 -51t-88.5 -6h-9h-10l-32 -54l-33 -57q-27 -46 -57 -90t-66 -77h137h138q7 0 14 2t15 5q22 10 41 30t27 42
l2 10q1 5 1 10q0 10 -4 19t-14 16q-4 3 -8 4.5t-7 3.5q-4 1 -8 1.5t-8 0.5q-15 0 -27.5 -8t-19.5 -17q-4 -5 -5.5 -9t-1.5 -8q0 -3 1 -4.5t4 -2.5q17 -4 24 -11.5t7 -16.5q0 -10 -9 -18t-23 -7h-2h-3q-2 0 -3 0.5t-3 0.5q-19 4 -32 22t-14 39v1v2q0 7 1 13t4 12
q13 29 39.5 45.5t55.5 19.5h5h4q16 0 31.5 -4.5t28.5 -14.5q22 -16 31 -35.5t9 -41.5q0 -5 -0.5 -10.5t-1.5 -11.5q-10 -49 -53.5 -90.5t-94.5 -42.5h-1h-2h-588q-16 0 -27.5 8t-11.5 18q0 2 0.5 4t1.5 4q2 4 6 8.5t10 7.5q57 33 97 86.5t74 111.5l15 26l15 26l11 19
q5 9 11 18h-8h-10q-30 1 -56 -3t-48 -32q-5 -7 -11 -10t-12 -2q-10 0 -18 8t-8 18q0 2 0.5 4.5t1.5 5.5q0 2 1.5 4.5t3.5 4.5q35 44 77.5 50.5t91.5 5.5h14h14l12 20l12 19l10 16l9 17q31 51 65 101.5t76 92.5h-13h-14q-31 1 -60.5 0t-58.5 -9q-14 -3 -27 -8t-27 -12l-12 -6
l-11 -7q-30 -18 -47.5 -37.5t-32.5 -44.5l-9 -17l-9 -17q-4 -8 -10.5 -12t-14.5 -3q-10 0 -18.5 7.5t-8.5 18.5q0 4 1 7.5t3 7.5l49 91l48 91q5 9 11 13t13 4q10 0 18 -7.5t8 -20.5q0 -5 -1.5 -10.5t-4.5 -10.5q47 25 96 30.5t99 5.5h342q12 0 19.5 -8.5t6.5 -19.5
q0 -6 -2.5 -11.5t-7.5 -9.5z" />
    <glyph glyph-name="bracketleft" unicode="[" horiz-adv-x="647" 
d="M616 680q0 -1 0.5 -2.5t0.5 -2.5q1 -2 1 -3v-3q-1 -12 -9 -19t-19 -7h-2h-2q-6 1 -12 6.5t-9 14.5q-6 18 -23 23.5t-37 5.5q-7 0 -14.5 -0.5t-13.5 -0.5t-11.5 -0.5t-9.5 -0.5q1 -3 1.5 -5.5t0.5 -4.5v-5v-5q0 -4 -0.5 -8.5t-1.5 -9.5l-33 -143l-33 -144l-34 -143
l-33 -144q-1 -7 -3.5 -13t-6.5 -12h8h8q30 -1 55.5 3.5t46.5 31.5q5 7 11 9.5t12 2.5q11 0 18.5 -7.5t7.5 -18.5q0 -2 -0.5 -4.5t-1.5 -4.5q0 -3 -1.5 -5.5t-3.5 -4.5q-19 -25 -47.5 -40.5t-60.5 -15.5h-154h-153q-14 0 -21.5 9t-6.5 19q0 10 7 18t21 8q16 0 29 11.5
t17 25.5l66 288l66 286q1 2 1 5v3q0 8 -4.5 13t-13.5 5q-15 0 -22.5 9t-7.5 19t7.5 18t21.5 8h153h153q32 0 57 -17t35 -48z" />
    <glyph glyph-name="backslash" unicode="\" horiz-adv-x="300" 
d="M369 -165h-78l-330 980h78z" />
    <glyph glyph-name="bracketright" unicode="]" horiz-adv-x="611" 
d="M574 690q-16 0 -29 -11.5t-17 -25.5l-66 -287l-66 -287q-1 -2 -1 -4v-4q0 -7 4.5 -12.5t13.5 -5.5q15 0 22.5 -8.5t7.5 -19.5q0 -10 -7.5 -17.5t-21.5 -7.5h-153h-153q-31 0 -56.5 16.5t-35.5 47.5q0 2 -0.5 3t-0.5 3q-1 1 -1 3v2q1 12 9.5 19t18.5 7h2h2q6 -1 12 -6.5
t9 -14.5q6 -18 23 -23.5t37 -5.5q7 0 14.5 0.5t13.5 0.5t11.5 0.5t9.5 0.5q-1 3 -1.5 5.5t-0.5 4.5v5v5q0 5 0.5 9.5t1.5 8.5l34 144l33 143l33 143l33 144q2 7 4 13t6 12h-8h-8q-30 1 -55.5 -3.5t-46.5 -31.5q-5 -7 -11 -9.5t-12 -2.5q-10 0 -18 8t-8 18q0 2 0.5 4.5
t1.5 5.5q0 2 1.5 4.5t3.5 4.5q19 25 48 40.5t60 15.5h154h153q14 0 21.5 -8.5t6.5 -19.5q0 -10 -7 -18t-21 -8z" />
    <glyph glyph-name="asciicircum" unicode="^" horiz-adv-x="500" 
 />
    <glyph glyph-name="underscore" unicode="_" horiz-adv-x="800" 
d="M815 -143h-830v76h830v-76z" />
    <glyph glyph-name="grave" unicode="`" horiz-adv-x="340" 
d="M285 667q5 -4 7.5 -10.5t2.5 -14.5v-4v-3q-2 -14 -11 -25t-24 -11q-4 0 -9.5 1.5t-11.5 4.5l-39 19q-17 8 -32 16q-3 1 -5.5 2.5t-4.5 2.5l-37 21l-45 25q-13 7 -18 17.5t-5 21.5v2v3q3 22 19.5 40.5t37.5 18.5q7 0 13.5 -2.5t12.5 -7.5l30 -24l25 -18l37 -30z" />
    <glyph glyph-name="a" unicode="a" horiz-adv-x="784" 
d="M764 409q-16 0 -29.5 -11.5t-17.5 -27.5l-32 -144l-34 -144q-1 -7 -3.5 -13.5t-5.5 -12.5q22 0 40.5 9.5t31.5 26.5q4 5 8 7.5t8 4.5q2 0 4 0.5t4 0.5q11 0 19.5 -8t7.5 -20q0 -4 -1.5 -9t-5.5 -10q-19 -25 -49 -41.5t-63 -16.5h-219h-2h-3h-4h-4q-7 0 -13 2t-10 7
q-1 2 -2 3.5t-2 3.5t-1 4v3q0 2 0.5 4t0.5 4q1 1 1 2t1 2q0 3 1 6t1 6q-33 -20 -71 -32t-76 -15h-8h-8q-46 0 -89.5 17.5t-75.5 55.5q-22 27 -32 58.5t-10 63.5q0 13 1 25t4 24q22 95 106 160.5t180 71.5h8h7q48 0 93 -18t76 -56q39 42 90.5 53t104.5 11q10 0 19.5 -0.5
t19.5 -0.5h17h17q14 0 21 -7.5t8 -16.5v-1v-2q0 -11 -7.5 -20t-21.5 -9zM459 338q-5 29 -18 41.5t-30 12.5q-7 0 -15 -2t-16 -6q-12 -6 -24 -15t-22 -21l-1 -1l-2 -2q-20 -23 -38.5 -58t-26.5 -73q-2 -11 -3.5 -22.5t-1.5 -22.5q0 -16 3 -30.5t10 -27.5q8 -13 18 -19t20 -6
q4 0 8 0.5t8 1.5q14 4 28 13.5t25 19.5q2 2 4 4.5t4 4.5q8 9 15.5 19t14.5 21l18 77q9 38 17 76q1 2 1.5 4t1.5 4q0 1 0.5 3t1.5 4z" />
    <glyph glyph-name="b" unicode="b" horiz-adv-x="797" 
d="M746 401q23 -27 32.5 -57t9.5 -61v-4v-3q-2 -60 -35 -116t-81 -93q-40 -31 -89.5 -49t-100.5 -18h-442q-15 0 -22.5 9t-7.5 19q0 11 7.5 19.5t21.5 8.5h2h2q14 2 27 13t17 25l29 130l30 125l28 126l30 129q2 7 4.5 13.5t6.5 12.5q-28 0 -49 -6.5t-39 -29.5
q-5 -7 -11 -9.5t-12 -2.5q-10 0 -19 8t-8 19q0 2 0.5 4.5t1.5 5.5q0 2 1.5 4.5t3.5 4.5q20 26 49.5 42t62.5 16h119h120q11 0 19.5 -8.5t8.5 -19.5v-2v-1l-1 -1v-2l-14 -60q-7 -28 -13 -55l-13 -56l-14 -60q33 21 71.5 35t78.5 17q6 0 12 0.5t12 0.5q47 0 90 -17.5t74 -55.5
zM544 243q2 8 2.5 18.5t0.5 20.5q0 6 -0.5 11.5t-0.5 11.5q-3 32 -17.5 59t-45.5 27q-33 0 -57 -28.5t-39 -63.5q-8 -16 -13 -32t-8 -29l-18 -78l-18 -78q-1 -7 -4 -13l-6 -13h43q6 0 11 1l12 2q38 10 73 43.5t57 72.5q11 18 18 35.5t10 32.5z" />
    <glyph glyph-name="c" unicode="c" horiz-adv-x="594" 
d="M591 423q-7 -18 -14.5 -35.5t-14.5 -35.5l-15 -36l-14 -36q-4 -10 -11 -14t-15 -4q-10 0 -18.5 7t-8.5 19q0 3 1 6t2 7q4 8 5.5 17.5t1.5 19.5v1v2q-1 28 -17.5 51t-47.5 23q-55 0 -94 -42.5t-56 -93.5l-6 -23q-3 -11 -4 -22q-1 -6 -1 -12v-12v-4v-2q1 -45 23 -82.5
t70 -43.5q2 0 4.5 -0.5t5.5 -0.5h4h5q45 0 86 22t72 53q5 5 10.5 7.5t10.5 2.5q11 0 18.5 -8t7.5 -19q0 -4 -2 -9.5t-7 -10.5q-48 -50 -115.5 -80.5t-138.5 -36.5q-10 -1 -20.5 -1.5t-21.5 -0.5q-21 0 -41.5 2t-40.5 6q-74 17 -128.5 68.5t-54.5 126.5q0 10 1.5 20.5
t3.5 21.5q30 129 134.5 181t225.5 52q10 0 20.5 -0.5t21.5 -1.5q31 -3 61.5 -12t58.5 -25q1 2 1.5 4.5t1.5 3.5q5 10 12 14.5t14 4.5q11 0 19 -7.5t8 -18.5v-3q0 -2 -1 -3q0 -2 -0.5 -3.5t-1.5 -3.5z" />
    <glyph glyph-name="d" unicode="d" horiz-adv-x="722" 
d="M753 653l-32 -140l-32 -137q0 -3 -0.5 -5t-1.5 -5l-32 -142l-34 -145q-1 -4 -3 -8.5t-4 -9.5q5 2 9.5 4.5t8.5 5.5q5 4 10 5.5t9 1.5q11 0 18.5 -8t7.5 -19q0 -6 -2.5 -11.5t-9.5 -10.5q-17 -13 -38 -21t-43 -8h-61h-61h-61h-62q-9 0 -16.5 2.5t-9.5 15.5
q-24 -9 -50 -13.5t-52 -4.5q-46 0 -88 16.5t-73 53.5q-22 26 -32 55.5t-10 59.5v7q0 3 1 7q3 56 35 108t77 87q35 26 78.5 43.5t88.5 20.5q5 1 11 1h10q37 0 71.5 -11t63.5 -36l4 -2l2 -3q2 -2 3.5 -3t2.5 -3q6 28 12 53l12 50l12 50q6 25 12 53q2 7 4 13t6 12
q-27 0 -47.5 -6t-37.5 -29q-5 -7 -11 -9.5t-12 -2.5q-11 0 -19 8t-8 19q1 5 2.5 9.5t4.5 8.5q20 25 49 40.5t60 15.5h58h58h58h58q11 0 19 -8.5t8 -19.5v-2q-1 -1 -1 -2v-1zM434 307v2q0 1 1 2v2v2q0 4 -1 8.5t-2 8.5q-4 17 -16.5 31.5t-29.5 14.5q-34 0 -62.5 -29
t-47.5 -64q-9 -17 -15.5 -33t-10.5 -29t-6.5 -29t-2.5 -33q1 -15 3.5 -29t9.5 -26q7 -13 16.5 -18.5t20.5 -5.5q8 0 16 2.5t16 6.5q16 9 31 23t27 29q9 11 15.5 22t9.5 20q10 30 17 60.5t11 61.5z" />
    <glyph glyph-name="e" unicode="e" horiz-adv-x="634" 
d="M614 274l-151 -46l-151 -46q-3 -1 -6 -2.5t-6 -2.5q-4 -1 -8.5 -3t-8.5 -3q-5 -2 -10 -3l-10 -2q13 -40 42.5 -67t74.5 -28q47 -1 90 20.5t75 54.5q5 5 10.5 7.5t10.5 2.5q11 0 19 -8t7 -19q0 -5 -2 -10t-7 -10q-50 -52 -120 -81.5t-143 -35.5q-9 -1 -18.5 -1.5
t-18.5 -0.5q-22 0 -44.5 2.5t-43.5 7.5q-73 16 -129.5 67t-56.5 127q0 10 1.5 20.5t3.5 20.5q30 128 134.5 180t224.5 54h2h2q76 0 134 -35t82 -110q1 0 1.5 0.5t1.5 0.5t1 1h1q2 0 3 0.5t3 0.5q1 1 2 1h3q12 -1 19 -9t7 -19q0 -8 -5 -15t-16 -11zM408 386q-4 9 -11 15.5
t-18 6.5q-53 0 -82 -40t-39 -88q-3 -16 -4 -31t-1 -29q1 0 2.5 0.5t2.5 0.5q37 11 69 25.5t58 45.5q10 12 17.5 28t9.5 33q1 2 1 4v5q0 6 -1.5 12t-3.5 12z" />
    <glyph glyph-name="f" unicode="f" horiz-adv-x="545" 
d="M522 453q-24 -32 -52 -37t-65 -5h-1h-2l-18 -83l-20 -83l-19 -83l-19 -83q-1 -7 -4 -13l-6 -12q12 0 23 0.5t21 3.5q6 2 12.5 5t13.5 8q2 2 4.5 3.5t5.5 1.5q2 1 4.5 1.5t4.5 0.5q11 0 18 -8t7 -19q0 -6 -2.5 -11.5t-9.5 -10.5q-16 -13 -37 -21t-43 -8h-294
q-14 0 -21.5 8.5t-7.5 18.5v1v2q1 9 8.5 16.5t20.5 7.5h2h2q14 2 26 13t16 24l18 80q9 40 19 80l18 80l18 80h-4h-4q-22 0 -39.5 -3t-33.5 -23q-5 -7 -11 -10t-12 -2q-10 0 -18 8t-8 18q0 5 1.5 9.5t5.5 8.5q28 36 61 42t73 6h5h6h1q-4 13 -6.5 25.5t-2.5 25.5
q0 73 60 130.5t133 67.5q6 1 12.5 1.5t12.5 0.5q31 0 59.5 -11t50.5 -37q11 -11 20 -31t13 -41q1 -6 1.5 -11.5t0.5 -11.5q0 -22 -12 -38.5t-41 -16.5q-3 0 -5.5 0.5t-4.5 0.5q-14 4 -25.5 15.5t-11.5 24.5q0 5 1.5 9t5.5 8q6 7 8.5 13t1.5 11q0 8 -6.5 13t-16.5 5h-4
q-1 0 -3 -1q-8 -1 -15.5 -6.5t-13.5 -16.5q-4 -7 -5.5 -14.5t-1.5 -15.5q0 -12 3 -24t7 -24t7 -25t3 -26h4h4q18 0 33 2.5t28 18.5q5 7 11 9.5t12 2.5q11 0 18.5 -7.5t7.5 -18.5q0 -2 -0.5 -4.5t-1.5 -4.5q0 -3 -1.5 -5.5t-3.5 -4.5z" />
    <glyph glyph-name="g" unicode="g" horiz-adv-x="733" 
d="M740 411q-14 -1 -26 -12t-15 -25l-37 -158l-36 -158q-24 -103 -112.5 -149t-189.5 -53q-12 -1 -23.5 -1.5t-23.5 -0.5h-10h-10q-21 1 -41 3t-39 5q-13 2 -33 6.5t-42 11.5q-35 11 -63.5 30t-28.5 48v6q0 3 1 6q2 12 10 17.5t17 5.5q10 0 18 -7t8 -20v-2v-2q0 -1 -0.5 -2
t-0.5 -2q-1 -3 10 -9t30 -13q20 -8 41.5 -13.5t42.5 -7.5q8 -1 15 -1.5t14 -0.5q24 0 47 5t44 17l11 7l11 7q24 18 32.5 36t14.5 45q2 7 3.5 14.5t3.5 16.5q-31 -19 -67.5 -31t-74.5 -14h-7h-8q-45 0 -87 16.5t-73 53.5q-22 26 -31.5 55.5t-9.5 59.5v3v4q2 58 34 112.5
t79 90.5q33 26 74 42t83 20q8 1 15.5 1.5t14.5 0.5q46 0 87.5 -16.5t72.5 -54.5q40 43 91 52.5t105 9.5q6 0 12.5 -0.5t12.5 -0.5h16h16q17 0 25.5 -8t8.5 -19v-2v-1q-1 -8 -9.5 -15.5t-22.5 -8.5zM449 343q0 2 -1 4.5t-1 4.5q-5 16 -15.5 29.5t-28.5 13.5
q-44 0 -81.5 -47.5t-53.5 -104.5q-5 -17 -7.5 -33.5t-2.5 -31.5q0 -16 3 -30t9 -25q8 -13 17 -19t19 -6q7 0 14 2t14 6q14 7 27 18t24 23l15 18q7 8 11 15q2 11 4.5 22t4.5 22q2 8 3.5 15.5t3.5 14.5q4 23 9.5 45.5t12.5 43.5z" />
    <glyph glyph-name="h" unicode="h" horiz-adv-x="757" 
d="M723 29q-31 -24 -63.5 -26.5t-67.5 -2.5h-13h-13h-51h-58h-26h-25q-12 0 -19.5 9t-7.5 19q0 5 1.5 8.5t4.5 7.5l11 13l10 13q33 43 62 94t41 104q2 12 3.5 24.5t1.5 24.5v8q0 3 -1 6q-1 19 -9.5 34t-29.5 15q-6 0 -11.5 -1t-11.5 -3q-17 -5 -33 -15t-30 -22l-9 -7l-8 -8
l-28 -122l-28 -123q-1 -4 -3 -8.5t-4 -9.5q5 2 9.5 4.5t8.5 5.5q2 2 4.5 3.5t5.5 1.5q2 1 4.5 1.5t4.5 0.5q11 0 18.5 -8t7.5 -19q0 -6 -3 -11.5t-9 -10.5q-17 -13 -38 -21t-43 -8h-122h-123q-15 0 -22.5 9t-6.5 19q0 10 7.5 18t21.5 8h2h1q15 2 27 13t15 24l62 266l61 265
q2 7 4 13t6 12q-26 0 -47 -6t-38 -29q-5 -7 -11 -9.5t-12 -2.5q-10 0 -18 8t-8 18q0 2 0.5 4.5t1.5 5.5q0 2 1.5 4.5t3.5 4.5q19 25 48 40.5t60 15.5h117h115q11 0 19.5 -8.5t7.5 -19.5v-2v-3l-14 -64l-16 -64l-14 -64l-16 -64q32 20 70 34t77 18q6 0 12 0.5t12 0.5
q44 0 83 -17.5t66 -58.5q17 -24 24 -50.5t7 -54.5q0 -6 -0.5 -11.5t-0.5 -11.5q-6 -58 -37 -113t-70 -94q12 0 22.5 2t20.5 7q3 2 6.5 4t6.5 4q5 4 10 5.5t9 1.5q11 0 18.5 -8t7.5 -19q0 -6 -2.5 -11.5t-9.5 -10.5z" />
    <glyph glyph-name="i" unicode="i" horiz-adv-x="402" 
d="M392 432l-20 -88l-20 -88l-21 -89l-20 -88q-1 -7 -4 -13l-6 -12q13 0 24 2.5t22 9.5q2 1 4 2.5t4 2.5q2 2 4.5 3.5t5.5 1.5q2 1 4.5 1.5t4.5 0.5q11 0 18 -8t7 -19q0 -6 -2.5 -11.5t-9.5 -10.5q-17 -13 -37.5 -21t-42.5 -8h-139h-138q-15 0 -22.5 9t-7.5 19q1 10 8 18
t21 8h2h2q14 2 26 13t16 24l17 74l17 74l17 73l17 74q2 7 4 13t6 12q-20 0 -38 -9.5t-31 -25.5q-5 -7 -11 -9.5t-12 -2.5q-10 0 -18 8t-8 18q0 2 0.5 4.5t1.5 5.5q0 2 1.5 4.5t3.5 4.5q19 25 48 40.5t60 15.5h108h108q11 0 19 -8.5t8 -19.5v-1v-1l-1 -1v-2zM448 596
q0 -45 -34.5 -71.5t-75.5 -31.5q-4 0 -8.5 -0.5t-8.5 -0.5q-5 0 -9.5 0.5t-9.5 0.5q-40 6 -73.5 32.5t-33.5 70.5t33.5 71t73.5 33q5 0 9.5 0.5t9.5 0.5q4 0 8.5 -0.5t8.5 -0.5q41 -5 75.5 -32t34.5 -72z" />
    <glyph glyph-name="j" unicode="j" horiz-adv-x="441" 
d="M453 432l-26 -110l-25 -111l-26 -111l-26 -110q-14 -59 -64 -97.5t-108 -48.5l-18 -2q-8 -1 -17 -1h-3h-3q-39 1 -74.5 18.5t-55.5 51.5l-2 4l-2 4q0 3 -0.5 5t-0.5 4q0 11 8.5 18t18.5 7q7 0 13.5 -4t10.5 -11t8 -11t10 -4h2q1 0 2 1q1 0 2 0.5t2 0.5q7 3 13.5 10
t9.5 14q0 1 0.5 2t0.5 2l25 108l25 108l26 109l24 108q2 7 4.5 13t5.5 12q-20 0 -38 -9.5t-30 -25.5q-5 -7 -11 -9.5t-12 -2.5q-11 0 -19 8t-8 19q1 5 2.5 9.5t4.5 8.5q20 25 48.5 40.5t60.5 15.5h108h108q11 0 19 -8.5t7 -19.5v-3v-2zM483 596q0 -45 -34.5 -71.5
t-75.5 -31.5q-4 0 -8.5 -0.5t-8.5 -0.5q-5 0 -9.5 0.5t-9.5 0.5q-40 6 -73.5 32.5t-33.5 70.5t33.5 71t73.5 33q5 0 9.5 0.5t9.5 0.5t10.5 -0.5t10.5 -1.5q40 -6 73 -32.5t33 -70.5z" />
    <glyph glyph-name="k" unicode="k" horiz-adv-x="755" 
d="M758 324q-11 -47 -49.5 -72.5t-82.5 -37.5q-11 -3 -22 -5l-22 -4q19 -17 33.5 -39.5t27.5 -45.5q4 -6 7 -11l6 -12q4 -7 8.5 -10t8.5 -3q3 0 6.5 1.5t7.5 4.5t7.5 6.5t6.5 7.5q4 4 8.5 6t8.5 2q11 0 20.5 -8.5t9.5 -19.5v-2v-1q0 -1 -0.5 -2t-0.5 -2q-15 -41 -54.5 -62
t-84.5 -24q-4 -1 -8 -1h-10q-16 0 -32.5 2.5t-30.5 7.5q-51 17 -69.5 55.5t-31.5 83.5q-1 6 -2.5 11.5t-3.5 10.5q-1 4 -2.5 8.5t-2.5 8.5q-1 3 -2 5.5t-2 5.5q-2 6 -6.5 11t-11.5 8q-1 0 -2 0.5t-2 1.5l-3 2h-2q-10 4 -15 11t-5 15q1 11 7.5 19t17.5 8h3q1 0 3 -1
q1 0 2.5 -0.5t2.5 -0.5l14 -4q7 -2 14 -2q3 -1 7 -1h7q20 0 38.5 5t34.5 15q8 5 14 9.5t10 9.5q6 7 8.5 14t2.5 13q0 19 -20.5 31.5t-50.5 12.5q-6 0 -12.5 -1t-13.5 -3q-29 -7 -54.5 -29t-32.5 -51q-8 -30 -15 -60.5t-13 -60.5l-9 -41l-10 -41q-1 -7 -3.5 -13t-6.5 -12
q22 0 40.5 9t31.5 26q5 7 11 9.5t12 2.5q11 0 19 -8t8 -19q-1 -4 -2.5 -8.5t-4.5 -9.5q-19 -25 -48 -40.5t-61 -15.5h-69h-69h-69h-70q-15 0 -22 8.5t-7 18.5v2v1q1 9 8 16.5t20 7.5q16 0 29 11.5t17 25.5l27 115l26 114q2 7 3.5 14t3.5 15l29 129l30 129q2 7 4 13t6 12
q-27 0 -47.5 -6t-37.5 -29q-5 -7 -11 -9.5t-12 -2.5q-11 0 -19 8t-8 19q1 5 2.5 9.5t4.5 8.5q20 25 49 40.5t60 15.5h58h58h58h58q11 0 19 -8.5t8 -19.5v-2l-1 -1v-2l-14 -61l-14 -61q-1 -5 -2 -9t-2 -9l-12 -52l-12 -52q41 29 88 45t96 16q17 0 34 -2t34 -6q45 -10 80 -38
t34 -74v-6q0 -4 -1 -7q0 -3 -0.5 -6.5t-1.5 -6.5z" />
    <glyph glyph-name="l" unicode="l" horiz-adv-x="428" 
d="M452 653l-33 -144l-33 -143l-33 -143l-34 -144q-1 -7 -4 -13l-6 -12q22 0 40.5 9t31.5 26q5 7 11 9.5t12 2.5q11 0 18.5 -7.5t7.5 -18.5q0 -2 -0.5 -4.5t-1.5 -4.5q0 -3 -1.5 -5.5t-3.5 -4.5q-19 -25 -47.5 -40.5t-60.5 -15.5h-69h-70h-69h-70q-14 0 -21.5 8.5t-7.5 18.5
v2v1q1 9 8.5 16.5t20.5 7.5h2h2q14 2 26 13t16 24l27 115l26 114l34 143l33 144q2 7 4 13t5 12q-26 0 -46.5 -6t-37.5 -29q-5 -7 -11 -9.5t-12 -2.5q-11 0 -19 8t-8 19q1 5 2.5 9.5t4.5 8.5q20 25 49 40.5t60 15.5h58h58h58h58q11 0 19 -8.5t8 -19.5v-2q-1 -1 -1 -2v-1z" />
    <glyph glyph-name="m" unicode="m" horiz-adv-x="1120" 
d="M1096 29q-17 -13 -37.5 -21t-42.5 -8h-237q-12 0 -19.5 9t-7.5 19q0 5 1.5 8.5t4.5 7.5l12 14l11 15q32 42 61 92.5t41 102.5q2 12 3.5 24.5t1.5 24.5v8q0 3 -1 6q-1 19 -9.5 34t-29.5 15q-4 0 -8.5 -0.5t-9.5 -1.5q-20 -5 -39.5 -18t-36.5 -27l-11 -11l-11 -11
q0 -3 0.5 -6.5t0.5 -7.5q1 -4 1 -7v-7q0 -64 -32 -124.5t-76 -104.5q14 0 25 0.5t22 4.5q5 2 10.5 5t11.5 7q2 2 4.5 3.5t5.5 1.5q2 1 4.5 1.5t4.5 0.5q11 0 18 -8t7 -19q0 -6 -2.5 -11.5t-9.5 -10.5q-17 -13 -37.5 -21t-43.5 -8h-236q-12 0 -19.5 9t-7.5 19q0 5 1.5 8.5
t4.5 7.5l11 14l12 15q32 42 61 92.5t41 102.5q2 12 3.5 24.5t1.5 24.5q0 35 -12 49t-29 13q-10 0 -20.5 -3.5t-21.5 -8.5q-14 -7 -27 -16t-24 -19l-4 -2l-2 -3l-29 -123l-28 -125q-1 -4 -3 -8.5t-4 -9.5q5 2 9.5 4.5t8.5 5.5q2 2 4.5 3.5t5.5 1.5q2 1 4.5 1.5t4.5 0.5
q11 0 18.5 -8t7.5 -19q0 -6 -3 -11.5t-9 -10.5q-18 -13 -38.5 -21t-42.5 -8h-245q-15 0 -22.5 9t-6.5 19q0 10 7.5 18t21.5 8h2h1q15 2 27 13t15 24l17 74l17 74l17 73l17 74q2 7 4.5 13t5.5 12q-26 0 -46.5 -6t-37.5 -29q-5 -7 -11 -9.5t-12 -2.5q-11 0 -19 8t-8 19
q1 5 2.5 9.5t4.5 8.5q20 25 48.5 40.5t60.5 15.5h116h116q15 0 20.5 -9.5t4.5 -20.5v-6q0 -3 -1 -6q30 17 65 28t71 13q4 1 8 1h8q47 -1 88.5 -20t67.5 -65q33 28 78 50.5t93 30.5q11 2 22.5 3t22.5 1q43 0 81.5 -17.5t65.5 -58.5q17 -25 24 -51.5t7 -54.5q0 -8 -0.5 -16.5
t-2.5 -16.5q-8 -55 -37.5 -107.5t-67.5 -88.5q14 0 25 0.5t22 4.5q5 2 10.5 5t11.5 7q2 2 4.5 3.5t5.5 1.5q2 1 4.5 1.5t4.5 0.5q11 0 18 -8t7 -19q0 -6 -2.5 -11.5t-9.5 -10.5z" />
    <glyph glyph-name="n" unicode="n" horiz-adv-x="768" 
d="M734 29q-17 -13 -38 -21t-43 -8h-47h-47h-70h-72q-12 0 -19.5 9t-7.5 19q0 5 1.5 8.5t4.5 7.5l11 13l10 13q33 43 62 94t41 104q2 12 3.5 24.5t1.5 24.5v8q0 3 -1 6q-1 19 -9.5 34t-29.5 15q-6 0 -11.5 -1t-11.5 -3q-17 -5 -33 -15t-30 -22l-9 -7l-8 -8l-14 -61l-14 -61
l-14 -61l-14 -62q-1 -4 -3 -8.5t-4 -9.5q5 2 9.5 4.5t8.5 5.5q2 2 4.5 3.5t5.5 1.5q2 1 4.5 1.5t4.5 0.5q11 0 18.5 -8t7.5 -19q0 -6 -3 -11.5t-9 -10.5q-17 -13 -38 -21t-43 -8h-122h-123q-15 0 -22.5 9t-6.5 19q0 10 7.5 18t21.5 8h2h1q15 2 27 13t15 24l18 74l16 74
l18 73l16 74q2 7 4.5 13t5.5 12q-26 0 -46.5 -6t-37.5 -29q-5 -7 -11 -9.5t-12 -2.5q-11 0 -19 8t-8 19q1 5 2.5 9.5t4.5 8.5q20 25 48.5 40.5t60.5 15.5h116h116q11 0 19 -8.5t8 -19.5v-2l-1 -1v-2q-1 -3 -1.5 -5.5t-0.5 -4.5q-1 -2 -1.5 -4.5t-1.5 -5.5q32 20 70 34t77 18
q6 0 12 0.5t12 0.5q44 0 83 -17.5t66 -58.5q17 -24 24 -50.5t7 -54.5q0 -6 -0.5 -11.5t-0.5 -11.5q-6 -58 -37 -113t-70 -94q12 0 22.5 2t20.5 7q3 2 6.5 4t6.5 4q5 4 10 5.5t9 1.5q11 0 18.5 -8t7.5 -19q0 -6 -2.5 -11.5t-9.5 -10.5z" />
    <glyph glyph-name="o" unicode="o" horiz-adv-x="620" 
d="M599 281q5 -16 7.5 -31.5t2.5 -29.5q0 -82 -60.5 -140.5t-140.5 -77.5q-28 -5 -57.5 -8.5t-59.5 -3.5q-61 0 -119.5 17.5t-100.5 62.5q-29 32 -42.5 67t-12.5 71q0 62 34.5 118.5t89.5 93.5q38 25 94.5 43t116.5 23q8 0 16 0.5t16 0.5q48 -1 92 -12.5t76 -39.5
q18 -16 28.5 -36.5t10.5 -42.5q-1 -16 -6.5 -30.5t-18.5 -27.5q5 2 8.5 2.5t6.5 0.5q8 0 12 -5t7 -15zM548 265q0 1 -0.5 2t-0.5 2q-1 3 -1.5 5.5t-0.5 4.5v2v1l1 1v1q-8 -4 -17 -7.5t-18 -4.5q-3 -1 -6 -1h-6q-15 0 -28.5 5.5t-24.5 17.5q-7 9 -11 20t-3 22v4v3q0 1 0.5 3
t0.5 3q3 12 10.5 17t16.5 5q10 0 18 -7t8 -19v-3q0 -3 -1 -5v-1v-2q0 -4 3.5 -6.5t8.5 -1.5q3 0 6 0.5t6 1.5q7 2 14 6.5t10 10.5q1 3 1.5 6t0.5 6q0 17 -16.5 26.5t-35.5 12.5q-10 2 -20.5 3t-17.5 1q-71 0 -131 -59.5t-70 -131.5q0 -5 -0.5 -10.5t-0.5 -10.5
q0 -23 7 -45.5t23 -42.5q20 -25 45.5 -36t53.5 -10h9q4 0 8 1q39 4 76 25t59 51q15 20 22.5 43.5t7.5 48.5q0 11 -1.5 21.5t-4.5 20.5z" />
    <glyph glyph-name="p" unicode="p" horiz-adv-x="761" 
d="M709 394q22 -26 31.5 -55.5t9.5 -59.5v-6q0 -4 -1 -8q-3 -56 -35 -108t-77 -87q-35 -27 -78.5 -44t-88.5 -20q-5 -1 -10 -1h-11q-42 0 -81 14.5t-70 47.5l-8 -35l-8 -35q-5 -18 -9 -35l-8 -36q-1 -7 -4 -13l-6 -13h6h5q14 0 27 0.5t26 5.5q5 2 10.5 5t11.5 7q2 1 3.5 2
t2.5 2q3 2 6.5 2.5t5.5 0.5q11 -1 19 -9.5t8 -18.5q0 -6 -3 -12t-9 -10q-17 -14 -38 -21.5t-43 -7.5h-126h-126q-10 0 -18.5 8.5t-8.5 19.5v1l1 1v2v1l29 126l30 127l28 128l30 126q2 7 4.5 13t5.5 12q-26 0 -46.5 -6t-38.5 -29q-5 -7 -11 -9.5t-12 -2.5q-10 0 -18 8t-8 18
q0 2 0.5 4.5t1.5 5.5q0 2 1.5 4.5t3.5 4.5q20 25 48.5 40.5t60.5 15.5h116h116q16 0 21 -7.5t4 -18.5v-4v-4l-2 -11l-2 -10q32 22 71 36t79 17q6 1 11 1h12q45 0 86.5 -16t72.5 -54zM496 356q-8 15 -19 21.5t-23 6.5q-5 0 -10 -1t-10 -3q-14 -5 -27 -15t-23 -23
q-11 -13 -21 -30t-18 -37q-1 -4 -2 -8.5t-2 -8.5l-8 -39q-4 -20 -4 -39q0 -16 3.5 -32t12.5 -32t20 -22.5t23 -6.5q4 0 8 1l8 2q14 5 28 15.5t25 23.5q20 23 34.5 58t19.5 72q1 7 1.5 14t0.5 14q0 19 -4 36.5t-13 32.5z" />
    <glyph glyph-name="q" unicode="q" horiz-adv-x="780" 
d="M747 411q-16 0 -29 -11.5t-16 -25.5l-52 -226l-52 -224q-1 -7 -3.5 -13t-5.5 -12q26 0 45.5 7t35.5 28q5 7 11 9.5t12 2.5q11 0 18.5 -8t7.5 -18q0 -2 -0.5 -4.5t-1.5 -5.5q0 -2 -1.5 -4.5t-3.5 -4.5q-19 -25 -47.5 -40.5t-60.5 -15.5h-117h-118q-10 0 -18.5 8.5
t-7.5 19.5v1v1v1v2l21 89l21 89q-31 -21 -68.5 -34.5t-75.5 -16.5q-6 0 -12 -0.5t-12 -0.5q-45 0 -87 17t-73 54q-22 26 -31.5 55.5t-9.5 59.5v3v4q2 58 34 112.5t79 90.5q33 25 74 41.5t83 20.5q8 1 15.5 1.5t14.5 0.5q47 0 88.5 -17t72.5 -55q37 49 90.5 61t109.5 12h17
h17h15h15q17 0 25.5 -8.5t8.5 -19.5q0 -10 -7 -18t-21 -8zM442 306v2q0 1 1 3v2v2q0 5 -1 10l-2 10q-4 18 -16 33.5t-30 15.5q-34 0 -62.5 -29t-47.5 -63q-9 -17 -16 -33.5t-10 -29.5q-3 -11 -5.5 -28t-2.5 -36q0 -25 7.5 -47.5t29.5 -28.5q3 -1 6 -1.5t6 -0.5q7 0 13.5 2
t13.5 5q18 9 36 25.5t31 34.5q9 12 15.5 23.5t9.5 20.5q8 26 14 53t10 55zM454 416l-1 1v-1h1z" />
    <glyph glyph-name="r" unicode="r" horiz-adv-x="577" 
d="M573 399q8 -16 12 -31.5t4 -29.5q-1 -46 -34.5 -74.5t-74.5 -34.5q-4 0 -8.5 -0.5t-8.5 -0.5q-34 1 -62 20t-33 61v2v1q0 11 9 18t20 7q6 0 11.5 -3t9.5 -8q6 -9 14 -13t16 -4h3h2q18 3 33.5 20t18.5 37q1 2 1 4v4q-1 20 -20 34.5t-66 13.5q-6 0 -12 -2t-13 -5
q-19 -11 -35.5 -31.5t-21.5 -44.5l-60 -260q-1 -7 -4 -13l-6 -12h12q5 0 11 -1h8h7q21 -1 42 2.5t39 16.5q5 4 9.5 5.5t8.5 1.5q11 -1 19 -9t8 -19q0 -6 -3 -11.5t-10 -10.5q-17 -13 -37.5 -21t-42.5 -8h-285q-10 0 -18.5 8.5t-8.5 19.5v1l1 1v2v1l40 177l41 176q2 7 4.5 13
t5.5 12q-18 -1 -35 -11t-28 -24q-5 -7 -11 -9.5t-12 -2.5q-10 0 -18 8t-8 18q0 2 0.5 4.5t1.5 5.5q0 2 1.5 4.5t3.5 4.5q20 25 48.5 40.5t60.5 15.5h52h53q26 -1 52 -1h52q11 0 21 2l22 4l21 4q11 2 22 2q6 0 12.5 -0.5t12.5 -0.5q40 -4 75.5 -21.5t54.5 -54.5z" />
    <glyph glyph-name="s" unicode="s" horiz-adv-x="542" 
d="M526 319q0 -14 -8.5 -21t-19.5 -7q-10 1 -19 8.5t-9 20.5v5q0 2 1 4q0 1 0.5 2.5t0.5 2.5v3v2q0 20 -16.5 37t-36.5 28q-9 5 -17 8t-15 5q-5 2 -13.5 3t-17.5 1q-4 0 -7.5 -0.5t-7.5 -0.5q-17 -2 -32 -8t-21 -18q-1 -1 -1 -2v-4q0 -13 18.5 -24.5t40.5 -20.5l31 -11
l22 -8q2 -1 4 -1.5t4 -1.5q47 -20 86 -55.5t38 -86.5q0 -9 -1.5 -18t-4.5 -19q-7 -19 -19 -36.5t-29 -33.5q-43 -39 -101.5 -55.5t-120.5 -16.5q-30 0 -59 3.5t-57 10.5q-60 16 -96 43t-35 64q2 32 26.5 58t55.5 30h3h3q13 0 20 -8t7 -19q0 -9 -6 -16.5t-19 -9.5
q-13 -1 -23 -11.5t-13 -23.5v-2v-1q-1 -1 -1 -2v-1q0 -14 16 -24t35 -16q14 -4 26 -7t19 -4l15 -2q7 -1 16 -1q6 0 12 0.5t12 1.5q24 3 45.5 13.5t26.5 32.5q0 1 0.5 2t0.5 2v2v2q0 21 -25 37.5t-55 29.5l-34 14q-17 6 -28 12q-33 16 -56 44.5t-23 64.5q0 5 0.5 9.5t1.5 8.5
q6 32 29 59.5t58 46.5t76 29.5t84 10.5h6h5q40 -2 78.5 -14t69.5 -36v9v8v8v9q0 14 9 21.5t19 6.5q10 0 18 -7t8 -21v-73v-75z" />
    <glyph glyph-name="t" unicode="t" horiz-adv-x="447" 
d="M460 451q-14 -19 -35.5 -30.5t-45.5 -11.5h-2h-3h-3h-3l-32 -141l-33 -141q-1 -1 -1 -3v-3q0 -7 4 -9.5t10 -2.5h3h2q5 1 9.5 3t7.5 5q12 9 23 19l20 21q5 5 10.5 7.5t11.5 2.5q11 0 18.5 -7.5t7.5 -18.5q0 -5 -1.5 -10t-6.5 -10q-44 -49 -106.5 -85t-129.5 -36h-10h-11
l-11 2l-11 2q-42 10 -62.5 37.5t-20.5 64.5q0 8 1 16.5t3 17.5l16 66l15 68l16 67l15 68h-8h-9q-14 0 -27.5 -8t-22.5 -19q-3 -4 -6 -6.5t-7 -3.5q-2 -1 -4.5 -1.5t-4.5 -0.5q-10 0 -18.5 8t-8.5 19q0 3 0.5 6t2.5 6q1 1 2 3t2 3q16 21 40.5 34.5t51.5 13.5h15h14l10 39
q4 20 9 39q4 20 9 39.5t9 38.5l4 13l4 13q-21 0 -39 -9t-31 -26q-5 -7 -11 -10t-12 -2q-10 0 -18 8t-8 18q0 5 1.5 9.5t5.5 8.5q19 25 48 41t60 16h56h56h56h56q11 0 19 -8.5t8 -19.5v-1v-1q-1 -1 -1 -2v-1l-12 -51q-6 -25 -11 -51l-12 -51l-12 -50q11 0 20.5 6.5t16.5 14.5
q3 4 6 6.5t7 3.5q2 1 4.5 1.5t4.5 0.5q11 0 19 -8t8 -19q0 -2 -0.5 -5.5t-2.5 -6.5q-1 -1 -2 -2.5t-2 -3.5z" />
    <glyph glyph-name="u" unicode="u" horiz-adv-x="725" 
d="M724 56q-19 -25 -48 -40.5t-61 -15.5h-117h-117q-10 0 -18.5 8.5t-8.5 19.5q0 1 1 2v1v2q0 2 0.5 4.5t1.5 4.5t1.5 4.5t0.5 4.5q-31 -19 -68.5 -32.5t-75.5 -17.5q-6 0 -12 -0.5t-12 -0.5q-43 0 -82 17.5t-66 57.5q-16 25 -23.5 51.5t-7.5 54.5q0 7 0.5 14t1.5 14
q7 57 37 111t69 91q-12 0 -22.5 -2t-20.5 -7q-3 -2 -6.5 -4t-6.5 -4q-5 -4 -9.5 -5.5t-9.5 -1.5q-11 0 -18.5 8.5t-7.5 18.5q0 6 2.5 12t9.5 10q17 14 38 21.5t43 7.5h48h46h70h72q12 0 19.5 -8.5t7.5 -19.5q0 -4 -1.5 -8t-4.5 -8l-11 -14l-12 -15q-33 -44 -63 -96.5
t-40 -106.5q-2 -10 -3 -20.5t-1 -21.5v-8q0 -4 1 -8q2 -17 10.5 -31.5t29.5 -14.5q6 0 12 1t12 3q15 5 30 14t28 19q4 4 8.5 8t8.5 7l11 48l11 48l11 47l11 48q16 69 72.5 103t123.5 34h52h51q14 0 21 -8t7 -18t-8 -19t-24 -9q-14 -1 -26 -12t-15 -25l-16 -74l-18 -73
l-16 -74l-18 -74q-1 -7 -3.5 -13t-5.5 -12q26 0 45.5 7t35.5 28q5 7 11 9.5t12 2.5q11 0 19 -7.5t8 -18.5q0 -2 -0.5 -4.5t-1.5 -4.5q0 -3 -1.5 -5.5t-3.5 -4.5z" />
    <glyph glyph-name="v" unicode="v" horiz-adv-x="601" 
d="M605 410q0 -2 0.5 -4t0.5 -4q1 -4 1.5 -8.5t0.5 -10.5q0 -13 -4.5 -29.5t-17.5 -39.5q-18 -32 -61.5 -78.5t-128.5 -112.5l1 1l-35 -30l-35 -29l-34 -30l-36 -30q-4 -3 -8 -4t-9 -1q-7 0 -14 3.5t-11 10.5q-8 18 -17 35.5t-17 35.5q-25 50 -47 102t-32 105l-2 16
q-1 9 -1 17q0 5 0.5 10.5t0.5 11.5q2 16 5.5 32.5t8.5 31.5h-2h-1q-16 0 -31 -2.5t-26 -16.5q-5 -6 -10.5 -8.5t-11.5 -2.5q-10 0 -18.5 8t-8.5 19q0 2 0.5 4.5t1.5 5.5q1 2 2.5 4.5t3.5 4.5q14 16 33.5 26t39.5 12h4h4h109h109q12 0 19.5 -8t7.5 -19v-6q0 -3 -2 -5
q-11 -24 -16 -43t-5 -36q0 -15 3.5 -28t8.5 -26l13 -29l16 -30q6 -12 12 -26t11 -30l34 27q24 19 50 44q17 16 32.5 33t28.5 34q13 19 21.5 37.5t8.5 34.5q0 8 -2.5 15t-7.5 14q-6 8 -14 11t-16 3q-15 0 -27.5 -8t-11.5 -19v-2q0 -2 1 -4q11 -3 15.5 -10.5t4.5 -15.5
q0 -10 -7.5 -18.5t-19.5 -8.5h-2q-2 0 -3 1q-1 0 -2.5 0.5t-2.5 0.5q-16 5 -25.5 18.5t-11.5 29.5v2v2v2v2q0 32 23.5 54.5t53.5 27.5q4 1 8 1h7q33 0 59 -22t31 -55z" />
    <glyph glyph-name="w" unicode="w" horiz-adv-x="855" 
d="M848 463q14 -15 20 -32t5 -35q0 -17 -4.5 -34.5t-12.5 -35.5q-14 -31 -36 -61t-46 -57t-46 -49l-36 -34h1l-29 -30l-29 -29l-29 -30l-30 -29q-3 -3 -7 -5t-8 -2h-2h-3q-8 0 -15 4.5t-10 12.5q-5 17 -11 33l-12 34l-27 84q-14 43 -21 86q-29 -41 -65 -81l-74 -78l-42 -44
l-42 -43q-3 -3 -7 -5.5t-8 -2.5h-2h-3h-2h-2q-6 0 -12 5t-9 12l-10 26l-10 26q-1 3 -2 5t-2 5q-25 61 -44.5 123.5t-19.5 127.5q0 20 2.5 40t7.5 41h-1h-2q-17 0 -32 -2.5t-27 -16.5q-5 -6 -10.5 -8.5t-11.5 -2.5q-10 0 -18.5 8t-8.5 19q0 2 0.5 4.5t1.5 5.5q1 2 2.5 4.5
t3.5 4.5q15 17 37 27.5t45 10.5h109h109q12 0 19 -9t7 -20q0 -2 -0.5 -4.5t-1.5 -4.5q-8 -23 -11.5 -41.5t-3.5 -33.5q0 -14 2.5 -26.5t6.5 -24.5q5 -16 12.5 -32.5t15.5 -36.5q1 -3 2.5 -6.5t2.5 -6.5l15 17l15 17q20 24 38 50.5t26 54.5q0 2 1 4.5t1 5.5h1q1 4 4 18t7 30
l6 18q3 9 6 16t5.5 11t5.5 4q2 1 4 1h2h6q3 0 6 -1q21 -1 41.5 -1t40.5 1h21h20q14 0 19.5 -7t5.5 -18q0 -6 -1.5 -13t-3.5 -14q-1 -5 -2.5 -9t-2.5 -8q-3 -9 -6 -16.5t-4 -12.5q-1 -3 -1.5 -6t-0.5 -6v-7v-6q0 -26 7.5 -51t16.5 -50l10 -27q5 -13 8 -27q54 53 83 90t42 62
q8 16 11.5 29.5t3.5 23.5q-1 20 -9 30.5t-18 10.5h-2h-1q-7 -2 -13 -10.5t-8 -24.5q8 -4 11.5 -10t3.5 -14q0 -10 -7 -19t-19 -8q-3 0 -6 0.5t-6 1.5q-15 6 -22.5 19t-8.5 29q-1 37 25 63.5t58 26.5q14 0 27 -5.5t24 -18.5z" />
    <glyph glyph-name="x" unicode="x" horiz-adv-x="687" 
d="M683 412q-1 0 -3 -0.5t-4 -1.5t-4.5 -2.5t-4.5 -2.5l-45 -44l-44 -44l-45 -45l-44 -44q4 -12 8 -27t9 -30q11 -34 30.5 -61.5t52.5 -25.5q2 0 4.5 0.5t4.5 0.5q7 2 13 6t8 10q-3 5 -4.5 9.5t-1.5 8.5q0 11 8.5 19t18.5 8q6 0 12 -3t11 -10q6 -7 8 -15t2 -16q0 -5 -1 -11
t-3 -13q-12 -36 -45 -53.5t-70 -24.5q-18 -2 -35 -3t-32 -1q-111 0 -157 57.5t-67 130.5l-152 -130h10q5 0 10 -1h12h14q18 0 35 4t29 17q5 5 10.5 7.5t11.5 2.5q11 0 18.5 -7.5t7.5 -18.5q0 -5 -1.5 -10t-6.5 -10q-15 -17 -35.5 -26.5t-43.5 -11.5h-3h-4h-75h-75
q-10 0 -15.5 8t-6.5 18v2v1v2v1q1 8 5.5 14.5t12.5 7.5q2 0 4 1t5 2q1 1 2 1.5t2 1.5q1 0 2 0.5t2 1.5l105 90l106 90q-3 12 -6 26t-7 28q-9 33 -27.5 60.5t-53.5 27.5h-5q-3 0 -6 -1q-14 -2 -25 -10t-16 -18q-1 -2 -1.5 -4.5t-0.5 -4.5q0 -7 7 -11.5t23 -3.5
q14 1 21.5 -7.5t8.5 -18.5v-1v-1q0 -10 -7 -18t-21 -8q-46 -1 -65.5 21t-19.5 55q0 8 1 16.5t3 17.5q9 39 41 58t69 26q13 2 25.5 3t24.5 1q122 0 176.5 -58t81.5 -132l128 126h-4h-5q-19 0 -37 -2.5t-32 -17.5q-5 -5 -10.5 -7.5t-10.5 -2.5q-11 0 -19.5 8t-7.5 19
q0 5 2 10.5t6 9.5q15 16 36 25.5t43 11.5h4h4h55h56q11 0 16.5 -8t6.5 -18v-1v-2q-1 -8 -5 -15t-13 -9z" />
    <glyph glyph-name="y" unicode="y" horiz-adv-x="667" 
d="M680 424l-147 -234l-147 -233q-28 -44 -78 -71t-105 -30q-4 -1 -8 -1h-8q-28 0 -55.5 7t-50.5 22q-20 13 -34.5 31t-21.5 41q-1 6 -2.5 12t-1.5 11q0 34 28 57.5t62 26.5q2 1 4 1h6q23 0 43.5 -12.5t28.5 -41.5q0 -1 0.5 -2.5t0.5 -2.5v-3v-2q0 -10 -7.5 -17.5
t-16.5 -7.5h-2h-1q-8 0 -15.5 5t-10.5 16q-2 7 -8.5 11t-14.5 3q-2 0 -4.5 -0.5t-5.5 -0.5q-12 -3 -22.5 -12.5t-9.5 -22.5q0 -11 7.5 -22t25.5 -22q17 -11 37 -16t42 -5q5 0 9.5 0.5t8.5 0.5q34 4 66 18.5t53 37.5q-48 44 -74 104t-43 122q-4 14 -7.5 28t-6.5 28
q-2 8 -3.5 15.5t-3.5 14.5q-13 52 -28.5 87.5t-45.5 35.5h-1h-2q-1 -1 -2 -1h-2h-2h-1q-15 -3 -27.5 -15t-15.5 -26v-4v-2q0 -7 5.5 -14.5t17.5 -12.5q10 -4 14 -11t4 -15q0 -10 -7 -18.5t-19 -8.5q-3 0 -6 1t-7 2q-25 11 -41 30.5t-16 44.5q0 5 0.5 9.5t1.5 9.5
q9 39 43.5 62.5t73.5 33.5q19 5 37 7.5t33 2.5q128 0 173 -85t68 -187q1 -8 3 -15.5t3 -15.5q2 -5 3 -11l2 -10l163 260h-9h-8q-20 1 -38 -0.5t-35 -15.5q-3 -2 -5.5 -3.5t-4.5 -1.5q-2 -1 -4.5 -1.5t-5.5 -0.5q-10 0 -18 8t-8 18q1 6 3.5 12t8.5 11q29 24 64 27t71 1h1h1
q9 0 18 -0.5t18 -0.5q11 0 18.5 -8t7.5 -19q0 -4 -1 -7.5t-3 -6.5z" />
    <glyph glyph-name="z" unicode="z" horiz-adv-x="628" 
d="M619 100q-8 -36 -40 -59t-69 -33q-14 -4 -28 -6t-27 -2h-405q-17 0 -29 9.5t-12 20.5q0 2 0.5 3.5t1.5 3.5q2 4 5.5 7.5t9.5 6.5q24 11 45.5 28t37.5 39l84 115l84 115l18 22q10 12 22 25q2 2 4.5 5t5.5 5h-6h-4q-50 0 -92.5 -6.5t-78.5 -44.5q-5 -5 -7 -12t-2 -15
q-1 -1 -1 -2v-4q0 -4 -0.5 -8.5t-1.5 -8.5q-3 -11 -9.5 -16.5t-13.5 -6.5h-2h-2q-10 0 -18 7t-8 19v5q0 2 1 4q8 32 15 64l14 64q3 12 10.5 17.5t16.5 5.5q10 0 18 -7t8 -20v-4q0 -3 -1 -5q32 16 66.5 22t69.5 6h153h153q11 0 18 -8t7 -18v-1v-2q0 -7 -2.5 -12.5t-8.5 -8.5
q-24 -15 -42.5 -36t-34.5 -43q-2 -4 -4.5 -7.5t-5.5 -6.5l-87 -115l-87 -115q-6 -8 -13 -16t-15 -16h63h62q9 0 22 2t27 7q21 7 40 19.5t23 29.5q0 2 0.5 3t0.5 3v3v2q0 12 -6.5 19.5t-14.5 9.5h-3h-2q-7 0 -13 -5.5t-6 -16.5q1 -14 -7.5 -21.5t-18.5 -7.5h-1h-1
q-10 0 -18 7t-8 21q-1 39 21.5 58t50.5 18h1h2q29 -1 53.5 -21.5t24.5 -58.5q0 -6 -0.5 -12t-2.5 -13z" />
    <glyph glyph-name="braceleft" unicode="{" horiz-adv-x="500" 
 />
    <glyph glyph-name="bar" unicode="|" horiz-adv-x="75" 
d="M48 -210h-46v1010h46v-1010z" />
    <glyph glyph-name="braceright" unicode="}" horiz-adv-x="500" 
 />
    <glyph glyph-name="asciitilde" unicode="~" horiz-adv-x="500" 
 />
    <glyph glyph-name="exclamdown" unicode="&#xa1;" horiz-adv-x="531" 
d="M473 246q-16 0 -28.5 -11.5t-16.5 -25.5l-36 -156l-36 -156q-1 -7 -3.5 -13t-6.5 -12q26 0 46 6.5t36 28.5q5 7 11 10t12 2q11 0 19 -8t8 -19q-1 -5 -2.5 -9.5t-4.5 -8.5q-19 -25 -48 -40.5t-61 -15.5h-155h-154q-14 0 -21.5 8.5t-6.5 19.5q0 10 7 18t21 8q16 0 29 11.5
t17 25.5l13 57l13 56l13 58l13 56q16 67 74.5 115.5t128.5 48.5h30h30h29h30q14 0 21 -8t7 -18t-7 -19t-21 -9zM507 424q0 -37 -34.5 -64.5t-84.5 -27.5q-49 0 -84 27.5t-35 64.5q0 38 35 65.5t84 27.5q50 0 84.5 -27.5t34.5 -65.5z" />
    <glyph glyph-name="cent" unicode="&#xa2;" horiz-adv-x="612" 
d="M595 540l-14 -36q-7 -18 -15 -35l-14 -36q-7 -18 -15 -36q-3 -8 -9 -12.5t-13 -5.5h-2h-2h-2q-10 1 -17.5 8t-6.5 18q0 3 0.5 6t1.5 6q4 9 5.5 18t1.5 19q0 29 -16.5 53.5t-48.5 24.5q-63 0 -105.5 -54.5t-52.5 -119.5q-2 -9 -2.5 -17.5t-0.5 -17.5q1 -19 4.5 -38
t11.5 -35q12 -23 31.5 -37.5t45.5 -17.5q2 0 4.5 -0.5t5.5 -0.5h4h5q45 0 86 22t72 53q5 5 10.5 7.5t10.5 2.5q11 0 19 -8.5t8 -19.5q0 -2 -0.5 -4.5t-1.5 -4.5q-1 -3 -3 -5.5t-4 -4.5q-44 -46 -103 -74.5t-121 -39.5q-12 -2 -25 -3l-24 -2l-11 -47q-5 -23 -11 -46
q-2 -11 -8.5 -15.5t-14.5 -5.5h-2h-1q-10 0 -18.5 6.5t-8.5 19.5v3q0 2 1 4l4 20l6 21q2 10 4.5 20t4.5 20q-2 0 -4 0.5t-4 0.5q-85 9 -156 61t-70 140q0 11 1.5 21.5t3.5 21.5q29 122 125.5 175.5t213.5 57.5q3 11 5.5 22t5.5 23q2 11 4.5 22t5.5 22q2 12 10 17.5t17 5.5
q10 0 18 -7t8 -20v-2v-2q0 -1 -0.5 -2t-0.5 -2l-18 -78q5 0 9.5 -1t9.5 -1q28 -4 56 -13t53 -23q0 1 0.5 2t1.5 2q0 1 0.5 2t1.5 2q3 8 9 13t13 6h2h2q10 0 18 -7.5t8 -18.5v-3q0 -2 -1 -3q0 -2 -0.5 -3.5t-1.5 -3.5z" />
    <glyph glyph-name="sterling" unicode="&#xa3;" horiz-adv-x="640" 
d="M622 149q-1 -2 -1.5 -4.5t-0.5 -4.5q-2 -5 -3 -9.5t-2 -9.5q-3 -7 -5.5 -14t-5.5 -14q-25 -54 -72.5 -73t-101.5 -19h-14q-7 0 -14 1q-31 2 -62 7.5t-58 11.5q-3 1 -5.5 1.5t-5.5 1.5q-3 0 -5.5 0.5t-4.5 1.5q-32 7 -63 12.5t-59 5.5q-23 0 -43.5 -5t-36.5 -17
q-3 -3 -6.5 -4t-7.5 -1q-11 0 -20 8.5t-8 19.5v2v3q0 1 0.5 2.5t1.5 2.5q34 69 90.5 92.5t117.5 22.5q4 0 8.5 -0.5t8.5 -0.5l-17 24l-18 24l-6 8l-6 8l-12 16l-12 16q-31 0 -54.5 -4.5t-43.5 -31.5q-5 -6 -11 -9t-12 -3q-10 0 -18.5 8t-8.5 19q0 5 1.5 9.5t5.5 8.5
q21 27 50.5 42t63.5 15q-4 12 -5.5 24t-1.5 25q0 8 1 16l2 17q14 86 87.5 135t158.5 61l26 2q12 1 25 1q19 0 37 -2t35 -6q5 -1 10.5 -2.5t11.5 -3.5q33 -11 60.5 -34.5t27.5 -61.5q0 -32 -21 -51.5t-46 -23.5q-3 -1 -6 -1h-6q-23 0 -41 15t-18 47q0 7 1 13l2 12v1v2
q0 6 -10.5 9.5t-22.5 4.5q-11 2 -20 2h-12q-25 0 -48.5 -5.5t-41.5 -14.5q-15 -7 -25 -16.5t-10 -20.5q0 -3 1.5 -7.5t5.5 -8.5l4 -4q2 -2 5 -4l21 -16l20 -16l21 -16l20 -16q15 -11 25 -27t14 -34h8h8q30 -1 55.5 3.5t46.5 31.5q5 7 11 10t12 2q11 0 19 -7.5t8 -18.5
q0 -2 -0.5 -4.5t-1.5 -4.5q0 -3 -1.5 -5.5t-3.5 -4.5q-19 -25 -48 -40.5t-61 -15.5h-24h-26q-4 -33 -20.5 -62t-40.5 -52q5 -1 10.5 -2.5t10.5 -3.5q11 -3 22 -5.5t23 -4.5q11 -2 22 -3.5t22 -1.5q26 0 48.5 9.5t38.5 34.5q2 10 8 14t13 4h4q1 0 3 -1q2 0 3.5 -0.5t3.5 -1.5
q11 -4 15 -8.5t4 -12.5q-1 -3 -1.5 -6t-1.5 -8z" />
    <glyph glyph-name="currency" unicode="&#xa4;" horiz-adv-x="686" 
d="M671 570l-10 -41l-9 -41l-10 -41l-9 -41q-1 -8 -5 -15t-16 -7q-2 0 -5 0.5t-6 1.5q-13 3 -17.5 8.5t-4.5 11.5q0 3 0.5 6t1.5 6q5 23 10.5 45.5t9.5 44.5q-9 16 -22 25.5t-32 9.5q-39 0 -73.5 -32.5t-58.5 -71.5q-11 -17 -19 -34t-14 -31h64h65q14 0 21.5 -8.5t6.5 -19.5
q0 -10 -7 -18t-21 -8h-74h-73q-2 -7 -3.5 -13.5t-3.5 -13.5h46h45q15 0 22.5 -8.5t6.5 -19.5q0 -10 -7.5 -18t-21.5 -8h-50h-48q-1 -9 -1 -19v-19q1 -23 5 -45t14 -42q11 -22 26.5 -31.5t31.5 -9.5q5 0 10.5 1t11.5 3q17 5 33 16t30 25q3 10 5.5 20t4.5 20q2 9 4.5 19
t4.5 20q2 11 8.5 16t14.5 6h1h2q11 0 19 -7t8 -20v-3q0 -2 -1 -4l-10 -41q-4 -21 -9 -41l-10 -41l-9 -41q-2 -11 -8.5 -16t-14.5 -6h-2h-1q-10 0 -18.5 7t-7.5 21v5q0 2 1 4q-31 -15 -64.5 -24t-67.5 -11q-6 -1 -12 -1h-11q-8 0 -16 0.5t-16 1.5q-8 0 -16 1.5t-16 3.5
q-83 20 -134.5 83t-53.5 149h-26h-27q-14 0 -21.5 9t-6.5 19q0 10 7 18t21 8h28h29q1 2 1 4.5t1 4.5q1 5 2 9.5t2 8.5h-12h-10h-11h-11q-14 0 -21.5 9t-6.5 19q0 10 7 18t21 8h15h16h15h16q44 103 143.5 172.5t211.5 69.5q39 0 77 -10t71 -32q4 16 12.5 23.5t18.5 6.5
q10 0 17.5 -6.5t6.5 -19.5v-4q0 -2 -1 -4z" />
    <glyph glyph-name="yen" unicode="&#xa5;" horiz-adv-x="744" 
d="M720 568l-97 -117l-97 -118h37h38q11 0 19 -3.5t8 -23.5t-8 -23.5t-19 -3.5h-30h-29h-30h-29l-7 -28h53h53q11 0 19 -3.5t8 -23.5q0 -19 -8 -22.5t-19 -3.5h-59h-59q-3 -15 -7 -30l-6 -29q-4 -15 -7.5 -30t-6.5 -30q-1 -7 -4 -13l-6 -12q22 0 40 9t31 26q5 7 11 9.5
t12 2.5q11 0 19 -8t8 -19q-1 -4 -2.5 -8.5t-4.5 -9.5q-19 -25 -48 -40.5t-61 -15.5h-147h-147q-14 0 -21.5 9t-7.5 19t7.5 18t21.5 8h3q2 0 3 1q10 2 18.5 10t13.5 16q1 3 2 5.5t2 4.5l6 27l6 27l6 27l6 26h-27h-26h-27h-27h-2h-1q-9 0 -16.5 4t-7.5 22q0 19 7.5 23t16.5 4
h1h2h60h60v2q0 1 1 2v2v1q0 2 -0.5 3.5t-1.5 3.5q0 1 -0.5 2.5t-1.5 3.5q0 2 -0.5 4t-1.5 4h-48h-48q-10 0 -18.5 3.5t-8.5 23.5t8.5 23.5t18.5 3.5h40h42q-1 2 -1.5 4.5t-0.5 4.5l-7 32q-3 17 -7 35q-9 37 -24 67t-43 30h-3h-3q-15 -2 -26 -10.5t-10 -18.5q0 -2 0.5 -3.5
t1.5 -3.5q2 -4 6 -7.5t11 -6.5q9 -4 13 -10.5t4 -14.5q0 -10 -7.5 -18.5t-19.5 -8.5q-3 0 -6 1t-7 2q-25 12 -40 32t-15 47q0 5 0.5 10.5t1.5 11.5q10 42 47 66t79 34q18 4 35.5 6t32.5 2q122 0 165 -84.5t63 -186.5q2 -6 3 -12l2 -12q1 0 1.5 0.5t1.5 0.5h2l195 236
q-6 0 -13 0.5t-13 0.5h-7h-7q-26 1 -51 -3.5t-42 -26.5q-5 -7 -11 -9.5t-12 -2.5q-10 0 -18 8t-8 18q0 2 0.5 4.5t1.5 5.5q0 2 1.5 4.5t3.5 4.5q17 22 42.5 36t53.5 14h68h68q12 0 19 -8.5t7 -19.5q0 -4 -1.5 -8t-4.5 -8z" />
    <glyph glyph-name="brokenbar" unicode="&#xa6;" horiz-adv-x="500" 
 />
    <glyph glyph-name="section" unicode="&#xa7;" horiz-adv-x="500" 
 />
    <glyph glyph-name="dieresis" unicode="&#xa8;" horiz-adv-x="304" 
d="M147 643q0 -24 -19 -40t-46 -16q-28 0 -47 16t-19 40q0 23 19 40t47 17q27 0 46 -17t19 -40zM297 643q0 -24 -18.5 -40t-45.5 -16q-28 0 -47.5 16t-19.5 40q0 23 19.5 40t47.5 17q27 0 45.5 -17t18.5 -40z" />
    <glyph glyph-name="copyright" unicode="&#xa9;" horiz-adv-x="806" 
d="M770 364q0 -150 -108.5 -257.5t-258.5 -107.5q-151 0 -258.5 107t-107.5 258t107.5 259t258.5 108q150 0 258.5 -108.5t108.5 -258.5zM701 364q0 122 -88 210.5t-210 88.5q-123 0 -210.5 -88t-87.5 -211q0 -124 87.5 -211t210.5 -87t210.5 88t87.5 210zM582 283
q-14 -59 -61.5 -95.5t-109.5 -36.5q-96 0 -148 56t-52 150q0 96 50.5 152.5t148.5 56.5q58 0 102.5 -29t61.5 -85l-58 -15q-18 36 -43.5 55.5t-69.5 19.5q-66 0 -96 -46t-30 -107q0 -64 29 -107.5t99 -43.5q41 0 75 26.5t42 66.5z" />
    <glyph glyph-name="ordfeminine" unicode="&#xaa;" horiz-adv-x="405" 
d="M382 677q-8 0 -14.5 -6t-8.5 -14l-16 -72l-17 -72q0 -1 -0.5 -3t-1.5 -3q-1 -2 -1.5 -3.5t-1.5 -3.5q11 0 20 5t16 13q3 4 6 5.5t6 0.5q5 0 9.5 -4t4.5 -10q0 -2 -1 -4.5t-3 -4.5q-10 -13 -24.5 -21t-31.5 -8h-109h-2h-2h-2q-4 0 -7 1t-5 4q-1 1 -1.5 2t-0.5 2q-1 0 -1 1
v2v2q0 1 1 2v1l1 1q0 1 0.5 2.5t0.5 3.5q-13 -8 -29 -14t-32 -8q-5 -1 -10.5 -1.5t-10.5 -0.5q-23 0 -44.5 9t-37.5 28q-11 14 -16 29.5t-5 32.5q0 5 0.5 11t1.5 12q12 49 55 82t92 34h2h2q24 0 46.5 -9t37.5 -28q19 21 43.5 26.5t50.5 5.5h12h11h9h8q8 0 11.5 -4.5
t3.5 -9.5t-3.5 -9.5t-11.5 -4.5zM230 641q-3 15 -9.5 21.5t-15.5 5.5q-4 0 -9 -1.5t-10 -4.5t-9.5 -7t-9.5 -9l-2 -2l-1 -1q-10 -12 -19 -29.5t-13 -36.5q-1 -5 -1.5 -10.5t-0.5 -10.5l2 -15q1 -7 5 -13q4 -7 9 -10t11 -3q3 0 6 1l6 2q7 3 13 7.5t10 8.5l1 1l2 2q4 5 7.5 10
t7.5 10q2 10 4.5 19.5t4.5 19.5l4 18l4 20q0 1 0.5 2t1.5 2v1q1 1 1 2z" />
    <glyph glyph-name="guillemotleft" unicode="&#xab;" horiz-adv-x="530" 
d="M270 204l-72 -70l-163 163l163 163l72 -70l-83 -93zM502 204l-72 -70l-163 163l163 163l72 -70l-83 -93z" />
    <glyph glyph-name="logicalnot" unicode="&#xac;" horiz-adv-x="500" 
 />
    <glyph glyph-name="sfthyphen" unicode="&#xad;" horiz-adv-x="500" 
 />
    <glyph glyph-name="registered" unicode="&#xae;" horiz-adv-x="348" 
d="M332 573q0 -65 -46.5 -111.5t-111.5 -46.5t-111.5 46t-46.5 112q0 65 47 111.5t111 46.5t111 -47.5t47 -110.5zM309 573q0 54 -40 94.5t-95 40.5t-95 -39.5t-40 -95.5q0 -57 39.5 -96t95.5 -39t95.5 40t39.5 95zM251 489h-34l-37 73h-33v-73h-32v176h61q6 0 12 -0.5
t12 -1.5q19 -4 35 -15t16 -31q0 -19 -11 -31.5t-28 -17.5zM212 613q0 11 -9 18t-20 9q-3 1 -6.5 1.5t-6.5 0.5h-23v-56h34q13 0 22 7t9 20z" />
    <glyph glyph-name="overstore" unicode="&#xaf;" 
 />
    <glyph glyph-name="glyph113" unicode="&#xb0;" horiz-adv-x="500" 
 />
    <glyph glyph-name="plusminus" unicode="&#xb1;" horiz-adv-x="500" 
 />
    <glyph glyph-name="twosuperior" unicode="&#xb2;" horiz-adv-x="352" 
d="M336 710q0 -35 -24 -63.5t-56 -39.5l-34 -12l-34 -12q-17 -7 -34 -13l-34 -12q24 0 47.5 -4t46.5 -9q3 0 6 -0.5t6 -1.5q5 -1 9.5 -1.5t8.5 -0.5q14 0 26.5 5t19.5 18q1 5 5 7t8 2q5 0 9 -2t5 -7v-2v-1q0 -3 -1 -7l-2 -8q0 -3 -1 -5.5t-2 -4.5l-2 -6q-1 -3 -2 -4
q-13 -28 -37.5 -37.5t-53.5 -9.5h-6h-7q-13 1 -26 3l-25 4q-3 0 -5.5 1t-5.5 1q-3 1 -6 1.5t-5 0.5t-3.5 0.5t-2.5 0.5l-26 4q-13 2 -27 2h-4q-2 0 -4 -1q-5 -1 -10.5 -4t-10.5 -8q-1 -3 -4 -5t-7 -2q-1 0 -2.5 0.5t-3.5 1.5q-5 2 -7 5t-1 7v1v2v2q4 37 34 62t66 47
q29 18 55 37.5t34 44.5q2 8 3.5 15t1.5 14q0 15 -7.5 27t-26.5 16q-1 0 -3 0.5t-3 0.5h-3h-4q-3 0 -7 -0.5t-7 -0.5q-28 -5 -51 -25t-23 -48q0 -9 4 -12.5t9 -3.5h3q2 0 4 1q2 0 3.5 1t3.5 2q2 2 4.5 2.5t4.5 0.5q6 0 9.5 -4t3.5 -9v-2q0 -1 -1 -2q0 -2 -1.5 -4t-4.5 -4
t-7 -4t-7 -3q-4 -1 -8 -1.5t-7 -0.5q-16 0 -28 11t-12 32q0 43 34 69.5t74 36.5q13 4 25.5 5.5t24.5 1.5q9 0 18.5 -1t18.5 -3q35 -6 63.5 -26t28.5 -59z" />
    <glyph glyph-name="threesuperior" unicode="&#xb3;" horiz-adv-x="343" 
d="M323 589q-13 -39 -56.5 -63.5t-91.5 -32.5q-11 -2 -22 -2.5t-22 -0.5q-46 0 -79 17t-33 52q0 24 15 42.5t39 18.5q2 0 3.5 -0.5t2.5 -0.5q2 0 3.5 -0.5t2.5 -0.5q13 -3 22.5 -13.5t9.5 -23.5v-1v-2l-1 -1v-2q-1 -5 -4 -8t-6 -4h-1h-2q-6 0 -10.5 5t-3.5 13v1v1
q0 3 -2 5.5t-8 3.5q-2 1 -3 1h-4q-13 -1 -19.5 -11t-6.5 -23q0 -14 11.5 -22.5t25.5 -12.5q6 -2 12.5 -3t11.5 -1q32 -2 59.5 20t37.5 50q2 5 2.5 10.5t0.5 9.5q0 19 -12.5 30t-32.5 10q-4 0 -9 -0.5t-10 -2.5q-3 -1 -5 -1.5t-4 -0.5q-3 0 -5.5 2.5t-4.5 6.5q-1 2 -1.5 4
t-0.5 3q0 3 2 5.5t6 4.5l22 16q11 8 22 17l22 16l22 16q-19 0 -37.5 3t-36.5 7q-6 2 -12 2.5t-11 0.5q-12 0 -22 -5.5t-17 -19.5q-2 -4 -5 -6t-7 -1q-5 0 -9.5 3.5t-4.5 8.5v1v1q0 1 1 1v1q10 26 34 46t52 20h40h40h40h40q1 0 1.5 0.5t1.5 0.5h1h1q5 0 9 -4.5t4 -10.5
q0 -1 -0.5 -2.5t-0.5 -2.5q-1 -1 -2 -2.5t-3 -2.5l-24 -18q-12 -9 -24 -17l-8 -6l-8 -6l-16 -12l-16 -12q5 1 10.5 1.5t10.5 0.5q39 -1 65 -22t25 -58q0 -8 -1.5 -17.5t-5.5 -19.5z" />
    <glyph glyph-name="acute" unicode="&#xb4;" horiz-adv-x="340" 
d="M257 691l-45 -26l-36 -19q-3 -2 -5.5 -3.5t-5.5 -2.5q-15 -8 -32 -16l-40 -19q-6 -3 -11.5 -4.5t-10.5 -1.5q-15 1 -23 12.5t-10 25.5v3v2q0 8 2.5 14.5t7.5 10.5l56 45l38 30l24 19l30 23q7 5 13.5 7.5t13.5 2.5q21 0 37.5 -18t18.5 -39q1 -2 1 -4v-4q0 -11 -5.5 -21
t-17.5 -17z" />
    <glyph glyph-name="mu" unicode="&#xb5;" horiz-adv-x="500" 
 />
    <glyph glyph-name="paragraph" unicode="&#xb6;" horiz-adv-x="499" 
d="M312 -145h-75v400q-87 16 -144.5 85.5t-57.5 157.5q0 98 61 162.5t153 83.5q5 1 10.5 1t12.5 -1h6h8q6 0 12.5 0.5t13.5 1.5v-891zM477 669h-45v-814h-74v890h119v-76z" />
    <glyph glyph-name="middot" unicode="&#xb7;" 
 />
    <glyph glyph-name="cedilla" unicode="&#xb8;" horiz-adv-x="368" 
d="M349 -124q0 -40 -54.5 -65.5t-132.5 -25.5q-33 0 -56 3.5t-44 12.5q-9 4 -18 8.5t-19 10.5q-7 4 -10.5 11t-3.5 15q0 4 1.5 8.5t4.5 8.5q5 6 10 8.5t11 2.5q5 0 9.5 -1.5t9.5 -2.5q9 -3 16 -5l14 -4q7 -1 14 -2.5t16 -2.5q8 -1 16.5 -1.5t15.5 -0.5q27 0 46 5t20 15v1v1
q-1 14 -29.5 23.5t-62.5 13.5q-10 1 -20.5 1.5t-20.5 0.5l42 98h86l-18 -36q71 1 114 -28.5t43 -71.5v-1z" />
    <glyph glyph-name="onesuperior" unicode="&#xb9;" horiz-adv-x="275" 
d="M248 771q-7 0 -13.5 -5.5t-8.5 -13.5l-13 -56l-13 -55l-13 -56l-13 -56q-1 -4 -2 -7t-3 -6h5h4q3 -1 7 -1h6q10 0 18.5 3.5t10.5 13.5q2 6 5.5 8.5t7.5 2.5q5 0 9 -4t4 -10v-2v-1q-4 -15 -16.5 -26t-28.5 -11h-86h-88q-7 0 -11 4.5t-3 9.5q0 5 3.5 9t10.5 4h2h1
q7 1 13 6.5t7 12.5l24 105l25 106q0 2 0.5 3.5t1.5 3.5h-2q-2 0 -3 -1q-10 -1 -19 -3t-17 -8q-4 -4 -7.5 -9t-4.5 -11q-1 -1 -1 -3v-2q0 -3 1.5 -6t3.5 -5q3 -2 4 -5t1 -6q0 -5 -4 -9.5t-10 -3.5q-2 0 -4.5 1t-4.5 3q-7 6 -10.5 14.5t-2.5 18.5v5q0 3 1 6q5 20 22 33t36 15
q20 3 40 5.5t40 4.5q19 2 39 4.5t40 5.5h2q1 0 3 1h2h2q8 0 11.5 -4.5t2.5 -9.5q0 -5 -3.5 -9t-10.5 -4z" />
    <glyph glyph-name="ordmasculine" unicode="&#xba;" horiz-adv-x="310" 
d="M300 613q2 -8 3.5 -15.5t1.5 -15.5q0 -40 -30 -69.5t-71 -39.5q-13 -3 -28 -5t-31 -2h-8h-6q-27 2 -52 11.5t-43 29.5q-15 16 -21.5 33.5t-6.5 36.5q0 31 17 59t45 46q19 12 46.5 21.5t56.5 11.5q5 1 9 1h10q24 0 46 -6t38 -20q9 -7 14 -18t5 -22v-4q0 -2 -1 -4
q-1 -5 -3.5 -10.5t-7.5 -10.5q2 1 4.5 1.5t3.5 0.5q3 0 5.5 -2.5t3.5 -7.5zM274 605q-1 2 -1 4v3v1v1q-5 -3 -11 -4.5t-12 -1.5q-7 0 -14.5 2.5t-12.5 8.5q-2 3 -4 6.5t-2 7.5q-1 2 -1 4v3v2q0 1 1 2v2v1q2 6 5.5 8.5t7.5 2.5q5 0 9 -4t4 -10v-1v-2v-1v-1q0 -2 2 -3t5 -1
q1 0 2.5 0.5t2.5 1.5q4 1 7 3t5 5q1 2 1 4v2q0 9 -8.5 13.5t-17.5 5.5q-5 1 -10 1.5t-9 0.5q-37 0 -67.5 -31.5t-33.5 -68.5v-3v-3v-6q0 -3 1 -5q1 -9 4.5 -17.5t9.5 -15.5q10 -12 23 -17.5t26 -5.5h5q3 0 5 1q20 2 37.5 12.5t28.5 25.5q6 8 9.5 17.5t4.5 18.5q1 3 1 6v4
q0 5 -0.5 10.5t-2.5 10.5z" />
    <glyph glyph-name="guillemotright" unicode="&#xbb;" horiz-adv-x="530" 
d="M265 297l-163 -163l-72 70l83 93l-83 93l72 70zM502 297l-163 -163l-72 70l83 93l-83 93l72 70z" />
    <glyph glyph-name="onequarter" unicode="&#xbc;" horiz-adv-x="500" 
 />
    <glyph glyph-name="onehalf" unicode="&#xbd;" horiz-adv-x="500" 
 />
    <glyph glyph-name="threequarters" unicode="&#xbe;" horiz-adv-x="500" 
 />
    <glyph glyph-name="questiondown" unicode="&#xbf;" horiz-adv-x="518" 
d="M459 -107q-27 -31 -67 -48.5t-82 -24.5q-15 -3 -30 -4t-29 -1q-15 0 -30 1.5t-31 4.5q-67 15 -122 59.5t-49 119.5q6 73 61.5 112.5t120.5 65.5l38 14l37 14q3 1 5.5 2t4.5 2l4 2l4 2q13 7 23.5 20t11.5 27v2v2q-2 2 -3.5 4.5t-1.5 5.5q-1 1 -1 3v2v2v1q2 9 10.5 16.5
t19.5 7.5q3 0 5.5 -1t5.5 -2t5.5 -2.5t5.5 -3.5q16 -13 22.5 -27t6.5 -29q0 -6 -1 -12.5t-3 -13.5q-8 -23 -24.5 -45.5t-35.5 -41.5q-11 -12 -23 -23l-20 -19q-17 -17 -26.5 -38t-12.5 -43q0 -5 -0.5 -9t-0.5 -8q0 -39 21 -69t58 -30q10 0 21 3t23 8q11 5 20.5 12.5
t18.5 16.5q7 9 10.5 18t3.5 17q0 12 -6 23t-17 20q-5 5 -8 10.5t-3 11.5q0 11 8.5 18.5t18.5 7.5q5 0 10.5 -1.5t9.5 -6.5q20 -18 30.5 -39.5t9.5 -44.5q0 -18 -6.5 -36t-20.5 -34v-1zM512 426q0 -37 -34.5 -64.5t-83.5 -27.5t-84 27.5t-35 64.5q0 38 35 65.5t84 27.5
t83.5 -27.5t34.5 -65.5z" />
    <glyph glyph-name="Agrave" unicode="&#xc0;" horiz-adv-x="842" 
d="M817 56q-19 -25 -47.5 -40.5t-60.5 -15.5h-271q-11 0 -19 9t-7 19v2v2q0 1 0.5 2t0.5 2q26 71 45.5 129.5t33.5 107.5h-242q-2 -4 -3.5 -8t-3.5 -7q-2 -5 -4 -9l-4 -8q-23 -50 -48 -98t-62 -89h23h23h23h22q20 0 37.5 10t28.5 25q5 7 11 9.5t12 2.5q11 0 19 -8t8 -19
q-1 -4 -2.5 -8.5t-4.5 -9.5q-19 -25 -48.5 -40.5t-61.5 -15.5h-87h-87q-13 0 -19 7t-6 16v1v2q1 10 8 18.5t18 9.5q5 1 13 6.5t17 15.5q38 38 62.5 83t46.5 92q2 5 4.5 10.5t5.5 11.5h-10h-10h-10h-10q-23 0 -43.5 -16.5t-25.5 -39.5q-2 -11 -8.5 -16t-14.5 -6h-1h-2
q-10 0 -18.5 7t-8.5 20v3q0 2 1 4q9 41 44 69.5t77 28.5h16h17h16h16l18 37q9 18 19 36q-7 -1 -13 -1.5t-12 -0.5q-47 0 -77.5 30.5t-30.5 76.5q0 9 1.5 18.5t4.5 19.5q22 83 111.5 123t193.5 41h3h4q90 0 171 -28t118 -82q21 -31 33 -73.5t12 -99.5q0 -68 -19 -159.5
t-62 -210.5q26 0 46.5 6.5t37.5 28.5q5 7 11 9.5t12 2.5q11 0 18.5 -7.5t7.5 -18.5q0 -2 -0.5 -4.5t-1.5 -4.5q0 -3 -1.5 -5.5t-3.5 -4.5zM506 327q3 11 5 21l4 21q4 21 6 42.5t2 41.5q0 65 -31 115t-115 60q-7 1 -14 1.5t-15 0.5q-9 0 -18 -0.5t-18 -2.5q-44 -6 -83 -29.5
t-51 -68.5q-1 -7 -2.5 -13t-1.5 -12q1 -23 15 -38t40 -14h4h4q30 3 51.5 22t40.5 40q1 2 2.5 3.5t2.5 3.5q7 8 14 15l15 15q5 5 10.5 7t10.5 1q11 0 18.5 -7.5t7.5 -18.5q0 -6 -3 -11.5t-8 -10.5q-28 -25 -50.5 -57t-41.5 -66l-16 -31q-8 -15 -15 -30h230zM509 795
q5 -4 7.5 -10.5t2.5 -14.5v-4v-3q-2 -14 -11 -25t-24 -11q-4 0 -9.5 1.5t-11.5 4.5l-39 19q-17 8 -32 16q-3 1 -5.5 2.5t-4.5 2.5l-37 20l-45 26q-13 7 -18 17.5t-5 21.5v2v3q3 22 19.5 40.5t37.5 18.5q7 0 13.5 -2.5t12.5 -7.5l31 -24l24 -18l38 -30z" />
    <glyph glyph-name="Aacute" unicode="&#xc1;" horiz-adv-x="842" 
d="M817 56q-19 -25 -47.5 -40.5t-60.5 -15.5h-271q-11 0 -19 9t-7 19v2v2q0 1 0.5 2t0.5 2q26 71 45.5 129.5t33.5 107.5h-242q-2 -4 -3.5 -8t-3.5 -7q-2 -5 -4 -9l-4 -8q-23 -50 -48 -98t-62 -89h23h23h23h22q20 0 37.5 10t28.5 25q5 7 11 9.5t12 2.5q11 0 19 -8t8 -19
q-1 -4 -2.5 -8.5t-4.5 -9.5q-19 -25 -48.5 -40.5t-61.5 -15.5h-87h-87q-13 0 -19 7t-6 16v1v2q1 10 8 18.5t18 9.5q5 1 13 6.5t17 15.5q38 38 62.5 83t46.5 92q2 5 4.5 10.5t5.5 11.5h-10h-10h-10h-10q-23 0 -43.5 -16.5t-25.5 -39.5q-2 -11 -8.5 -16t-14.5 -6h-1h-2
q-10 0 -18.5 7t-8.5 20v3q0 2 1 4q9 41 44 69.5t77 28.5h16h17h16h16l18 37q9 18 19 36q-7 -1 -13 -1.5t-12 -0.5q-47 0 -77.5 30.5t-30.5 76.5q0 9 1.5 18.5t4.5 19.5q22 83 111.5 123t193.5 41h3h4q90 0 171 -28t118 -82q21 -31 33 -73.5t12 -99.5q0 -68 -19 -159.5
t-62 -210.5q26 0 46.5 6.5t37.5 28.5q5 7 11 9.5t12 2.5q11 0 18.5 -7.5t7.5 -18.5q0 -2 -0.5 -4.5t-1.5 -4.5q0 -3 -1.5 -5.5t-3.5 -4.5zM506 327q3 11 5 21l4 21q4 21 6 42.5t2 41.5q0 65 -31 115t-115 60q-7 1 -14 1.5t-15 0.5q-9 0 -18 -0.5t-18 -2.5q-44 -6 -83 -29.5
t-51 -68.5q-1 -7 -2.5 -13t-1.5 -12q1 -23 15 -38t40 -14h4h4q30 3 51.5 22t40.5 40q1 2 2.5 3.5t2.5 3.5q7 8 14 15l15 15q5 5 10.5 7t10.5 1q11 0 18.5 -7.5t7.5 -18.5q0 -6 -3 -11.5t-8 -10.5q-28 -25 -50.5 -57t-41.5 -66l-16 -31q-8 -15 -15 -30h230zM641 819l-45 -26
l-36 -19q-3 -2 -5.5 -3.5t-5.5 -2.5q-15 -8 -32 -16l-40 -19q-6 -3 -11.5 -4.5t-10.5 -1.5q-15 1 -23 12.5t-10 25.5v2v3q0 8 2.5 14.5t7.5 10.5l57 45l37 30l25 19l29 23q7 5 13.5 7.5t13.5 2.5q21 0 37.5 -18t18.5 -39q1 -2 1 -4v-4q0 -11 -5.5 -21t-17.5 -17z" />
    <glyph glyph-name="Acircumflex" unicode="&#xc2;" horiz-adv-x="842" 
d="M817 56q-19 -25 -47.5 -40.5t-60.5 -15.5h-271q-11 0 -19 9t-7 19v2v2q0 1 0.5 2t0.5 2q26 71 45.5 129.5t33.5 107.5h-242q-2 -4 -3.5 -8t-3.5 -7q-2 -5 -4 -9l-4 -8q-23 -50 -48 -98t-62 -89h23h23h23h22q20 0 37.5 10t28.5 25q5 7 11 9.5t12 2.5q11 0 19 -8t8 -19
q-1 -4 -2.5 -8.5t-4.5 -9.5q-19 -25 -48.5 -40.5t-61.5 -15.5h-87h-87q-13 0 -19 7t-6 16v1v2q1 10 8 18.5t18 9.5q5 1 13 6.5t17 15.5q38 38 62.5 83t46.5 92q2 5 4.5 10.5t5.5 11.5h-10h-10h-10h-10q-23 0 -43.5 -16.5t-25.5 -39.5q-2 -11 -8.5 -16t-14.5 -6h-1h-2
q-10 0 -18.5 7t-8.5 20v3q0 2 1 4q9 41 44 69.5t77 28.5h16h17h16h16l18 37q9 18 19 36q-7 -1 -13 -1.5t-12 -0.5q-47 0 -77.5 30.5t-30.5 76.5q0 9 1.5 18.5t4.5 19.5q22 83 111.5 123t193.5 41h3h4q90 0 171 -28t118 -82q21 -31 33 -73.5t12 -99.5q0 -68 -19 -159.5
t-62 -210.5q26 0 46.5 6.5t37.5 28.5q5 7 11 9.5t12 2.5q11 0 18.5 -7.5t7.5 -18.5q0 -2 -0.5 -4.5t-1.5 -4.5q0 -3 -1.5 -5.5t-3.5 -4.5zM506 327q3 11 5 21l4 21q4 21 6 42.5t2 41.5q0 65 -31 115t-115 60q-7 1 -14 1.5t-15 0.5q-9 0 -18 -0.5t-18 -2.5q-44 -6 -83 -29.5
t-51 -68.5q-1 -7 -2.5 -13t-1.5 -12q1 -23 15 -38t40 -14h4h4q30 3 51.5 22t40.5 40q1 2 2.5 3.5t2.5 3.5q7 8 14 15l15 15q5 5 10.5 7t10.5 1q11 0 18.5 -7.5t7.5 -18.5q0 -6 -3 -11.5t-8 -10.5q-28 -25 -50.5 -57t-41.5 -66l-16 -31q-8 -15 -15 -30h230zM618 751l-65 -44
l-109 74l-112 -75l-68 45l177 118z" />
    <glyph glyph-name="Atilde" unicode="&#xc3;" horiz-adv-x="842" 
d="M817 56q-19 -25 -47.5 -40.5t-60.5 -15.5h-271q-11 0 -19 9t-7 19v2v2q0 1 0.5 2t0.5 2q26 71 45.5 129.5t33.5 107.5h-242q-2 -4 -3.5 -8t-3.5 -7q-2 -5 -4 -9l-4 -8q-23 -50 -48 -98t-62 -89h23h23h23h22q20 0 37.5 10t28.5 25q5 7 11 9.5t12 2.5q11 0 19 -8t8 -19
q-1 -4 -2.5 -8.5t-4.5 -9.5q-19 -25 -48.5 -40.5t-61.5 -15.5h-87h-87q-13 0 -19 7t-6 16v1v2q1 10 8 18.5t18 9.5q5 1 13 6.5t17 15.5q38 38 62.5 83t46.5 92q2 5 4.5 10.5t5.5 11.5h-10h-10h-10h-10q-23 0 -43.5 -16.5t-25.5 -39.5q-2 -11 -8.5 -16t-14.5 -6h-1h-2
q-10 0 -18.5 7t-8.5 20v3q0 2 1 4q9 41 44 69.5t77 28.5h16h17h16h16l18 37q9 18 19 36q-7 -1 -13 -1.5t-12 -0.5q-47 0 -77.5 30.5t-30.5 76.5q0 9 1.5 18.5t4.5 19.5q22 83 111.5 123t193.5 41h3h4q90 0 171 -28t118 -82q21 -31 33 -73.5t12 -99.5q0 -68 -19 -159.5
t-62 -210.5q26 0 46.5 6.5t37.5 28.5q5 7 11 9.5t12 2.5q11 0 18.5 -7.5t7.5 -18.5q0 -2 -0.5 -4.5t-1.5 -4.5q0 -3 -1.5 -5.5t-3.5 -4.5zM506 327q3 11 5 21l4 21q4 21 6 42.5t2 41.5q0 65 -31 115t-115 60q-7 1 -14 1.5t-15 0.5q-9 0 -18 -0.5t-18 -2.5q-44 -6 -83 -29.5
t-51 -68.5q-1 -7 -2.5 -13t-1.5 -12q1 -23 15 -38t40 -14h4h4q30 3 51.5 22t40.5 40q1 2 2.5 3.5t2.5 3.5q7 8 14 15l15 15q5 5 10.5 7t10.5 1q11 0 18.5 -7.5t7.5 -18.5q0 -6 -3 -11.5t-8 -10.5q-28 -25 -50.5 -57t-41.5 -66l-16 -31q-8 -15 -15 -30h230zM605 783
q-14 -17 -31 -29t-34 -19q-10 -3 -19.5 -5t-18.5 -2q-20 0 -32 3.5t-22 7.5h-1q-1 0 -2 1q-9 3 -19.5 6t-26.5 3q-18 0 -34 -5t-24 -14l-49 55q22 27 47.5 40.5t56.5 13.5q20 0 31.5 -3.5t20.5 -7.5q1 0 1.5 -0.5t1.5 -0.5q9 -4 18.5 -7t24.5 -3q19 0 35.5 6t25.5 15z" />
    <glyph glyph-name="Adieresis" unicode="&#xc4;" horiz-adv-x="842" 
d="M817 56q-19 -25 -47.5 -40.5t-60.5 -15.5h-271q-11 0 -19 9t-7 19v2v2q0 1 0.5 2t0.5 2q26 71 45.5 129.5t33.5 107.5h-242q-2 -4 -3.5 -8t-3.5 -7q-2 -5 -4 -9l-4 -8q-23 -50 -48 -98t-62 -89h23h23h23h22q20 0 37.5 10t28.5 25q5 7 11 9.5t12 2.5q11 0 19 -8t8 -19
q-1 -4 -2.5 -8.5t-4.5 -9.5q-19 -25 -48.5 -40.5t-61.5 -15.5h-87h-87q-13 0 -19 7t-6 16v1v2q1 10 8 18.5t18 9.5q5 1 13 6.5t17 15.5q38 38 62.5 83t46.5 92q2 5 4.5 10.5t5.5 11.5h-10h-10h-10h-10q-23 0 -43.5 -16.5t-25.5 -39.5q-2 -11 -8.5 -16t-14.5 -6h-1h-2
q-10 0 -18.5 7t-8.5 20v3q0 2 1 4q9 41 44 69.5t77 28.5h16h17h16h16l18 37q9 18 19 36q-7 -1 -13 -1.5t-12 -0.5q-47 0 -77.5 30.5t-30.5 76.5q0 9 1.5 18.5t4.5 19.5q22 83 111.5 123t193.5 41h3h4q90 0 171 -28t118 -82q21 -31 33 -73.5t12 -99.5q0 -68 -19 -159.5
t-62 -210.5q26 0 46.5 6.5t37.5 28.5q5 7 11 9.5t12 2.5q11 0 18.5 -7.5t7.5 -18.5q0 -2 -0.5 -4.5t-1.5 -4.5q0 -3 -1.5 -5.5t-3.5 -4.5zM506 327q3 11 5 21l4 21q4 21 6 42.5t2 41.5q0 65 -31 115t-115 60q-7 1 -14 1.5t-15 0.5q-9 0 -18 -0.5t-18 -2.5q-44 -6 -83 -29.5
t-51 -68.5q-1 -7 -2.5 -13t-1.5 -12q1 -23 15 -38t40 -14h4h4q30 3 51.5 22t40.5 40q1 2 2.5 3.5t2.5 3.5q7 8 14 15l15 15q5 5 10.5 7t10.5 1q11 0 18.5 -7.5t7.5 -18.5q0 -6 -3 -11.5t-8 -10.5q-28 -25 -50.5 -57t-41.5 -66l-16 -31q-8 -15 -15 -30h230zM435 783
q0 -24 -19 -40t-46 -16q-28 0 -47 16t-19 40q0 23 19 40t47 17q27 0 46 -17t19 -40zM585 783q0 -24 -18.5 -40t-45.5 -16q-28 0 -47.5 16t-19.5 40q0 23 19.5 40t47.5 17q27 0 45.5 -17t18.5 -40z" />
    <glyph glyph-name="Aring" unicode="&#xc5;" horiz-adv-x="842" 
d="M817 56q-19 -25 -47.5 -40.5t-60.5 -15.5h-271q-11 0 -19 9t-7 19v2v2q0 1 0.5 2t0.5 2q26 71 45.5 129.5t33.5 107.5h-242q-2 -4 -3.5 -8t-3.5 -7q-2 -5 -4 -9l-4 -8q-23 -50 -48 -98t-62 -89h23h23h23h22q20 0 37.5 10t28.5 25q5 7 11 9.5t12 2.5q11 0 19 -8t8 -19
q-1 -4 -2.5 -8.5t-4.5 -9.5q-19 -25 -48.5 -40.5t-61.5 -15.5h-87h-87q-13 0 -19 7t-6 16v1v2q1 10 8 18.5t18 9.5q5 1 13 6.5t17 15.5q38 38 62.5 83t46.5 92q2 5 4.5 10.5t5.5 11.5h-10h-10h-10h-10q-23 0 -43.5 -16.5t-25.5 -39.5q-2 -11 -8.5 -16t-14.5 -6h-1h-2
q-10 0 -18.5 7t-8.5 20v3q0 2 1 4q9 41 44 69.5t77 28.5h16h17h16h16l18 37q9 18 19 36q-7 -1 -13 -1.5t-12 -0.5q-47 0 -77.5 30.5t-30.5 76.5q0 9 1.5 18.5t4.5 19.5q22 83 111.5 123t193.5 41h3h4q90 0 171 -28t118 -82q21 -31 33 -73.5t12 -99.5q0 -68 -19 -159.5
t-62 -210.5q26 0 46.5 6.5t37.5 28.5q5 7 11 9.5t12 2.5q11 0 18.5 -7.5t7.5 -18.5q0 -2 -0.5 -4.5t-1.5 -4.5q0 -3 -1.5 -5.5t-3.5 -4.5zM506 327q3 11 5 21l4 21q4 21 6 42.5t2 41.5q0 65 -31 115t-115 60q-7 1 -14 1.5t-15 0.5q-9 0 -18 -0.5t-18 -2.5q-44 -6 -83 -29.5
t-51 -68.5q-1 -7 -2.5 -13t-1.5 -12q1 -23 15 -38t40 -14h4h4q30 3 51.5 22t40.5 40q1 2 2.5 3.5t2.5 3.5q7 8 14 15l15 15q5 5 10.5 7t10.5 1q11 0 18.5 -7.5t7.5 -18.5q0 -6 -3 -11.5t-8 -10.5q-28 -25 -50.5 -57t-41.5 -66l-16 -31q-8 -15 -15 -30h230zM529 807
q0 -36 -23 -59.5t-58 -23.5q-33 0 -57 23.5t-24 59.5q0 32 24 55.5t57 23.5q35 0 58 -23.5t23 -55.5zM489 805q0 17 -12 29t-29 12q-16 0 -28 -12t-12 -29q0 -16 12 -28t28 -12q17 0 29 12t12 28z" />
    <glyph glyph-name="AE" unicode="&#xc6;" horiz-adv-x="1153" 
d="M1143 703l-4 -18q-2 -9 -3 -18q-3 -11 -5 -23l-4 -23q-8 -36 -22 -70.5t-42 -56.5q-5 -4 -9.5 -5.5t-9.5 -1.5q-11 0 -19 8.5t-8 18.5q0 6 3 11.5t9 10.5q11 8 19 19.5t11 24.5q1 4 1.5 7t0.5 6q0 33 -34.5 50.5t-78.5 17.5q-6 0 -11.5 -0.5t-10.5 -0.5q-52 -5 -94.5 -35
t-43.5 -88q0 -41 31.5 -58.5t68.5 -23.5q14 -2 28.5 -3t26.5 -1q15 0 22.5 -8.5t6.5 -19.5q0 -10 -7.5 -17.5t-21.5 -7.5q-49 0 -96 -5t-91 -34q-6 -46 -17.5 -100.5t-31.5 -117.5q24 -32 67 -48t89 -16q68 0 125 32.5t57 93.5q0 34 -18 50.5t-39 19.5q-3 1 -6 1h-6
q-20 0 -35.5 -8.5t-14.5 -22.5v-2v-2q0 -1 0.5 -2t0.5 -2q1 -2 2.5 -3.5t2.5 -3.5l6 -6q2 -2 4 -5q1 -3 2 -5.5t1 -5.5q-1 -10 -9.5 -17.5t-20.5 -6.5q-2 0 -4.5 0.5t-5.5 1.5q-8 2 -16 10.5t-13 23.5l-3 14q-2 7 -2 14q0 38 33.5 60t74.5 22h3h3q43 -2 78.5 -31.5
t35.5 -93.5q0 -88 -70 -131.5t-154 -59.5q-43 -8 -83 -10.5t-72 -1.5h-74h-73h-74h-74q-11 0 -19 9t-7 19v2v2q0 1 0.5 2t0.5 2l46 132q20 60 34 110h-242l-6 -13l-6 -12q-23 -53 -49.5 -104t-65.5 -95q8 0 15.5 -0.5t15.5 -0.5h2h1q35 -2 68 2.5t56 34.5q5 7 11 9.5t12 2.5
q11 0 19 -8t7 -19q0 -4 -1.5 -8.5t-4.5 -9.5q-32 -42 -79.5 -51.5t-98.5 -8.5q-12 0 -23.5 0.5t-23.5 1.5q-15 1 -29 1h-29q-10 0 -15 9t-5 19t5 18t15 8q13 0 28.5 16.5t32.5 41.5q8 12 16 26l17 29q21 38 36 70l20 41h-7h-7q-31 -1 -58.5 -10t-36.5 -48q-3 -12 -10.5 -17
t-16.5 -5h-2h-1q-9 1 -16.5 8t-7.5 19v3q0 2 1 4q16 69 66 84.5t106 15.5h7h8l18 37l19 38l-15 -2q-7 -1 -14 -1q-51 0 -75.5 32t-24.5 75q0 8 1 15l2 16q6 32 25.5 62t51.5 50q49 31 110 47t123 18h7h6q49 0 96.5 -9t88.5 -28q40 22 100 36t124 17h11h10q62 0 118.5 -14.5
t93.5 -49.5q1 3 1.5 6.5t1.5 7.5q0 2 0.5 5t1.5 5q3 16 9 29t21 12h4q2 0 4 -1q14 -3 18 -8.5t4 -11.5q0 -3 -0.5 -6t-1.5 -6zM494 332q5 19 8.5 38.5t6.5 39.5l2 26q1 13 1 26q0 65 -30.5 115.5t-115.5 60.5q-9 2 -18 2h-18q-25 0 -50.5 -5.5t-48.5 -19.5
q-21 -12 -35 -26.5t-22 -28.5q-6 -11 -8.5 -21.5t-2.5 -20.5q0 -26 16.5 -44t41.5 -18q19 1 40 12.5t43 38.5q11 14 23 27.5t25 25.5q2 2 4.5 3.5t5.5 2.5q2 1 4.5 1.5t4.5 0.5q11 0 19 -8.5t8 -19.5q0 -5 -2.5 -10t-7.5 -10q-37 -33 -67.5 -83t-57.5 -105h231z" />
    <glyph glyph-name="Ccedilla" unicode="&#xc7;" horiz-adv-x="784" 
d="M561 -120q0 -40 -54.5 -65.5t-132.5 -25.5q-33 0 -56 3.5t-44 12.5q-9 4 -18 8.5t-19 10.5q-7 4 -10.5 11t-3.5 15q0 4 1.5 8.5t4.5 8.5q5 6 10 8.5t11 2.5q5 0 9.5 -1.5t9.5 -2.5q9 -3 16 -5l14 -4q7 -1 14 -2.5t16 -2.5q8 -1 16.5 -1.5t15.5 -0.5q27 0 46 5t20 15v1v1
q-1 14 -29.5 23.5t-62.5 13.5q-10 1 -20.5 1.5t-20.5 0.5l42 98h86l-18 -36q71 1 114 -28.5t43 -71.5v-1zM771 694q-4 -21 -9 -41.5t-9 -40.5l-10 -42l-9 -41q-6 -25 -19.5 -48.5t-33.5 -41.5q-5 -5 -10.5 -7t-10.5 -2q-10 0 -18 8t-8 18q0 5 2.5 10.5t7.5 10.5
q13 12 22.5 27.5t13.5 31.5q2 7 3 13.5t1 12.5q0 23 -13.5 41t-45.5 25q-12 3 -24 4t-24 1q-109 0 -189.5 -93.5t-94.5 -206.5q-2 -10 -2.5 -20t-0.5 -20q0 -40 11 -77.5t34 -69.5q28 -37 68.5 -55.5t83.5 -17.5q34 0 66.5 10.5t60.5 31.5q20 16 34.5 41.5t18.5 53.5
q0 4 0.5 8t0.5 8q0 14 -3.5 27t-11.5 25q-8 11 -20.5 18.5t-26.5 8.5h-2h-4q-9 0 -17 -2.5t-15 -8.5l-2 -2l-2 -2q-5 -5 -9 -12.5t-5 -14.5v-3v-2q0 -4 1.5 -8t5.5 -7q5 -5 7.5 -10.5t2.5 -10.5q0 -11 -8 -19t-19 -7q-5 0 -10 2t-10 6q-11 9 -16.5 20.5t-6.5 23.5q-1 3 -1 5
v5v4v4q4 35 32.5 64t65.5 29q61 0 94.5 -41t33.5 -96q0 -7 -0.5 -14.5t-2.5 -15.5q-16 -92 -97.5 -138t-175.5 -58q-22 -3 -44.5 -4.5t-43.5 -1.5q-25 0 -49.5 2t-45.5 6q-127 22 -185 105.5t-58 186.5q0 14 1 27.5t3 26.5q11 81 52 156.5t106 126.5q56 44 128 70t147 30h10
h11q62 0 121 -17t108 -55l6 25l6 26q3 12 10.5 17t16.5 5q10 0 18 -7t8 -19v-4q0 -2 -1 -4z" />
    <glyph glyph-name="Egrave" unicode="&#xc8;" horiz-adv-x="768" 
d="M748 693q-7 -33 -15 -67l-16 -67q-4 -22 -17.5 -41t-31.5 -33q-2 -2 -4.5 -3.5t-4.5 -1.5q-3 -1 -5.5 -1.5t-4.5 -0.5q-10 0 -18 8.5t-8 18.5q0 6 3 11.5t9 10.5q12 10 20.5 23t10.5 27q1 2 1 4v4q-1 14 -8.5 26t-24.5 22t-37.5 14.5t-42.5 4.5h-8q-4 0 -8 -1
q-54 -4 -99 -36t-45 -88q-1 -40 30.5 -58t69.5 -23q14 -2 28.5 -3t26.5 -1q14 0 21.5 -8.5t6.5 -19.5q0 -10 -7 -18t-21 -8q-52 0 -100.5 -5.5t-94.5 -37.5q-32 -22 -49 -50.5t-21 -57.5q0 -4 -0.5 -8.5t-0.5 -9.5q1 -53 38.5 -97t102.5 -52q8 -1 16 -1.5t17 -0.5q13 0 27 1
t28 4q52 9 95.5 37.5t43.5 83.5q0 34 -18 50.5t-39 19.5q-3 1 -6 1h-6q-20 0 -35.5 -9t-14.5 -23v-2v-2q0 -1 0.5 -2t0.5 -2v-1l1 -1l2 -2l2 -2q6 -5 9 -11t3 -12q0 -10 -8 -18.5t-19 -8.5q-2 0 -5.5 0.5t-6.5 2.5q-1 1 -2.5 2t-3.5 2q-14 11 -20.5 25t-6.5 28v1v2
q2 33 30.5 60.5t65.5 27.5q54 0 92.5 -34.5t38.5 -91.5q0 -97 -87 -143.5t-191 -56.5q-21 -2 -41 -3t-40 -1q-29 0 -57 2.5t-51 6.5q-10 1 -20 3l-19 4q-69 18 -126.5 62.5t-57.5 125.5q0 92 61.5 149t143.5 79q-35 16 -63 44.5t-28 70.5q0 85 94 133t206 54q9 1 18 1h18
q67 0 126.5 -15.5t94.5 -47.5q1 5 2.5 10.5t2.5 11.5q1 5 2.5 10.5t2.5 10.5q3 11 9.5 16.5t13.5 6.5h2h2q10 0 18 -7t8 -19v-4q0 -3 -1 -5zM525 815q5 -4 7.5 -10.5t2.5 -14.5v-4v-3q-2 -14 -11 -25t-24 -11q-4 0 -9.5 1.5t-11.5 4.5l-39 19q-17 8 -32 16q-3 1 -5.5 2.5
t-4.5 2.5l-37 20l-45 26q-13 7 -18 17.5t-5 21.5v2v3q3 22 19.5 40.5t37.5 18.5q7 0 13.5 -2.5t12.5 -7.5l30 -24l25 -18l37 -30z" />
    <glyph glyph-name="Eacute" unicode="&#xc9;" horiz-adv-x="768" 
d="M748 693q-7 -33 -15 -67l-16 -67q-4 -22 -17.5 -41t-31.5 -33q-2 -2 -4.5 -3.5t-4.5 -1.5q-3 -1 -5.5 -1.5t-4.5 -0.5q-10 0 -18 8.5t-8 18.5q0 6 3 11.5t9 10.5q12 10 20.5 23t10.5 27q1 2 1 4v4q-1 14 -8.5 26t-24.5 22t-37.5 14.5t-42.5 4.5h-8q-4 0 -8 -1
q-54 -4 -99 -36t-45 -88q-1 -40 30.5 -58t69.5 -23q14 -2 28.5 -3t26.5 -1q14 0 21.5 -8.5t6.5 -19.5q0 -10 -7 -18t-21 -8q-52 0 -100.5 -5.5t-94.5 -37.5q-32 -22 -49 -50.5t-21 -57.5q0 -4 -0.5 -8.5t-0.5 -9.5q1 -53 38.5 -97t102.5 -52q8 -1 16 -1.5t17 -0.5q13 0 27 1
t28 4q52 9 95.5 37.5t43.5 83.5q0 34 -18 50.5t-39 19.5q-3 1 -6 1h-6q-20 0 -35.5 -9t-14.5 -23v-2v-2q0 -1 0.5 -2t0.5 -2v-1l1 -1l2 -2l2 -2q6 -5 9 -11t3 -12q0 -10 -8 -18.5t-19 -8.5q-2 0 -5.5 0.5t-6.5 2.5q-1 1 -2.5 2t-3.5 2q-14 11 -20.5 25t-6.5 28v1v2
q2 33 30.5 60.5t65.5 27.5q54 0 92.5 -34.5t38.5 -91.5q0 -97 -87 -143.5t-191 -56.5q-21 -2 -41 -3t-40 -1q-29 0 -57 2.5t-51 6.5q-10 1 -20 3l-19 4q-69 18 -126.5 62.5t-57.5 125.5q0 92 61.5 149t143.5 79q-35 16 -63 44.5t-28 70.5q0 85 94 133t206 54q9 1 18 1h18
q67 0 126.5 -15.5t94.5 -47.5q1 5 2.5 10.5t2.5 11.5q1 5 2.5 10.5t2.5 10.5q3 11 9.5 16.5t13.5 6.5h2h2q10 0 18 -7t8 -19v-4q0 -3 -1 -5zM641 835l-45 -26l-36 -19q-3 -2 -5.5 -3.5t-5.5 -2.5q-15 -8 -32 -16l-40 -19q-6 -3 -11.5 -4.5t-10.5 -1.5q-15 1 -23 12.5
t-10 25.5v2v3q0 8 2.5 14.5t7.5 10.5l56 45l38 30l24 19l30 23q7 5 13.5 7.5t13.5 2.5q21 0 37.5 -18t18.5 -39q1 -2 1 -4v-4q0 -11 -5.5 -21t-17.5 -17z" />
    <glyph glyph-name="Ecircumflex" unicode="&#xca;" horiz-adv-x="768" 
d="M748 693q-7 -33 -15 -67l-16 -67q-4 -22 -17.5 -41t-31.5 -33q-2 -2 -4.5 -3.5t-4.5 -1.5q-3 -1 -5.5 -1.5t-4.5 -0.5q-10 0 -18 8.5t-8 18.5q0 6 3 11.5t9 10.5q12 10 20.5 23t10.5 27q1 2 1 4v4q-1 14 -8.5 26t-24.5 22t-37.5 14.5t-42.5 4.5h-8q-4 0 -8 -1
q-54 -4 -99 -36t-45 -88q-1 -40 30.5 -58t69.5 -23q14 -2 28.5 -3t26.5 -1q14 0 21.5 -8.5t6.5 -19.5q0 -10 -7 -18t-21 -8q-52 0 -100.5 -5.5t-94.5 -37.5q-32 -22 -49 -50.5t-21 -57.5q0 -4 -0.5 -8.5t-0.5 -9.5q1 -53 38.5 -97t102.5 -52q8 -1 16 -1.5t17 -0.5q13 0 27 1
t28 4q52 9 95.5 37.5t43.5 83.5q0 34 -18 50.5t-39 19.5q-3 1 -6 1h-6q-20 0 -35.5 -9t-14.5 -23v-2v-2q0 -1 0.5 -2t0.5 -2v-1l1 -1l2 -2l2 -2q6 -5 9 -11t3 -12q0 -10 -8 -18.5t-19 -8.5q-2 0 -5.5 0.5t-6.5 2.5q-1 1 -2.5 2t-3.5 2q-14 11 -20.5 25t-6.5 28v1v2
q2 33 30.5 60.5t65.5 27.5q54 0 92.5 -34.5t38.5 -91.5q0 -97 -87 -143.5t-191 -56.5q-21 -2 -41 -3t-40 -1q-29 0 -57 2.5t-51 6.5q-10 1 -20 3l-19 4q-69 18 -126.5 62.5t-57.5 125.5q0 92 61.5 149t143.5 79q-35 16 -63 44.5t-28 70.5q0 85 94 133t206 54q9 1 18 1h18
q67 0 126.5 -15.5t94.5 -47.5q1 5 2.5 10.5t2.5 11.5q1 5 2.5 10.5t2.5 10.5q3 11 9.5 16.5t13.5 6.5h2h2q10 0 18 -7t8 -19v-4q0 -3 -1 -5zM638 775l-65 -44l-109 74l-112 -75l-68 45l177 118z" />
    <glyph glyph-name="Edieresis" unicode="&#xcb;" horiz-adv-x="768" 
d="M748 693q-7 -33 -15 -67l-16 -67q-4 -22 -17.5 -41t-31.5 -33q-2 -2 -4.5 -3.5t-4.5 -1.5q-3 -1 -5.5 -1.5t-4.5 -0.5q-10 0 -18 8.5t-8 18.5q0 6 3 11.5t9 10.5q12 10 20.5 23t10.5 27q1 2 1 4v4q-1 14 -8.5 26t-24.5 22t-37.5 14.5t-42.5 4.5h-8q-4 0 -8 -1
q-54 -4 -99 -36t-45 -88q-1 -40 30.5 -58t69.5 -23q14 -2 28.5 -3t26.5 -1q14 0 21.5 -8.5t6.5 -19.5q0 -10 -7 -18t-21 -8q-52 0 -100.5 -5.5t-94.5 -37.5q-32 -22 -49 -50.5t-21 -57.5q0 -4 -0.5 -8.5t-0.5 -9.5q1 -53 38.5 -97t102.5 -52q8 -1 16 -1.5t17 -0.5q13 0 27 1
t28 4q52 9 95.5 37.5t43.5 83.5q0 34 -18 50.5t-39 19.5q-3 1 -6 1h-6q-20 0 -35.5 -9t-14.5 -23v-2v-2q0 -1 0.5 -2t0.5 -2v-1l1 -1l2 -2l2 -2q6 -5 9 -11t3 -12q0 -10 -8 -18.5t-19 -8.5q-2 0 -5.5 0.5t-6.5 2.5q-1 1 -2.5 2t-3.5 2q-14 11 -20.5 25t-6.5 28v1v2
q2 33 30.5 60.5t65.5 27.5q54 0 92.5 -34.5t38.5 -91.5q0 -97 -87 -143.5t-191 -56.5q-21 -2 -41 -3t-40 -1q-29 0 -57 2.5t-51 6.5q-10 1 -20 3l-19 4q-69 18 -126.5 62.5t-57.5 125.5q0 92 61.5 149t143.5 79q-35 16 -63 44.5t-28 70.5q0 85 94 133t206 54q9 1 18 1h18
q67 0 126.5 -15.5t94.5 -47.5q1 5 2.5 10.5t2.5 11.5q1 5 2.5 10.5t2.5 10.5q3 11 9.5 16.5t13.5 6.5h2h2q10 0 18 -7t8 -19v-4q0 -3 -1 -5zM459 795q0 -24 -19 -40t-46 -16q-28 0 -47 16t-19 40q0 23 19 40t47 17q27 0 46 -17t19 -40zM609 795q0 -24 -18.5 -40t-45.5 -16
q-28 0 -47.5 16t-19.5 40q0 23 19.5 40t47.5 17q27 0 45.5 -17t18.5 -40z" />
    <glyph glyph-name="Igrave" unicode="&#xcc;" horiz-adv-x="765" 
d="M725 657q-15 0 -28 -11.5t-17 -25.5l-27 -116l-26 -116l-27 -116l-27 -116q-15 -67 -72.5 -107t-123.5 -54q-22 -5 -43 -7.5t-41 -2.5q-21 0 -44 2t-47 6q-73 11 -133.5 51.5t-60.5 125.5q0 64 37.5 110t104.5 46q36 0 64 -21.5t33 -57.5v-2v-4q0 -13 -8 -20t-18 -7
q-9 0 -17 6t-10 19q-2 17 -14.5 25t-29.5 8q-44 0 -66 -29t-22 -66v-3v-4q2 -24 12.5 -46.5t29.5 -37.5q16 -12 34 -20t38 -8q53 0 96.5 40.5t54.5 89.5l52 222l51 222q2 7 4 13t5 12h-34h-34h-35h-34q-20 0 -37.5 -14.5t-22.5 -34.5q-3 -12 -10.5 -17t-16.5 -5q-10 0 -18 7
t-8 19v4q0 2 1 4q8 38 40.5 64.5t71.5 26.5h212h211q15 0 22.5 -8.5t6.5 -19.5q0 -10 -7.5 -18t-21.5 -8zM605 803q5 -4 7.5 -10.5t2.5 -14.5v-3v-4q-2 -14 -11 -25t-24 -11q-4 0 -9.5 1.5t-11.5 4.5l-39 19q-17 8 -32 16q-3 1 -5.5 2.5t-4.5 2.5l-37 21l-45 25
q-13 7 -18 17.5t-5 21.5v3v2q3 22 19.5 40.5t37.5 18.5q7 0 13.5 -2.5t12.5 -7.5l30 -23l25 -19l37 -30z" />
    <glyph glyph-name="Iacute" unicode="&#xcd;" horiz-adv-x="765" 
d="M725 657q-15 0 -28 -11.5t-17 -25.5l-27 -116l-26 -116l-27 -116l-27 -116q-15 -67 -72.5 -107t-123.5 -54q-22 -5 -43 -7.5t-41 -2.5q-21 0 -44 2t-47 6q-73 11 -133.5 51.5t-60.5 125.5q0 64 37.5 110t104.5 46q36 0 64 -21.5t33 -57.5v-2v-4q0 -13 -8 -20t-18 -7
q-9 0 -17 6t-10 19q-2 17 -14.5 25t-29.5 8q-44 0 -66 -29t-22 -66v-3v-4q2 -24 12.5 -46.5t29.5 -37.5q16 -12 34 -20t38 -8q53 0 96.5 40.5t54.5 89.5l52 222l51 222q2 7 4 13t5 12h-34h-34h-35h-34q-20 0 -37.5 -14.5t-22.5 -34.5q-3 -12 -10.5 -17t-16.5 -5q-10 0 -18 7
t-8 19v4q0 2 1 4q8 38 40.5 64.5t71.5 26.5h212h211q15 0 22.5 -8.5t6.5 -19.5q0 -10 -7.5 -18t-21.5 -8zM733 827l-45 -25l-36 -20q-3 -2 -5.5 -3.5t-5.5 -2.5q-15 -8 -32 -16l-40 -19q-6 -3 -11.5 -4.5t-10.5 -1.5q-15 1 -23 12.5t-10 25.5v3v2q0 8 2.5 14.5t7.5 10.5
l56 46l38 29l24 19l30 23q7 5 13.5 7.5t13.5 2.5q21 0 37.5 -18t18.5 -39q1 -2 1 -4v-4q0 -11 -5.5 -21t-17.5 -17z" />
    <glyph glyph-name="Icircumflex" unicode="&#xce;" horiz-adv-x="765" 
d="M725 657q-15 0 -28 -11.5t-17 -25.5l-27 -116l-26 -116l-27 -116l-27 -116q-15 -67 -72.5 -107t-123.5 -54q-22 -5 -43 -7.5t-41 -2.5q-21 0 -44 2t-47 6q-73 11 -133.5 51.5t-60.5 125.5q0 64 37.5 110t104.5 46q36 0 64 -21.5t33 -57.5v-2v-4q0 -13 -8 -20t-18 -7
q-9 0 -17 6t-10 19q-2 17 -14.5 25t-29.5 8q-44 0 -66 -29t-22 -66v-3v-4q2 -24 12.5 -46.5t29.5 -37.5q16 -12 34 -20t38 -8q53 0 96.5 40.5t54.5 89.5l52 222l51 222q2 7 4 13t5 12h-34h-34h-35h-34q-20 0 -37.5 -14.5t-22.5 -34.5q-3 -12 -10.5 -17t-16.5 -5q-10 0 -18 7
t-8 19v4q0 2 1 4q8 38 40.5 64.5t71.5 26.5h212h211q15 0 22.5 -8.5t6.5 -19.5q0 -10 -7.5 -18t-21.5 -8zM742 775l-65 -44l-109 74l-112 -75l-68 45l177 118z" />
    <glyph glyph-name="Idieresis" unicode="&#xcf;" horiz-adv-x="765" 
d="M725 657q-15 0 -28 -11.5t-17 -25.5l-27 -116l-26 -116l-27 -116l-27 -116q-15 -67 -72.5 -107t-123.5 -54q-22 -5 -43 -7.5t-41 -2.5q-21 0 -44 2t-47 6q-73 11 -133.5 51.5t-60.5 125.5q0 64 37.5 110t104.5 46q36 0 64 -21.5t33 -57.5v-2v-4q0 -13 -8 -20t-18 -7
q-9 0 -17 6t-10 19q-2 17 -14.5 25t-29.5 8q-44 0 -66 -29t-22 -66v-3v-4q2 -24 12.5 -46.5t29.5 -37.5q16 -12 34 -20t38 -8q53 0 96.5 40.5t54.5 89.5l52 222l51 222q2 7 4 13t5 12h-34h-34h-35h-34q-20 0 -37.5 -14.5t-22.5 -34.5q-3 -12 -10.5 -17t-16.5 -5q-10 0 -18 7
t-8 19v4q0 2 1 4q8 38 40.5 64.5t71.5 26.5h212h211q15 0 22.5 -8.5t6.5 -19.5q0 -10 -7.5 -18t-21.5 -8zM567 787q0 -24 -19 -40t-46 -16q-28 0 -47 16t-19 40q0 23 19 40t47 17q27 0 46 -17t19 -40zM717 787q0 -24 -18.5 -40t-45.5 -16q-28 0 -47.5 16t-19.5 40
q0 23 19.5 40t47.5 17q27 0 45.5 -17t18.5 -40z" />
    <glyph glyph-name="Eth" unicode="&#xd0;" horiz-adv-x="923" 
d="M879 497q8 -19 14 -38.5t10 -38.5t6 -38.5t2 -38.5q0 -136 -92.5 -239.5t-241.5 -103.5h-125h-125h-125h-125q-14 0 -21.5 9t-6.5 19q0 10 7 18t21 8h2h2q14 2 26 13t16 24l21 89l20 88h-79q-10 0 -18.5 3.5t-8.5 23.5t8.5 23.5t18.5 3.5h91l6 24l6 25q2 12 5 24l6 25
q-9 -6 -19 -10.5t-19 -6.5q-10 -3 -20 -4.5t-19 -1.5q-44 0 -77.5 29.5t-32.5 78.5q0 9 1 18.5t4 19.5q21 75 99.5 111.5t168.5 49.5q59 9 115 9.5t96 -2.5q24 -2 48.5 -5.5t49.5 -9.5q89 -20 168.5 -67.5t116.5 -131.5zM626 505q-30 61 -101.5 93.5t-151.5 41.5l-30 2
q-15 1 -30 1q-39 0 -75 -5.5t-64 -16.5q-39 -15 -67.5 -37.5t-37.5 -54.5q-1 -7 -2 -13t-1 -12q0 -26 16.5 -39.5t39.5 -13.5q7 0 14.5 1.5t15.5 4.5t15.5 7t14.5 10q56 47 124.5 79t141.5 32q10 0 20 -0.5t20 -2.5q10 -1 20 -3.5t20 -5.5t16 -10t7 -15v-2v-2
q-1 -10 -8 -17.5t-21 -7.5q-16 0 -29 -11.5t-16 -26.5q-4 -20 -9 -40t-9 -39q-5 -20 -9.5 -40t-9.5 -40h78h2h1q9 0 16.5 -4t7.5 -23t-7.5 -23t-16.5 -4h-1h-2h-90l-12 -47l-10 -47l-10 -47l-12 -48q-1 -7 -3.5 -13t-6.5 -12h31h32q91 1 144.5 82.5t66.5 178.5q2 16 3 31
t1 30q0 36 -6.5 69.5t-19.5 59.5z" />
    <glyph glyph-name="Ntilde" unicode="&#xd1;" horiz-adv-x="883" 
d="M845 657q-16 0 -29 -11.5t-16 -25.5l-34 -150l-35 -149l-35 -150l-35 -150v-2l-1 -1q-2 -5 -7.5 -10t-12.5 -7q-1 -1 -3 -1h-2q-116 0 -160 88.5t-68 194.5q-2 9 -4 17t-4 17q-11 48 -23 92.5t-31 79.5q-21 39 -60.5 62t-81.5 25h-3h-3q-24 0 -47 -7.5t-43 -23.5
q-8 -7 -14.5 -14t-11.5 -14q-7 -11 -10.5 -21.5t-3.5 -20.5q0 -26 19.5 -45t48.5 -19q14 0 28.5 5t29.5 16q9 7 18 15.5t18 20.5q5 7 11 9.5t12 2.5q11 0 19 -7.5t8 -18.5q0 -2 -0.5 -4.5t-1.5 -4.5q0 -3 -1.5 -5.5t-3.5 -4.5q-7 -10 -16 -19.5t-19 -17.5l-16 -70l-16 -70
l-17 -71l-16 -70q-4 -17 -12.5 -33t-20.5 -30h44h43q20 0 37.5 10t28.5 25q5 7 11 9.5t12 2.5q11 0 19 -8t8 -19q-1 -4 -2.5 -8.5t-4.5 -9.5q-19 -25 -48 -40.5t-61 -15.5h-99h-100q-10 0 -15 9t-4 19q0 10 4.5 18t14.5 8q32 0 59 22.5t34 52.5l28 117l26 117
q-10 -3 -20 -4.5t-20 -1.5q-52 0 -86.5 37t-34.5 90q0 8 1 16.5t3 17.5q18 77 88.5 126t151.5 62q14 3 28 4t28 1q16 0 31.5 -1.5t30.5 -5.5q103 -24 168 -112t97 -189q10 -30 16.5 -59.5t10.5 -57.5l20 86l20 87l20 87l20 86q8 32 36 55.5t62 23.5q14 0 21.5 -8.5
t6.5 -19.5q0 -10 -7 -18t-21 -8zM681 771q-14 -17 -31 -29t-34 -19q-10 -3 -19.5 -5t-18.5 -2q-20 0 -32 3.5t-22 7.5h-1q-1 0 -2 1q-9 3 -19.5 6t-26.5 3q-18 0 -34 -5t-24 -14l-49 55q22 27 47.5 40.5t56.5 13.5q20 0 31.5 -3.5t20.5 -7.5q1 0 1.5 -0.5t1.5 -0.5
q9 -4 18.5 -7t24.5 -3q19 0 35.5 6t25.5 15z" />
    <glyph glyph-name="Ograve" unicode="&#xd2;" 
 />
    <glyph glyph-name="Oacute" unicode="&#xd3;" horiz-adv-x="766" 
d="M745 418q2 -9 3.5 -18t2.5 -18q1 -10 1.5 -19t0.5 -18q0 -109 -65 -199.5t-173 -127.5q-34 -12 -71 -18.5t-74 -8.5q-6 -1 -12 -1h-13q-76 0 -147.5 26.5t-120.5 87.5q-34 44 -49.5 95.5t-15.5 105.5q0 17 1.5 34.5t4.5 34.5q28 156 160 253t284 101h6h5q24 0 48 -3
t48 -8q65 -15 116.5 -58.5t51.5 -108.5q0 -11 -2 -23t-6 -24q-9 -31 -38 -53.5t-62 -24.5h-2h-2q-4 0 -8.5 0.5t-9.5 1.5q-28 7 -43.5 29t-15.5 49q0 2 0.5 4t0.5 4q0 3 0.5 7t1.5 7q2 11 8.5 16t14.5 6h1h2q11 0 19 -7t8 -20v-3q0 -2 -1 -4q-1 -3 -1 -6v-5q0 -13 7 -19
t17 -6q8 0 16.5 3.5t15.5 9.5q14 11 19 24.5t5 29.5q0 29 -20 45.5t-45 23.5l-15 4q-7 2 -14 3q-8 1 -15 1.5t-15 0.5q-107 0 -190 -94.5t-100 -207.5q-2 -13 -3 -25.5t-1 -25.5q0 -38 9.5 -73.5t31.5 -66.5q27 -38 62 -55t72 -17q6 0 12.5 0.5t12.5 1.5q51 7 99 37.5
t79 73.5q26 35 40 77.5t16 86.5v7v6q0 7 -0.5 14.5t-0.5 14.5l-2 14q-1 8 -3 15q-1 2 -1 4v4q1 13 9.5 20t18.5 6q8 0 15.5 -5.5t10.5 -17.5zM625 839l-45 -25l-36 -20q-3 -2 -5.5 -3.5t-5.5 -2.5q-15 -8 -32 -16l-40 -19q-6 -3 -11.5 -4.5t-10.5 -1.5q-15 1 -23 12.5
t-10 25.5v3v2q0 8 2.5 14.5t7.5 10.5l57 46l37 29l25 19l29 23q7 5 13.5 7.5t13.5 2.5q21 0 37.5 -18t18.5 -39q1 -2 1 -4v-4q0 -11 -5.5 -21t-17.5 -17z" />
    <glyph glyph-name="Ocircumflex" unicode="&#xd4;" horiz-adv-x="766" 
d="M745 418q2 -9 3.5 -18t2.5 -18q1 -10 1.5 -19t0.5 -18q0 -109 -65 -199.5t-173 -127.5q-34 -12 -71 -18.5t-74 -8.5q-6 -1 -12 -1h-13q-76 0 -147.5 26.5t-120.5 87.5q-34 44 -49.5 95.5t-15.5 105.5q0 17 1.5 34.5t4.5 34.5q28 156 160 253t284 101h6h5q24 0 48 -3
t48 -8q65 -15 116.5 -58.5t51.5 -108.5q0 -11 -2 -23t-6 -24q-9 -31 -38 -53.5t-62 -24.5h-2h-2q-4 0 -8.5 0.5t-9.5 1.5q-28 7 -43.5 29t-15.5 49q0 2 0.5 4t0.5 4q0 3 0.5 7t1.5 7q2 11 8.5 16t14.5 6h1h2q11 0 19 -7t8 -20v-3q0 -2 -1 -4q-1 -3 -1 -6v-5q0 -13 7 -19
t17 -6q8 0 16.5 3.5t15.5 9.5q14 11 19 24.5t5 29.5q0 29 -20 45.5t-45 23.5l-15 4q-7 2 -14 3q-8 1 -15 1.5t-15 0.5q-107 0 -190 -94.5t-100 -207.5q-2 -13 -3 -25.5t-1 -25.5q0 -38 9.5 -73.5t31.5 -66.5q27 -38 62 -55t72 -17q6 0 12.5 0.5t12.5 1.5q51 7 99 37.5
t79 73.5q26 35 40 77.5t16 86.5v7v6q0 7 -0.5 14.5t-0.5 14.5l-2 14q-1 8 -3 15q-1 2 -1 4v4q1 13 9.5 20t18.5 6q8 0 15.5 -5.5t10.5 -17.5zM630 775l-65 -44l-109 74l-112 -75l-68 45l177 118z" />
    <glyph glyph-name="Otilde" unicode="&#xd5;" horiz-adv-x="766" 
d="M745 418q2 -9 3.5 -18t2.5 -18q1 -10 1.5 -19t0.5 -18q0 -109 -65 -199.5t-173 -127.5q-34 -12 -71 -18.5t-74 -8.5q-6 -1 -12 -1h-13q-76 0 -147.5 26.5t-120.5 87.5q-34 44 -49.5 95.5t-15.5 105.5q0 17 1.5 34.5t4.5 34.5q28 156 160 253t284 101h6h5q24 0 48 -3
t48 -8q65 -15 116.5 -58.5t51.5 -108.5q0 -11 -2 -23t-6 -24q-9 -31 -38 -53.5t-62 -24.5h-2h-2q-4 0 -8.5 0.5t-9.5 1.5q-28 7 -43.5 29t-15.5 49q0 2 0.5 4t0.5 4q0 3 0.5 7t1.5 7q2 11 8.5 16t14.5 6h1h2q11 0 19 -7t8 -20v-3q0 -2 -1 -4q-1 -3 -1 -6v-5q0 -13 7 -19
t17 -6q8 0 16.5 3.5t15.5 9.5q14 11 19 24.5t5 29.5q0 29 -20 45.5t-45 23.5l-15 4q-7 2 -14 3q-8 1 -15 1.5t-15 0.5q-107 0 -190 -94.5t-100 -207.5q-2 -13 -3 -25.5t-1 -25.5q0 -38 9.5 -73.5t31.5 -66.5q27 -38 62 -55t72 -17q6 0 12.5 0.5t12.5 1.5q51 7 99 37.5
t79 73.5q26 35 40 77.5t16 86.5v7v6q0 7 -0.5 14.5t-0.5 14.5l-2 14q-1 8 -3 15q-1 2 -1 4v4q1 13 9.5 20t18.5 6q8 0 15.5 -5.5t10.5 -17.5zM625 799q-14 -17 -31 -29t-34 -19q-10 -3 -19.5 -5t-18.5 -2q-20 0 -32 3.5t-22 7.5h-1q-1 0 -2 1q-9 3 -19.5 6t-26.5 3
q-18 0 -34 -5t-24 -14l-49 55q22 27 47.5 40.5t56.5 13.5q20 0 31.5 -3.5t20.5 -7.5q1 0 1.5 -0.5t1.5 -0.5q9 -4 18.5 -7t24.5 -3q19 0 35.5 6t25.5 15z" />
    <glyph glyph-name="Odieresis" unicode="&#xd6;" horiz-adv-x="766" 
d="M745 418q2 -9 3.5 -18t2.5 -18q1 -10 1.5 -19t0.5 -18q0 -109 -65 -199.5t-173 -127.5q-34 -12 -71 -18.5t-74 -8.5q-6 -1 -12 -1h-13q-76 0 -147.5 26.5t-120.5 87.5q-34 44 -49.5 95.5t-15.5 105.5q0 17 1.5 34.5t4.5 34.5q28 156 160 253t284 101h6h5q24 0 48 -3
t48 -8q65 -15 116.5 -58.5t51.5 -108.5q0 -11 -2 -23t-6 -24q-9 -31 -38 -53.5t-62 -24.5h-2h-2q-4 0 -8.5 0.5t-9.5 1.5q-28 7 -43.5 29t-15.5 49q0 2 0.5 4t0.5 4q0 3 0.5 7t1.5 7q2 11 8.5 16t14.5 6h1h2q11 0 19 -7t8 -20v-3q0 -2 -1 -4q-1 -3 -1 -6v-5q0 -13 7 -19
t17 -6q8 0 16.5 3.5t15.5 9.5q14 11 19 24.5t5 29.5q0 29 -20 45.5t-45 23.5l-15 4q-7 2 -14 3q-8 1 -15 1.5t-15 0.5q-107 0 -190 -94.5t-100 -207.5q-2 -13 -3 -25.5t-1 -25.5q0 -38 9.5 -73.5t31.5 -66.5q27 -38 62 -55t72 -17q6 0 12.5 0.5t12.5 1.5q51 7 99 37.5
t79 73.5q26 35 40 77.5t16 86.5v7v6q0 7 -0.5 14.5t-0.5 14.5l-2 14q-1 8 -3 15q-1 2 -1 4v4q1 13 9.5 20t18.5 6q8 0 15.5 -5.5t10.5 -17.5zM463 799q0 -24 -19 -40t-46 -16q-28 0 -47 16t-19 40q0 23 19 40t47 17q27 0 46 -17t19 -40zM613 799q0 -24 -18.5 -40t-45.5 -16
q-28 0 -47.5 16t-19.5 40q0 23 19.5 40t47.5 17q27 0 45.5 -17t18.5 -40z" />
    <glyph glyph-name="multiply" unicode="&#xd7;" horiz-adv-x="500" 
 />
    <glyph glyph-name="Oslash" unicode="&#xd8;" horiz-adv-x="826" 
d="M809 715l-36 -34l-37 -34q16 -19 23.5 -42.5t7.5 -47.5q0 -27 -10.5 -52t-32.5 -44q-9 -8 -19.5 -13.5t-20.5 -8.5q-7 -2 -13.5 -3t-13.5 -1q-31 0 -54.5 20.5t-23.5 56.5q0 5 1 11t2 13q2 8 5.5 15t15.5 7q2 0 5 -0.5t6 -1.5q14 -3 17.5 -10t3.5 -15v-3v-4v-2v-2
q-1 -3 -1 -5v-5q0 -7 3 -13t13 -8q1 0 2 -0.5t2 -0.5h2h2h2h2q15 2 28 13.5t18 24.5q0 1 0.5 1.5t0.5 1.5l3 15q2 6 2 12q-1 33 -29 50.5t-61 23.5l-20 2q-9 1 -18 1q-106 0 -187.5 -94t-99.5 -207q-2 -14 -3 -27t-1 -26q0 -37 10 -73t31 -66q27 -38 62 -55t72 -17
q6 0 12.5 0.5t12.5 1.5q51 7 99 37.5t79 73.5q26 35 40 77.5t16 86.5v7v6q0 7 -0.5 14.5t-0.5 14.5l-2 15q-1 7 -3 14q-1 2 -1 5v3q1 13 9.5 20t18.5 6q8 0 15.5 -5.5t10.5 -17.5q2 -9 3.5 -18t2.5 -18q1 -10 1.5 -19t0.5 -18q0 -109 -65 -199.5t-173 -127.5
q-35 -12 -73.5 -19.5t-77.5 -8.5h-10h-10q-67 0 -130.5 19.5t-110.5 65.5l-41 -38l-42 -39q-5 -4 -10 -6t-10 -2q-10 1 -18 8.5t-8 18.5q0 5 2.5 10.5t7.5 10.5l42 40l42 38q-30 42 -43.5 89t-13.5 95v4v3q2 92 47.5 178t118.5 142q50 38 120 65t144 34q10 1 21 1.5t21 0.5
q50 0 97.5 -12.5t86.5 -40.5q9 9 19 18l19 17q9 9 18.5 17.5t18.5 17.5q5 5 10.5 7t9.5 2q11 -1 19 -8.5t8 -18.5q-1 -5 -3.5 -10.5t-7.5 -10.5z" />
    <glyph glyph-name="Ugrave" unicode="&#xd9;" horiz-adv-x="869" 
d="M839 656q-13 0 -24.5 -10.5t-16.5 -22.5q0 -1 -0.5 -2.5t-0.5 -2.5l-31 -134l-31 -135l-31 -135l-32 -135q-1 -7 -3.5 -13t-6.5 -12h10h10q30 -1 56.5 3t48.5 32q5 7 11 9.5t12 2.5q11 0 18.5 -7.5t7.5 -18.5q0 -2 -0.5 -4.5t-1.5 -4.5q0 -3 -1.5 -5.5t-3.5 -4.5
q-19 -25 -48 -40.5t-61 -15.5h-139h-141q-14 0 -19.5 9t-5.5 22q0 5 0.5 11t2.5 12q1 6 2 11t3 10q2 8 4 14.5t3 10.5q-43 -43 -102 -77.5t-121 -37.5h-4h-5q-24 0 -47 5.5t-45 18.5q-52 30 -71 84.5t-18 114.5v6v6q1 38 6.5 74t13.5 66q2 6 3.5 12.5t3.5 12.5
q21 76 54.5 147.5t72.5 124.5h-6h-7q-29 0 -53.5 -4t-45.5 -31q-5 -7 -11 -9.5t-12 -2.5q-11 0 -19 8t-8 19q1 5 2.5 9.5t4.5 8.5q20 25 49 40.5t60 15.5h152h152q12 0 19.5 -8.5t7.5 -19.5q-1 -4 -2 -7.5t-3 -6.5q-14 -20 -30 -46.5t-32 -58.5q-18 -35 -35.5 -74t-32.5 -79
l-10 -29q-5 -15 -9 -30q-2 -6 -4 -13l-4 -16q-4 -15 -7.5 -33t-5.5 -36q0 -7 -0.5 -14t-0.5 -14q0 -27 8 -49.5t28 -31.5q8 -4 15.5 -5.5t14.5 -1.5q28 1 52 20.5t43 43.5q5 6 9 12l8 11l41 173l39 173q14 58 64 99t109 41h128q11 0 15.5 -8.5t4.5 -19.5v-1v-2
q-1 -9 -6 -16.5t-14 -7.5zM565 791q5 -4 7.5 -10.5t2.5 -14.5v-3v-4q-2 -14 -11 -25t-24 -11q-4 0 -9.5 1.5t-11.5 4.5l-39 19q-17 8 -32 16q-3 1 -5.5 2.5t-4.5 2.5l-37 21l-45 25q-13 7 -18 17.5t-5 21.5v3v2q3 22 19.5 40.5t37.5 18.5q7 0 13.5 -2.5t12.5 -7.5l31 -23
l24 -19l38 -30z" />
    <glyph glyph-name="Uacute" unicode="&#xda;" horiz-adv-x="869" 
d="M839 656q-13 0 -24.5 -10.5t-16.5 -22.5q0 -1 -0.5 -2.5t-0.5 -2.5l-31 -134l-31 -135l-31 -135l-32 -135q-1 -7 -3.5 -13t-6.5 -12h10h10q30 -1 56.5 3t48.5 32q5 7 11 9.5t12 2.5q11 0 18.5 -7.5t7.5 -18.5q0 -2 -0.5 -4.5t-1.5 -4.5q0 -3 -1.5 -5.5t-3.5 -4.5
q-19 -25 -48 -40.5t-61 -15.5h-139h-141q-14 0 -19.5 9t-5.5 22q0 5 0.5 11t2.5 12q1 6 2 11t3 10q2 8 4 14.5t3 10.5q-43 -43 -102 -77.5t-121 -37.5h-4h-5q-24 0 -47 5.5t-45 18.5q-52 30 -71 84.5t-18 114.5v6v6q1 38 6.5 74t13.5 66q2 6 3.5 12.5t3.5 12.5
q21 76 54.5 147.5t72.5 124.5h-6h-7q-29 0 -53.5 -4t-45.5 -31q-5 -7 -11 -9.5t-12 -2.5q-11 0 -19 8t-8 19q1 5 2.5 9.5t4.5 8.5q20 25 49 40.5t60 15.5h152h152q12 0 19.5 -8.5t7.5 -19.5q-1 -4 -2 -7.5t-3 -6.5q-14 -20 -30 -46.5t-32 -58.5q-18 -35 -35.5 -74t-32.5 -79
l-10 -29q-5 -15 -9 -30q-2 -6 -4 -13l-4 -16q-4 -15 -7.5 -33t-5.5 -36q0 -7 -0.5 -14t-0.5 -14q0 -27 8 -49.5t28 -31.5q8 -4 15.5 -5.5t14.5 -1.5q28 1 52 20.5t43 43.5q5 6 9 12l8 11l41 173l39 173q14 58 64 99t109 41h128q11 0 15.5 -8.5t4.5 -19.5v-1v-2
q-1 -9 -6 -16.5t-14 -7.5zM709 807l-45 -25l-36 -20q-3 -2 -5.5 -3.5t-5.5 -2.5q-15 -8 -32 -16l-40 -19q-6 -3 -11.5 -4.5t-10.5 -1.5q-15 1 -23 12.5t-10 25.5v3v2q0 8 2.5 14.5t7.5 10.5l57 46l37 29l25 19l29 23q7 5 13.5 7.5t13.5 2.5q21 0 37.5 -18t18.5 -39
q1 -2 1 -4v-4q0 -11 -5.5 -21t-17.5 -17z" />
    <glyph glyph-name="Ucircumflex" unicode="&#xdb;" horiz-adv-x="869" 
d="M839 656q-13 0 -24.5 -10.5t-16.5 -22.5q0 -1 -0.5 -2.5t-0.5 -2.5l-31 -134l-31 -135l-31 -135l-32 -135q-1 -7 -3.5 -13t-6.5 -12h10h10q30 -1 56.5 3t48.5 32q5 7 11 9.5t12 2.5q11 0 18.5 -7.5t7.5 -18.5q0 -2 -0.5 -4.5t-1.5 -4.5q0 -3 -1.5 -5.5t-3.5 -4.5
q-19 -25 -48 -40.5t-61 -15.5h-139h-141q-14 0 -19.5 9t-5.5 22q0 5 0.5 11t2.5 12q1 6 2 11t3 10q2 8 4 14.5t3 10.5q-43 -43 -102 -77.5t-121 -37.5h-4h-5q-24 0 -47 5.5t-45 18.5q-52 30 -71 84.5t-18 114.5v6v6q1 38 6.5 74t13.5 66q2 6 3.5 12.5t3.5 12.5
q21 76 54.5 147.5t72.5 124.5h-6h-7q-29 0 -53.5 -4t-45.5 -31q-5 -7 -11 -9.5t-12 -2.5q-11 0 -19 8t-8 19q1 5 2.5 9.5t4.5 8.5q20 25 49 40.5t60 15.5h152h152q12 0 19.5 -8.5t7.5 -19.5q-1 -4 -2 -7.5t-3 -6.5q-14 -20 -30 -46.5t-32 -58.5q-18 -35 -35.5 -74t-32.5 -79
l-10 -29q-5 -15 -9 -30q-2 -6 -4 -13l-4 -16q-4 -15 -7.5 -33t-5.5 -36q0 -7 -0.5 -14t-0.5 -14q0 -27 8 -49.5t28 -31.5q8 -4 15.5 -5.5t14.5 -1.5q28 1 52 20.5t43 43.5q5 6 9 12l8 11l41 173l39 173q14 58 64 99t109 41h128q11 0 15.5 -8.5t4.5 -19.5v-1v-2
q-1 -9 -6 -16.5t-14 -7.5zM746 763l-65 -44l-109 74l-112 -75l-68 45l177 118z" />
    <glyph glyph-name="Udieresis" unicode="&#xdc;" horiz-adv-x="869" 
d="M839 656q-13 0 -24.5 -10.5t-16.5 -22.5q0 -1 -0.5 -2.5t-0.5 -2.5l-31 -134l-31 -135l-31 -135l-32 -135q-1 -7 -3.5 -13t-6.5 -12h10h10q30 -1 56.5 3t48.5 32q5 7 11 9.5t12 2.5q11 0 18.5 -7.5t7.5 -18.5q0 -2 -0.5 -4.5t-1.5 -4.5q0 -3 -1.5 -5.5t-3.5 -4.5
q-19 -25 -48 -40.5t-61 -15.5h-139h-141q-14 0 -19.5 9t-5.5 22q0 5 0.5 11t2.5 12q1 6 2 11t3 10q2 8 4 14.5t3 10.5q-43 -43 -102 -77.5t-121 -37.5h-4h-5q-24 0 -47 5.5t-45 18.5q-52 30 -71 84.5t-18 114.5v6v6q1 38 6.5 74t13.5 66q2 6 3.5 12.5t3.5 12.5
q21 76 54.5 147.5t72.5 124.5h-6h-7q-29 0 -53.5 -4t-45.5 -31q-5 -7 -11 -9.5t-12 -2.5q-11 0 -19 8t-8 19q1 5 2.5 9.5t4.5 8.5q20 25 49 40.5t60 15.5h152h152q12 0 19.5 -8.5t7.5 -19.5q-1 -4 -2 -7.5t-3 -6.5q-14 -20 -30 -46.5t-32 -58.5q-18 -35 -35.5 -74t-32.5 -79
l-10 -29q-5 -15 -9 -30q-2 -6 -4 -13l-4 -16q-4 -15 -7.5 -33t-5.5 -36q0 -7 -0.5 -14t-0.5 -14q0 -27 8 -49.5t28 -31.5q8 -4 15.5 -5.5t14.5 -1.5q28 1 52 20.5t43 43.5q5 6 9 12l8 11l41 173l39 173q14 58 64 99t109 41h128q11 0 15.5 -8.5t4.5 -19.5v-1v-2
q-1 -9 -6 -16.5t-14 -7.5zM535 783q0 -24 -19 -40t-46 -16q-28 0 -47 16t-19 40q0 23 19 40t47 17q27 0 46 -17t19 -40zM685 783q0 -24 -18.5 -40t-45.5 -16q-28 0 -47.5 16t-19.5 40q0 23 19.5 40t47.5 17q27 0 45.5 -17t18.5 -40z" />
    <glyph glyph-name="Yacute" unicode="&#xdd;" 
 />
    <glyph glyph-name="Thorn" unicode="&#xde;" horiz-adv-x="839" 
d="M769 289q-46 -53 -112 -78t-137 -25q-33 0 -65 5t-63 15l-29 -127q-1 -7 -3.5 -13t-6.5 -12h1h2q30 0 53 4.5t43 30.5q5 7 11 9.5t12 2.5q11 0 19 -8t8 -19q-1 -4 -2.5 -8.5t-4.5 -9.5q-19 -25 -48 -40.5t-61 -15.5h-175h-175q-14 0 -21 8.5t-7 18.5v2v1q1 9 8 16.5
t20 7.5q17 0 30.5 11t17.5 26l31 136l31 135l32 135l30 135q2 7 4.5 13t5.5 12q-26 0 -46.5 -6t-37.5 -29q-5 -7 -11 -9.5t-12 -2.5q-11 0 -19 8t-8 19q1 5 2.5 9.5t4.5 8.5q20 25 48.5 40.5t60.5 15.5h175h175q14 0 21.5 -8.5t6.5 -19.5q0 -10 -7 -18t-21 -8q-20 0 -38 -6
t-24 -31l-40 -174l-40 -174q20 -11 42.5 -16.5t45.5 -5.5q21 0 41.5 4.5t38.5 14.5q35 18 64 57t35 82q0 4 0.5 8.5t0.5 8.5q0 14 -3.5 28t-11.5 27q-16 27 -42 37.5t-55 10.5q-8 0 -16 -0.5t-16 -2.5h-2h-2h-2q-13 0 -22 10t-9 23q0 5 1.5 9.5t5.5 8.5q22 26 52.5 37
t64.5 11q5 0 10 -0.5t10 -0.5q35 -3 67 -16t55 -33q32 -28 47.5 -64.5t15.5 -75.5q0 -5 -0.5 -10.5t-0.5 -11.5q-4 -33 -17.5 -65t-36.5 -58z" />
    <glyph glyph-name="germandbls" unicode="&#xdf;" horiz-adv-x="871" 
d="M848 136q-19 -57 -72 -89.5t-113 -44.5q-27 -5 -53 -6.5t-49 -0.5q-19 1 -44.5 4t-52.5 9q-49 12 -90.5 36t-41.5 66q0 4 0.5 8.5t1.5 8.5q7 29 29 50.5t51 25.5h1h2h2q13 0 19.5 -7.5t7.5 -16.5v-1v-2q0 -9 -6 -16.5t-19 -9.5t-22.5 -12.5t-12.5 -22.5v-1v-2l-1 -1v-2
q0 -14 16 -24t35 -16q14 -5 26 -7.5t19 -4.5q6 -1 13.5 -1.5t15.5 -0.5q6 0 12.5 0.5t13.5 1.5q24 3 45.5 13.5t26.5 32.5q0 1 0.5 2t0.5 2v1v2q0 21 -24.5 37.5t-53.5 29.5q-18 8 -35.5 14.5t-28.5 12.5q-32 16 -55.5 43.5t-23.5 64.5q0 5 0.5 9.5t1.5 9.5q8 46 46 76.5
t81 47.5q13 5 25.5 8.5t24.5 5.5q38 8 59 32.5t21 52.5v4v2q-2 20 -16 39t-42 31q-12 5 -25 7.5t-27 2.5h-2h-2q-35 -2 -65.5 -19t-39.5 -51v1l-56 -246l-58 -246q-7 -32 -35.5 -55.5t-62.5 -23.5h-92h-91q-10 0 -15 9t-5 19t5 18t15 8h2h1q15 2 27 13t15 24l36 158l37 156
q-13 -1 -25.5 -8t-20.5 -18q-5 -7 -11 -9.5t-12 -2.5q-10 0 -18 8t-8 18q0 2 0.5 4.5t1.5 5.5q0 2 1.5 4.5t3.5 4.5q20 25 45 36t56 11q41 135 145.5 190t237.5 45q18 -1 38 -4.5t41 -9.5q53 -15 97 -46t44 -85q0 -44 -31 -77t-69 -52q-5 -3 -10.5 -5.5t-11.5 -4.5
q-3 -1 -7 -2.5t-8 -3.5q-5 -3 -10.5 -7t-7.5 -9q-1 -1 -1 -2v-4q0 -13 18.5 -24.5t40.5 -20.5l31 -11l22 -8q1 -1 2.5 -1.5t3.5 -0.5q47 -19 86.5 -55t39.5 -87q0 -9 -1.5 -18.5t-5.5 -19.5z" />
    <glyph glyph-name="agrave" unicode="&#xe0;" horiz-adv-x="809" 
d="M764 409q-16 0 -29.5 -11.5t-17.5 -27.5l-32 -144l-34 -144q-1 -7 -3.5 -13.5t-5.5 -12.5q22 0 40.5 9.5t31.5 26.5q4 5 8 7.5t8 4.5q2 0 4 0.5t4 0.5q11 0 19.5 -8t7.5 -20q0 -4 -1.5 -9t-5.5 -10q-19 -25 -49 -41.5t-63 -16.5h-219h-2h-3h-4h-4q-7 0 -13 2t-10 7
q-1 2 -2 3.5t-2 3.5t-1 4v3q0 2 0.5 4t0.5 4q1 1 1 2t1 2q0 3 1 6t1 6q-33 -20 -71 -32t-76 -15h-8h-8q-46 0 -89.5 17.5t-75.5 55.5q-22 27 -32 58.5t-10 63.5q0 13 1 25t4 24q22 95 106 160.5t180 71.5h8h7q48 0 93 -18t76 -56q39 42 90.5 53t104.5 11q10 0 19.5 -0.5
t19.5 -0.5h17h17q14 0 21 -7.5t8 -16.5v-1v-2q0 -11 -7.5 -20t-21.5 -9zM459 338q-5 29 -18 41.5t-30 12.5q-7 0 -15 -2t-16 -6q-12 -6 -24 -15t-22 -21l-1 -1l-2 -2q-20 -23 -38.5 -58t-26.5 -73q-2 -11 -3.5 -22.5t-1.5 -22.5q0 -16 3 -30.5t10 -27.5q8 -13 18 -19t20 -6
q4 0 8 0.5t8 1.5q14 4 28 13.5t25 19.5q2 2 4 4.5t4 4.5q8 9 15.5 19t14.5 21l18 77q9 38 17 76q1 2 1.5 4t1.5 4q0 1 0.5 3t1.5 4zM469 551q5 -4 7.5 -10.5t2.5 -14.5v-3v-4q-2 -14 -11 -25t-24 -11q-4 0 -9.5 1.5t-11.5 4.5l-39 19q-17 8 -32 16q-3 1 -5.5 2.5t-4.5 2.5
l-37 21l-45 25q-13 7 -18 17.5t-5 21.5v3v2q3 22 19.5 40.5t37.5 18.5q7 0 13.5 -2.5t12.5 -7.5l31 -23l24 -19l38 -30z" />
    <glyph glyph-name="aacute" unicode="&#xe1;" horiz-adv-x="809" 
d="M764 409q-16 0 -29.5 -11.5t-17.5 -27.5l-32 -144l-34 -144q-1 -7 -3.5 -13.5t-5.5 -12.5q22 0 40.5 9.5t31.5 26.5q4 5 8 7.5t8 4.5q2 0 4 0.5t4 0.5q11 0 19.5 -8t7.5 -20q0 -4 -1.5 -9t-5.5 -10q-19 -25 -49 -41.5t-63 -16.5h-219h-2h-3h-4h-4q-7 0 -13 2t-10 7
q-1 2 -2 3.5t-2 3.5t-1 4v3q0 2 0.5 4t0.5 4q1 1 1 2t1 2q0 3 1 6t1 6q-33 -20 -71 -32t-76 -15h-8h-8q-46 0 -89.5 17.5t-75.5 55.5q-22 27 -32 58.5t-10 63.5q0 13 1 25t4 24q22 95 106 160.5t180 71.5h8h7q48 0 93 -18t76 -56q39 42 90.5 53t104.5 11q10 0 19.5 -0.5
t19.5 -0.5h17h17q14 0 21 -7.5t8 -16.5v-1v-2q0 -11 -7.5 -20t-21.5 -9zM459 338q-5 29 -18 41.5t-30 12.5q-7 0 -15 -2t-16 -6q-12 -6 -24 -15t-22 -21l-1 -1l-2 -2q-20 -23 -38.5 -58t-26.5 -73q-2 -11 -3.5 -22.5t-1.5 -22.5q0 -16 3 -30.5t10 -27.5q8 -13 18 -19t20 -6
q4 0 8 0.5t8 1.5q14 4 28 13.5t25 19.5q2 2 4 4.5t4 4.5q8 9 15.5 19t14.5 21l18 77q9 38 17 76q1 2 1.5 4t1.5 4q0 1 0.5 3t1.5 4zM613 579l-45 -25l-36 -20q-3 -2 -5.5 -3.5t-5.5 -2.5q-15 -8 -32 -16l-40 -19q-6 -3 -11.5 -4.5t-10.5 -1.5q-15 1 -23 12.5t-10 25.5v3v2
q0 8 2.5 14.5t7.5 10.5l57 46l37 29l25 19l29 23q7 5 13.5 7.5t13.5 2.5q21 0 37.5 -18t18.5 -39q1 -2 1 -4v-4q0 -11 -5.5 -21t-17.5 -17z" />
    <glyph glyph-name="acircumflex" unicode="&#xe2;" horiz-adv-x="809" 
d="M764 409q-16 0 -29.5 -11.5t-17.5 -27.5l-32 -144l-34 -144q-1 -7 -3.5 -13.5t-5.5 -12.5q22 0 40.5 9.5t31.5 26.5q4 5 8 7.5t8 4.5q2 0 4 0.5t4 0.5q11 0 19.5 -8t7.5 -20q0 -4 -1.5 -9t-5.5 -10q-19 -25 -49 -41.5t-63 -16.5h-219h-2h-3h-4h-4q-7 0 -13 2t-10 7
q-1 2 -2 3.5t-2 3.5t-1 4v3q0 2 0.5 4t0.5 4q1 1 1 2t1 2q0 3 1 6t1 6q-33 -20 -71 -32t-76 -15h-8h-8q-46 0 -89.5 17.5t-75.5 55.5q-22 27 -32 58.5t-10 63.5q0 13 1 25t4 24q22 95 106 160.5t180 71.5h8h7q48 0 93 -18t76 -56q39 42 90.5 53t104.5 11q10 0 19.5 -0.5
t19.5 -0.5h17h17q14 0 21 -7.5t8 -16.5v-1v-2q0 -11 -7.5 -20t-21.5 -9zM459 338q-5 29 -18 41.5t-30 12.5q-7 0 -15 -2t-16 -6q-12 -6 -24 -15t-22 -21l-1 -1l-2 -2q-20 -23 -38.5 -58t-26.5 -73q-2 -11 -3.5 -22.5t-1.5 -22.5q0 -16 3 -30.5t10 -27.5q8 -13 18 -19t20 -6
q4 0 8 0.5t8 1.5q14 4 28 13.5t25 19.5q2 2 4 4.5t4 4.5q8 9 15.5 19t14.5 21l18 77q9 38 17 76q1 2 1.5 4t1.5 4q0 1 0.5 3t1.5 4zM634 519l-65 -44l-109 74l-112 -75l-68 45l177 118z" />
    <glyph glyph-name="atilde" unicode="&#xe3;" horiz-adv-x="809" 
d="M764 409q-16 0 -29.5 -11.5t-17.5 -27.5l-32 -144l-34 -144q-1 -7 -3.5 -13.5t-5.5 -12.5q22 0 40.5 9.5t31.5 26.5q4 5 8 7.5t8 4.5q2 0 4 0.5t4 0.5q11 0 19.5 -8t7.5 -20q0 -4 -1.5 -9t-5.5 -10q-19 -25 -49 -41.5t-63 -16.5h-219h-2h-3h-4h-4q-7 0 -13 2t-10 7
q-1 2 -2 3.5t-2 3.5t-1 4v3q0 2 0.5 4t0.5 4q1 1 1 2t1 2q0 3 1 6t1 6q-33 -20 -71 -32t-76 -15h-8h-8q-46 0 -89.5 17.5t-75.5 55.5q-22 27 -32 58.5t-10 63.5q0 13 1 25t4 24q22 95 106 160.5t180 71.5h8h7q48 0 93 -18t76 -56q39 42 90.5 53t104.5 11q10 0 19.5 -0.5
t19.5 -0.5h17h17q14 0 21 -7.5t8 -16.5v-1v-2q0 -11 -7.5 -20t-21.5 -9zM459 338q-5 29 -18 41.5t-30 12.5q-7 0 -15 -2t-16 -6q-12 -6 -24 -15t-22 -21l-1 -1l-2 -2q-20 -23 -38.5 -58t-26.5 -73q-2 -11 -3.5 -22.5t-1.5 -22.5q0 -16 3 -30.5t10 -27.5q8 -13 18 -19t20 -6
q4 0 8 0.5t8 1.5q14 4 28 13.5t25 19.5q2 2 4 4.5t4 4.5q8 9 15.5 19t14.5 21l18 77q9 38 17 76q1 2 1.5 4t1.5 4q0 1 0.5 3t1.5 4zM625 535q-14 -17 -31 -29t-34 -19q-10 -3 -19.5 -5t-18.5 -2q-20 0 -32 3.5t-22 7.5h-1q-1 0 -2 1q-9 3 -19.5 6t-26.5 3q-18 0 -34 -5
t-24 -14l-49 55q22 27 47.5 40.5t56.5 13.5q20 0 31.5 -3.5t20.5 -7.5q1 0 1.5 -0.5t1.5 -0.5q9 -4 18.5 -7t24.5 -3q19 0 35.5 6t25.5 15z" />
    <glyph glyph-name="adieresis" unicode="&#xe4;" horiz-adv-x="809" 
d="M764 409q-16 0 -29.5 -11.5t-17.5 -27.5l-32 -144l-34 -144q-1 -7 -3.5 -13.5t-5.5 -12.5q22 0 40.5 9.5t31.5 26.5q4 5 8 7.5t8 4.5q2 0 4 0.5t4 0.5q11 0 19.5 -8t7.5 -20q0 -4 -1.5 -9t-5.5 -10q-19 -25 -49 -41.5t-63 -16.5h-219h-2h-3h-4h-4q-7 0 -13 2t-10 7
q-1 2 -2 3.5t-2 3.5t-1 4v3q0 2 0.5 4t0.5 4q1 1 1 2t1 2q0 3 1 6t1 6q-33 -20 -71 -32t-76 -15h-8h-8q-46 0 -89.5 17.5t-75.5 55.5q-22 27 -32 58.5t-10 63.5q0 13 1 25t4 24q22 95 106 160.5t180 71.5h8h7q48 0 93 -18t76 -56q39 42 90.5 53t104.5 11q10 0 19.5 -0.5
t19.5 -0.5h17h17q14 0 21 -7.5t8 -16.5v-1v-2q0 -11 -7.5 -20t-21.5 -9zM459 338q-5 29 -18 41.5t-30 12.5q-7 0 -15 -2t-16 -6q-12 -6 -24 -15t-22 -21l-1 -1l-2 -2q-20 -23 -38.5 -58t-26.5 -73q-2 -11 -3.5 -22.5t-1.5 -22.5q0 -16 3 -30.5t10 -27.5q8 -13 18 -19t20 -6
q4 0 8 0.5t8 1.5q14 4 28 13.5t25 19.5q2 2 4 4.5t4 4.5q8 9 15.5 19t14.5 21l18 77q9 38 17 76q1 2 1.5 4t1.5 4q0 1 0.5 3t1.5 4zM495 535q0 -24 -19 -40t-46 -16q-28 0 -47 16t-19 40q0 23 19 40t47 17q27 0 46 -17t19 -40zM645 535q0 -24 -18.5 -40t-45.5 -16
q-28 0 -47.5 16t-19.5 40q0 23 19.5 40t47.5 17q27 0 45.5 -17t18.5 -40z" />
    <glyph glyph-name="aring" unicode="&#xe5;" horiz-adv-x="809" 
d="M764 409q-16 0 -29.5 -11.5t-17.5 -27.5l-32 -144l-34 -144q-1 -7 -3.5 -13.5t-5.5 -12.5q22 0 40.5 9.5t31.5 26.5q4 5 8 7.5t8 4.5q2 0 4 0.5t4 0.5q11 0 19.5 -8t7.5 -20q0 -4 -1.5 -9t-5.5 -10q-19 -25 -49 -41.5t-63 -16.5h-219h-2h-3h-4h-4q-7 0 -13 2t-10 7
q-1 2 -2 3.5t-2 3.5t-1 4v3q0 2 0.5 4t0.5 4q1 1 1 2t1 2q0 3 1 6t1 6q-33 -20 -71 -32t-76 -15h-8h-8q-46 0 -89.5 17.5t-75.5 55.5q-22 27 -32 58.5t-10 63.5q0 13 1 25t4 24q22 95 106 160.5t180 71.5h8h7q48 0 93 -18t76 -56q39 42 90.5 53t104.5 11q10 0 19.5 -0.5
t19.5 -0.5h17h17q14 0 21 -7.5t8 -16.5v-1v-2q0 -11 -7.5 -20t-21.5 -9zM459 338q-5 29 -18 41.5t-30 12.5q-7 0 -15 -2t-16 -6q-12 -6 -24 -15t-22 -21l-1 -1l-2 -2q-20 -23 -38.5 -58t-26.5 -73q-2 -11 -3.5 -22.5t-1.5 -22.5q0 -16 3 -30.5t10 -27.5q8 -13 18 -19t20 -6
q4 0 8 0.5t8 1.5q14 4 28 13.5t25 19.5q2 2 4 4.5t4 4.5q8 9 15.5 19t14.5 21l18 77q9 38 17 76q1 2 1.5 4t1.5 4q0 1 0.5 3t1.5 4zM445 571q0 -36 -23 -59.5t-58 -23.5q-33 0 -57 23.5t-24 59.5q0 32 24 55.5t57 23.5q35 0 58 -23.5t23 -55.5zM405 569q0 17 -12 29t-29 12
q-16 0 -28 -12t-12 -29q0 -16 12 -28t28 -12q17 0 29 12t12 28z" />
    <glyph glyph-name="ae" unicode="&#xe6;" horiz-adv-x="1053" 
d="M1020 270l-50 -15l-51 -16l-100 -30l-101 -32l-8 -2l-9 -4q-2 0 -4 -1l-4 -2q-6 -2 -12.5 -3.5t-12.5 -2.5q17 -51 49.5 -73t72.5 -22q11 0 22.5 1.5t22.5 4.5q32 9 61.5 27t53.5 42q5 5 10.5 7t10.5 2q11 0 19 -8t8 -19q0 -4 -2 -9.5t-7 -10.5q-49 -50 -117.5 -80
t-141.5 -37q-10 -1 -20.5 -1.5t-21.5 -0.5q-33 0 -65.5 5.5t-61.5 15.5q-7 -4 -15.5 -5t-17.5 -1h-55h-56q-15 0 -20.5 7.5t-5.5 17.5q0 3 0.5 6t1.5 7q0 2 0.5 4t1.5 4q0 3 1 5.5t1 4.5q-31 -22 -69 -36.5t-77 -18.5q-8 -1 -15 -1h-15q-46 0 -87.5 16.5t-72.5 53.5
q-18 22 -27.5 46t-12.5 48q0 5 -0.5 10t-0.5 10v4v3q2 58 34 112.5t79 90.5q32 25 71.5 40.5t80.5 21.5q9 1 18 1.5t18 0.5q52 0 98.5 -21.5t75.5 -69.5q45 44 104.5 66t121.5 28q16 2 31.5 2.5t30.5 0.5q75 1 133.5 -34.5t81.5 -109.5q4 2 7 2h7q14 0 21.5 -8t7.5 -19
q0 -7 -5 -14t-16 -11zM438 237q3 11 5.5 27.5t2.5 34.5v2v1q0 28 -10.5 52t-37.5 24q-34 0 -62.5 -29t-47.5 -64q-10 -17 -16.5 -33t-9.5 -29q-3 -10 -5.5 -27t-2.5 -35v-1v-2q0 -28 10.5 -52t37.5 -24q34 0 62.5 29t47.5 64q9 17 15.5 33t10.5 29zM818 357q0 3 -0.5 6.5
t-0.5 7.5q-3 12 -10.5 22t-21.5 10q-53 0 -82.5 -40.5t-38.5 -89.5q-3 -15 -4.5 -29.5t-0.5 -28.5l41 13l11 5l11 4q36 17 66 47t30 73z" />
    <glyph glyph-name="ccedilla" unicode="&#xe7;" horiz-adv-x="605" 
d="M449 -105q0 -35 -48 -57.5t-117 -22.5q-29 0 -50 3.5t-40 11.5q-7 3 -14.5 7t-15.5 9q-6 3 -9 9t-3 13q0 4 1.5 8t3.5 7q4 6 9 8t10 2q4 0 8 -1l8 -2q8 -3 13.5 -4.5t11.5 -3.5q6 -1 12.5 -2.5t15.5 -2.5q7 -1 14 -1h13q24 0 41 4.5t18 12.5q1 13 -24 21.5t-56 12.5
q-9 1 -18.5 1.5t-18.5 0.5l37 86h75l-15 -31q62 1 100 -25t38 -63v-1zM591 423q-7 -18 -14.5 -35.5t-14.5 -35.5l-15 -36l-14 -36q-4 -10 -11 -14t-15 -4q-10 0 -18.5 7t-8.5 19q0 3 1 6t2 7q4 8 5.5 17.5t1.5 19.5v1v2q-1 28 -17.5 51t-47.5 23q-55 0 -94 -42.5t-56 -93.5
l-6 -23q-3 -11 -4 -22q-1 -6 -1 -12v-12v-4v-2q1 -45 23 -82.5t70 -43.5q2 0 4.5 -0.5t5.5 -0.5h4h5q45 0 86 22t72 53q5 5 10.5 7.5t10.5 2.5q11 0 18.5 -8t7.5 -19q0 -4 -2 -9.5t-7 -10.5q-48 -50 -115.5 -80.5t-138.5 -36.5q-10 -1 -20.5 -1.5t-21.5 -0.5q-21 0 -41.5 2
t-40.5 6q-74 17 -128.5 68.5t-54.5 126.5q0 10 1.5 20.5t3.5 21.5q30 129 134.5 181t225.5 52q10 0 20.5 -0.5t21.5 -1.5q31 -3 61.5 -12t58.5 -25q1 2 1.5 4.5t1.5 3.5q5 10 12 14.5t14 4.5q11 0 19 -7.5t8 -18.5v-3q0 -2 -1 -3q0 -2 -0.5 -3.5t-1.5 -3.5z" />
    <glyph glyph-name="egrave" unicode="&#xe8;" horiz-adv-x="648" 
d="M614 274l-151 -46l-151 -46q-3 -1 -6 -2.5t-6 -2.5q-4 -1 -8.5 -3t-8.5 -3q-5 -2 -10 -3l-10 -2q13 -40 42.5 -67t74.5 -28q47 -1 90 20.5t75 54.5q5 5 10.5 7.5t10.5 2.5q11 0 19 -8t7 -19q0 -5 -2 -10t-7 -10q-50 -52 -120 -81.5t-143 -35.5q-9 -1 -18.5 -1.5
t-18.5 -0.5q-22 0 -44.5 2.5t-43.5 7.5q-73 16 -129.5 67t-56.5 127q0 10 1.5 20.5t3.5 20.5q30 128 134.5 180t224.5 54h2h2q76 0 134 -35t82 -110q1 0 1.5 0.5t1.5 0.5t1 1h1q2 0 3 0.5t3 0.5q1 1 2 1h3q12 -1 19 -9t7 -19q0 -8 -5 -15t-16 -11zM408 386q-4 9 -11 15.5
t-18 6.5q-53 0 -82 -40t-39 -88q-3 -16 -4 -31t-1 -29q1 0 2.5 0.5t2.5 0.5q37 11 69 25.5t58 45.5q10 12 17.5 28t9.5 33q1 2 1 4v5q0 6 -1.5 12t-3.5 12zM393 555q5 -4 7.5 -10.5t2.5 -14.5v-4v-3q-2 -14 -11 -25t-24 -11q-4 0 -9.5 1.5t-11.5 4.5l-39 19q-17 8 -32 16
q-3 1 -5.5 2.5t-4.5 2.5l-37 20l-45 26q-13 7 -18 17.5t-5 21.5v2v3q3 22 19.5 40.5t37.5 18.5q7 0 13.5 -2.5t12.5 -7.5l30 -24l25 -18l37 -30z" />
    <glyph glyph-name="eacute" unicode="&#xe9;" horiz-adv-x="648" 
d="M614 274l-151 -46l-151 -46q-3 -1 -6 -2.5t-6 -2.5q-4 -1 -8.5 -3t-8.5 -3q-5 -2 -10 -3l-10 -2q13 -40 42.5 -67t74.5 -28q47 -1 90 20.5t75 54.5q5 5 10.5 7.5t10.5 2.5q11 0 19 -8t7 -19q0 -5 -2 -10t-7 -10q-50 -52 -120 -81.5t-143 -35.5q-9 -1 -18.5 -1.5
t-18.5 -0.5q-22 0 -44.5 2.5t-43.5 7.5q-73 16 -129.5 67t-56.5 127q0 10 1.5 20.5t3.5 20.5q30 128 134.5 180t224.5 54h2h2q76 0 134 -35t82 -110q1 0 1.5 0.5t1.5 0.5t1 1h1q2 0 3 0.5t3 0.5q1 1 2 1h3q12 -1 19 -9t7 -19q0 -8 -5 -15t-16 -11zM408 386q-4 9 -11 15.5
t-18 6.5q-53 0 -82 -40t-39 -88q-3 -16 -4 -31t-1 -29q1 0 2.5 0.5t2.5 0.5q37 11 69 25.5t58 45.5q10 12 17.5 28t9.5 33q1 2 1 4v5q0 6 -1.5 12t-3.5 12zM545 575l-45 -26l-36 -19q-3 -2 -5.5 -3.5t-5.5 -2.5q-15 -8 -32 -16l-40 -19q-6 -3 -11.5 -4.5t-10.5 -1.5
q-15 1 -23 12.5t-10 25.5v2v3q0 8 2.5 14.5t7.5 10.5l56 45l38 30l24 19l30 23q7 5 13.5 7.5t13.5 2.5q21 0 37.5 -18t18.5 -39q1 -2 1 -4v-4q0 -11 -5.5 -21t-17.5 -17z" />
    <glyph glyph-name="ecircumflex" unicode="&#xea;" horiz-adv-x="648" 
d="M614 274l-151 -46l-151 -46q-3 -1 -6 -2.5t-6 -2.5q-4 -1 -8.5 -3t-8.5 -3q-5 -2 -10 -3l-10 -2q13 -40 42.5 -67t74.5 -28q47 -1 90 20.5t75 54.5q5 5 10.5 7.5t10.5 2.5q11 0 19 -8t7 -19q0 -5 -2 -10t-7 -10q-50 -52 -120 -81.5t-143 -35.5q-9 -1 -18.5 -1.5
t-18.5 -0.5q-22 0 -44.5 2.5t-43.5 7.5q-73 16 -129.5 67t-56.5 127q0 10 1.5 20.5t3.5 20.5q30 128 134.5 180t224.5 54h2h2q76 0 134 -35t82 -110q1 0 1.5 0.5t1.5 0.5t1 1h1q2 0 3 0.5t3 0.5q1 1 2 1h3q12 -1 19 -9t7 -19q0 -8 -5 -15t-16 -11zM408 386q-4 9 -11 15.5
t-18 6.5q-53 0 -82 -40t-39 -88q-3 -16 -4 -31t-1 -29q1 0 2.5 0.5t2.5 0.5q37 11 69 25.5t58 45.5q10 12 17.5 28t9.5 33q1 2 1 4v5q0 6 -1.5 12t-3.5 12zM506 523l-65 -44l-109 74l-112 -75l-68 45l177 118z" />
    <glyph glyph-name="edieresis" unicode="&#xeb;" horiz-adv-x="648" 
d="M614 274l-151 -46l-151 -46q-3 -1 -6 -2.5t-6 -2.5q-4 -1 -8.5 -3t-8.5 -3q-5 -2 -10 -3l-10 -2q13 -40 42.5 -67t74.5 -28q47 -1 90 20.5t75 54.5q5 5 10.5 7.5t10.5 2.5q11 0 19 -8t7 -19q0 -5 -2 -10t-7 -10q-50 -52 -120 -81.5t-143 -35.5q-9 -1 -18.5 -1.5
t-18.5 -0.5q-22 0 -44.5 2.5t-43.5 7.5q-73 16 -129.5 67t-56.5 127q0 10 1.5 20.5t3.5 20.5q30 128 134.5 180t224.5 54h2h2q76 0 134 -35t82 -110q1 0 1.5 0.5t1.5 0.5t1 1h1q2 0 3 0.5t3 0.5q1 1 2 1h3q12 -1 19 -9t7 -19q0 -8 -5 -15t-16 -11zM408 386q-4 9 -11 15.5
t-18 6.5q-53 0 -82 -40t-39 -88q-3 -16 -4 -31t-1 -29q1 0 2.5 0.5t2.5 0.5q37 11 69 25.5t58 45.5q10 12 17.5 28t9.5 33q1 2 1 4v5q0 6 -1.5 12t-3.5 12zM347 543q0 -24 -19 -40t-46 -16q-28 0 -47 16t-19 40q0 23 19 40t47 17q27 0 46 -17t19 -40zM497 543
q0 -24 -18.5 -40t-45.5 -16q-28 0 -47.5 16t-19.5 40q0 23 19.5 40t47.5 17q27 0 45.5 -17t18.5 -40z" />
    <glyph glyph-name="igrave" unicode="&#xec;" horiz-adv-x="460" 
d="M403 432l-20 -88l-20 -88l-21 -89l-20 -88q-1 -7 -4 -13l-6 -12q13 0 24 2.5t22 9.5q2 1 4 2.5t4 2.5q2 2 4.5 3.5t5.5 1.5q2 1 4.5 1.5t4.5 0.5q11 0 18 -8t7 -19q0 -6 -2.5 -11.5t-9.5 -10.5q-17 -13 -37.5 -21t-42.5 -8h-139h-138q-15 0 -22.5 9t-7.5 19q1 10 8 18
t21 8h2h2q14 2 26 13t16 24l17 74l17 74l17 73l17 74q2 7 4 13t6 12q-20 0 -38 -9.5t-31 -25.5q-5 -7 -11 -9.5t-12 -2.5q-10 0 -18 8t-8 18q0 2 0.5 4.5t1.5 5.5q0 2 1.5 4.5t3.5 4.5q19 25 48 40.5t60 15.5h108h108q11 0 19 -8.5t8 -19.5v-1v-1l-1 -1v-2zM289 551
q5 -4 7.5 -10.5t2.5 -14.5v-4v-3q-2 -14 -11 -25t-24 -11q-4 0 -9.5 1.5t-11.5 4.5l-39 19q-17 8 -32 16q-3 1 -5.5 2.5t-4.5 2.5l-37 21l-45 25q-13 7 -18 17.5t-5 21.5v2v3q3 22 19.5 40.5t37.5 18.5q7 0 13.5 -2.5t12.5 -7.5l31 -24l24 -18l38 -30z" />
    <glyph glyph-name="iacute" unicode="&#xed;" horiz-adv-x="460" 
d="M403 432l-20 -88l-20 -88l-21 -89l-20 -88q-1 -7 -4 -13l-6 -12q13 0 24 2.5t22 9.5q2 1 4 2.5t4 2.5q2 2 4.5 3.5t5.5 1.5q2 1 4.5 1.5t4.5 0.5q11 0 18 -8t7 -19q0 -6 -2.5 -11.5t-9.5 -10.5q-17 -13 -37.5 -21t-42.5 -8h-139h-138q-15 0 -22.5 9t-7.5 19q1 10 8 18
t21 8h2h2q14 2 26 13t16 24l17 74l17 74l17 73l17 74q2 7 4 13t6 12q-20 0 -38 -9.5t-31 -25.5q-5 -7 -11 -9.5t-12 -2.5q-10 0 -18 8t-8 18q0 2 0.5 4.5t1.5 5.5q0 2 1.5 4.5t3.5 4.5q19 25 48 40.5t60 15.5h108h108q11 0 19 -8.5t8 -19.5v-1v-1l-1 -1v-2zM477 579l-45 -26
l-36 -19q-3 -2 -5.5 -3.5t-5.5 -2.5q-15 -8 -32 -16l-40 -19q-6 -3 -11.5 -4.5t-10.5 -1.5q-15 1 -23 12.5t-10 25.5v3v2q0 8 2.5 14.5t7.5 10.5l57 45l37 30l25 19l29 23q7 5 13.5 7.5t13.5 2.5q21 0 37.5 -18t18.5 -39q1 -2 1 -4v-4q0 -11 -5.5 -21t-17.5 -17z" />
    <glyph glyph-name="icircumflex" unicode="&#xee;" horiz-adv-x="460" 
d="M403 432l-20 -88l-20 -88l-21 -89l-20 -88q-1 -7 -4 -13l-6 -12q13 0 24 2.5t22 9.5q2 1 4 2.5t4 2.5q2 2 4.5 3.5t5.5 1.5q2 1 4.5 1.5t4.5 0.5q11 0 18 -8t7 -19q0 -6 -2.5 -11.5t-9.5 -10.5q-17 -13 -37.5 -21t-42.5 -8h-139h-138q-15 0 -22.5 9t-7.5 19q1 10 8 18
t21 8h2h2q14 2 26 13t16 24l17 74l17 74l17 73l17 74q2 7 4 13t6 12q-20 0 -38 -9.5t-31 -25.5q-5 -7 -11 -9.5t-12 -2.5q-10 0 -18 8t-8 18q0 2 0.5 4.5t1.5 5.5q0 2 1.5 4.5t3.5 4.5q19 25 48 40.5t60 15.5h108h108q11 0 19 -8.5t8 -19.5v-1v-1l-1 -1v-2zM454 523l-65 -44
l-109 74l-112 -75l-68 45l177 118z" />
    <glyph glyph-name="idieresis" unicode="&#xef;" horiz-adv-x="460" 
d="M403 432l-20 -88l-20 -88l-21 -89l-20 -88q-1 -7 -4 -13l-6 -12q13 0 24 2.5t22 9.5q2 1 4 2.5t4 2.5q2 2 4.5 3.5t5.5 1.5q2 1 4.5 1.5t4.5 0.5q11 0 18 -8t7 -19q0 -6 -2.5 -11.5t-9.5 -10.5q-17 -13 -37.5 -21t-42.5 -8h-139h-138q-15 0 -22.5 9t-7.5 19q1 10 8 18
t21 8h2h2q14 2 26 13t16 24l17 74l17 74l17 73l17 74q2 7 4 13t6 12q-20 0 -38 -9.5t-31 -25.5q-5 -7 -11 -9.5t-12 -2.5q-10 0 -18 8t-8 18q0 2 0.5 4.5t1.5 5.5q0 2 1.5 4.5t3.5 4.5q19 25 48 40.5t60 15.5h108h108q11 0 19 -8.5t8 -19.5v-1v-1l-1 -1v-2zM271 543
q0 -24 -19 -40t-46 -16q-28 0 -47 16t-19 40q0 23 19 40t47 17q27 0 46 -17t19 -40zM421 543q0 -24 -18.5 -40t-45.5 -16q-28 0 -47.5 16t-19.5 40q0 23 19.5 40t47.5 17q27 0 45.5 -17t18.5 -40z" />
    <glyph glyph-name="eth" unicode="&#xf0;" horiz-adv-x="721" 
d="M706 453l-26 -116l-28 -116q-20 -87 -96 -140.5t-163 -74.5q-27 -6 -54.5 -9t-52.5 -3q-12 0 -25 0.5t-26 2.5q-47 5 -92.5 22.5t-79.5 51.5q-26 25 -39.5 56t-13.5 65q0 10 1 19t3 18q11 48 46 89t86 72q48 29 104 45.5t114 18.5h8h8h14q6 0 13 -1q14 -1 27.5 -2.5
t26.5 -4.5q5 23 10.5 45.5t9.5 44.5q0 1 0.5 2.5t0.5 2.5v2v3q0 11 -5.5 21t-13.5 18q-13 13 -30.5 19.5t-35.5 8.5h-4h-5h-2h-4q-1 -1 -2 -1h-4l-21 -26l-21 -26l-21 -26l-22 -26q-5 -6 -11 -9t-12 -3q-10 1 -18 8.5t-8 18.5q0 2 0.5 4.5t1.5 5.5q1 2 2.5 4.5t3.5 4.5
l48 59q-45 -9 -75 -21t-33 -26q-3 -12 -10.5 -17t-16.5 -5q-10 0 -18.5 7t-8.5 20v3q0 2 1 4q8 31 69 58t142 39l14 16l13 18q7 8 13.5 16.5t13.5 16.5q5 6 11 9t12 3q11 -1 18.5 -9t7.5 -19q0 -2 -0.5 -5.5t-2.5 -6.5q-1 -1 -2 -2.5t-2 -3.5l-12 -14l-10 -12q18 1 37.5 0.5
t38.5 -2.5q35 -3 69.5 -12t63.5 -25q37 -21 59 -53t22 -78q0 -11 -1.5 -22.5t-4.5 -24.5zM425 227q2 8 3 19t1 23q0 6 -0.5 11.5t-0.5 11.5q-4 29 -16.5 53.5t-40.5 24.5q-33 0 -58.5 -28.5t-41.5 -63.5q-8 -16 -13.5 -32t-7.5 -29q-1 -8 -2 -18.5t-1 -21.5v-12q0 -5 1 -11
q3 -30 15.5 -55t41.5 -25q33 0 58 28.5t41 62.5q8 17 13.5 33t7.5 29z" />
    <glyph glyph-name="ntilde" unicode="&#xf1;" horiz-adv-x="768" 
d="M734 29q-17 -13 -38 -21t-43 -8h-47h-47h-70h-72q-12 0 -19.5 9t-7.5 19q0 5 1.5 8.5t4.5 7.5l11 13l10 13q33 43 62 94t41 104q2 12 3.5 24.5t1.5 24.5v8q0 3 -1 6q-1 19 -9.5 34t-29.5 15q-6 0 -11.5 -1t-11.5 -3q-17 -5 -33 -15t-30 -22l-9 -7l-8 -8l-14 -61l-14 -61
l-14 -61l-14 -62q-1 -4 -3 -8.5t-4 -9.5q5 2 9.5 4.5t8.5 5.5q2 2 4.5 3.5t5.5 1.5q2 1 4.5 1.5t4.5 0.5q11 0 18.5 -8t7.5 -19q0 -6 -3 -11.5t-9 -10.5q-17 -13 -38 -21t-43 -8h-122h-123q-15 0 -22.5 9t-6.5 19q0 10 7.5 18t21.5 8h2h1q15 2 27 13t15 24l18 74l16 74
l18 73l16 74q2 7 4.5 13t5.5 12q-26 0 -46.5 -6t-37.5 -29q-5 -7 -11 -9.5t-12 -2.5q-11 0 -19 8t-8 19q1 5 2.5 9.5t4.5 8.5q20 25 48.5 40.5t60.5 15.5h116h116q11 0 19 -8.5t8 -19.5v-2l-1 -1v-2q-1 -3 -1.5 -5.5t-0.5 -4.5q-1 -2 -1.5 -4.5t-1.5 -5.5q32 20 70 34t77 18
q6 0 12 0.5t12 0.5q44 0 83 -17.5t66 -58.5q17 -24 24 -50.5t7 -54.5q0 -6 -0.5 -11.5t-0.5 -11.5q-6 -58 -37 -113t-70 -94q12 0 22.5 2t20.5 7q3 2 6.5 4t6.5 4q5 4 10 5.5t9 1.5q11 0 18.5 -8t7.5 -19q0 -6 -2.5 -11.5t-9.5 -10.5zM621 543q-14 -17 -31 -29t-34 -19
q-10 -3 -19.5 -5t-18.5 -2q-20 0 -32 3.5t-22 7.5h-1q-1 0 -2 1q-9 3 -19.5 6t-26.5 3q-18 0 -34 -5t-24 -14l-49 55q22 27 47.5 40.5t56.5 13.5q20 0 31.5 -3.5t20.5 -7.5q1 0 1.5 -0.5t1.5 -0.5q9 -4 18.5 -7t24.5 -3q19 0 35.5 6t25.5 15z" />
    <glyph glyph-name="ograve" unicode="&#xf2;" horiz-adv-x="620" 
d="M599 281q5 -16 7.5 -31.5t2.5 -29.5q0 -82 -60.5 -140.5t-140.5 -77.5q-28 -5 -57.5 -8.5t-59.5 -3.5q-61 0 -119.5 17.5t-100.5 62.5q-29 32 -42.5 67t-12.5 71q0 62 34.5 118.5t89.5 93.5q38 25 94.5 43t116.5 23q8 0 16 0.5t16 0.5q48 -1 92 -12.5t76 -39.5
q18 -16 28.5 -36.5t10.5 -42.5q-1 -16 -6.5 -30.5t-18.5 -27.5q5 2 8.5 2.5t6.5 0.5q8 0 12 -5t7 -15zM548 265q0 1 -0.5 2t-0.5 2q-1 3 -1.5 5.5t-0.5 4.5v2v1l1 1v1q-8 -4 -17 -7.5t-18 -4.5q-3 -1 -6 -1h-6q-15 0 -28.5 5.5t-24.5 17.5q-7 9 -11 20t-3 22v4v3q0 1 0.5 3
t0.5 3q3 12 10.5 17t16.5 5q10 0 18 -7t8 -19v-3q0 -3 -1 -5v-1v-2q0 -4 3.5 -6.5t8.5 -1.5q3 0 6 0.5t6 1.5q7 2 14 6.5t10 10.5q1 3 1.5 6t0.5 6q0 17 -16.5 26.5t-35.5 12.5q-10 2 -20.5 3t-17.5 1q-71 0 -131 -59.5t-70 -131.5q0 -5 -0.5 -10.5t-0.5 -10.5
q0 -23 7 -45.5t23 -42.5q20 -25 45.5 -36t53.5 -10h9q4 0 8 1q39 4 76 25t59 51q15 20 22.5 43.5t7.5 48.5q0 11 -1.5 21.5t-4.5 20.5zM397 567q5 -4 7.5 -10.5t2.5 -14.5v-3v-4q-2 -14 -11 -25t-24 -11q-4 0 -9.5 1.5t-11.5 4.5l-39 19q-17 8 -32 16q-3 1 -5.5 2.5
t-4.5 2.5l-37 21l-45 25q-13 7 -18 17.5t-5 21.5v3v2q3 22 19.5 40.5t37.5 18.5q7 0 13.5 -2.5t12.5 -7.5l31 -23l24 -19l38 -30z" />
    <glyph glyph-name="oacute" unicode="&#xf3;" horiz-adv-x="620" 
d="M599 281q5 -16 7.5 -31.5t2.5 -29.5q0 -82 -60.5 -140.5t-140.5 -77.5q-28 -5 -57.5 -8.5t-59.5 -3.5q-61 0 -119.5 17.5t-100.5 62.5q-29 32 -42.5 67t-12.5 71q0 62 34.5 118.5t89.5 93.5q38 25 94.5 43t116.5 23q8 0 16 0.5t16 0.5q48 -1 92 -12.5t76 -39.5
q18 -16 28.5 -36.5t10.5 -42.5q-1 -16 -6.5 -30.5t-18.5 -27.5q5 2 8.5 2.5t6.5 0.5q8 0 12 -5t7 -15zM548 265q0 1 -0.5 2t-0.5 2q-1 3 -1.5 5.5t-0.5 4.5v2v1l1 1v1q-8 -4 -17 -7.5t-18 -4.5q-3 -1 -6 -1h-6q-15 0 -28.5 5.5t-24.5 17.5q-7 9 -11 20t-3 22v4v3q0 1 0.5 3
t0.5 3q3 12 10.5 17t16.5 5q10 0 18 -7t8 -19v-3q0 -3 -1 -5v-1v-2q0 -4 3.5 -6.5t8.5 -1.5q3 0 6 0.5t6 1.5q7 2 14 6.5t10 10.5q1 3 1.5 6t0.5 6q0 17 -16.5 26.5t-35.5 12.5q-10 2 -20.5 3t-17.5 1q-71 0 -131 -59.5t-70 -131.5q0 -5 -0.5 -10.5t-0.5 -10.5
q0 -23 7 -45.5t23 -42.5q20 -25 45.5 -36t53.5 -10h9q4 0 8 1q39 4 76 25t59 51q15 20 22.5 43.5t7.5 48.5q0 11 -1.5 21.5t-4.5 20.5zM549 595l-45 -25l-36 -20q-3 -2 -5.5 -3.5t-5.5 -2.5q-15 -8 -32 -16l-40 -19q-6 -3 -11.5 -4.5t-10.5 -1.5q-15 1 -23 12.5t-10 25.5v3
v2q0 8 2.5 14.5t7.5 10.5l57 46l37 29l25 19l29 23q7 5 13.5 7.5t13.5 2.5q21 0 37.5 -18t18.5 -39q1 -2 1 -4v-4q0 -11 -5.5 -21t-17.5 -17z" />
    <glyph glyph-name="ocircumflex" unicode="&#xf4;" horiz-adv-x="620" 
d="M599 281q5 -16 7.5 -31.5t2.5 -29.5q0 -82 -60.5 -140.5t-140.5 -77.5q-28 -5 -57.5 -8.5t-59.5 -3.5q-61 0 -119.5 17.5t-100.5 62.5q-29 32 -42.5 67t-12.5 71q0 62 34.5 118.5t89.5 93.5q38 25 94.5 43t116.5 23q8 0 16 0.5t16 0.5q48 -1 92 -12.5t76 -39.5
q18 -16 28.5 -36.5t10.5 -42.5q-1 -16 -6.5 -30.5t-18.5 -27.5q5 2 8.5 2.5t6.5 0.5q8 0 12 -5t7 -15zM548 265q0 1 -0.5 2t-0.5 2q-1 3 -1.5 5.5t-0.5 4.5v2v1l1 1v1q-8 -4 -17 -7.5t-18 -4.5q-3 -1 -6 -1h-6q-15 0 -28.5 5.5t-24.5 17.5q-7 9 -11 20t-3 22v4v3q0 1 0.5 3
t0.5 3q3 12 10.5 17t16.5 5q10 0 18 -7t8 -19v-3q0 -3 -1 -5v-1v-2q0 -4 3.5 -6.5t8.5 -1.5q3 0 6 0.5t6 1.5q7 2 14 6.5t10 10.5q1 3 1.5 6t0.5 6q0 17 -16.5 26.5t-35.5 12.5q-10 2 -20.5 3t-17.5 1q-71 0 -131 -59.5t-70 -131.5q0 -5 -0.5 -10.5t-0.5 -10.5
q0 -23 7 -45.5t23 -42.5q20 -25 45.5 -36t53.5 -10h9q4 0 8 1q39 4 76 25t59 51q15 20 22.5 43.5t7.5 48.5q0 11 -1.5 21.5t-4.5 20.5zM542 539l-65 -44l-109 74l-112 -75l-68 45l177 118z" />
    <glyph glyph-name="otilde" unicode="&#xf5;" horiz-adv-x="620" 
d="M599 281q5 -16 7.5 -31.5t2.5 -29.5q0 -82 -60.5 -140.5t-140.5 -77.5q-28 -5 -57.5 -8.5t-59.5 -3.5q-61 0 -119.5 17.5t-100.5 62.5q-29 32 -42.5 67t-12.5 71q0 62 34.5 118.5t89.5 93.5q38 25 94.5 43t116.5 23q8 0 16 0.5t16 0.5q48 -1 92 -12.5t76 -39.5
q18 -16 28.5 -36.5t10.5 -42.5q-1 -16 -6.5 -30.5t-18.5 -27.5q5 2 8.5 2.5t6.5 0.5q8 0 12 -5t7 -15zM548 265q0 1 -0.5 2t-0.5 2q-1 3 -1.5 5.5t-0.5 4.5v2v1l1 1v1q-8 -4 -17 -7.5t-18 -4.5q-3 -1 -6 -1h-6q-15 0 -28.5 5.5t-24.5 17.5q-7 9 -11 20t-3 22v4v3q0 1 0.5 3
t0.5 3q3 12 10.5 17t16.5 5q10 0 18 -7t8 -19v-3q0 -3 -1 -5v-1v-2q0 -4 3.5 -6.5t8.5 -1.5q3 0 6 0.5t6 1.5q7 2 14 6.5t10 10.5q1 3 1.5 6t0.5 6q0 17 -16.5 26.5t-35.5 12.5q-10 2 -20.5 3t-17.5 1q-71 0 -131 -59.5t-70 -131.5q0 -5 -0.5 -10.5t-0.5 -10.5
q0 -23 7 -45.5t23 -42.5q20 -25 45.5 -36t53.5 -10h9q4 0 8 1q39 4 76 25t59 51q15 20 22.5 43.5t7.5 48.5q0 11 -1.5 21.5t-4.5 20.5zM521 563q-14 -17 -31 -29t-34 -19q-10 -3 -19.5 -5t-18.5 -2q-20 0 -32 3.5t-22 7.5h-1q-1 0 -2 1q-9 3 -19.5 6t-26.5 3q-18 0 -34 -5
t-24 -14l-49 55q22 27 47.5 40.5t56.5 13.5q20 0 31.5 -3.5t20.5 -7.5q1 0 1.5 -0.5t1.5 -0.5q9 -4 18.5 -7t24.5 -3q19 0 35.5 6t25.5 15z" />
    <glyph glyph-name="odieresis" unicode="&#xf6;" horiz-adv-x="620" 
d="M599 281q5 -16 7.5 -31.5t2.5 -29.5q0 -82 -60.5 -140.5t-140.5 -77.5q-28 -5 -57.5 -8.5t-59.5 -3.5q-61 0 -119.5 17.5t-100.5 62.5q-29 32 -42.5 67t-12.5 71q0 62 34.5 118.5t89.5 93.5q38 25 94.5 43t116.5 23q8 0 16 0.5t16 0.5q48 -1 92 -12.5t76 -39.5
q18 -16 28.5 -36.5t10.5 -42.5q-1 -16 -6.5 -30.5t-18.5 -27.5q5 2 8.5 2.5t6.5 0.5q8 0 12 -5t7 -15zM548 265q0 1 -0.5 2t-0.5 2q-1 3 -1.5 5.5t-0.5 4.5v2v1l1 1v1q-8 -4 -17 -7.5t-18 -4.5q-3 -1 -6 -1h-6q-15 0 -28.5 5.5t-24.5 17.5q-7 9 -11 20t-3 22v4v3q0 1 0.5 3
t0.5 3q3 12 10.5 17t16.5 5q10 0 18 -7t8 -19v-3q0 -3 -1 -5v-1v-2q0 -4 3.5 -6.5t8.5 -1.5q3 0 6 0.5t6 1.5q7 2 14 6.5t10 10.5q1 3 1.5 6t0.5 6q0 17 -16.5 26.5t-35.5 12.5q-10 2 -20.5 3t-17.5 1q-71 0 -131 -59.5t-70 -131.5q0 -5 -0.5 -10.5t-0.5 -10.5
q0 -23 7 -45.5t23 -42.5q20 -25 45.5 -36t53.5 -10h9q4 0 8 1q39 4 76 25t59 51q15 20 22.5 43.5t7.5 48.5q0 11 -1.5 21.5t-4.5 20.5zM363 559q0 -24 -19 -40t-46 -16q-28 0 -47 16t-19 40q0 23 19 40t47 17q27 0 46 -17t19 -40zM513 559q0 -24 -18.5 -40t-45.5 -16
q-28 0 -47.5 16t-19.5 40q0 23 19.5 40t47.5 17q27 0 45.5 -17t18.5 -40z" />
    <glyph glyph-name="divide" unicode="&#xf7;" horiz-adv-x="500" 
 />
    <glyph glyph-name="oslash" unicode="&#xf8;" horiz-adv-x="616" 
d="M595 284q5 -16 7 -31t2 -30q0 -81 -59.5 -140t-141.5 -78q-28 -5 -57 -8.5t-59 -3.5q-43 0 -84.5 8t-77.5 28l-20 -20l-20 -21q-3 -3 -5.5 -4.5t-5.5 -3.5q-3 -1 -5.5 -1.5t-5.5 -0.5q-10 0 -18 8t-8 18q0 5 2.5 10t6.5 10t9 10l8 8q4 5 9 10l8 8q-33 30 -50.5 70
t-17.5 84q0 118 95 188t209 84q14 2 27.5 2.5t27.5 0.5q27 0 53 -3t50 -11q5 6 11 12l10 10l11 11q5 5 10 11q3 3 5.5 4.5t5.5 3.5q3 1 5.5 1.5t5.5 0.5q11 0 18.5 -8t7.5 -19q0 -4 -2 -9.5t-7 -10.5q-3 -4 -6 -7l-8 -8l-7 -7q-4 -4 -7 -8q25 -15 40.5 -38.5t17.5 -49.5v-2
v-4q0 -15 -6 -29.5t-19 -27.5q5 2 8.5 2.5t7.5 0.5q8 0 12 -5t7 -15zM550 225q0 5 -1.5 12t-3.5 15v2v1q-2 8 -3 15.5t-1 12.5v1v1v2q-10 -6 -22 -9.5t-25 -3.5h-4q-2 0 -4 1q-3 0 -5 0.5t-4 0.5q-2 1 -7 3t-10 5q-4 1 -7 3t-5 3q-3 2 -5 4t-2 4q-5 6 -8.5 15t-4.5 19
q-1 3 -1 5v5q0 13 6 22.5t19 8.5h5q2 0 4 -1q14 -3 18 -8t3 -10q0 -2 -0.5 -4t-0.5 -4t-0.5 -4t-0.5 -4q0 -1 0.5 -2.5t1.5 -2.5q2 -2 5 -3.5t7 -1.5q3 0 5.5 0.5t5.5 1.5q6 2 12 6t9 8l2 2q1 1 1 2q1 3 1.5 6t0.5 5q0 18 -16.5 27t-35.5 13q-11 2 -21 3t-18 1
q-75 0 -133.5 -61t-65.5 -135q-1 -4 -1 -8v-8q0 -70 39 -102t90 -32q7 0 13.5 0.5t12.5 1.5q58 9 106.5 53t48.5 113z" />
    <glyph glyph-name="ugrave" unicode="&#xf9;" horiz-adv-x="761" 
d="M724 56q-19 -25 -48 -40.5t-61 -15.5h-117h-117q-10 0 -18.5 8.5t-8.5 19.5q0 1 1 2v1v2q0 2 0.5 4.5t1.5 4.5t1.5 4.5t0.5 4.5q-31 -19 -68.5 -32.5t-75.5 -17.5q-6 0 -12 -0.5t-12 -0.5q-43 0 -82 17.5t-66 57.5q-16 25 -23.5 51.5t-7.5 54.5q0 7 0.5 14t1.5 14
q7 57 37 111t69 91q-12 0 -22.5 -2t-20.5 -7q-3 -2 -6.5 -4t-6.5 -4q-5 -4 -9.5 -5.5t-9.5 -1.5q-11 0 -18.5 8.5t-7.5 18.5q0 6 2.5 12t9.5 10q17 14 38 21.5t43 7.5h48h46h70h72q12 0 19.5 -8.5t7.5 -19.5q0 -4 -1.5 -8t-4.5 -8l-11 -14l-12 -15q-33 -44 -63 -96.5
t-40 -106.5q-2 -10 -3 -20.5t-1 -21.5v-8q0 -4 1 -8q2 -17 10.5 -31.5t29.5 -14.5q6 0 12 1t12 3q15 5 30 14t28 19q4 4 8.5 8t8.5 7l11 48l11 48l11 47l11 48q16 69 72.5 103t123.5 34h52h51q14 0 21 -8t7 -18t-8 -19t-24 -9q-14 -1 -26 -12t-15 -25l-16 -74l-18 -73
l-16 -74l-18 -74q-1 -7 -3.5 -13t-5.5 -12q26 0 45.5 7t35.5 28q5 7 11 9.5t12 2.5q11 0 19 -7.5t8 -18.5q0 -2 -0.5 -4.5t-1.5 -4.5q0 -3 -1.5 -5.5t-3.5 -4.5zM437 543q5 -4 7.5 -10.5t2.5 -14.5v-4v-3q-2 -14 -11 -25t-24 -11q-4 0 -9.5 1.5t-11.5 4.5l-39 19
q-17 8 -32 16q-3 1 -5.5 2.5t-4.5 2.5l-37 20l-45 26q-13 7 -18 17.5t-5 21.5v2v3q3 22 19.5 40.5t37.5 18.5q7 0 13.5 -2.5t12.5 -7.5l30 -24l25 -18l37 -30z" />
    <glyph glyph-name="uacute" unicode="&#xfa;" horiz-adv-x="761" 
d="M724 56q-19 -25 -48 -40.5t-61 -15.5h-117h-117q-10 0 -18.5 8.5t-8.5 19.5q0 1 1 2v1v2q0 2 0.5 4.5t1.5 4.5t1.5 4.5t0.5 4.5q-31 -19 -68.5 -32.5t-75.5 -17.5q-6 0 -12 -0.5t-12 -0.5q-43 0 -82 17.5t-66 57.5q-16 25 -23.5 51.5t-7.5 54.5q0 7 0.5 14t1.5 14
q7 57 37 111t69 91q-12 0 -22.5 -2t-20.5 -7q-3 -2 -6.5 -4t-6.5 -4q-5 -4 -9.5 -5.5t-9.5 -1.5q-11 0 -18.5 8.5t-7.5 18.5q0 6 2.5 12t9.5 10q17 14 38 21.5t43 7.5h48h46h70h72q12 0 19.5 -8.5t7.5 -19.5q0 -4 -1.5 -8t-4.5 -8l-11 -14l-12 -15q-33 -44 -63 -96.5
t-40 -106.5q-2 -10 -3 -20.5t-1 -21.5v-8q0 -4 1 -8q2 -17 10.5 -31.5t29.5 -14.5q6 0 12 1t12 3q15 5 30 14t28 19q4 4 8.5 8t8.5 7l11 48l11 48l11 47l11 48q16 69 72.5 103t123.5 34h52h51q14 0 21 -8t7 -18t-8 -19t-24 -9q-14 -1 -26 -12t-15 -25l-16 -74l-18 -73
l-16 -74l-18 -74q-1 -7 -3.5 -13t-5.5 -12q26 0 45.5 7t35.5 28q5 7 11 9.5t12 2.5q11 0 19 -7.5t8 -18.5q0 -2 -0.5 -4.5t-1.5 -4.5q0 -3 -1.5 -5.5t-3.5 -4.5zM601 559l-45 -26l-36 -19q-3 -2 -5.5 -3.5t-5.5 -2.5q-15 -8 -32 -16l-40 -19q-6 -3 -11.5 -4.5t-10.5 -1.5
q-15 1 -23 12.5t-10 25.5v2v3q0 8 2.5 14.5t7.5 10.5l56 45l38 30l24 19l30 23q7 5 13.5 7.5t13.5 2.5q21 0 37.5 -18t18.5 -39q1 -2 1 -4v-4q0 -11 -5.5 -21t-17.5 -17z" />
    <glyph glyph-name="ucircumflex" unicode="&#xfb;" horiz-adv-x="761" 
d="M724 56q-19 -25 -48 -40.5t-61 -15.5h-117h-117q-10 0 -18.5 8.5t-8.5 19.5q0 1 1 2v1v2q0 2 0.5 4.5t1.5 4.5t1.5 4.5t0.5 4.5q-31 -19 -68.5 -32.5t-75.5 -17.5q-6 0 -12 -0.5t-12 -0.5q-43 0 -82 17.5t-66 57.5q-16 25 -23.5 51.5t-7.5 54.5q0 7 0.5 14t1.5 14
q7 57 37 111t69 91q-12 0 -22.5 -2t-20.5 -7q-3 -2 -6.5 -4t-6.5 -4q-5 -4 -9.5 -5.5t-9.5 -1.5q-11 0 -18.5 8.5t-7.5 18.5q0 6 2.5 12t9.5 10q17 14 38 21.5t43 7.5h48h46h70h72q12 0 19.5 -8.5t7.5 -19.5q0 -4 -1.5 -8t-4.5 -8l-11 -14l-12 -15q-33 -44 -63 -96.5
t-40 -106.5q-2 -10 -3 -20.5t-1 -21.5v-8q0 -4 1 -8q2 -17 10.5 -31.5t29.5 -14.5q6 0 12 1t12 3q15 5 30 14t28 19q4 4 8.5 8t8.5 7l11 48l11 48l11 47l11 48q16 69 72.5 103t123.5 34h52h51q14 0 21 -8t7 -18t-8 -19t-24 -9q-14 -1 -26 -12t-15 -25l-16 -74l-18 -73
l-16 -74l-18 -74q-1 -7 -3.5 -13t-5.5 -12q26 0 45.5 7t35.5 28q5 7 11 9.5t12 2.5q11 0 19 -7.5t8 -18.5q0 -2 -0.5 -4.5t-1.5 -4.5q0 -3 -1.5 -5.5t-3.5 -4.5zM606 515l-65 -44l-109 74l-112 -75l-68 45l177 118z" />
    <glyph glyph-name="udieresis" unicode="&#xfc;" horiz-adv-x="761" 
d="M724 56q-19 -25 -48 -40.5t-61 -15.5h-117h-117q-10 0 -18.5 8.5t-8.5 19.5q0 1 1 2v1v2q0 2 0.5 4.5t1.5 4.5t1.5 4.5t0.5 4.5q-31 -19 -68.5 -32.5t-75.5 -17.5q-6 0 -12 -0.5t-12 -0.5q-43 0 -82 17.5t-66 57.5q-16 25 -23.5 51.5t-7.5 54.5q0 7 0.5 14t1.5 14
q7 57 37 111t69 91q-12 0 -22.5 -2t-20.5 -7q-3 -2 -6.5 -4t-6.5 -4q-5 -4 -9.5 -5.5t-9.5 -1.5q-11 0 -18.5 8.5t-7.5 18.5q0 6 2.5 12t9.5 10q17 14 38 21.5t43 7.5h48h46h70h72q12 0 19.5 -8.5t7.5 -19.5q0 -4 -1.5 -8t-4.5 -8l-11 -14l-12 -15q-33 -44 -63 -96.5
t-40 -106.5q-2 -10 -3 -20.5t-1 -21.5v-8q0 -4 1 -8q2 -17 10.5 -31.5t29.5 -14.5q6 0 12 1t12 3q15 5 30 14t28 19q4 4 8.5 8t8.5 7l11 48l11 48l11 47l11 48q16 69 72.5 103t123.5 34h52h51q14 0 21 -8t7 -18t-8 -19t-24 -9q-14 -1 -26 -12t-15 -25l-16 -74l-18 -73
l-16 -74l-18 -74q-1 -7 -3.5 -13t-5.5 -12q26 0 45.5 7t35.5 28q5 7 11 9.5t12 2.5q11 0 19 -7.5t8 -18.5q0 -2 -0.5 -4.5t-1.5 -4.5q0 -3 -1.5 -5.5t-3.5 -4.5zM443 539q0 -24 -19 -40t-46 -16q-28 0 -47 16t-19 40q0 23 19 40t47 17q27 0 46 -17t19 -40zM593 539
q0 -24 -18.5 -40t-45.5 -16q-28 0 -47.5 16t-19.5 40q0 23 19.5 40t47.5 17q27 0 45.5 -17t18.5 -40z" />
    <glyph glyph-name="yacute" unicode="&#xfd;" 
 />
    <glyph glyph-name="thorn" unicode="&#xfe;" horiz-adv-x="750" 
d="M698 381q18 -22 27.5 -46t12.5 -48q0 -5 0.5 -10t0.5 -10v-3v-4q-2 -58 -34 -112.5t-79 -90.5q-34 -26 -77.5 -43t-89.5 -20q-5 -1 -10 -1h-10q-42 0 -81.5 14.5t-70.5 47.5l-8 -36l-8 -35q-5 -17 -9 -35l-8 -36q-1 -7 -3.5 -13t-6.5 -12h6h7q15 0 28.5 0.5t27.5 5.5
q4 2 8.5 4.5t9.5 6.5q2 2 4.5 3.5t5.5 1.5q2 1 4.5 1.5t4.5 0.5q11 0 18 -8.5t7 -18.5q0 -6 -2.5 -12t-9.5 -11q-17 -13 -37.5 -20.5t-43.5 -7.5h-125h-126q-11 0 -19.5 8.5t-7.5 19.5v2v2v1l76 327l75 326q2 7 4.5 13t5.5 12q-26 0 -46.5 -6t-37.5 -29q-5 -7 -11 -9.5
t-12 -2.5q-11 0 -19 8t-8 19q1 5 2.5 9.5t4.5 8.5q20 25 48.5 40.5t60.5 15.5h116h116q11 0 19 -8.5t8 -19.5v-1v-1q-1 -1 -1 -2v-1l-20 -84l-19 -85q32 22 71 36.5t79 17.5q6 1 11 1h12q45 0 86.5 -16.5t72.5 -54.5zM502 272q0 8 -1 18.5t-4 20.5q-5 23 -17.5 42t-36.5 19
q-27 0 -51 -22t-39 -49q-6 -10 -10.5 -20t-7.5 -19q-5 -15 -9 -31.5t-6 -33.5q-1 -7 -1.5 -13.5t-0.5 -13.5q0 -18 4 -34.5t12 -32.5q9 -15 20 -21.5t23 -6.5q5 0 9.5 1t8.5 2q14 5 27.5 15.5t23.5 23.5q23 27 37 60.5t18 68.5q0 6 0.5 12.5t0.5 13.5z" />
    <glyph glyph-name="ydieresis" unicode="&#xff;" horiz-adv-x="692" 
d="M680 424l-147 -234l-147 -233q-28 -44 -78 -71t-105 -30q-4 -1 -8 -1h-8q-28 0 -55.5 7t-50.5 22q-20 13 -34.5 31t-21.5 41q-1 6 -2.5 12t-1.5 11q0 34 28 57.5t62 26.5q2 1 4 1h6q23 0 43.5 -12.5t28.5 -41.5q0 -1 0.5 -2.5t0.5 -2.5v-3v-2q0 -10 -7.5 -17.5
t-16.5 -7.5h-2h-1q-8 0 -15.5 5t-10.5 16q-2 7 -8.5 11t-14.5 3q-2 0 -4.5 -0.5t-5.5 -0.5q-12 -3 -22.5 -12.5t-9.5 -22.5q0 -11 7.5 -22t25.5 -22q17 -11 37 -16t42 -5q5 0 9.5 0.5t8.5 0.5q34 4 66 18.5t53 37.5q-48 44 -74 104t-43 122q-4 14 -7.5 28t-6.5 28
q-2 8 -3.5 15.5t-3.5 14.5q-13 52 -28.5 87.5t-45.5 35.5h-1h-2q-1 -1 -2 -1h-2h-2h-1q-15 -3 -27.5 -15t-15.5 -26v-4v-2q0 -7 5.5 -14.5t17.5 -12.5q10 -4 14 -11t4 -15q0 -10 -7 -18.5t-19 -8.5q-3 0 -6 1t-7 2q-25 11 -41 30.5t-16 44.5q0 5 0.5 9.5t1.5 9.5
q9 39 43.5 62.5t73.5 33.5q19 5 37 7.5t33 2.5q128 0 173 -85t68 -187q1 -8 3 -15.5t3 -15.5q2 -5 3 -11l2 -10l163 260h-9h-8q-20 1 -38 -0.5t-35 -15.5q-3 -2 -5.5 -3.5t-4.5 -1.5q-2 -1 -4.5 -1.5t-5.5 -0.5q-10 0 -18 8t-8 18q1 6 3.5 12t8.5 11q29 24 64 27t71 1h1h1
q9 0 18 -0.5t18 -0.5q11 0 18.5 -8t7.5 -19q0 -4 -1 -7.5t-3 -6.5zM399 531q0 -24 -19 -40t-46 -16q-28 0 -47 16t-19 40q0 23 19 40t47 17q27 0 46 -17t19 -40zM549 531q0 -24 -18.5 -40t-45.5 -16q-28 0 -47.5 16t-19.5 40q0 23 19.5 40t47.5 17q27 0 45.5 -17t18.5 -40z
" />
    <glyph glyph-name="Abreve" unicode="&#x102;" 
 />
    <glyph glyph-name="abreve" unicode="&#x103;" 
 />
    <glyph glyph-name="Aogonek" unicode="&#x104;" 
 />
    <glyph glyph-name="aogonek" unicode="&#x105;" 
 />
    <glyph glyph-name="Cacute" unicode="&#x106;" 
 />
    <glyph glyph-name="cacute" unicode="&#x107;" 
 />
    <glyph glyph-name="Ccaron" unicode="&#x10c;" 
 />
    <glyph glyph-name="ccaron" unicode="&#x10d;" 
 />
    <glyph glyph-name="Dcaron" unicode="&#x10e;" 
 />
    <glyph glyph-name="dcaron" unicode="&#x10f;" 
 />
    <glyph glyph-name="Dslash" unicode="&#x110;" 
 />
    <glyph glyph-name="dslash" unicode="&#x111;" 
 />
    <glyph glyph-name="Eogonek" unicode="&#x118;" 
 />
    <glyph glyph-name="eogonek" unicode="&#x119;" 
 />
    <glyph glyph-name="Ecaron" unicode="&#x11a;" 
 />
    <glyph glyph-name="ecaron" unicode="&#x11b;" 
 />
    <glyph glyph-name="Gbreve" unicode="&#x11e;" 
 />
    <glyph glyph-name="gbreve" unicode="&#x11f;" 
 />
    <glyph glyph-name="Idot" unicode="&#x130;" 
 />
    <glyph glyph-name="dotlessi" unicode="&#x131;" horiz-adv-x="460" 
d="M403 432l-20 -88l-20 -88l-21 -89l-20 -88q-1 -7 -4 -13l-6 -12q13 0 24 2.5t22 9.5q2 1 4 2.5t4 2.5q2 2 4.5 3.5t5.5 1.5q2 1 4.5 1.5t4.5 0.5q11 0 18 -8t7 -19q0 -6 -2.5 -11.5t-9.5 -10.5q-17 -13 -37.5 -21t-42.5 -8h-139h-138q-15 0 -22.5 9t-7.5 19q1 10 8 18
t21 8h2h2q14 2 26 13t16 24l17 74l17 74l17 73l17 74q2 7 4 13t6 12q-20 0 -38 -9.5t-31 -25.5q-5 -7 -11 -9.5t-12 -2.5q-10 0 -18 8t-8 18q0 2 0.5 4.5t1.5 5.5q0 2 1.5 4.5t3.5 4.5q19 25 48 40.5t60 15.5h108h108q11 0 19 -8.5t8 -19.5v-1v-1l-1 -1v-2z" />
    <glyph glyph-name="Lacute" unicode="&#x139;" 
 />
    <glyph glyph-name="lacute" unicode="&#x13a;" 
 />
    <glyph glyph-name="Lcaron" unicode="&#x13d;" 
 />
    <glyph glyph-name="lcaron" unicode="&#x13e;" 
 />
    <glyph glyph-name="Ldot" unicode="&#x13f;" 
 />
    <glyph glyph-name="ldot" unicode="&#x140;" 
 />
    <glyph glyph-name="Lslash" unicode="&#x141;" horiz-adv-x="500" 
 />
    <glyph glyph-name="lslash" unicode="&#x142;" horiz-adv-x="500" 
 />
    <glyph glyph-name="Nacute" unicode="&#x143;" 
 />
    <glyph glyph-name="nacute" unicode="&#x144;" 
 />
    <glyph glyph-name="Ncaron" unicode="&#x147;" 
 />
    <glyph glyph-name="ncaron" unicode="&#x148;" 
 />
    <glyph glyph-name="Odblacute" unicode="&#x150;" 
 />
    <glyph glyph-name="odblacute" unicode="&#x151;" 
 />
    <glyph glyph-name="OE" unicode="&#x152;" horiz-adv-x="1210" 
d="M1198 703q-2 -8 -4 -17t-3 -18q-3 -12 -5 -23.5t-5 -23.5q-7 -36 -21.5 -70.5t-42.5 -56.5q-4 -4 -8.5 -5.5t-9.5 -1.5q-10 1 -18.5 9t-8.5 18q0 6 3 11.5t9 10.5q11 9 18 18t10 18q2 4 2.5 9t0.5 9q0 26 -25.5 46t-63.5 24q-2 0 -4 0.5t-4 0.5h-8h-8q-64 0 -105.5 -33
t-50.5 -72q-1 -5 -1.5 -9.5t-0.5 -9.5q0 -32 28 -57.5t89 -27.5h9h10q4 0 9 -0.5t9 -0.5q14 0 21 -7.5t8 -16.5v-2v-1v-2q-1 -10 -8.5 -17.5t-20.5 -6.5q-52 0 -100.5 -6t-94.5 -38q-32 -22 -48.5 -50.5t-20.5 -57.5q0 -4 -0.5 -8.5t-0.5 -9.5q0 -53 37.5 -97t102.5 -52
q8 -1 16 -1.5t16 -0.5q13 0 26.5 1t27.5 4q53 8 97 37t44 84q0 34 -18 50.5t-39 19.5q-3 1 -6 1h-6q-20 0 -35.5 -8.5t-14.5 -22.5v-2v-2q0 -1 0.5 -2t0.5 -2q1 -2 2.5 -3.5t2.5 -3.5l5 -6q3 -2 5 -5q1 -3 2 -5.5t1 -5.5q-1 -10 -9.5 -17.5t-20.5 -6.5q-2 0 -4.5 0.5
t-5.5 1.5q-8 2 -16 10.5t-13 23.5l-3 14q-2 7 -2 13q1 36 31 56.5t66 24.5q6 1 13 1h14q53 -9 78 -44t25 -77q0 -6 -0.5 -11.5t-1.5 -10.5q-4 -33 -22 -63t-47 -50q-50 -34 -123.5 -52.5t-151.5 -19.5h-7h-8q-61 1 -119.5 11.5t-103.5 34.5q-40 -21 -84.5 -33t-89.5 -15
q-10 -1 -20 -1.5t-20 -0.5q-131 0 -235.5 76.5t-104.5 236.5q0 186 143 305.5t321 119.5q13 0 26 -0.5t26 -2.5q38 -5 74.5 -17t66.5 -34q41 23 102.5 38t126.5 18h11h10q62 0 119 -14.5t94 -49.5q1 6 2.5 11.5t2.5 10.5t2.5 10.5t2.5 11.5q3 12 10.5 17t16.5 5h2h1
q9 -1 16.5 -8t7.5 -19v-3q0 -2 -1 -4zM669 431q-41 20 -66 51t-24 68q0 18 7 36.5t21 37.5q-11 2 -22 3.5t-22 1.5q-109 0 -192 -95t-100 -208q-2 -13 -3 -25t-1 -24q0 -38 10 -74t32 -67q26 -36 60.5 -53.5t72.5 -17.5q9 0 18.5 1t19.5 3t19.5 5t18.5 7q-26 25 -40 56.5
t-14 65.5v8q0 4 1 8q0 3 0.5 7t1.5 8q14 83 70 130.5t132 66.5z" />
    <glyph glyph-name="oe" unicode="&#x153;" horiz-adv-x="1031" 
d="M993 282l-50 -15l-50 -16l-101 -30l-101 -32q-4 -1 -8 -2.5t-8 -3.5q-2 0 -4 -1l-4 -2q-7 -2 -13 -3.5t-12 -2.5q17 -51 49.5 -73t72.5 -22q11 0 22.5 1.5t22.5 4.5q32 9 61.5 27t53.5 42q5 5 10.5 7t10.5 2q11 0 19 -8t7 -19q0 -4 -2 -9.5t-7 -10.5q-51 -52 -123.5 -83
t-149.5 -35q-7 -1 -15 -1h-14q-44 0 -86.5 9.5t-80.5 30.5q-33 -19 -72 -29.5t-79 -14.5q-13 -2 -25.5 -2.5t-24.5 -0.5q-19 0 -37 1.5t-35 4.5q-84 13 -145 69t-61 147q0 118 93 187t204 84q16 2 31.5 3t30.5 1q23 0 44 -2t41 -7q25 -6 49 -16t43 -27q45 22 98 31.5
t108 9.5q76 1 134.5 -34.5t81.5 -109.5q4 1 7 1.5t6 0.5q14 0 22 -8t8 -19q0 -7 -5.5 -14t-16.5 -11zM488 396q-10 3 -20.5 4t-21.5 1q-80 0 -142 -65.5t-62 -146.5q0 -61 38.5 -98t90.5 -37q11 0 21.5 2t20.5 5q9 3 17 6t15 6q-29 29 -42.5 62.5t-13.5 68.5q0 54 27.5 105
t71.5 87zM787 394q-4 9 -11 15t-17 6q-54 0 -83 -40t-39 -88q-3 -15 -4 -30t-1 -29q1 0 2.5 0.5t2.5 0.5q37 11 69.5 25.5t57.5 45.5q10 12 18 28t10 33v4v4q0 7 -1.5 13t-3.5 12z" />
    <glyph glyph-name="Racute" unicode="&#x154;" 
 />
    <glyph glyph-name="racute" unicode="&#x155;" 
 />
    <glyph glyph-name="Rcaron" unicode="&#x158;" 
 />
    <glyph glyph-name="rcaron" unicode="&#x159;" 
 />
    <glyph glyph-name="Sacute" unicode="&#x15a;" 
 />
    <glyph glyph-name="sacute" unicode="&#x15b;" 
 />
    <glyph glyph-name="Scedilla" unicode="&#x15e;" 
 />
    <glyph glyph-name="scedilla" unicode="&#x15f;" 
 />
    <glyph glyph-name="Scaron" unicode="&#x160;" horiz-adv-x="748" 
d="M740 693l-11 -48l-11 -46l-10 -48l-12 -47q-2 -11 -8.5 -16t-14.5 -6h-1h-2q-10 0 -18.5 7t-8.5 20v3q0 2 1 4l6 28q2 13 1 24q0 23 -12 42t-45 36q-12 6 -26 9t-29 3h-6q-4 0 -7 -1q-36 -3 -67.5 -22t-39.5 -52q0 -1 -0.5 -2.5t-0.5 -2.5v-2v-3q0 -20 16.5 -36t36.5 -29
q11 -7 21.5 -13t18.5 -11l16 -10l16 -10q59 -38 108.5 -88t49.5 -129v-11q0 -6 -1 -12q-9 -98 -86 -153.5t-167 -72.5q-22 -4 -44 -6t-43 -2q-29 0 -63.5 3t-70.5 8q-80 15 -146 54.5t-66 118.5q0 53 35 92.5t89 39.5q41 0 68 -26t27 -64q0 -4 -0.5 -9t-1.5 -10
q-2 -13 -10 -18.5t-17 -5.5q-10 1 -18.5 8t-8.5 20v2l1 1v2v1q1 3 1 6v4q0 17 -11.5 26t-27.5 9q-4 0 -8 -0.5t-8 -2.5q-19 -5 -36 -22t-19 -45q-5 -56 52.5 -91t126.5 -38h7h6q59 0 108.5 27t57.5 87q1 5 1 10v8q0 49 -37 81t-84 61l-8 6l-10 5q-51 32 -94.5 70t-43.5 101
q0 10 1.5 20.5t3.5 20.5q19 84 93 127t159 52q12 2 23.5 2.5t23.5 0.5q24 0 47.5 -3t44.5 -8q6 -1 13 -3l12 -4q29 -9 56 -24.5t47 -38.5l6 28q3 13 7 26q2 12 10 17.5t17 5.5q10 0 18 -7t8 -20v-2v-2q0 -1 -0.5 -2t-0.5 -2zM599 830l-146 -83l-147 83l55 52l92 -52l92 52z
" />
    <glyph glyph-name="scaron" unicode="&#x161;" horiz-adv-x="542" 
d="M526 319q0 -14 -8.5 -21t-19.5 -7q-10 1 -19 8.5t-9 20.5v5q0 2 1 4q0 1 0.5 2.5t0.5 2.5v3v2q0 20 -16.5 37t-36.5 28q-9 5 -17 8t-15 5q-5 2 -13.5 3t-17.5 1q-4 0 -7.5 -0.5t-7.5 -0.5q-17 -2 -32 -8t-21 -18q-1 -1 -1 -2v-4q0 -13 18.5 -24.5t40.5 -20.5l31 -11
l22 -8q2 -1 4 -1.5t4 -1.5q47 -20 86 -55.5t38 -86.5q0 -9 -1.5 -18t-4.5 -19q-7 -19 -19 -36.5t-29 -33.5q-43 -39 -101.5 -55.5t-120.5 -16.5q-30 0 -59 3.5t-57 10.5q-60 16 -96 43t-35 64q2 32 26.5 58t55.5 30h3h3q13 0 20 -8t7 -19q0 -9 -6 -16.5t-19 -9.5
q-13 -1 -23 -11.5t-13 -23.5v-2v-1q-1 -1 -1 -2v-1q0 -14 16 -24t35 -16q14 -4 26 -7t19 -4l15 -2q7 -1 16 -1q6 0 12 0.5t12 1.5q24 3 45.5 13.5t26.5 32.5q0 1 0.5 2t0.5 2v2v2q0 21 -25 37.5t-55 29.5l-34 14q-17 6 -28 12q-33 16 -56 44.5t-23 64.5q0 5 0.5 9.5t1.5 8.5
q6 32 29 59.5t58 46.5t76 29.5t84 10.5h6h5q40 -2 78.5 -14t69.5 -36v9v8v8v9q0 14 9 21.5t19 6.5q10 0 18 -7t8 -21v-73v-75zM451 582l-146 -83l-147 83l55 52l92 -52l92 52z" />
    <glyph glyph-name="Tcedilla" unicode="&#x162;" 
 />
    <glyph glyph-name="tcedilla" unicode="&#x163;" 
 />
    <glyph glyph-name="Tcaron" unicode="&#x164;" 
 />
    <glyph glyph-name="tcaron" unicode="&#x165;" 
 />
    <glyph glyph-name="Uring" unicode="&#x16e;" 
 />
    <glyph glyph-name="uring" unicode="&#x16f;" 
 />
    <glyph glyph-name="udblacute" unicode="&#x170;" 
 />
    <glyph glyph-name="Udblacute" unicode="&#x171;" 
 />
    <glyph glyph-name="Ydieresis" unicode="&#x178;" horiz-adv-x="836" 
d="M818 667l-54 -67l-54 -67q-2 -2 -3 -3.5t-3 -3.5l-204 -246q-104 -122 -227 -226h39h40h39h39h3h3q18 2 34 11.5t26 23.5q5 7 11 9.5t12 2.5q11 0 18.5 -7.5t7.5 -18.5q0 -2 -0.5 -4.5t-1.5 -4.5q0 -3 -1.5 -5.5t-3.5 -4.5q-19 -25 -47.5 -40.5t-60.5 -15.5h-116h-117
q-11 0 -18.5 8t-8.5 18v1v2q0 5 2.5 10t7.5 9q38 29 74 60t70 64q-35 37 -56.5 81.5t-34.5 90.5q-7 26 -13 51.5t-11 50.5q-1 6 -2.5 11.5t-2.5 10.5q-12 55 -28 92.5t-53 37.5h-3h-2q-1 -1 -2 -1h-3q-19 -3 -32.5 -13.5t-13.5 -24.5q0 -7 6 -14.5t19 -13.5q9 -4 13 -10.5
t4 -14.5q0 -10 -7.5 -18.5t-19.5 -8.5q-3 0 -6 1t-7 2q-28 13 -44.5 35.5t-16.5 51.5q0 6 1 12t2 13q10 47 52 74t89 39q21 5 41 7.5t38 2.5q137 0 186.5 -96.5t73.5 -211.5l4 -21l4 -22l241 291h-49h-50h-3h-3q-18 -2 -34 -11.5t-26 -23.5q-5 -7 -11 -9.5t-12 -2.5
q-10 0 -18 8t-8 18q0 2 0.5 4.5t1.5 5.5q0 2 1.5 4.5t3.5 4.5q19 25 48 40.5t60 15.5h39h40h39h39q12 0 19 -8.5t7 -19.5q0 -4 -1.5 -8t-4.5 -8zM463 775q0 -24 -19 -40t-46 -16q-28 0 -47 16t-19 40q0 23 19 40t47 17q27 0 46 -17t19 -40zM613 775q0 -24 -18.5 -40
t-45.5 -16q-28 0 -47.5 16t-19.5 40q0 23 19.5 40t47.5 17q27 0 45.5 -17t18.5 -40z" />
    <glyph glyph-name="Zacute" unicode="&#x179;" 
 />
    <glyph glyph-name="zacute" unicode="&#x17a;" 
 />
    <glyph glyph-name="Zdot" unicode="&#x17b;" 
 />
    <glyph glyph-name="zdot" unicode="&#x17c;" 
 />
    <glyph glyph-name="Zcaron" unicode="&#x17d;" horiz-adv-x="500" 
 />
    <glyph glyph-name="zcaron" unicode="&#x17e;" horiz-adv-x="500" 
 />
    <glyph glyph-name="florin" unicode="&#x192;" horiz-adv-x="599" 
d="M574 453q-25 -32 -53 -37t-64 -5h-2h-1l-99 -422q-14 -59 -65.5 -98t-110.5 -48q-8 -1 -15.5 -1.5t-15.5 -0.5h-2h-4q-39 1 -74.5 18.5t-55.5 51.5l-2 4l-2 4q0 3 -0.5 5t-0.5 4q1 11 9 18t18 7q7 0 13.5 -4t10.5 -11t8 -11t10 -4h2q1 0 2 1q1 0 2 0.5t2 0.5q7 3 13.5 10
t9.5 14q0 1 0.5 2t0.5 2l107 458h-4h-4q-22 0 -40 -3t-33 -23q-5 -7 -11 -10t-12 -2q-11 0 -19 8t-8 19q1 4 2.5 8.5t4.5 8.5q28 36 61 42t73 6h6h6q-4 13 -6.5 25.5t-2.5 25.5q0 74 61 131.5t135 67.5q6 0 11.5 0.5t11.5 0.5q31 0 59.5 -11t50.5 -37l2 -2l1 -1
q8 -11 16 -28.5t12 -36.5q2 -7 2.5 -13.5t0.5 -13.5q0 -22 -11.5 -38.5t-40.5 -16.5q-3 0 -5.5 0.5t-4.5 0.5q-14 4 -25.5 15.5t-11.5 24.5q0 5 1.5 9t5.5 8q5 7 7.5 12.5t2.5 10.5q0 9 -7 14.5t-17 5.5q-3 0 -5.5 -0.5t-5.5 -1.5q-7 -3 -13.5 -8.5t-10.5 -14.5
q-4 -7 -5.5 -15t-1.5 -16q0 -12 3 -23.5t7 -23.5l6 -26q3 -12 3 -25h4h4q18 0 33 2.5t28 18.5q5 7 11 9.5t12 2.5q11 0 19 -8t8 -19q-1 -4 -2.5 -8.5t-4.5 -9.5z" />
    <glyph glyph-name="hungarumlaut" unicode="&#x2ba;" horiz-adv-x="362" 
d="M197 758l-125 -135l-67 60l111 153zM380 758l-125 -135l-67 60l111 153z" />
    <glyph glyph-name="tilde" unicode="&#x2c6;" horiz-adv-x="362" 
d="M345 731q-14 -17 -31 -29t-34 -19q-10 -3 -19.5 -5t-18.5 -2q-20 0 -32 3.5t-22 7.5h-2l-1 1q-9 3 -19.5 6t-26.5 3q-18 0 -34 -5t-24 -14l-49 55q22 27 47.5 40.5t56.5 13.5q20 0 31.5 -3.5t20.5 -7.5q1 0 1.5 -0.5t1.5 -0.5q9 -4 18.5 -7t24.5 -3q19 0 35.5 6t25.5 15z
" />
    <glyph glyph-name="caron" unicode="&#x2c7;" horiz-adv-x="362" 
d="M327 758l-146 -83l-147 83l55 52l92 -52l92 52z" />
    <glyph glyph-name="macron" unicode="&#x2c9;" horiz-adv-x="500" 
 />
    <glyph glyph-name="breve" unicode="&#x2d8;" horiz-adv-x="362" 
d="M304 768l-10 -8q-9 -7 -26 -16t-41.5 -16.5t-53.5 -7.5t-53 7.5t-42 16.5q-17 9 -26 16l-10 8l49 42l7 -4q6 -5 18 -11q11 -6 26 -10.5t31 -4.5q17 0 32 4.5t26 10.5t17 11l7 4z" />
    <glyph glyph-name="dotaccent" unicode="&#x2d9;" horiz-adv-x="150" 
d="M139 739q0 -24 -17.5 -41t-41.5 -17t-41.5 17t-17.5 41t17.5 41.5t41.5 17.5t41.5 -17.5t17.5 -41.5z" />
    <glyph glyph-name="ring" unicode="&#x2da;" horiz-adv-x="258" 
d="M209 735q0 -36 -23 -59.5t-58 -23.5q-33 0 -57 23.5t-24 59.5q0 32 24 55.5t57 23.5q35 0 58 -23.5t23 -55.5zM169 733q0 17 -12 29t-29 12q-16 0 -28 -12t-12 -29q0 -16 12 -28t28 -12q17 0 29 12t12 28z" />
    <glyph glyph-name="ogonek" unicode="&#x2db;" horiz-adv-x="362" 
d="M271 -102l-113 -63l-67 161l99 34z" />
    <glyph glyph-name="circumflex" unicode="&#x2dc;" horiz-adv-x="441" 
d="M398 679l-65 -44l-109 74l-112 -75l-68 45l177 118z" />
    <glyph glyph-name="Gamma" unicode="&#x393;" horiz-adv-x="500" 
 />
    <glyph glyph-name="Theta" unicode="&#x398;" horiz-adv-x="500" 
 />
    <glyph glyph-name="summation" unicode="&#x3a3;" horiz-adv-x="500" 
 />
    <glyph glyph-name="Phi" unicode="&#x3a6;" horiz-adv-x="500" 
 />
    <glyph glyph-name="Omega" unicode="&#x3a9;" horiz-adv-x="500" 
 />
    <glyph glyph-name="alpha" unicode="&#x3b1;" horiz-adv-x="500" 
 />
    <glyph glyph-name="delta" unicode="&#x3b4;" horiz-adv-x="500" 
 />
    <glyph glyph-name="epsilon" unicode="&#x3b5;" horiz-adv-x="500" 
 />
    <glyph glyph-name="pi" unicode="&#x3c0;" horiz-adv-x="500" 
 />
    <glyph glyph-name="sigma" unicode="&#x3c3;" 
 />
    <glyph glyph-name="tau" unicode="&#x3c4;" horiz-adv-x="500" 
 />
    <glyph glyph-name="phi" unicode="&#x3c6;" 
 />
    <glyph glyph-name="glyph276" unicode="&#x2013;" horiz-adv-x="465" 
d="M420 218h-375v125h375v-125z" />
    <glyph glyph-name="emdash" unicode="&#x2014;" horiz-adv-x="565" 
d="M520 218h-475v125h475v-125z" />
    <glyph glyph-name="underscoredbl" unicode="&#x2017;" horiz-adv-x="500" 
 />
    <glyph glyph-name="quoteleft" unicode="&#x2018;" horiz-adv-x="229" 
d="M195 594q-3 -33 -32.5 -55.5t-65.5 -26.5q-3 -1 -6 -1h-7q-13 0 -26 4t-24 11q-13 10 -18.5 25t-4.5 31q0 6 0.5 12t1.5 12q3 19 9.5 36.5t14.5 31.5q2 5 5 9l4 7q17 26 47.5 49t79.5 41q2 1 5 1h3q11 0 18 -10t7 -22q0 -7 -3 -14t-10 -11q-4 -2 -9 -5.5t-10 -7.5
q-7 -6 -13 -13t-9 -14q-2 -3 -2.5 -6.5t-0.5 -6.5v-2q0 -2 1 -3q1 -3 2.5 -5.5t4.5 -4.5q17 -8 28 -22.5t10 -33.5v-2v-4z" />
    <glyph glyph-name="quoteright" unicode="&#x2019;" horiz-adv-x="229" 
d="M192 758q13 -10 18.5 -24.5t4.5 -31.5q0 -6 -0.5 -12t-1.5 -12q-3 -19 -9.5 -36.5t-14.5 -31.5q-2 -5 -5 -9l-4 -7q-16 -25 -46.5 -48.5t-80.5 -41.5q-2 -1 -4 -1.5t-4 0.5q-11 0 -18 10t-7 22q0 8 3 14.5t10 10.5q4 2 9 5.5t10 7.5q7 6 13 13t9 14q2 3 2.5 6.5t0.5 6.5
v2q0 2 -1 3q-1 3 -2.5 5.5t-4.5 4.5q-16 8 -27.5 22.5t-10.5 33.5v3v3q3 33 32.5 55.5t65.5 26.5q3 1 6 1h7q14 0 27 -3.5t23 -11.5z" />
    <glyph glyph-name="quotesinglbase" unicode="&#x201a;" horiz-adv-x="273" 
d="M241 156q11 -10 15 -23.5t4 -27.5q0 -8 -1 -16t-3 -16q-5 -20 -14 -39t-19 -34l-10 -14l-10 -12q-23 -26 -60.5 -47t-96.5 -33q-1 0 -2 -1h-1h-2h-2q-13 1 -20 11t-7 23q1 10 5.5 19t14.5 13q5 1 12 5t14 9q11 7 20.5 17t11.5 21v1v2q0 5 -1.5 8.5t-5.5 7.5
q-16 10 -26 25.5t-10 34.5q0 4 0.5 7.5t1.5 7.5q7 33 38 53t67 24q3 1 7 1h8q20 0 39.5 -6.5t32.5 -20.5z" />
    <glyph glyph-name="quotedblleft" unicode="&#x201c;" horiz-adv-x="402" 
d="M195 594q-3 -33 -32.5 -55.5t-65.5 -26.5q-3 -1 -6 -1h-7q-13 0 -26 4t-24 11q-13 10 -18.5 25t-4.5 31q0 6 0.5 12t1.5 12q3 19 9.5 36.5t14.5 31.5q2 5 5 9l4 7q17 26 47.5 49t79.5 41q2 1 5 1h3q11 0 18 -10t7 -22q0 -7 -3 -14t-10 -11q-4 -2 -9 -5.5t-10 -7.5
q-7 -6 -13 -13t-9 -14q-2 -3 -2.5 -6.5t-0.5 -6.5v-2q0 -2 1 -3q1 -3 2.5 -5.5t4.5 -4.5q17 -8 28 -22.5t10 -33.5v-2v-4zM385 594q-3 -33 -32.5 -55.5t-65.5 -26.5q-3 -1 -6 -1h-7q-13 0 -26 4t-24 11q-13 10 -18.5 25t-4.5 31q0 6 0.5 12t1.5 12q3 19 9.5 36.5t14.5 31.5
q2 5 5 9l4 7q17 26 47.5 49t79.5 41q2 1 5 1h3q11 0 18 -10t7 -22q0 -7 -3 -14t-10 -11q-4 -2 -9 -5.5t-10 -7.5q-7 -6 -13 -13t-9 -14q-2 -3 -2.5 -6.5t-0.5 -6.5v-2q0 -2 1 -3q1 -3 2.5 -5.5t4.5 -4.5q17 -8 28 -22.5t10 -33.5v-2v-4z" />
    <glyph glyph-name="quotedblright" unicode="&#x201d;" horiz-adv-x="410" 
d="M192 758q13 -10 18.5 -24.5t4.5 -31.5q0 -6 -0.5 -12t-1.5 -12q-3 -19 -9.5 -36.5t-14.5 -31.5q-2 -5 -5 -9l-4 -7q-16 -25 -46.5 -48.5t-80.5 -41.5q-2 -1 -4 -1.5t-4 0.5q-11 0 -18 10t-7 22q0 8 3 14.5t10 10.5q4 2 9 5.5t10 7.5q7 6 13 13t9 14q2 3 2.5 6.5t0.5 6.5
v2q0 2 -1 3q-1 3 -2.5 5.5t-4.5 4.5q-16 8 -27.5 22.5t-10.5 33.5v3v3q3 33 32.5 55.5t65.5 26.5q3 1 6 1h7q14 0 27 -3.5t23 -11.5zM382 758q13 -10 18.5 -24.5t4.5 -31.5q0 -6 -0.5 -12t-1.5 -12q-3 -19 -9.5 -36.5t-14.5 -31.5q-2 -5 -5 -9l-4 -7q-16 -25 -46.5 -48.5
t-80.5 -41.5q-2 -1 -4 -1.5t-4 0.5q-11 0 -18 10t-7 22q0 8 3 14.5t10 10.5q4 2 9 5.5t10 7.5q7 6 13 13t9 14q2 3 2.5 6.5t0.5 6.5v2q0 2 -1 3q-1 3 -2.5 5.5t-4.5 4.5q-16 8 -27.5 22.5t-10.5 33.5v4v2q3 33 32.5 55.5t65.5 26.5q3 1 6 1h7q14 0 27 -3.5t23 -11.5z" />
    <glyph glyph-name="quotedblbase" unicode="&#x201e;" horiz-adv-x="494" 
d="M241 156q11 -10 15 -23.5t4 -27.5q0 -8 -1 -16t-3 -16q-5 -20 -14 -39t-19 -34l-10 -14l-10 -12q-23 -26 -60.5 -47t-96.5 -33q-1 0 -2 -1h-1h-2h-2q-13 1 -20 11t-7 23q1 10 5.5 19t14.5 13q5 1 12 5t14 9q11 7 20.5 17t11.5 21v1v2q0 5 -1.5 8.5t-5.5 7.5
q-16 10 -26 25.5t-10 34.5q0 4 0.5 7.5t1.5 7.5q7 33 38 53t67 24q3 1 7 1h8q20 0 39.5 -6.5t32.5 -20.5zM461 156q11 -10 15 -23.5t4 -27.5q0 -8 -1 -16t-3 -16q-5 -20 -14 -39t-19 -34l-10 -14l-10 -12q-23 -26 -60.5 -47t-96.5 -33q-1 0 -2 -1h-1h-2h-2q-13 1 -20 11
t-7 23q1 10 5.5 19t14.5 13q5 1 12 5t14 9q11 7 20.5 17t11.5 21v1v2q0 5 -1.5 8.5t-5.5 7.5q-16 10 -26 25.5t-10 34.5q0 4 0.5 7.5t1.5 7.5q7 33 38 53t67 24q3 1 7 1h8q20 0 39.5 -6.5t32.5 -20.5z" />
    <glyph glyph-name="dagger" unicode="&#x2020;" horiz-adv-x="500" 
d="M468 446l-183 62l69 -182q-19 -63 -33 -131t-21 -138q-6 -52 -9 -103t-2 -100l-73 -1q1 50 -2 101t-9 103q-7 70 -21 138t-33 131l68 182l-183 -62v183l182 -59l-59 227h188l-61 -227l182 59v-183z" />
    <glyph glyph-name="daggerdbl" unicode="&#x2021;" horiz-adv-x="500" 
d="M463 21l-183 61l60 -227h-187l60 227l-183 -61v185l183 -63l-67 183l67 182l-183 -62v183l183 -59l-60 227h188l-61 -227l183 59v-183l-183 62l66 -182l-67 -183l184 63v-185z" />
    <glyph glyph-name="glyph287" unicode="&#x2022;" horiz-adv-x="425" 
d="M404 350q0 -67 -51.5 -107t-112.5 -47q-7 -1 -13.5 -1.5t-13.5 -0.5q-8 0 -15.5 0.5t-14.5 1.5q-60 9 -109.5 48.5t-49.5 105.5t49.5 106.5t109.5 49.5q7 1 14.5 1.5t15.5 0.5q7 0 13.5 -0.5t13.5 -1.5q61 -7 112.5 -48t51.5 -108z" />
    <glyph glyph-name="ellipsis" unicode="&#x2026;" horiz-adv-x="697" 
d="M216 85q0 -38 -31 -65t-74 -27t-74 27t-31 65t31 65t74 27t74 -27t31 -65zM446 85q0 -38 -31 -65t-74 -27t-74 27t-31 65t31 65t74 27t74 -27t31 -65zM676 85q0 -38 -31 -65t-74 -27t-74 27t-31 65t31 65t74 27t74 -27t31 -65z" />
    <glyph glyph-name="perthousand" unicode="&#x2030;" horiz-adv-x="500" 
 />
    <glyph glyph-name="guilsinglleft" unicode="&#x2039;" horiz-adv-x="300" 
d="M270 204l-72 -70l-163 163l163 163l72 -70l-83 -93z" />
    <glyph glyph-name="guilsinglright" unicode="&#x203a;" horiz-adv-x="300" 
d="M265 297l-163 -163l-72 70l83 93l-83 93l72 70z" />
    <glyph glyph-name="exclamdbl" unicode="&#x203c;" horiz-adv-x="500" 
 />
    <glyph glyph-name="nsuperior" unicode="&#x207f;" horiz-adv-x="500" 
 />
    <glyph glyph-name="franc" unicode="&#x20a3;" horiz-adv-x="500" 
 />
    <glyph glyph-name="peseta" unicode="&#x20a7;" horiz-adv-x="500" 
 />
    <glyph glyph-name="trademark" unicode="&#x2122;" horiz-adv-x="500" 
 />
    <glyph glyph-name="arrowleft" unicode="&#x2190;" 
 />
    <glyph glyph-name="arrowup" unicode="&#x2191;" 
 />
    <glyph glyph-name="arrowright" unicode="&#x2192;" horiz-adv-x="500" 
 />
    <glyph glyph-name="arrowdown" unicode="&#x2193;" 
 />
    <glyph glyph-name="arrowboth" unicode="&#x2194;" 
 />
    <glyph glyph-name="arrowupdn" unicode="&#x2195;" 
 />
    <glyph glyph-name="arrowupdnbase" unicode="&#x21a8;" 
 />
    <glyph glyph-name="partialdiff" unicode="&#x2202;" horiz-adv-x="500" 
 />
    <glyph glyph-name="Delta" unicode="&#x2206;" horiz-adv-x="500" 
 />
    <glyph glyph-name="product" unicode="&#x220f;" 
 />
    <glyph glyph-name="minus" unicode="&#x2212;" horiz-adv-x="500" 
 />
    <glyph glyph-name="fraction" unicode="&#x2215;" horiz-adv-x="500" 
 />
    <glyph glyph-name="periodcentered" unicode="&#x2219;" horiz-adv-x="262" 
d="M251 305q0 -38 -35 -65.5t-84 -27.5t-84 27.5t-35 65.5t35 65t84 27t84 -27t35 -65z" />
    <glyph glyph-name="radical" unicode="&#x221a;" horiz-adv-x="500" 
 />
    <glyph glyph-name="infinity" unicode="&#x221e;" 
 />
    <glyph glyph-name="orthogonal" unicode="&#x221f;" 
 />
    <glyph glyph-name="intersection" unicode="&#x2229;" 
 />
    <glyph glyph-name="integral" unicode="&#x222b;" 
 />
    <glyph glyph-name="approxequal" unicode="&#x2248;" horiz-adv-x="500" 
 />
    <glyph glyph-name="notequal" unicode="&#x2260;" horiz-adv-x="500" 
 />
    <glyph glyph-name="equivalence" unicode="&#x2261;" 
 />
    <glyph glyph-name="lessequal" unicode="&#x2264;" horiz-adv-x="500" 
 />
    <glyph glyph-name="greaterequal" unicode="&#x2265;" horiz-adv-x="500" 
 />
    <glyph glyph-name="house" unicode="&#x2302;" 
 />
    <glyph glyph-name="revlogicalnot" unicode="&#x2310;" 
 />
    <glyph glyph-name="integraltp" unicode="&#x2320;" 
 />
    <glyph glyph-name="integralbt" unicode="&#x2321;" 
 />
    <glyph glyph-name="2500" unicode="&#x2500;" 
 />
    <glyph glyph-name="2502" unicode="&#x2502;" 
 />
    <glyph glyph-name="250c" unicode="&#x250c;" 
 />
    <glyph glyph-name="2510" unicode="&#x2510;" 
 />
    <glyph glyph-name="2514" unicode="&#x2514;" 
 />
    <glyph glyph-name="2518" unicode="&#x2518;" 
 />
    <glyph glyph-name="251c" unicode="&#x251c;" 
 />
    <glyph glyph-name="2524" unicode="&#x2524;" 
 />
    <glyph glyph-name="252c" unicode="&#x252c;" 
 />
    <glyph glyph-name="2534" unicode="&#x2534;" 
 />
    <glyph glyph-name="253c" unicode="&#x253c;" 
 />
    <glyph glyph-name="2550" unicode="&#x2550;" 
 />
    <glyph glyph-name="2551" unicode="&#x2551;" 
 />
    <glyph glyph-name="2552" unicode="&#x2552;" 
 />
    <glyph glyph-name="2553" unicode="&#x2553;" 
 />
    <glyph glyph-name="2554" unicode="&#x2554;" 
 />
    <glyph glyph-name="2555" unicode="&#x2555;" 
 />
    <glyph glyph-name="2556" unicode="&#x2556;" 
 />
    <glyph glyph-name="2557" unicode="&#x2557;" 
 />
    <glyph glyph-name="2558" unicode="&#x2558;" 
 />
    <glyph glyph-name="2559" unicode="&#x2559;" 
 />
    <glyph glyph-name="255a" unicode="&#x255a;" 
 />
    <glyph glyph-name="255b" unicode="&#x255b;" 
 />
    <glyph glyph-name="255c" unicode="&#x255c;" 
 />
    <glyph glyph-name="255d" unicode="&#x255d;" 
 />
    <glyph glyph-name="255e" unicode="&#x255e;" 
 />
    <glyph glyph-name="255f" unicode="&#x255f;" 
 />
    <glyph glyph-name="2560" unicode="&#x2560;" 
 />
    <glyph glyph-name="2561" unicode="&#x2561;" 
 />
    <glyph glyph-name="2562" unicode="&#x2562;" 
 />
    <glyph glyph-name="2563" unicode="&#x2563;" 
 />
    <glyph glyph-name="2564" unicode="&#x2564;" 
 />
    <glyph glyph-name="2565" unicode="&#x2565;" 
 />
    <glyph glyph-name="2566" unicode="&#x2566;" 
 />
    <glyph glyph-name="2567" unicode="&#x2567;" 
 />
    <glyph glyph-name="2568" unicode="&#x2568;" 
 />
    <glyph glyph-name="2569" unicode="&#x2569;" 
 />
    <glyph glyph-name="256a" unicode="&#x256a;" 
 />
    <glyph glyph-name="256b" unicode="&#x256b;" 
 />
    <glyph glyph-name="256c" unicode="&#x256c;" 
 />
    <glyph glyph-name="upblock" unicode="&#x2580;" 
 />
    <glyph glyph-name="dnblock" unicode="&#x2584;" 
 />
    <glyph glyph-name="block" unicode="&#x2588;" 
 />
    <glyph glyph-name="lfblock" unicode="&#x258c;" 
 />
    <glyph glyph-name="rtblock" unicode="&#x2590;" 
 />
    <glyph glyph-name="ltshade" unicode="&#x2591;" 
 />
    <glyph glyph-name="shade" unicode="&#x2592;" 
 />
    <glyph glyph-name="dkshade" unicode="&#x2593;" 
 />
    <glyph glyph-name="filledbox" unicode="&#x25a0;" horiz-adv-x="500" 
 />
    <glyph glyph-name="filledrect" unicode="&#x25ac;" 
 />
    <glyph glyph-name="triagup" unicode="&#x25b2;" 
 />
    <glyph glyph-name="triagrt" unicode="&#x25ba;" 
 />
    <glyph glyph-name="triagdn" unicode="&#x25bc;" 
 />
    <glyph glyph-name="triaglf" unicode="&#x25c4;" 
 />
    <glyph glyph-name="lozenge" unicode="&#x25ca;" horiz-adv-x="500" 
 />
    <glyph glyph-name="circle" unicode="&#x25cb;" 
 />
    <glyph glyph-name="invbullet" unicode="&#x25d8;" 
 />
    <glyph glyph-name="invcircle" unicode="&#x25d9;" 
 />
    <glyph glyph-name="smileface" unicode="&#x263a;" 
 />
    <glyph glyph-name="invsmileface" unicode="&#x263b;" 
 />
    <glyph glyph-name="sun" unicode="&#x263c;" 
 />
    <glyph glyph-name="female" unicode="&#x2640;" 
 />
    <glyph glyph-name="male" unicode="&#x2642;" 
 />
    <glyph glyph-name="spade" unicode="&#x2660;" 
 />
    <glyph glyph-name="club" unicode="&#x2663;" 
 />
    <glyph glyph-name="heart" unicode="&#x2665;" 
 />
    <glyph glyph-name="diamond" unicode="&#x2666;" 
 />
    <glyph glyph-name="musicalnote" unicode="&#x266a;" 
 />
    <glyph glyph-name="musicalnotedbl" unicode="&#x266b;" 
 />
    <glyph glyph-name="apple" unicode="&#xf000;" 
 />
    <glyph glyph-name="fi" unicode="&#xf001;" horiz-adv-x="500" 
 />
    <glyph glyph-name="fl" unicode="&#xf002;" horiz-adv-x="500" 
 />
    <glyph glyph-name="glyph1" horiz-adv-x="0" 
 />
    <glyph glyph-name="glyph2" 
 />
    <glyph glyph-name="degree" horiz-adv-x="500" 
 />
    <glyph glyph-name="bullet" horiz-adv-x="425" 
d="M404 350q0 -67 -51.5 -107t-112.5 -47q-7 -1 -13.5 -1.5t-13.5 -0.5q-8 0 -15.5 0.5t-14.5 1.5q-60 9 -109.5 48.5t-49.5 105.5t49.5 106.5t109.5 49.5q7 1 14.5 1.5t15.5 0.5q7 0 13.5 -0.5t13.5 -1.5q61 -7 112.5 -48t51.5 -108z" />
    <glyph glyph-name="endash" horiz-adv-x="465" 
d="M420 218h-375v125h375v-125z" />
    </font>
</defs>
</svg>
