<?xml version="1.0" encoding="utf-8"?>
<!-- Generator: Adobe Illustrator 16.0.0, SVG Export Plug-In . SVG Version: 6.00 Build 0)  -->
<!DOCTYPE svg PUBLIC "-//W3C//DTD SVG 1.1//EN" "http://www.w3.org/Graphics/SVG/1.1/DTD/svg11.dtd">
<svg version="1.1" id="Ebene_1" xmlns="http://www.w3.org/2000/svg" xmlns:xlink="http://www.w3.org/1999/xlink" x="0px" y="0px"
	 width="100%" height="100%" viewBox="0 0 346.261 200" enable-background="new 0 0 346.261 200" xml:space="preserve">
<path fill="#F4B2AF" d="M292.691,89.086c4.54-18.305,17.404-30.634,30.327-40.545C237.231,61.947,157.333,62.736,90.916,27.138
	c-1.442,0.198-13.373-12.05-13.568-10.619C82.339,28.73,92.525,46.877,92.99,59.552c-25.476-0.218-52.81-5.864-75.819-8.223
	c18.727,11.588,53.184,33.263,34.221,59.178c2.947,1.165,8.208,3.316,10.746,6.005c9.256,9.803,11.333,21.598,10.43,34.128
	c-0.486,6.708-2.402,17.656-2.402,17.656s24.512-10.128,38.418-6.338c14.713,4.016,14.139,18.991,14.139,18.991
	s1.551-4.034,15.756-13.334c22.22-14.542,50.904-20.603,88.312-17.289c-12.01-6.005-23.072-10.113-45.51-12.01
	c-30.022-2.537-50.243,3.867-50.243,3.867l4.42-4.5c0,0,30.023-6.005,59.73-0.946c17.659,3.006,28.578,6.704,44.629,14.583
	c2.259-8.253,6.7-15.888,15.441-18.307c9.92-2.743,19.852,1.602,29.828,1.176c-3.376-11.207-1.243-32.123-1.243-38.614
	C283.842,89.086,292.691,89.086,292.691,89.086z"/>
<g id="XMLID_5_">
	<path fill="#231203" d="M346.261,38.754c0,0-25.225,13.725-33.811,25.406c-12.683,17.257-11.499,32.006-11.499,32.006
		s-6.752-0.578-8.523,2.54c-1.712,21.29,6.119,52.615,6.119,52.615s-20.857-12.635-33.033-8.179
		c-10.738,3.938-12.239,27.754-12.239,27.754s-15.159-9.311-23.246-13.459c-47.721,0.402-63.969,6.252-73.035,10.704
		C124.546,184.074,118.647,200,118.647,200s5.899-31.267-18.025-30.945c-11.743,0.159-23.372,3.039-34.551,5.514
		c3.647-23.775,3.708-62.06-25.89-60.111c7.669-5.901,9.65-8.682,12.249-13.495c3.864-7.158,0.12-14.485-4.534-20.093
		C35.867,66.378,0,46.915,0,44.87c28.019,1.764,59.489,6.585,85.647,6.12C80.349,37.112,66.14,0,66.14,0s10.239,7.545,12.515,9.708
		c1.646,1.568,3.368,3.05,5.149,4.459c3.822,3.019,7.907,5.7,12.131,8.116c9.156,5.238,18.978,9.287,28.977,12.614
		c23.777,7.917,48.825,12.015,73.758,13.993c12.734,1.011,25.524,1.422,38.3,1.222c12.538-0.198,25.465,0.074,37.926-1.379
		c25.846-3.013,65.254-36.899,65.254-36.899l-25.632,32.415C314.517,44.249,325.728,43.657,346.261,38.754 M292.691,89.086
		c4.54-18.305,17.404-30.634,30.327-40.545C237.231,61.947,157.333,62.736,90.916,27.138c-1.442,0.198-13.373-12.05-13.568-10.619
		C82.339,28.73,92.525,46.877,92.99,59.552c-25.476-0.218-52.81-5.864-75.819-8.223c18.727,11.588,53.184,33.263,34.221,59.178
		c2.947,1.165,8.208,3.316,10.746,6.005c9.256,9.803,11.333,21.598,10.43,34.128c-0.486,6.708-2.402,17.656-2.402,17.656
		s24.512-10.128,38.418-6.338c14.713,4.016,14.139,18.991,14.139,18.991s1.551-4.034,15.756-13.334
		c22.22-14.542,50.904-20.603,88.312-17.289c-12.01-6.005-23.072-10.113-45.51-12.01c-30.022-2.537-50.243,3.867-50.243,3.867
		l4.42-4.5c0,0,30.023-6.005,59.73-0.946c17.659,3.006,28.578,6.704,44.629,14.583c2.259-8.253,6.7-15.888,15.441-18.307
		c9.92-2.743,19.852,1.602,29.828,1.176c-3.376-11.207-1.243-32.123-1.243-38.614C283.842,89.086,292.691,89.086,292.691,89.086z"/>
</g>
<g id="XMLID_3_">
	<path fill="#231203" d="M91.976,126.47c-0.883,0.325-1.395,1.356-2.102,2.1c-2.265,2.374-5.704,4.223-8.625,6.312
		c-0.396-1.213,1.146-1.992,1.891-2.525c0.907-0.65,2.069-1.271,2.944-1.893c1.933-1.38,3.447-2.995,5.053-4.419
		c0.014-1.46,0.788-2.152,1.468-2.943c0.768,0.186,1.126-0.373,1.475,0c0.388-0.946,0.562-2.104,0.628-3.368
		c-0.561-0.739-1.462-0.596-2.518-0.414c-7.822-2.98-14.534-7.066-17.038-15.356c-0.174-0.591,0.291-0.547,0.211-1.054
		c-0.005-0.764-0.599-0.939-0.847-1.465c0-0.497,0-0.985,0-1.476c-2.022-6.221,0.175-13.115,4.417-15.561
		c-0.256,1.203-2.081,4.503,0.84,4.622c-1.569,2.263,2.855,3.416,3.789,1.475c0.789-2.81-0.145-5.411,0.213-7.995
		c0.065-0.52,0.443-0.862,0.629-1.471c0.277-0.948,0.181-2.255,0.423-3.153c0.313-1.211,1.042-2.556,1.679-3.79
		c2.138-4.127,5.242-6.711,9.04-9.251c3.447-0.614,7.347-3.332,12.203-2.943c0.767,0.059,2.067-0.169,3.154,0
		c0.643,0.104,0.956,0.532,1.68,0.839c0.3,0.133,0.751-0.122,1.05,0c0.148,0.06,0.294,0.592,0.424,0.636
		c0.375,0.109,0.966-0.139,1.266,0c0.774,0.359,1.248,1.117,1.89,1.469c2.228-0.263,3.309,0.621,4.418,1.475
		c0.221,0.78-0.523,0.6-0.423,1.265c1.797-0.578,2.221,1.771,3.579,2.306c0.204,0.841-0.63,0.638-0.425,1.476
		c0.3,0.898,1.841,0.541,1.68,1.891c-0.861,0.329-2.073,0.308-2.103,1.476c0.854,0.636,2.248-1.671,2.949,0
		c-0.057,1.279-2.138,0.525-2.102,1.892c1.132,0.475,1.241-0.577,2.307-0.416c2.64,0.386,3.118,5.191,3.155,7.99
		c-1.63-1.113-2.234-3.158-4.623-3.158c-1.066,0-2.774,1.2-4.629,1.471c-2.607,0.386-4.805-0.256-6.098,1.262
		c-1.38-0.262-2.569-0.891-4.206-1.052c-2.9-0.282-6.019,1.134-8.201-0.21c-0.673,0.663-1.601,1.072-1.688,2.314
		c-0.504,0.131-0.956,0.305-1.679,0.212c-0.409,1.548-1.271,2.659-2.315,3.578c1.168,1.007-0.48,1.71,0,3.78
		c3.316,2.359,6.078,7.458,4.208,13.044c-0.673,0.159-0.921,0.758-1.47,1.05c0.309,1.564-0.487,2.038-1.052,2.733
		c0.023,0.591,0.789,0.891,0.206,1.475c-1.211-0.133-1.985-0.277-3.156,0c-0.108,2.212,1.08,3.125,2.315,3.993
		c0.905,0.277,0.265-1.002,1.053-0.839c2.446,6.74,9.188,9.181,14.509,13.034c5.332,1.286,12.006,2.288,14.723-1.679
		c0.612-0.898,1.322-3.191,1.474-4.63c0.534-5.018,2.746-9.398,3.369-14.724c0.225-1.941-0.418-3.291-0.638-4.621
		c-1.001-0.327-1.139-1.524-1.466-2.525c-1.302-0.108-2.046,0.344-2.739,0.84c0,0.562,0,1.124,0,1.686
		c1.322,0.19,1.146-1.102,2.527-0.847c-0.562,2.928-4.419,1.681-6.734,2.524c0.372,1.572,0.774,3.158,1.477,4.419
		c0.343,0.621,1.539,1.091,1.05,1.894c-1.663,0.088-2.192-2.367-2.942-3.58c-0.176-0.27-0.944-1.87-1.051-2.518
		c-1.185-7.054,3.271-10.479,8.413-11.779c0.209-0.987-0.85-0.701-0.637-1.679c0.203-0.366,0.7-0.426,0.846-0.849
		c0.097-3.196,0.197-5.046,0.207-7.565c1.247-0.057,1.071,1.314,1.263,2.31c0.907,1.394,1.097,4.629,3.153,4.418
		c1.264-0.133,1.739-1.608,1.264-3.571c1.32-0.153,1.846-1.097,2.524-1.898c-0.231-0.884-1.413-1.716-0.846-2.731
		c0.681,0.13,1.212,0.884,1.688,1.474c1.072,1.329,2.22,4.062,2.52,6.938c0.094,0.876-0.087,1.892,0,2.73
		c0.08,0.724,0.432,1.432,0.421,2.104c-0.012,1.027-0.663,2.022-0.837,3.155c-0.207,1.298,0.318,2.481-0.637,3.152
		c0.008,2.653-1.196,4.697-2.31,6.52c-0.465,0.762-0.852,1.757-1.262,2.315c-0.364,0.506-1.071,0.754-1.474,1.264
		c-0.345,0.447-0.497,1.169-0.84,1.679c-0.979,1.45-2.426,2.748-4.205,3.579c-0.046,1.649-1.082,3.147-1.477,4.837
		c-0.531,2.308-0.402,4.4-1.47,6.094c-0.099,0.17-0.274,0.133-0.422,0.425c-0.95,1.956-4.127,2.711-7.149,3.158
		c0.512,2.565,1.964,4.606,3.367,6.519c0.948,1.29,2.357,2.521,2.313,4.204c-1.702-0.562-2.593-1.89-4.416-1.89
		c-4.865-0.015-6.215,6.552-7.362,10.93c-1.702-2.34,0.469-5.298,0.213-8.197c1.248-4.074,2.313-8.334,4.624-11.358
		c-1.995-0.925-4.243-0.858-6.101-1.472c-0.926-0.3-7.22-4.478-7.988-5.048c-1.518-1.124-6.216-5.931-6.943-7.15
		c-0.835-0.004-1.22-0.466-1.894-0.633c-0.621,0.577-1.103,1.283-1.679,1.897c-0.352,2.008,0.518,5.099-0.636,6.726
		c5.952,3.871,11.729,7.909,14.307,15.146c-0.185,1.234,0.21,1.893,0.628,2.521c0.335,3.043,0.416,7.595,1.679,10.098
		c0.438,0.861,1.468,1.649,1.051,2.732c-2.656-1.967-3.184-6.071-5.045-8.833c-0.972-3.509-2.024-6.944-5.047-8.408
		c-5.693,0.04-9.04,2.451-12.616,4.618c-0.308-1.368,0.825-2.633,1.474-3.783c0.701-1.253,1.257-2.525,1.892-3.786
		C93.13,131.062,93,128.315,91.976,126.47z M138.245,99.333c0.891-2.06,2.818-4.169,1.893-7.36
		c-1.002,0.899-2.513,1.278-3.784,1.897c-1.093-0.729-1.62-2.028-3.153-2.314c0.524,2.512,2.184,3.141,2.731,5.258
		c-0.021,0.329-0.534,0.162-0.424,0.628C136.924,97.815,135.958,99.62,138.245,99.333z M139.506,90.504
		c0.01-0.824-0.692-1.681-1.262-1.265C138.26,90.067,138.911,90.264,139.506,90.504z M130.674,95.973
		c0.167-1.079-0.293-1.525-0.214-2.525c-2.401,0.474-4.154,1.59-5.044,3.577C126.86,96.258,128.59,95.507,130.674,95.973z
		 M123.311,136.986c0.512,0.114,0.447,0.81,1.265,0.628c-0.051-1.228-1.491-2.192-2.315-3.368c-0.531-0.75-0.788-1.612-1.263-2.314
		c-0.038-0.592,0.183-1.438-0.416-1.468c-1.752,2.803-3.22,5.894-3.792,9.88C118.447,138.705,119.89,136.852,123.311,136.986z
		 M117.629,69.684c-0.313-1.853-0.786-3.554-2.103-4.417c-0.234,0.394-0.247,1.015-1.053,0.84c-0.581-0.117-0.581-0.811-0.84-1.263
		c-1.911,0-2.641-2.221-4.62-1.469c0,0.204,0,0.418,0,0.629c0.868,0.32,1.848,0.532,2.103,1.476
		c-1.234-0.614-1.513,1.859-1.687,2.314c-0.862-0.542-1.374-1.438-2.52-1.688c1.074,2.153,2.606,3.842,4.621,5.047
		c0.418-0.141-0.129-1.25,0.637-1.052c0.284,0.832,0.937,1.307,1.89,1.475c0.032-0.249-0.035-0.599,0.216-0.636
		C115.76,71.241,116.41,70.496,117.629,69.684z M116.579,74.095c0.338-0.312,0.315-1.198-0.416-1.051
		C115.829,73.359,115.856,74.25,116.579,74.095z M109.43,147.076c0-0.554,0.117-1.238-0.416-1.264
		C109.137,146.251,108.67,147.276,109.43,147.076z M108.803,145.608c0.612-1.745-0.44-3.76-0.637-5.265
		c-0.197-1.505-0.921-3.162-1.469-4.622c-0.546-1.461-1.833-2.252-2.736-3.365c-0.914-1.139-1.745-2.377-2.942-3.368
		c-2.295-1.908-5.456-2.825-7.363-5.258c-0.211,0-0.416,0-0.627,0c-0.116,0.307-0.329,0.521-0.635,0.636
		c0.101,1.55,1.232,2.951,1.477,4.837c0.23,1.83,0.75,3.435,0.419,5.679c-0.326,2.241-1.779,2.98-2.736,4.411
		c3.279-1.486,6.054-3.486,11.151-3.146c3.221,1.261,3.987,4.98,5.462,7.987C108.196,144.806,107.96,145.742,108.803,145.608z
		 M104.597,69.684c0.875,0.599,2.687,0.644,3.781,0.418c-0.556-1.476-1.921-2.142-2.944-3.156
		C104.9,67.612,104.574,68.465,104.597,69.684z M102.493,75.571c0.059-0.548-0.081-0.906-0.637-0.84
		c-0.006,0.126-0.027,0.248-0.203,0.211C101.588,75.497,101.945,75.629,102.493,75.571z M100.176,74.942
		c-1.417,0.19-1.889-0.314-3.576,0c-0.358,0.271,0,1.257-0.629,1.265c-2.569-0.476-2.95,1.248-5.045,1.257
		c-0.469,0.306,0.263,0.518-0.213,0.634c-2.263,0.022-1.52,1.84-3.153,2.308c0.808,1.235-0.885,2.849-1.266,4.214
		c0.789,1.031,2.497,1.05,1.689,3.146c0.254,0.584,1.015,0.673,1.466,1.052c1.819,3.097,5.104,4.711,7.784,6.945
		c0.292,0.271,0.127,0.993,0.416,1.263c0.521-0.029,1.016-0.035,1.266,0.206c-0.147,1.197,0.54,1.569,1.261,1.896
		c-0.129-1.058-0.523-1.854-1.261-2.314c-1.257-3.365-5.296-3.957-7.15-6.731c0.435-1.914-1.088-2.243-0.425-3.783
		c-0.679,0.051-1.005-0.249-1.048-0.841c0.027-0.54,0.122-1.006,0.421-1.261c0.351,0,0.7,0,1.052,0
		c-0.016-0.9,0.692-1.076,0.628-1.478c0.211-0.475,1.146,0.461,1.477-0.21c-0.046-0.782,2.867-0.409,3.363,0.21
		c0.365-0.752,1.403-0.839,1.682-1.681c-0.799-0.466-1.353-1.174-1.471-2.314c-0.283-0.416-1.468,0.066-1.474-0.627
		c0.453-0.46,0.724-1.104,1.051-1.686c0.571,0.263,0.527,0.81,1.266,0.423c0.116-0.307-0.249-1.089,0.21-1.052
		C99.249,76.337,99.99,75.986,100.176,74.942z M98.075,107.957c-0.635-0.881-1.978,0.226-2.527-0.629
		c-0.08,0.358,0.313,0.544,0,0.629c-0.286-0.333-0.591-0.662-0.84-1.051c-1.986,0.03-2.831,0.729-4.623,0.211
		c0.183,0.681-0.548,0.437-0.635,0.84c1.563,1.818,3.827,1.309,6.734,1.265C96.536,108.526,97.68,108.615,98.075,107.957z
		 M92.19,85.665c0.08-0.571,1.32-1.183,0.415-1.468C92.401,84.482,91.005,85.35,92.19,85.665z M92.394,103.124
		c0.131-1.957-1.403-2.243-2.102-3.367c-0.755-0.05-0.769,0.636-1.471,0.628c-0.495-1.19-2.389-0.824-2.942,0
		c0.335,0.433,1.511,0.84,0.628,1.265c0.365,0.538,1.934,1.193,1.053,1.686C88.851,104.984,90.765,103.494,92.394,103.124z
		 M85.032,109.221c0.394-0.314,1.964,1.59,2.316,0c-0.899,0-1.549-0.415-1.893-0.629c-0.181-0.118-0.569-0.06-0.841-0.211
		c-0.096-0.052-0.101-0.547-0.209-0.636c-0.491-0.389-1.469-0.658-1.894-1.051c-1.153-1.068-2.722-3.501-2.941-5.251
		c-0.212,0-0.423,0-0.637,0C79.467,105.531,82.249,107.379,85.032,109.221z M85.879,105.641c0.321-1.021-0.772-0.628-1.05-1.05
		c-0.067-1.198-1.111-1.416-1.052-2.731c-0.527-0.029-0.656,0.327-1.051,0.422c-0.321-0.312-0.066-1.202-0.85-1.051
		c-0.796,1.623,0.681,2.644,1.264,3.571C84.775,104.366,84.638,105.693,85.879,105.641z M81.037,96.18
		c0.818,0.511,2.564-1.594,1.689-2.098C82.316,94.936,81.272,95.156,81.037,96.18z M80.409,99.333
		c0.907,0.153,0.688-1.087,0.212-1.255C80.374,98.325,80.381,98.815,80.409,99.333z"/>
	<path fill="#231203" d="M128.569,74.731c1.76,0.089,2.513,2.221,2.317,3.572C129.877,77.353,128.853,76.402,128.569,74.731z"/>
	<path fill="#231203" d="M128.569,115.529c0.389,0.592-0.599,1.265-1.051,1.679c-0.151,0.65,0.576,0.41,0.424,1.062
		c-0.848,5.842-9.967,3.228-11.991,0.203c0.051-0.861,1.022-0.795,1.892-0.84c1.43-0.81,3.088-1.401,4.418-2.314
		c0.999-0.089,1.725,0.104,2.315,0.422C125.818,114.427,126.708,115.429,128.569,115.529z M123.1,118.897
		c1.088-0.251,2.915,0.211,3.155-0.839c-2.213,0.166-3.916,0.847-6.099,1.05C121.289,119.625,122.422,119.048,123.1,118.897z"/>
	<path fill="#231203" d="M126.255,109.849c0.7,0.219,1.241,0.584,1.263,1.472c-0.904,0.987-1.861,1.923-2.73,2.947
		c-1.177-0.081-1.744-0.784-2.527-1.265c-0.987,0.285-1.416,1.745-2.73,1.05C120.15,111.037,125.341,112.585,126.255,109.849z"/>
	<path fill="#231203" d="M116.79,103.124c-1.263,0.066-5.2-2.761-5.044,1.054c1.386,0.267,1.956-1.187,3.154-0.425
		c-0.804,1.35-4.345,2.577-6.939,1.686c-1.663-0.576-2.335-2.614-3.787-2.943c1.516-2.62,5.401-2.875,9.674-2.738
		C114.935,100.773,116.5,101.313,116.79,103.124z"/>
	<path fill="#231203" d="M113.634,96.813c1.147,0.236,2.783,0.205,2.944,1.468c-2.731,1.031-6.572-0.584-10.092-0.416
		c-1.438,0.064-2.686,0.987-3.994,0.416C104.865,96.238,109.844,96.047,113.634,96.813z"/>
</g>
<g>
	<path fill="#231203" d="M180.952,81.165c-0.204,0.1-0.418,0.169-0.641,0.203c-0.048,0-0.104,0.004-0.162,0.014
		c-0.06,0.009-0.122,0.015-0.192,0.015c-0.373,0-0.699-0.109-0.979-0.323c-0.277-0.219-0.418-0.579-0.418-1.084
		c0-0.307,0.074-0.532,0.229-0.677c0.152-0.146,0.312-0.226,0.484-0.244c0.016,0,0.026,0,0.037,0c0.008,0,0.022,0,0.041,0
		c0.182,0,0.344,0.06,0.48,0.178c0.134,0.116,0.203,0.292,0.203,0.525c0,0.019,0,0.046,0,0.081c0,0.037-0.007,0.074-0.025,0.109
		c0.218,0.019,0.422-0.072,0.599-0.272c0.178-0.195,0.285-0.414,0.314-0.648c0-0.019,0-0.041,0-0.068s0-0.048,0-0.066
		c0-0.107-0.011-0.213-0.048-0.311c-0.037-0.1-0.096-0.186-0.178-0.259c-0.17-0.161-0.369-0.289-0.595-0.379
		c-0.233-0.087-0.466-0.154-0.703-0.19c-0.122-0.016-0.232-0.03-0.344-0.037c-0.11-0.012-0.218-0.015-0.317-0.015
		c-1.173,0-2.215,0.369-3.133,1.108c-0.913,0.74-1.746,1.552-2.492,2.438c-0.085,0.125-0.178,0.247-0.279,0.364
		c-0.102,0.116-0.194,0.23-0.279,0.338c1.305,0.795,2.241,1.86,2.811,3.194c0.57,1.335,1.047,2.716,1.438,4.142
		c0.033,0.07,0.06,0.145,0.078,0.215c0.015,0.071,0.029,0.144,0.048,0.218c0.104,0.358,0.203,0.725,0.307,1.095
		c0.1,0.369,0.211,0.735,0.329,1.098c0.052,0.18,0.141,0.311,0.267,0.391c0.129,0.083,0.27,0.124,0.422,0.124
		c0.018,0,0.033,0,0.051,0c0.016,0,0.034,0,0.053,0c0.188-0.019,0.362-0.091,0.532-0.219c0.17-0.126,0.288-0.279,0.354-0.458
		c0.052-0.145,0.141-0.257,0.271-0.341c0.125-0.081,0.259-0.122,0.392-0.122c0.137,0.019,0.263,0.06,0.373,0.122
		c0.107,0.066,0.189,0.169,0.24,0.312c0.053,0.146,0.089,0.294,0.111,0.446c0.026,0.153,0.041,0.303,0.041,0.447
		c0,0.595-0.17,1.149-0.511,1.663c-0.34,0.517-0.754,0.899-1.246,1.15c-0.336,0.182-0.698,0.329-1.083,0.447
		c-0.381,0.118-0.766,0.203-1.153,0.257c-0.122,0-0.244,0.004-0.37,0.014c-0.13,0.009-0.259,0.015-0.396,0.015
		c-0.799,0-1.551-0.178-2.268-0.529c-0.71-0.351-1.287-0.924-1.73-1.717c-0.37-0.705-0.685-1.436-0.939-2.193
		c-0.255-0.76-0.466-1.534-0.634-2.327c-0.021-0.037-0.029-0.076-0.039-0.122c-0.009-0.045-0.013-0.085-0.013-0.122
		c-0.139-0.523-0.32-1.006-0.548-1.447c-0.229-0.442-0.63-0.708-1.211-0.797c-0.081-0.021-0.155,0.011-0.214,0.092
		c-0.06,0.082-0.107,0.167-0.141,0.259c-0.017,0.017-0.029,0.045-0.039,0.08c-0.007,0.035-0.013,0.064-0.013,0.083l-1.346,6.223
		c-0.021,0.126-0.052,0.244-0.104,0.352c-0.049,0.109-0.104,0.218-0.153,0.325c0.017,0,0.031,0,0.036,0c0.01,0,0.022,0,0.039,0
		c0.511,0,0.958-0.041,1.35-0.122c0.389-0.079,0.755-0.354,1.095-0.824c0.083-0.126,0.181-0.215,0.277-0.259
		c0.105-0.043,0.207-0.066,0.309-0.066c0.185,0,0.342,0.066,0.468,0.203c0.128,0.137,0.194,0.303,0.194,0.499
		c0,0.037-0.006,0.078-0.013,0.122c-0.012,0.044-0.021,0.087-0.037,0.122c0,0.056-0.017,0.104-0.039,0.147
		c-0.027,0.047-0.054,0.089-0.091,0.124c-0.321,0.451-0.725,0.815-1.205,1.097c-0.488,0.279-0.998,0.42-1.542,0.42
		c-0.749,0-1.486,0-2.226,0c-0.74,0-1.481,0-2.229,0c-0.746,0-1.487,0-2.227,0c-0.738,0-1.479,0-2.225,0
		c-0.24,0-0.422-0.078-0.548-0.231c-0.128-0.151-0.191-0.32-0.191-0.499c0-0.019,0-0.033,0-0.041c0-0.009,0-0.023,0-0.04
		c0.018-0.163,0.089-0.312,0.215-0.448c0.131-0.135,0.302-0.203,0.524-0.203c0.271,0,0.521-0.1,0.75-0.296
		c0.229-0.199,0.378-0.435,0.444-0.706c0.271-1.226,0.539-2.447,0.802-3.664c0.264-1.221,0.53-2.44,0.803-3.672
		c0.253-1.205,0.511-2.424,0.774-3.649c0.263-1.228,0.532-2.446,0.803-3.655c0.033-0.125,0.068-0.244,0.102-0.353
		c0.035-0.107,0.085-0.215,0.151-0.324c-0.438,0-0.834,0.054-1.182,0.163c-0.347,0.107-0.677,0.368-0.982,0.784
		c-0.082,0.127-0.176,0.212-0.277,0.257c-0.101,0.044-0.203,0.07-0.306,0.07c-0.169,0-0.32-0.074-0.459-0.219
		c-0.135-0.144-0.201-0.307-0.201-0.486c0-0.038,0.002-0.077,0.012-0.123c0.008-0.045,0.02-0.093,0.037-0.148
		c0-0.037,0.013-0.077,0.038-0.122c0.028-0.044,0.055-0.085,0.089-0.122c0.322-0.451,0.731-0.815,1.222-1.096
		c0.492-0.279,1.001-0.42,1.529-0.42c0.745,0,1.484,0,2.224,0c0.74,0,1.481,0,2.229,0c0.746,0,1.49,0,2.224,0
		c0.739,0,1.482,0,2.228,0c0.237,0,0.422,0.077,0.548,0.229c0.127,0.155,0.19,0.331,0.19,0.53c0,0.18-0.063,0.342-0.19,0.486
		c-0.126,0.145-0.311,0.216-0.548,0.216c-0.338,0-0.66,0.054-0.967,0.163c-0.303,0.107-0.501,0.389-0.584,0.84
		c-0.104,0.45-0.205,0.899-0.305,1.351c-0.102,0.451-0.196,0.896-0.279,1.328c-0.104,0.451-0.203,0.901-0.296,1.353
		s-0.19,0.902-0.292,1.354c0.358-0.435,0.735-0.911,1.135-1.435c0.396-0.523,0.808-1.046,1.231-1.569
		c1.035-1.3,2.18-2.481,3.437-3.546c1.253-1.063,2.628-1.596,4.122-1.596c0.203,0,0.41,0.013,0.621,0.041
		c0.215,0.025,0.429,0.066,0.651,0.122c0.694,0.179,1.264,0.508,1.704,0.987c0.443,0.477,0.662,1.013,0.662,1.61
		c0,0.088-0.008,0.187-0.026,0.297c-0.015,0.107-0.04,0.207-0.074,0.3c-0.069,0.196-0.162,0.394-0.28,0.594
		c-0.118,0.197-0.281,0.397-0.484,0.593C181.333,80.945,181.151,81.065,180.952,81.165z"/>
	<path fill="#231203" d="M196.458,89.041c0.045,0.281,0.063,0.545,0.063,0.799c0,1.479-0.515,2.747-1.539,3.801
		c-1.027,1.058-2.218,1.757-3.575,2.101c-0.474,0.089-0.961,0.164-1.464,0.229c-0.499,0.062-1.002,0.096-1.509,0.096
		c-1.039,0-2.052-0.161-3.043-0.476c-0.995-0.315-1.845-0.88-2.559-1.691c-0.492-0.577-0.851-1.182-1.08-1.813
		c-0.232-0.631-0.336-1.271-0.317-1.921c0-1.118,0.292-2.188,0.876-3.21c0.584-1.017,1.346-1.859,2.277-2.528
		c0.644-0.451,1.446-0.84,2.403-1.163c0.958-0.327,1.949-0.534,2.966-0.623c0.137,0,0.27-0.004,0.406-0.013
		c0.138-0.01,0.271-0.014,0.407-0.014c0.813,0.017,1.594,0.132,2.341,0.337c0.746,0.207,1.394,0.565,1.934,1.068
		c0.307,0.29,0.551,0.619,0.725,0.989c0.181,0.37,0.267,0.754,0.267,1.15c-0.019,0.29-0.07,0.563-0.163,0.826
		c-0.097,0.263-0.251,0.51-0.474,0.743c0.089-0.033,0.159-0.06,0.219-0.066c0.059-0.01,0.114-0.015,0.166-0.015
		c0.133,0,0.233,0.048,0.303,0.137c0.07,0.09,0.13,0.226,0.182,0.404C196.355,88.477,196.418,88.761,196.458,89.041z
		 M194.958,88.567c-0.008-0.019-0.015-0.033-0.015-0.052c-0.015-0.055-0.03-0.105-0.037-0.151c-0.008-0.044-0.011-0.085-0.011-0.122
		c0-0.019,0-0.029,0-0.041c0-0.007,0-0.021,0-0.04c0.018-0.017,0.025-0.035,0.025-0.054c-0.137,0.072-0.281,0.143-0.433,0.203
		c-0.151,0.063-0.303,0.104-0.458,0.12c-0.052,0.019-0.104,0.03-0.155,0.03c-0.049,0-0.101,0-0.152,0
		c-0.255,0-0.495-0.051-0.725-0.15c-0.229-0.098-0.437-0.257-0.621-0.473c-0.118-0.163-0.214-0.343-0.281-0.542
		c-0.066-0.2-0.092-0.397-0.073-0.596c0-0.037,0-0.066,0-0.096c0-0.026,0-0.058,0-0.093c0-0.019,0-0.044,0.011-0.081
		c0.008-0.037,0.011-0.063,0.011-0.081c0.052-0.219,0.141-0.37,0.267-0.463c0.13-0.089,0.27-0.133,0.422-0.133
		c0.17,0,0.321,0.062,0.458,0.188s0.203,0.3,0.203,0.514c0,0.019,0,0.052,0,0.095c0,0.046-0.011,0.087-0.025,0.124
		c0,0.019,0,0.033,0,0.04c0,0.008,0,0.022,0,0.041c0,0.07,0.033,0.13,0.089,0.174c0.059,0.046,0.133,0.06,0.214,0.041
		c0.052,0,0.104-0.004,0.155-0.016c0.049-0.007,0.101-0.02,0.152-0.036c0.118-0.037,0.236-0.097,0.358-0.178
		c0.118-0.079,0.203-0.174,0.255-0.285c0.015-0.054,0.026-0.106,0.037-0.162c0.007-0.052,0.011-0.107,0.011-0.163
		c0-0.305-0.137-0.543-0.421-0.717c-0.277-0.171-0.577-0.283-0.902-0.337c-0.17-0.037-0.344-0.062-0.521-0.081
		s-0.325-0.028-0.443-0.028c-1.206,0-2.315,0.538-3.336,1.61c-1.017,1.074-1.611,2.26-1.778,3.56c0,0.09-0.007,0.187-0.015,0.282
		c-0.007,0.102-0.011,0.196-0.011,0.287c0,0.416,0.059,0.824,0.181,1.23c0.111,0.405,0.311,0.79,0.581,1.15
		c0.34,0.449,0.725,0.776,1.157,0.975c0.433,0.199,0.888,0.288,1.36,0.27c0.07,0,0.141,0,0.219,0c0.073,0,0.147-0.009,0.214-0.025
		c0.662-0.074,1.31-0.3,1.938-0.677c0.625-0.379,1.124-0.84,1.498-1.38c0.255-0.362,0.447-0.754,0.573-1.179
		c0.125-0.426,0.191-0.862,0.191-1.313c0-0.199-0.011-0.392-0.04-0.58c-0.026-0.19-0.063-0.375-0.111-0.555
		C194.972,88.604,194.965,88.585,194.958,88.567z"/>
	<path fill="#231203" d="M215.645,86.633c0.159,0.53,0.24,1.068,0.24,1.608c0,0.056,0,0.115,0,0.178s-0.007,0.129-0.025,0.203
		c-0.048,1.01-0.348,1.985-0.888,2.923c-0.547,0.938-1.198,1.722-1.96,2.354c-0.595,0.488-1.261,0.884-1.996,1.19
		c-0.74,0.308-1.49,0.486-2.256,0.542c-0.085,0.017-0.174,0.027-0.263,0.027c-0.096,0-0.188,0-0.27,0
		c-0.714,0-1.397-0.133-2.063-0.392c-0.662-0.263-1.253-0.691-1.782-1.287c-0.062,0.326-0.133,0.646-0.199,0.962
		c-0.07,0.314-0.137,0.627-0.204,0.932c-0.085,0.325-0.162,0.646-0.229,0.961c-0.07,0.316-0.137,0.637-0.203,0.962
		c-0.02,0.126-0.053,0.248-0.104,0.364c-0.053,0.118-0.101,0.231-0.152,0.34c0.052,0,0.097,0,0.141,0c0.041,0,0.089,0,0.137,0
		c0.24,0,0.47-0.005,0.691-0.015c0.219-0.009,0.44-0.058,0.658-0.149c0.085-0.033,0.174-0.082,0.271-0.136
		c0.092-0.053,0.188-0.116,0.292-0.189c0.033-0.018,0.062-0.034,0.089-0.053c0.025-0.018,0.048-0.036,0.062-0.053
		c0.052-0.037,0.107-0.06,0.166-0.068c0.06-0.012,0.104-0.016,0.137-0.016c0.188,0.019,0.352,0.105,0.488,0.259
		c0.134,0.152,0.204,0.318,0.204,0.5c0,0.11-0.026,0.218-0.078,0.325c-0.052,0.109-0.126,0.197-0.233,0.27
		c-0.284,0.254-0.606,0.447-0.965,0.581c-0.354,0.137-0.717,0.205-1.091,0.205c-1.072,0-2.141,0-3.209,0s-2.138,0-3.202,0
		c-0.17,0-0.329-0.076-0.474-0.229s-0.214-0.331-0.214-0.528c0-0.019,0.007-0.035,0.021-0.056c0-0.017,0-0.029,0-0.039
		c0-0.009,0-0.022,0-0.041c0.255-1.137,0.503-2.273,0.755-3.409c0.244-1.137,0.491-2.281,0.746-3.438
		c0.241-1.153,0.481-2.306,0.729-3.449c0.244-1.146,0.492-2.285,0.751-3.424c0.029-0.126,0.07-0.244,0.114-0.352
		c0.041-0.107,0.089-0.217,0.141-0.325c-0.443,0-0.835,0.054-1.187,0.162c-0.348,0.109-0.673,0.37-0.977,0.784
		c-0.085,0.126-0.181,0.213-0.28,0.259c-0.104,0.044-0.204,0.066-0.308,0.066c-0.17,0-0.321-0.07-0.458-0.216
		c-0.137-0.145-0.2-0.31-0.2-0.488c0-0.035,0-0.076,0.012-0.12c0.007-0.045,0.019-0.097,0.037-0.15c0-0.035,0.011-0.075,0.036-0.12
		c0.026-0.046,0.056-0.087,0.089-0.123c0.341-0.45,0.755-0.815,1.235-1.097c0.484-0.279,0.994-0.42,1.538-0.42
		c0.987,0,1.967,0,2.954,0c0.983,0,1.967,0,2.951,0c0.27,0,0.451,0.068,0.536,0.203c0.085,0.136,0.118,0.304,0.1,0.501
		c0,0.037,0,0.072,0,0.107c0,0.037,0,0.074,0,0.109c-0.015,0.091-0.037,0.185-0.052,0.283c-0.015,0.102-0.033,0.195-0.048,0.286
		c0.54-0.397,1.143-0.723,1.804-0.975c0.662-0.251,1.332-0.406,2.008-0.46c0.107-0.017,0.204-0.027,0.296-0.027
		c0.093,0,0.192,0,0.292,0c0.762,0,1.498,0.144,2.2,0.432c0.703,0.289,1.32,0.777,1.846,1.463
		C215.216,85.6,215.486,86.101,215.645,86.633z M208.942,85.578c-0.188-0.116-0.381-0.176-0.584-0.176
		c-0.089,0-0.171,0.008-0.256,0.026c-0.089,0.019-0.174,0.044-0.259,0.081c-0.236,0.091-0.462,0.226-0.684,0.407
		c-0.222,0.179-0.414,0.388-0.585,0.621c-0.188,0.234-0.369,0.506-0.535,0.812c-0.171,0.309-0.322,0.642-0.459,1.004
		c-0.019,0.07-0.033,0.147-0.048,0.228c-0.019,0.081-0.033,0.16-0.052,0.23c-0.07,0.362-0.137,0.718-0.203,1.068
		c-0.07,0.352-0.104,0.699-0.104,1.043c0,0.288,0.029,0.577,0.092,0.865c0.056,0.288,0.163,0.579,0.314,0.865
		c0.155,0.288,0.321,0.494,0.507,0.61c0.188,0.118,0.388,0.176,0.588,0.176c0.07,0,0.137-0.008,0.203-0.028
		c0.07-0.017,0.137-0.033,0.203-0.052c0.24-0.092,0.478-0.232,0.714-0.421c0.24-0.188,0.451-0.399,0.636-0.636
		c0.341-0.415,0.633-0.938,0.876-1.57c0.248-0.63,0.411-1.281,0.5-1.946c0.015-0.13,0.029-0.252,0.037-0.381
		c0.007-0.126,0.015-0.252,0.015-0.377c0-0.345-0.037-0.674-0.104-0.987c-0.067-0.318-0.178-0.61-0.333-0.882
		C209.29,85.886,209.126,85.694,208.942,85.578z"/>
	<path fill="#231203" d="M228.125,84.533c-0.474,0.095-1.024,0.138-1.653,0.138c-0.018,0-0.029,0-0.036,0c-0.012,0-0.022,0-0.037,0
		c-0.155,0.739-0.311,1.484-0.474,2.233c-0.162,0.748-0.325,1.501-0.495,2.259c-0.171,0.739-0.333,1.482-0.496,2.233
		c-0.159,0.749-0.317,1.501-0.473,2.259c-0.019,0.126-0.048,0.244-0.101,0.352c-0.051,0.109-0.104,0.218-0.151,0.325
		c0.204,0,0.396-0.004,0.585-0.011c0.188-0.012,0.365-0.043,0.532-0.097c0.104-0.037,0.21-0.081,0.321-0.135
		c0.107-0.054,0.222-0.127,0.34-0.218c0.037-0.035,0.074-0.066,0.115-0.095c0.044-0.025,0.089-0.04,0.141-0.04
		c0.037-0.019,0.07-0.032,0.114-0.041c0.041-0.008,0.078-0.013,0.114-0.013c0.189,0,0.341,0.072,0.459,0.216
		c0.118,0.146,0.178,0.316,0.178,0.514c0,0.109-0.019,0.213-0.063,0.312c-0.044,0.1-0.122,0.195-0.24,0.284
		c-0.27,0.234-0.588,0.425-0.942,0.567c-0.355,0.146-0.722,0.219-1.095,0.219h-7.48c-0.236,0-0.417-0.078-0.547-0.231
		c-0.126-0.151-0.188-0.32-0.188-0.499c0-0.019,0-0.033,0-0.041c0-0.009,0-0.023,0-0.04c0.015-0.163,0.089-0.312,0.215-0.448
		c0.125-0.135,0.299-0.203,0.521-0.203c0.019,0,0.033,0,0.052,0c0.016,0,0.033,0,0.052,0c0.233-0.037,0.455-0.151,0.662-0.352
		c0.203-0.199,0.337-0.414,0.403-0.65c0.151-0.721,0.307-1.442,0.458-2.163s0.314-1.443,0.484-2.167
		c0.151-0.721,0.308-1.441,0.459-2.166c0.151-0.72,0.303-1.44,0.454-2.163c-0.033,0-0.066,0-0.1,0s-0.066,0-0.1,0
		c-0.373,0-0.71,0.027-1.006,0.081c-0.299,0.052-0.58,0.263-0.851,0.623c-0.089,0.126-0.177,0.216-0.28,0.27
		s-0.207,0.072-0.308,0.054c-0.17,0-0.321-0.072-0.454-0.214c-0.141-0.145-0.207-0.308-0.207-0.488c0-0.091,0.011-0.178,0.036-0.257
		c0.026-0.084,0.074-0.159,0.141-0.229c0.478-0.65,0.995-1.03,1.554-1.137c0.558-0.109,1.179-0.165,1.855-0.165
		c0.033,0,0.078,0,0.126,0c0.056,0,0.107,0,0.155,0h0.025c-0.066-0.234-0.125-0.462-0.162-0.689
		c-0.045-0.226-0.066-0.455-0.066-0.689c0-1.316,0.506-2.494,1.53-3.531c1.014-1.037,2.142-1.647,3.384-1.828
		c0.096-0.017,0.207-0.032,0.314-0.039c0.114-0.01,0.218-0.013,0.317-0.013c0.529,0,1.032,0.098,1.517,0.297
		c0.484,0.198,0.909,0.531,1.286,1.001c0.182,0.199,0.355,0.479,0.507,0.839s0.263,0.732,0.329,1.109
		c0.019,0.107,0.029,0.211,0.04,0.311c0.008,0.1,0.012,0.203,0.012,0.311c0,0.399-0.1,0.747-0.307,1.043
		c-0.2,0.298-0.551,0.447-1.039,0.447c-0.052,0-0.1-0.004-0.145-0.015c-0.041-0.008-0.078-0.012-0.111-0.012
		c-0.24-0.073-0.454-0.212-0.65-0.421c-0.192-0.207-0.296-0.429-0.296-0.664c0-0.089,0.019-0.17,0.041-0.242
		c0.025-0.072,0.073-0.145,0.141-0.216c0.104-0.128,0.174-0.244,0.218-0.354c0.041-0.107,0.052-0.207,0.037-0.298
		c0-0.146-0.056-0.261-0.166-0.353c-0.107-0.089-0.248-0.134-0.422-0.134c-0.029,0-0.06,0-0.089,0c-0.026,0-0.056,0.008-0.085,0.026
		c-0.137,0.019-0.27,0.077-0.396,0.178c-0.13,0.1-0.24,0.247-0.344,0.447c-0.07,0.126-0.111,0.255-0.141,0.392
		c-0.026,0.133-0.037,0.273-0.037,0.418c0,0.218,0.026,0.433,0.074,0.65c0.052,0.217,0.11,0.433,0.177,0.649
		c0.067,0.216,0.13,0.441,0.182,0.675c0.048,0.236,0.078,0.47,0.078,0.704c0.033,0,0.066,0,0.1,0s0.066,0,0.104,0
		c0.303,0,0.584-0.022,0.839-0.066c0.252-0.046,0.488-0.213,0.714-0.501c0.081-0.126,0.178-0.211,0.277-0.257
		c0.1-0.045,0.203-0.068,0.303-0.068c0.189,0,0.348,0.068,0.474,0.203c0.126,0.137,0.188,0.303,0.188,0.501
		c0,0.035-0.004,0.076-0.011,0.122c-0.008,0.044-0.022,0.087-0.041,0.122c0,0.054-0.011,0.105-0.037,0.147
		c-0.025,0.047-0.056,0.087-0.089,0.122C229.042,84.112,228.601,84.445,228.125,84.533z"/>
</g>
<path fill="#231203" d="M257.365,83.208c-0.008,0.124-0.026,0.246-0.052,0.358c-0.233,1.099-0.791,1.979-1.672,2.643
	c-0.88,0.663-1.834,1.19-2.857,1.58c-0.233,0.087-0.463,0.17-0.703,0.25c-0.236,0.077-0.473,0.155-0.702,0.226
	c0.056,0.218,0.1,0.431,0.129,0.64c0.026,0.211,0.041,0.416,0.041,0.617c-0.015,1.416-0.559,2.653-1.634,3.715
	c-1.072,1.059-2.26,1.865-3.562,2.412c-0.214,0.087-0.437,0.166-0.658,0.238c-0.226,0.072-0.443,0.137-0.661,0.196
	c-0.407,0.116-0.836,0.201-1.302,0.261c-0.459,0.058-0.921,0.085-1.383,0.085c-0.06,0-0.118,0-0.186,0c-0.066,0-0.133,0-0.207,0
	c-1.386-0.058-2.685-0.41-3.896-1.062c-1.213-0.648-1.982-1.675-2.315-3.072c-0.044-0.203-0.077-0.399-0.1-0.588
	c-0.021-0.185-0.029-0.373-0.029-0.562c0-1.369,0.488-2.629,1.457-3.776c0.976-1.148,2.085-1.954,3.327-2.417
	c-0.144-0.185-0.263-0.377-0.358-0.572c-0.092-0.194-0.162-0.393-0.203-0.596c-0.015-0.1-0.029-0.198-0.048-0.292
	c-0.012-0.095-0.019-0.188-0.019-0.292c0-0.548,0.162-1.072,0.488-1.57c0.325-0.497,0.75-0.918,1.286-1.266
	c0.447-0.289,0.946-0.523,1.494-0.703c0.547-0.181,1.109-0.299,1.689-0.358c0.13-0.015,0.255-0.026,0.377-0.033
	c0.122-0.008,0.252-0.011,0.381-0.011c0.259,0,0.518,0.015,0.77,0.044c0.251,0.029,0.495,0.072,0.725,0.129
	c0.089,0.016,0.17,0.037,0.248,0.067c0.081,0.027,0.162,0.057,0.251,0.085c0.403,0.146,0.78,0.36,1.124,0.65
	c0.348,0.288,0.521,0.669,0.521,1.146c0,0.42-0.159,0.769-0.478,1.05c-0.317,0.281-0.684,0.424-1.105,0.424
	c-0.203,0-0.354-0.065-0.466-0.196c-0.106-0.128-0.151-0.265-0.137-0.41c0-0.146,0.045-0.274,0.151-0.391
	c0.097-0.114,0.248-0.174,0.451-0.174c0.016,0,0.033,0,0.056,0c0.019,0,0.041-0.007,0.056-0.021
	c0.085-0.014,0.159-0.045,0.215-0.097c0.059-0.052,0.088-0.111,0.088-0.185c0-0.03-0.011-0.054-0.021-0.076
	c-0.015-0.021-0.037-0.039-0.066-0.054c-0.074-0.085-0.17-0.151-0.293-0.195c-0.121-0.043-0.251-0.07-0.381-0.086
	c-0.1-0.015-0.195-0.025-0.292-0.033c-0.092-0.007-0.173-0.011-0.247-0.011c-0.751,0-1.435,0.304-2.045,0.909
	c-0.617,0.606-0.921,1.285-0.921,2.038c0,0.185,0.022,0.369,0.063,0.551c0.044,0.18,0.118,0.356,0.218,0.528
	c0.114,0.204,0.255,0.381,0.421,0.533c0.167,0.151,0.359,0.262,0.577,0.336c0.185,0.056,0.314,0.139,0.389,0.248
	c0.07,0.107,0.107,0.22,0.107,0.334c0,0.016,0,0.028,0,0.034c0,0.005,0,0.019,0,0.031c-0.016,0.131-0.074,0.249-0.174,0.356
	c-0.101,0.109-0.229,0.165-0.393,0.165c-0.011,0-0.029,0-0.052,0c-0.021,0-0.044-0.008-0.077-0.022
	c-0.056-0.015-0.118-0.026-0.182-0.033c-0.066-0.008-0.137-0.012-0.207-0.012s-0.144,0.004-0.214,0.012
	c-0.074,0.007-0.145,0.019-0.219,0.033c-0.362,0.074-0.706,0.22-1.039,0.443c-0.332,0.224-0.599,0.466-0.802,0.725
	c-0.329,0.405-0.592,0.871-0.78,1.398c-0.186,0.526-0.289,1.064-0.3,1.611c0,0.03,0,0.063,0,0.099c0,0.037,0,0.075,0,0.12
	c0,0.475,0.062,0.939,0.192,1.396c0.129,0.453,0.333,0.869,0.606,1.244c0.288,0.392,0.61,0.675,0.965,0.856
	c0.355,0.179,0.71,0.27,1.072,0.27c0.403,0,0.795-0.1,1.18-0.301c0.381-0.204,0.725-0.484,1.028-0.844
	c0.317-0.377,0.565-0.812,0.746-1.302c0.182-0.489,0.285-0.988,0.314-1.493c0.015-0.07,0.022-0.141,0.022-0.207
	c0-0.064,0-0.133,0-0.205c0-0.244-0.015-0.482-0.044-0.716c-0.03-0.229-0.078-0.46-0.152-0.691c-0.07,0.029-0.159,0.062-0.259,0.096
	c-0.104,0.037-0.196,0.085-0.281,0.141c-0.218,0.104-0.414,0.229-0.584,0.381c-0.174,0.151-0.263,0.327-0.263,0.531
	c0,0.015,0,0.031,0,0.054c0,0.021,0.008,0.04,0.022,0.053c0,0.016,0.004,0.032,0.011,0.056c0.008,0.021,0.012,0.039,0.012,0.052
	c0,0.017,0.007,0.039,0.021,0.068c0,0.014,0,0.026,0,0.041s0,0.029,0,0.044c0,0.159-0.069,0.296-0.207,0.411
	c-0.137,0.116-0.284,0.174-0.443,0.174c-0.059,0-0.107-0.008-0.162-0.022c-0.053-0.015-0.104-0.043-0.163-0.085
	c-0.229-0.219-0.403-0.453-0.518-0.706c-0.118-0.252-0.174-0.515-0.174-0.79c0-0.042,0-0.091,0-0.139c0-0.052,0.007-0.1,0.022-0.143
	c0.04-0.288,0.137-0.574,0.28-0.855c0.145-0.281,0.322-0.544,0.544-0.789c0.588-0.679,1.309-1.217,2.163-1.614
	c0.851-0.396,1.73-0.71,2.64-0.941c0.463-0.116,0.917-0.216,1.365-0.303c0.447-0.087,0.883-0.165,1.301-0.238
	c0.2-0.028,0.466-0.069,0.788-0.119c0.325-0.052,0.669-0.118,1.027-0.207c0.521-0.144,1.006-0.351,1.453-0.628
	c0.448-0.273,0.67-0.647,0.67-1.124c0-0.463-0.126-0.869-0.378-1.225c-0.255-0.353-0.617-0.58-1.09-0.682
	c-0.093-0.028-0.178-0.043-0.263-0.043s-0.174,0-0.259,0c-0.016,0-0.033,0-0.056,0s-0.048,0-0.078,0
	c-0.558,0.03-1.105,0.224-1.63,0.585c-0.529,0.362-0.939,0.779-1.225,1.255c-0.059,0.102-0.137,0.176-0.229,0.228
	c-0.093,0.052-0.189,0.077-0.293,0.077c-0.147,0-0.277-0.055-0.398-0.162c-0.122-0.109-0.186-0.244-0.186-0.403
	c0-0.056,0.008-0.112,0.019-0.17c0.019-0.06,0.048-0.118,0.089-0.176c0.403-0.679,0.973-1.248,1.701-1.71
	c0.729-0.461,1.497-0.693,2.304-0.693c0.059,0,0.118,0.006,0.185,0.013c0.066,0.006,0.129,0.01,0.185,0.01
	c0.06,0.017,0.118,0.025,0.185,0.033c0.067,0.005,0.126,0.019,0.186,0.031c0.632,0.129,1.198,0.462,1.686,0.996
	c0.492,0.534,0.736,1.141,0.736,1.817c0,0.03,0,0.056,0,0.078s0,0.048,0,0.075c0,0.028-0.004,0.054-0.008,0.076
	c-0.007,0.022-0.011,0.046-0.011,0.076C257.383,82.967,257.372,83.085,257.365,83.208z"/>
<path fill="#231203" d="M170.581,109.273c-0.207,0.096-0.424,0.158-0.648,0.191c-0.049,0-0.107,0.004-0.167,0.016
	c-0.062,0.007-0.126,0.011-0.196,0.011c-0.383,0-0.715-0.104-0.998-0.311c-0.285-0.207-0.425-0.551-0.425-1.035
	c0-0.296,0.073-0.511,0.23-0.651c0.157-0.137,0.32-0.21,0.494-0.232c0.015,0,0.029,0,0.037,0c0.009,0,0.021,0,0.04,0
	c0.188,0,0.354,0.059,0.492,0.17c0.141,0.114,0.207,0.281,0.207,0.503c0,0.022,0,0.044,0,0.081c0,0.033-0.008,0.066-0.026,0.104
	c0.224,0.019,0.43-0.07,0.61-0.263c0.18-0.188,0.29-0.396,0.322-0.621c0-0.015,0-0.037,0-0.062c0-0.026,0-0.048,0-0.066
	c0-0.104-0.016-0.203-0.053-0.3c-0.034-0.093-0.094-0.178-0.181-0.244c-0.174-0.155-0.373-0.277-0.606-0.366
	c-0.234-0.085-0.472-0.144-0.714-0.177c-0.122-0.019-0.238-0.03-0.351-0.041c-0.111-0.008-0.221-0.011-0.326-0.011
	c-1.19,0-2.253,0.351-3.187,1.061c-0.936,0.71-1.78,1.486-2.54,2.333c-0.089,0.122-0.182,0.241-0.285,0.352
	c-0.107,0.111-0.199,0.219-0.285,0.325c1.33,0.759,2.285,1.778,2.866,3.059c0.576,1.279,1.064,2.603,1.46,3.967
	c0.037,0.07,0.063,0.141,0.08,0.207c0.017,0.07,0.033,0.141,0.05,0.211c0.105,0.344,0.207,0.695,0.314,1.047
	c0.1,0.358,0.214,0.706,0.336,1.05c0.052,0.178,0.141,0.3,0.271,0.377c0.131,0.078,0.273,0.118,0.431,0.118c0.017,0,0.033,0,0.05,0
	s0.037,0,0.052,0c0.192-0.019,0.37-0.089,0.544-0.207c0.173-0.122,0.295-0.27,0.361-0.439c0.056-0.141,0.145-0.248,0.274-0.325
	c0.129-0.078,0.266-0.119,0.402-0.119c0.138,0.019,0.263,0.06,0.376,0.119c0.112,0.059,0.197,0.158,0.246,0.299
	c0.053,0.137,0.092,0.277,0.118,0.426c0.025,0.147,0.036,0.288,0.036,0.429c0,0.569-0.17,1.102-0.518,1.597
	c-0.344,0.492-0.769,0.858-1.268,1.103c-0.348,0.17-0.714,0.314-1.105,0.425c-0.385,0.111-0.78,0.196-1.178,0.248
	c-0.12,0-0.246,0.004-0.376,0.011c-0.129,0.012-0.262,0.015-0.402,0.015c-0.812,0-1.581-0.17-2.308-0.506
	c-0.725-0.337-1.314-0.888-1.764-1.646c-0.379-0.677-0.699-1.376-0.959-2.101c-0.26-0.729-0.474-1.472-0.646-2.233
	c-0.02-0.033-0.033-0.07-0.039-0.114c-0.01-0.045-0.014-0.081-0.014-0.118c-0.139-0.499-0.325-0.962-0.559-1.387
	c-0.231-0.422-0.643-0.681-1.231-0.766c-0.087-0.015-0.161,0.015-0.221,0.089c-0.061,0.081-0.11,0.163-0.142,0.251
	c-0.019,0.016-0.029,0.041-0.04,0.074c-0.008,0.037-0.014,0.063-0.014,0.078l-1.371,5.964c-0.02,0.122-0.053,0.236-0.104,0.34
	s-0.104,0.207-0.157,0.311c0.018,0,0.033,0,0.04,0c0.009,0,0.021,0,0.04,0c0.517,0,0.976-0.037,1.372-0.118
	c0.398-0.077,0.77-0.34,1.115-0.787c0.086-0.122,0.182-0.207,0.286-0.248c0.103-0.044,0.204-0.066,0.309-0.066
	c0.191,0,0.352,0.066,0.481,0.196c0.13,0.129,0.195,0.288,0.195,0.477c0,0.037-0.007,0.078-0.013,0.118
	c-0.01,0.045-0.025,0.081-0.041,0.118c0,0.052-0.012,0.097-0.04,0.141c-0.022,0.045-0.056,0.085-0.089,0.118
	c-0.326,0.433-0.738,0.78-1.229,1.051c-0.496,0.266-1.019,0.402-1.572,0.402c-0.759,0-1.513,0-2.267,0c-0.75,0-1.51,0-2.27,0
	c-0.762,0-1.516,0-2.269,0c-0.751,0-1.508,0-2.268,0c-0.24,0-0.429-0.073-0.557-0.222c-0.132-0.147-0.195-0.307-0.195-0.48
	c0-0.019,0-0.029,0-0.037c0-0.011,0-0.022,0-0.041c0.019-0.155,0.091-0.299,0.221-0.429c0.131-0.129,0.307-0.192,0.531-0.192
	c0.277,0,0.531-0.096,0.765-0.284c0.233-0.192,0.386-0.418,0.454-0.677c0.278-1.172,0.55-2.348,0.818-3.513
	c0.268-1.165,0.54-2.337,0.816-3.517c0.26-1.157,0.522-2.322,0.79-3.498c0.266-1.176,0.54-2.344,0.815-3.501
	c0.035-0.118,0.069-0.233,0.104-0.337c0.033-0.104,0.087-0.207,0.156-0.311c-0.45,0-0.854,0.052-1.208,0.155
	s-0.687,0.352-0.998,0.751c-0.087,0.126-0.179,0.203-0.283,0.248c-0.103,0.04-0.207,0.066-0.312,0.066
	c-0.174,0-0.327-0.07-0.467-0.211c-0.138-0.137-0.207-0.292-0.207-0.466c0-0.037,0.004-0.074,0.012-0.115
	c0.01-0.044,0.021-0.092,0.039-0.144c0-0.033,0.014-0.074,0.039-0.118c0.028-0.041,0.056-0.082,0.091-0.115
	c0.329-0.433,0.743-0.784,1.245-1.05c0.499-0.27,1.02-0.403,1.556-0.403c0.759,0,1.518,0,2.268,0c0.754,0,1.508,0,2.269,0
	c0.759,0,1.518,0,2.269,0c0.753,0,1.508,0,2.269,0c0.242,0,0.43,0.074,0.56,0.219c0.128,0.151,0.19,0.317,0.19,0.506
	c0,0.174-0.062,0.329-0.19,0.47c-0.13,0.137-0.317,0.207-0.56,0.207c-0.343,0-0.674,0.052-0.985,0.155s-0.509,0.374-0.596,0.803
	c-0.103,0.437-0.207,0.865-0.31,1.298c-0.106,0.433-0.198,0.854-0.285,1.271c-0.106,0.433-0.205,0.861-0.3,1.295
	c-0.095,0.432-0.195,0.865-0.3,1.297c0.367-0.414,0.749-0.872,1.155-1.375c0.406-0.499,0.828-1.002,1.26-1.505
	c1.052-1.242,2.218-2.374,3.498-3.398c1.277-1.017,2.679-1.526,4.202-1.526c0.207,0,0.418,0.011,0.634,0.04
	c0.215,0.022,0.435,0.063,0.66,0.115c0.71,0.174,1.288,0.487,1.737,0.946c0.449,0.458,0.674,0.973,0.674,1.542
	c0,0.085-0.008,0.181-0.026,0.284c-0.017,0.107-0.044,0.2-0.077,0.285c-0.067,0.192-0.163,0.381-0.285,0.569
	c-0.122,0.196-0.285,0.385-0.495,0.573C170.97,109.062,170.786,109.176,170.581,109.273z"/>
<path fill="#231203" d="M185.643,113.757c0.074,0.271,0.104,0.521,0.104,0.762c-0.015,0.799-0.314,1.442-0.891,1.934
	c-0.584,0.492-1.224,0.792-1.934,0.899c-0.066,0-0.145,0-0.219,0.011c-0.077,0.008-0.151,0.015-0.222,0.015
	c-0.588-0.019-1.124-0.192-1.608-0.521s-0.77-0.854-0.854-1.582c0-0.015,0-0.026,0-0.037c0-0.008,0-0.022,0-0.041
	c0-0.188,0.078-0.344,0.233-0.466s0.329-0.181,0.518-0.181c0.104,0,0.203,0.025,0.3,0.077c0.092,0.052,0.177,0.122,0.244,0.207
	c0.104,0.155,0.226,0.267,0.362,0.34c0.141,0.067,0.28,0.101,0.418,0.101c0.015,0,0.036,0,0.062,0c0.025,0,0.048,0,0.066,0
	c0.311-0.048,0.599-0.226,0.869-0.518c0.266-0.292,0.425-0.614,0.48-0.962c0.015-0.029,0.025-0.066,0.025-0.1
	c0-0.037,0-0.07,0-0.104c-0.018-0.348-0.191-0.647-0.521-0.895c-0.329-0.256-0.898-0.37-1.712-0.352
	c-0.101,0-0.204,0.015-0.308,0.052c-0.106,0.033-0.218,0.077-0.34,0.13c-0.329,0.188-0.636,0.462-0.917,0.816
	c-0.288,0.355-0.474,0.74-0.562,1.154l-1.553,6.74c-0.019,0.122-0.052,0.236-0.104,0.34s-0.104,0.207-0.155,0.311
	c0.104,0,0.204,0,0.296,0c0.096,0,0.196,0.008,0.3,0.022c0.066,0,0.133,0,0.196,0c0.059,0,0.121,0,0.191,0
	c0.362,0.019,0.725,0,1.091-0.06c0.362-0.062,0.699-0.203,1.01-0.429c0.089-0.07,0.17-0.118,0.248-0.144
	c0.073-0.026,0.151-0.041,0.218-0.041c0.188,0.019,0.355,0.096,0.495,0.236c0.138,0.137,0.204,0.304,0.204,0.492
	c0,0.104-0.022,0.203-0.074,0.296c-0.056,0.096-0.141,0.188-0.263,0.273c-0.292,0.226-0.617,0.406-0.969,0.544
	c-0.354,0.14-0.725,0.21-1.105,0.21h-7.389c-0.174,0-0.333-0.073-0.479-0.222c-0.146-0.147-0.221-0.317-0.221-0.507
	c0-0.015,0.01-0.033,0.026-0.052c0-0.015,0-0.029,0-0.036c0-0.008,0-0.022,0-0.041c0.348-1.523,0.695-3.047,1.05-4.577
	c0.352-1.531,0.703-3.055,1.05-4.578c0.034-0.122,0.07-0.232,0.117-0.336c0.042-0.104,0.091-0.207,0.143-0.311
	c-0.311,0.018-0.612,0.11-0.906,0.284c-0.296,0.174-0.536,0.381-0.727,0.625c-0.087,0.118-0.184,0.203-0.287,0.244
	c-0.102,0.044-0.207,0.062-0.311,0.062c-0.174,0-0.327-0.066-0.466-0.207c-0.14-0.137-0.207-0.292-0.207-0.466
	c0-0.033,0.004-0.074,0.012-0.114c0.009-0.045,0.021-0.089,0.038-0.145c0-0.033,0.014-0.074,0.039-0.118
	c0.029-0.041,0.056-0.081,0.089-0.115c0.35-0.432,0.766-0.783,1.261-1.05c0.492-0.27,1.014-0.403,1.568-0.403
	c0.449,0,0.905,0,1.361,0c0.458,0,0.909,0,1.36,0c0.451,0.019,0.898,0.026,1.35,0.026s0.898,0,1.35,0
	c0.188,0,0.374-0.015,0.555-0.052c0.182-0.033,0.366-0.066,0.559-0.104c0.188-0.033,0.373-0.07,0.559-0.104
	c0.181-0.033,0.366-0.052,0.555-0.052c0.104,0,0.214,0.004,0.325,0.015c0.114,0.008,0.222,0.012,0.321,0.012
	c0.695,0.069,1.346,0.255,1.964,0.558c0.609,0.304,1.083,0.773,1.408,1.413C185.473,113.218,185.573,113.488,185.643,113.757z"/>
<path fill="#231203" d="M204.479,112.981c-0.229,0.196-0.385,0.437-0.455,0.714c-0.273,1.242-0.555,2.488-0.84,3.734
	c-0.284,1.242-0.576,2.488-0.868,3.73c-0.019,0.122-0.045,0.241-0.093,0.352c-0.041,0.115-0.093,0.222-0.141,0.325
	c0.377,0,0.732-0.085,1.05-0.247c0.318-0.163,0.592-0.393,0.817-0.688c0.066-0.085,0.137-0.147,0.207-0.191
	c0.066-0.045,0.133-0.082,0.207-0.119c0.033,0,0.066-0.003,0.104-0.015c0.033-0.007,0.066-0.011,0.104-0.011
	c0.188,0,0.359,0.07,0.507,0.207c0.145,0.137,0.211,0.314,0.192,0.518c0,0.07-0.012,0.151-0.037,0.236s-0.074,0.171-0.145,0.259
	c-0.329,0.433-0.75,0.792-1.271,1.076c-0.514,0.285-1.062,0.429-1.631,0.429h-5.68c-0.015,0-0.04,0-0.062,0
	c-0.025,0-0.048,0-0.066,0c-0.037,0-0.07,0-0.104,0s-0.066,0-0.104,0c-0.122,0-0.233-0.019-0.337-0.055
	c-0.104-0.034-0.192-0.093-0.259-0.178c-0.019-0.037-0.037-0.066-0.052-0.093c-0.019-0.025-0.037-0.056-0.052-0.092
	c-0.019-0.034-0.029-0.063-0.029-0.089c0-0.026,0-0.056,0-0.093c0-0.033,0.008-0.07,0.015-0.104
	c0.011-0.037,0.015-0.066,0.015-0.104c0.015-0.019,0.026-0.033,0.026-0.052c0-0.015,0.007-0.033,0.025-0.052
	c0-0.052,0.008-0.104,0.026-0.155c0.015-0.052,0.025-0.104,0.025-0.155c-0.569,0.348-1.183,0.621-1.841,0.828
	s-1.312,0.337-1.971,0.392c-0.067,0-0.141,0-0.207,0c-0.07,0-0.138,0-0.211,0c-0.792,0-1.568-0.151-2.318-0.454
	c-0.751-0.304-1.405-0.784-1.956-1.438c-0.381-0.47-0.658-0.973-0.828-1.52c-0.174-0.544-0.259-1.091-0.259-1.646
	c0-0.226,0.007-0.44,0.021-0.651c0.019-0.203,0.052-0.414,0.107-0.621c0.377-1.642,1.294-3.028,2.747-4.163
	c1.45-1.132,3.01-1.749,4.667-1.853c0.066,0,0.133,0,0.195,0c0.056,0,0.126,0,0.192,0c0.832,0,1.635,0.155,2.411,0.466
	c0.78,0.311,1.438,0.799,1.971,1.453c0.673-0.725,1.453-1.184,2.345-1.372c0.891-0.192,1.793-0.288,2.71-0.288
	c0.177,0,0.344,0.008,0.507,0.011c0.162,0.012,0.332,0.015,0.506,0.015c0.137,0,0.285,0,0.44,0s0.303,0,0.439,0
	c0.241,0,0.426,0.067,0.544,0.196c0.126,0.13,0.192,0.273,0.207,0.429c0,0.016,0,0.03,0,0.037c0,0.008,0,0.022,0,0.041
	c0,0.188-0.062,0.362-0.192,0.518c-0.133,0.155-0.317,0.232-0.559,0.232C204.966,112.681,204.711,112.782,204.479,112.981z
	 M196.87,113.447c-0.227-0.214-0.484-0.325-0.777-0.325c-0.118,0-0.247,0.019-0.388,0.052c-0.141,0.037-0.277,0.089-0.414,0.159
	c-0.211,0.104-0.414,0.229-0.625,0.388c-0.207,0.152-0.396,0.337-0.569,0.544c-0.019,0.015-0.029,0.029-0.037,0.037
	c-0.012,0.011-0.026,0.022-0.037,0.041c-0.352,0.396-0.684,0.898-1.002,1.505c-0.322,0.603-0.547,1.234-0.688,1.893
	c-0.033,0.188-0.063,0.385-0.089,0.584c-0.026,0.196-0.041,0.393-0.041,0.581c0,0.277,0.03,0.543,0.078,0.791
	c0.052,0.252,0.141,0.488,0.259,0.714c0.141,0.226,0.296,0.388,0.47,0.491c0.17,0.104,0.344,0.155,0.518,0.155
	c0.066,0,0.14,0,0.207-0.011c0.07-0.007,0.141-0.022,0.207-0.041c0.24-0.066,0.484-0.185,0.725-0.347
	c0.24-0.167,0.458-0.333,0.65-0.507c0.033-0.037,0.066-0.074,0.104-0.118c0.033-0.041,0.066-0.082,0.104-0.115
	c0.137-0.155,0.271-0.321,0.399-0.491c0.13-0.174,0.259-0.355,0.377-0.548c0.155-0.654,0.311-1.316,0.467-1.981
	c0.154-0.666,0.303-1.327,0.443-1.985c0.015-0.033,0.025-0.066,0.037-0.104c0.007-0.033,0.021-0.07,0.04-0.104
	c0-0.019,0.004-0.045,0.012-0.078c0.011-0.033,0.021-0.07,0.04-0.107C197.253,114.02,197.094,113.662,196.87,113.447z"/>
<path fill="#231203" d="M224.275,112.941c-0.207,0.191-0.336,0.406-0.388,0.65c-0.329,1.364-0.65,2.732-0.962,4.097
	c-0.307,1.364-0.621,2.729-0.932,4.097c-0.414,1.779-1.387,3.069-2.917,3.864c-1.531,0.795-3.165,1.254-4.91,1.372
	c-0.211,0.019-0.414,0.029-0.614,0.04c-0.196,0.008-0.399,0.012-0.606,0.012c-0.089,0-0.174,0-0.263,0c-0.085,0-0.173,0-0.259,0
	c-0.362-0.015-0.713-0.041-1.061-0.074c-0.348-0.037-0.685-0.081-1.014-0.133c-0.222-0.033-0.506-0.089-0.854-0.167
	c-0.344-0.077-0.707-0.177-1.088-0.299c-0.605-0.192-1.157-0.451-1.648-0.777c-0.492-0.332-0.736-0.743-0.736-1.246
	c0-0.051,0-0.104,0-0.154c0-0.053,0.008-0.104,0.022-0.156c0.037-0.207,0.122-0.358,0.263-0.454
	c0.137-0.093,0.284-0.141,0.439-0.141c0.171,0,0.329,0.06,0.467,0.181c0.137,0.119,0.207,0.293,0.207,0.518c0,0.016,0,0.034,0,0.053
	c0,0.018,0,0.033,0,0.051c0,0.016-0.004,0.037-0.012,0.053c-0.011,0.018-0.015,0.033-0.015,0.051
	c-0.015,0.053,0.07,0.13,0.263,0.233c0.188,0.107,0.447,0.218,0.776,0.337c0.348,0.141,0.706,0.255,1.076,0.351
	c0.369,0.093,0.735,0.159,1.102,0.196c0.137,0.015,0.267,0.029,0.389,0.037c0.118,0.007,0.243,0.015,0.362,0.015
	c0.414,0,0.82-0.044,1.22-0.13c0.396-0.088,0.776-0.236,1.143-0.443c0.1-0.07,0.2-0.133,0.296-0.192
	c0.093-0.062,0.185-0.118,0.273-0.17c0.414-0.311,0.691-0.621,0.84-0.932c0.147-0.314,0.273-0.702,0.381-1.169
	c0.029-0.121,0.062-0.247,0.088-0.373c0.026-0.133,0.056-0.273,0.089-0.429c-0.536,0.325-1.12,0.595-1.749,0.802
	c-0.632,0.207-1.275,0.329-1.93,0.363c-0.074,0-0.137,0-0.199,0c-0.06,0-0.122,0-0.192,0c-0.776,0-1.531-0.141-2.256-0.426
	c-0.725-0.288-1.356-0.75-1.894-1.391c-0.381-0.447-0.65-0.928-0.812-1.438c-0.167-0.511-0.248-1.024-0.248-1.542
	c0-0.037,0-0.066,0-0.093c0-0.025,0-0.056,0-0.089c0.033-1.006,0.329-1.975,0.88-2.917c0.555-0.943,1.235-1.724,2.049-2.348
	c0.569-0.448,1.209-0.814,1.919-1.091c0.71-0.274,1.423-0.448,2.148-0.519c0.14-0.015,0.277-0.029,0.406-0.036
	c0.129-0.008,0.252-0.015,0.377-0.015c0.795,0,1.55,0.144,2.267,0.429c0.718,0.284,1.343,0.758,1.879,1.412
	c0.691-0.743,1.479-1.194,2.358-1.36c0.884-0.163,1.79-0.248,2.722-0.248c0.107,0,0.215,0.008,0.325,0.011
	c0.115,0.012,0.222,0.015,0.325,0.015c0.141,0,0.277,0,0.414,0c0.141,0,0.274,0,0.415,0c0.295,0,0.514,0.07,0.661,0.208
	c0.148,0.14,0.219,0.303,0.219,0.495c0,0.015,0,0.029,0,0.037c0,0.011,0,0.021,0,0.037c-0.015,0.141-0.097,0.273-0.244,0.402
	c-0.148,0.134-0.341,0.204-0.585,0.223C224.708,112.648,224.482,112.751,224.275,112.941z M217.379,114.275
	c-0.019-0.04-0.029-0.081-0.029-0.114c-0.089-0.277-0.219-0.532-0.399-0.766c-0.182-0.236-0.426-0.351-0.739-0.351
	c-0.762,0-1.465,0.41-2.115,1.23c-0.644,0.825-1.109,1.728-1.383,2.711c-0.089,0.296-0.152,0.584-0.196,0.869
	c-0.044,0.284-0.066,0.558-0.066,0.816c0,0.277,0.025,0.536,0.077,0.78c0.056,0.24,0.13,0.455,0.237,0.647
	c0.137,0.226,0.284,0.388,0.439,0.491s0.318,0.155,0.492,0.155c0.118,0,0.24-0.015,0.362-0.052c0.122-0.033,0.244-0.085,0.362-0.155
	c0.244-0.122,0.477-0.277,0.698-0.466c0.227-0.192,0.434-0.388,0.625-0.599c0.141-0.155,0.271-0.304,0.393-0.451
	c0.118-0.147,0.214-0.281,0.281-0.403c0.033-0.188,0.073-0.381,0.118-0.569c0.044-0.188,0.081-0.381,0.114-0.569
	c0.037-0.141,0.066-0.273,0.093-0.403c0.025-0.133,0.059-0.255,0.089-0.377c0.07-0.396,0.155-0.787,0.247-1.18
	c0.097-0.388,0.2-0.765,0.325-1.127C217.405,114.361,217.394,114.32,217.379,114.275z"/>
<path fill="#231203" d="M236.876,117.666c-1.161,0.363-2.322,0.718-3.486,1.072c-0.045,0.016-0.093,0.033-0.138,0.06
	c-0.048,0.022-0.092,0.041-0.137,0.056c-0.062,0.019-0.125,0.041-0.195,0.07s-0.137,0.052-0.196,0.066
	c-0.077,0.033-0.151,0.056-0.233,0.07c-0.073,0.015-0.151,0.029-0.229,0.044c0.199,0.614,0.528,1.132,0.979,1.542
	c0.451,0.414,1.021,0.633,1.712,0.647c0.721,0.015,1.412-0.145,2.07-0.474s1.235-0.747,1.724-1.253
	c0.081-0.078,0.159-0.134,0.244-0.171c0.081-0.04,0.162-0.059,0.24-0.059c0.166,0,0.314,0.059,0.437,0.181
	c0.122,0.126,0.177,0.271,0.162,0.44c0,0.074-0.015,0.151-0.048,0.229c-0.029,0.077-0.081,0.151-0.159,0.229
	c-0.769,0.799-1.689,1.424-2.762,1.875c-1.072,0.455-2.167,0.725-3.291,0.817c-0.133,0.015-0.277,0.025-0.422,0.037
	c-0.144,0.004-0.288,0.011-0.425,0.011c-0.337,0-0.681-0.022-1.024-0.06c-0.344-0.036-0.68-0.096-1.002-0.174
	c-1.116-0.243-2.111-0.758-2.977-1.541c-0.865-0.78-1.302-1.753-1.302-2.922c0-0.151,0.012-0.311,0.037-0.469
	c0.022-0.163,0.048-0.318,0.082-0.474c0.458-1.964,1.489-3.343,3.091-4.142c1.601-0.795,3.324-1.209,5.165-1.242
	c0.015,0,0.026,0,0.045,0c0.015,0,0.029,0,0.048,0c1.161,0,2.192,0.271,3.076,0.807c0.892,0.536,1.52,1.379,1.89,2.528
	c0.015,0,0.026,0,0.033-0.011c0.011-0.008,0.022-0.011,0.037-0.011s0.029-0.008,0.044-0.022c0.03,0,0.056-0.004,0.07-0.011
	c0.012-0.008,0.037-0.012,0.066-0.012c0.016-0.019,0.037-0.022,0.063-0.022c0.022,0,0.037,0,0.056,0
	c0.181,0.016,0.329,0.082,0.436,0.204c0.107,0.126,0.163,0.27,0.163,0.439c0,0.122-0.037,0.237-0.118,0.344
	c-0.078,0.107-0.2,0.192-0.366,0.252C239.188,116.959,238.034,117.307,236.876,117.666z M235.346,113.687
	c-0.107-0.1-0.248-0.147-0.414-0.147c-0.814,0-1.442,0.307-1.887,0.917c-0.447,0.617-0.743,1.29-0.895,2.026
	c-0.048,0.247-0.081,0.484-0.092,0.714c-0.016,0.229-0.026,0.451-0.026,0.665c0.015,0,0.037,0,0.06-0.011
	c0.021-0.008,0.04-0.012,0.059-0.012c0.566-0.166,1.095-0.362,1.586-0.588c0.488-0.218,0.936-0.569,1.335-1.042
	c0.148-0.186,0.285-0.399,0.399-0.647c0.115-0.244,0.186-0.499,0.219-0.758c0.019-0.029,0.021-0.066,0.021-0.104
	c0-0.041,0-0.074,0-0.104c0-0.093-0.007-0.186-0.033-0.277c-0.021-0.093-0.048-0.182-0.081-0.273
	C235.538,113.906,235.453,113.788,235.346,113.687z"/>
<path fill="#231203" d="M256.044,122.743c-0.321,0.122-0.654,0.181-0.987,0.181c-0.369,0-0.732,0-1.091,0c-0.362,0-0.717,0-1.072,0
	c-0.536,0-1.076,0-1.619,0c-0.548,0-1.095,0-1.646,0c-0.185,0-0.337-0.066-0.447-0.207c-0.115-0.137-0.174-0.28-0.174-0.436
	c0-0.074,0.011-0.141,0.033-0.196c0.025-0.052,0.059-0.111,0.104-0.174c0.077-0.093,0.159-0.188,0.244-0.3
	c0.081-0.104,0.162-0.207,0.24-0.295c0.507-0.658,0.979-1.38,1.427-2.164c0.444-0.783,0.759-1.578,0.943-2.392
	c0.029-0.185,0.056-0.374,0.081-0.562c0.019-0.192,0.033-0.381,0.033-0.565c0-0.06,0-0.118,0-0.174c0-0.052-0.011-0.104-0.025-0.147
	c-0.015-0.293-0.089-0.552-0.219-0.784c-0.129-0.229-0.354-0.344-0.676-0.344c-0.093,0-0.182,0.007-0.263,0.021
	c-0.089,0.016-0.174,0.041-0.267,0.07c-0.263,0.078-0.514,0.192-0.762,0.345c-0.244,0.155-0.473,0.321-0.688,0.506
	c-0.078,0.06-0.145,0.118-0.207,0.174c-0.062,0.052-0.122,0.111-0.186,0.17c-0.106,0.478-0.218,0.95-0.321,1.417
	c-0.107,0.469-0.214,0.932-0.321,1.394c-0.107,0.474-0.215,0.942-0.322,1.412c-0.107,0.466-0.218,0.943-0.321,1.416
	c-0.019,0.06-0.041,0.126-0.07,0.192c-0.029,0.07-0.062,0.145-0.093,0.223c0.078-0.03,0.148-0.067,0.219-0.104
	c0.07-0.037,0.137-0.082,0.195-0.126c0.03-0.033,0.066-0.06,0.107-0.081c0.033-0.026,0.078-0.034,0.126-0.034
	c0.029-0.019,0.062-0.029,0.1-0.036c0.037-0.008,0.074-0.012,0.104-0.012c0.17,0,0.311,0.06,0.429,0.186
	c0.115,0.121,0.17,0.266,0.17,0.436c0,0.093-0.021,0.182-0.069,0.263c-0.045,0.085-0.115,0.167-0.208,0.244
	c-0.258,0.199-0.551,0.358-0.872,0.484c-0.321,0.122-0.65,0.181-0.991,0.181c-0.932,0-1.874,0-2.817,0c-0.942,0-1.882,0-2.817,0
	c-0.226,0-0.403-0.066-0.518-0.207c-0.115-0.137-0.163-0.28-0.148-0.436c0-0.152,0.06-0.292,0.174-0.414
	c0.115-0.122,0.281-0.182,0.492-0.182c0.019,0,0.041,0,0.07,0c0.229-0.033,0.437-0.133,0.625-0.303
	c0.181-0.167,0.296-0.352,0.34-0.551c0.141-0.566,0.273-1.136,0.403-1.701c0.129-0.569,0.259-1.136,0.381-1.705
	c0.137-0.551,0.27-1.109,0.403-1.679c0.129-0.565,0.255-1.135,0.377-1.7c0.029-0.111,0.066-0.211,0.107-0.3
	c0.036-0.093,0.077-0.185,0.125-0.277c-0.399,0-0.758,0.044-1.072,0.137c-0.314,0.097-0.599,0.318-0.861,0.669
	c-0.078,0.107-0.159,0.182-0.251,0.219c-0.093,0.037-0.186,0.056-0.277,0.056c-0.171,0-0.314-0.06-0.437-0.182
	s-0.186-0.27-0.186-0.437c0.016-0.077,0.034-0.151,0.06-0.222c0.022-0.066,0.06-0.133,0.1-0.196c0.308-0.381,0.681-0.691,1.12-0.932
	c0.437-0.236,0.899-0.354,1.391-0.354c0.888,0,1.778,0,2.666,0c0.892,0,1.778,0,2.67,0c0.17,0,0.311,0.066,0.437,0.196
	c0.122,0.129,0.185,0.28,0.185,0.447c0,0.015,0,0.029,0,0.044c-0.019,0.019-0.026,0.029-0.026,0.037c0,0.011,0,0.019,0,0.033
	c-0.015,0.048-0.025,0.093-0.033,0.13c-0.007,0.036-0.011,0.069-0.011,0.104c-0.015,0.029-0.025,0.066-0.033,0.104
	c-0.008,0.036-0.019,0.081-0.033,0.125c0.488-0.307,1.024-0.569,1.608-0.783c0.58-0.215,1.172-0.352,1.771-0.411
	c0.093,0,0.182-0.007,0.274-0.015c0.096-0.007,0.188-0.011,0.277-0.011c0.673,0,1.312,0.137,1.911,0.403
	c0.596,0.27,1.102,0.717,1.516,1.346c0.26,0.369,0.444,0.754,0.555,1.161c0.104,0.406,0.156,0.824,0.156,1.253
	c0,0.093,0,0.182-0.008,0.267s-0.012,0.17-0.012,0.266c-0.096,0.888-0.377,1.753-0.85,2.596c-0.478,0.847-1.014,1.568-1.612,2.167
	c0.185,0,0.354-0.019,0.518-0.048s0.318-0.085,0.47-0.163c0.048-0.029,0.096-0.059,0.151-0.092c0.052-0.026,0.104-0.06,0.147-0.089
	c0.078-0.063,0.156-0.107,0.233-0.13c0.074-0.021,0.145-0.033,0.207-0.033c0.167,0,0.307,0.06,0.425,0.186
	c0.115,0.121,0.174,0.266,0.174,0.436c0,0.093-0.021,0.182-0.059,0.263c-0.037,0.085-0.111,0.167-0.219,0.244
	C256.659,122.458,256.366,122.617,256.044,122.743z"/>
</svg>
